<svg width="69" height="81" viewBox="0 0 69 81" fill="none" xmlns="http://www.w3.org/2000/svg">
<path d="M31.4542 16.2649C30.4475 15.2578 29.1229 14.631 27.7061 14.4914C26.2893 14.3518 24.8679 14.7079 23.6841 15.4992C22.5003 16.2904 21.6275 17.4678 21.2142 18.8307C20.8009 20.1935 20.8727 21.6576 21.4175 22.9734C21.9623 24.2893 22.9463 25.3754 24.2019 26.0468C25.4575 26.7182 26.9069 26.9333 28.3032 26.6555C29.6996 26.3776 30.9564 25.6241 31.8596 24.5232C32.7628 23.4222 33.2565 22.0421 33.2565 20.6179C33.2575 19.8093 33.0988 19.0085 32.7895 18.2615C32.4802 17.5144 32.0264 16.8359 31.4542 16.2649ZM27.1028 13.207C28.8169 13.2069 30.478 13.8014 31.8031 14.8892C33.1281 15.9769 34.0351 17.4907 34.3696 19.1724C34.7041 20.8542 34.4452 22.6 33.6373 24.1122C32.8293 25.6245 31.5221 26.8097 29.9385 27.4659C28.3549 28.1222 26.5929 28.2088 24.9526 27.711C23.3123 27.2133 21.8953 26.1619 20.943 24.7362C19.9908 23.3104 19.5621 21.5985 19.7302 19.892C19.8982 18.1855 20.6525 16.5901 21.8646 15.3777C22.5518 14.6885 23.3683 14.142 24.2672 13.7695C25.1661 13.3969 26.1298 13.2058 27.1028 13.207Z" fill="white"/>
<path d="M45.7524 16.2648C44.7457 15.2578 43.4211 14.631 42.0043 14.4914C40.5875 14.3518 39.1661 14.7079 37.9823 15.4992C36.7986 16.2904 35.9257 17.4678 35.5124 18.8306C35.0991 20.1935 35.171 21.6576 35.7157 22.9734C36.2605 24.2892 37.2446 25.3754 38.5001 26.0468C39.7557 26.7182 41.2051 26.9333 42.6015 26.6555C43.9978 26.3776 45.2546 25.6241 46.1578 24.5231C47.061 23.4222 47.5547 22.0421 47.5547 20.6179C47.5558 19.8093 47.3971 19.0084 47.0878 18.2614C46.7785 17.5144 46.3247 16.8358 45.7524 16.2648ZM41.401 13.207C43.1152 13.2064 44.7766 13.8005 46.102 14.8879C47.4274 15.9754 48.3348 17.489 48.6697 19.1708C49.0045 20.8526 48.7461 22.5985 47.9383 24.111C47.1306 25.6235 45.8235 26.809 44.24 27.4655C42.6564 28.122 40.8942 28.2088 39.2538 27.7112C37.6134 27.2136 36.1962 26.1624 35.2438 24.7366C34.2913 23.3109 33.8626 21.5988 34.0305 19.8922C34.1985 18.1857 34.9529 16.5902 36.165 15.3777C36.8519 14.6888 37.668 14.1424 38.5666 13.7699C39.4651 13.3974 40.4284 13.2061 41.401 13.207Z" fill="white"/>
<path d="M39.7594 27.5943C39.7207 27.5207 39.6972 27.4402 39.69 27.3574C39.6829 27.2747 39.6923 27.1913 39.7177 27.1122C39.7432 27.0332 39.7842 26.96 39.8383 26.8969C39.8924 26.8339 39.9585 26.7823 40.0328 26.7451C40.107 26.708 40.188 26.686 40.2708 26.6806C40.3537 26.6751 40.4368 26.6862 40.5153 26.7133C40.5939 26.7404 40.6662 26.7828 40.7281 26.8382C40.79 26.8936 40.8402 26.9608 40.8758 27.0358C41.4418 28.1658 41.7094 29.4218 41.6534 30.6844C41.5974 31.947 41.2196 33.1743 40.5558 34.2497C39.8921 35.3251 38.9644 36.2128 37.8611 36.8285C36.7577 37.4442 35.5153 37.7674 34.252 37.7674C32.9886 37.7674 31.7462 37.4442 30.6428 36.8285C29.5395 36.2128 28.6119 35.3251 27.9481 34.2497C27.2843 33.1743 26.9065 31.947 26.8505 30.6844C26.7945 29.4218 27.0622 28.1658 27.6281 27.0358C27.7041 26.8912 27.8338 26.7821 27.9893 26.732C28.1448 26.6819 28.3137 26.6948 28.4598 26.7679C28.6059 26.8409 28.7176 26.9684 28.7708 27.1229C28.824 27.2774 28.8146 27.4466 28.7445 27.5943C28.3298 28.4251 28.1083 29.339 28.0966 30.2676C28.0849 31.1962 28.2832 32.1154 28.6768 32.9564C29.0704 33.7975 29.649 34.5386 30.3694 35.1243C31.0898 35.71 31.9333 36.1251 32.8367 36.3386C33.7402 36.5521 34.6802 36.5585 35.5864 36.3572C36.4926 36.1558 37.3416 35.7521 38.0698 35.1761C38.798 34.6002 39.3866 33.8669 39.7915 33.0313C40.1964 32.1956 40.4071 31.2791 40.4078 30.3505C40.4076 29.8714 40.352 29.3939 40.2421 28.9276C40.1337 28.4651 39.9717 28.0169 39.7594 27.5921" fill="white"/>
<path d="M20.3206 22.9399C20.4218 22.9399 20.548 22.9436 20.6969 22.9509C20.8223 22.9576 20.9477 22.9671 21.0717 22.9796C21.2371 22.9958 21.3892 23.0771 21.4946 23.2056C21.6001 23.334 21.6502 23.4992 21.634 23.6646C21.6177 23.83 21.5364 23.9822 21.408 24.0877C21.2796 24.1932 21.1146 24.2433 20.9492 24.2271C20.8458 24.2168 20.7416 24.2087 20.6374 24.2036C20.5572 24.1992 20.4516 24.197 20.3206 24.197C19.1033 24.1968 17.9133 24.5578 16.9011 25.2343C15.8889 25.9107 15.0999 26.8723 14.634 27.9973C14.1681 29.1223 14.0462 30.3603 14.2836 31.5546C14.5211 32.749 15.1072 33.8461 15.968 34.7072C16.8288 35.5682 17.9254 36.1546 19.1193 36.3921C20.3132 36.6297 21.5507 36.5077 22.6753 36.0416C23.7999 35.5755 24.7611 34.7863 25.4373 33.7737C26.1135 32.7611 26.4744 31.5707 26.4742 30.353C26.4749 29.8838 26.4224 29.4161 26.318 28.9587C26.2131 28.504 26.0566 28.0628 25.8514 27.6437C25.7785 27.4947 25.7677 27.3229 25.8214 27.1659C25.8751 27.0089 25.989 26.8798 26.1379 26.8068C26.2868 26.7338 26.4586 26.723 26.6155 26.7767C26.7724 26.8305 26.9015 26.9444 26.9745 27.0933C27.6819 28.5393 27.8995 30.1764 27.5943 31.757C27.2892 33.3377 26.4778 34.7759 25.283 35.8543C24.0882 36.9327 22.5749 37.5927 20.9719 37.7343C19.3688 37.8759 17.7633 37.4916 16.3981 36.6394C15.0328 35.7872 13.982 34.5135 13.4046 33.0108C12.8272 31.5081 12.7545 29.8583 13.1977 28.3106C13.6408 26.763 14.5756 25.4018 15.8607 24.4328C17.1458 23.4639 18.7113 22.9398 20.3206 22.9399Z" fill="white"/>
<path d="M48.1811 22.9397C49.7914 22.9386 51.3583 23.4622 52.6447 24.4312C53.9312 25.4002 54.8672 26.7619 55.3112 28.3104C55.7552 29.8589 55.6831 31.5099 55.1057 33.0137C54.5283 34.5176 53.477 35.7924 52.1109 36.6454C50.7449 37.4983 49.1383 37.8831 47.5342 37.7414C45.9301 37.5997 44.4158 36.9393 43.2202 35.8601C42.0247 34.7809 41.213 33.3415 40.9079 31.7597C40.6028 30.178 40.821 28.5398 41.5293 27.0931C41.5654 27.0194 41.6155 26.9536 41.677 26.8993C41.7385 26.845 41.81 26.8034 41.8876 26.7768C41.9651 26.7502 42.0472 26.7391 42.129 26.7442C42.2108 26.7493 42.2908 26.7705 42.3645 26.8066C42.4381 26.8426 42.5039 26.8928 42.5582 26.9543C42.6125 27.0158 42.6541 27.0874 42.6807 27.1649C42.7073 27.2425 42.7183 27.3246 42.7132 27.4064C42.7081 27.4883 42.687 27.5683 42.6509 27.642C42.0613 28.8443 41.879 30.206 42.1318 31.5211C42.3846 32.8362 43.0586 34.0332 44.052 34.9309C45.0453 35.8287 46.3039 36.3785 47.6373 36.497C48.9707 36.6155 50.3065 36.2964 51.4425 35.5879C52.5785 34.8795 53.453 33.8201 53.9336 32.5702C54.4142 31.3203 54.4749 29.9478 54.1064 28.6604C53.7379 27.3729 52.9603 26.2405 51.8912 25.4345C50.8222 24.6285 49.5198 24.1927 48.1811 24.1931C48.0505 24.1931 47.9449 24.1931 47.8649 24.1997C47.7608 24.2048 47.6566 24.2129 47.5532 24.2232C47.3878 24.2394 47.2228 24.1893 47.0943 24.0838C46.9659 23.9783 46.8847 23.8261 46.8684 23.6607C46.8522 23.4953 46.9023 23.3301 47.0077 23.2017C47.1132 23.0732 47.2653 22.9919 47.4307 22.9757C47.5546 22.9632 47.6801 22.9536 47.8055 22.947C47.9522 22.9397 48.0806 22.936 48.1811 22.936" fill="white"/>
<path d="M32.856 37.31C32.8009 37.1564 32.808 36.9873 32.8759 36.8389C32.9437 36.6905 33.0668 36.5745 33.219 36.5157C33.3712 36.4568 33.5403 36.4599 33.6903 36.5241C33.8402 36.5883 33.9591 36.7087 34.0216 36.8595C34.1882 37.287 34.3144 37.7292 34.3986 38.1803C34.6017 39.2508 34.5663 40.3528 34.295 41.408C34.0238 42.4632 33.5233 43.4456 32.8292 44.2852C32.1351 45.1248 31.2645 45.801 30.2794 46.2657C29.2943 46.7303 28.2189 46.972 27.1298 46.9735C26.0407 46.975 24.9647 46.7362 23.9783 46.2743C22.992 45.8123 22.1195 45.1384 21.4232 44.3007C20.7268 43.463 20.2237 42.482 19.9495 41.4275C19.6754 40.3731 19.637 39.2711 19.8371 38.2001C19.9189 37.7556 20.0417 37.3195 20.2039 36.8976C20.2331 36.8211 20.2772 36.751 20.3335 36.6915C20.3898 36.6319 20.4572 36.584 20.532 36.5506C20.6068 36.5171 20.6875 36.4987 20.7694 36.4965C20.8513 36.4942 20.9328 36.5081 21.0093 36.5373C21.0859 36.5666 21.1559 36.6106 21.2154 36.6669C21.2749 36.7232 21.3228 36.7907 21.3562 36.8656C21.3897 36.9404 21.4081 37.0211 21.4103 37.103C21.4126 37.1849 21.3987 37.2665 21.3695 37.343C21.2351 37.6938 21.1332 38.0561 21.0651 38.4254C20.998 38.7969 20.9646 39.1736 20.9653 39.5511C20.9662 40.4556 21.1662 41.3488 21.5512 42.1672C21.9363 42.9856 22.4968 43.7091 23.193 44.2862C23.8892 44.8633 24.704 45.2798 25.5794 45.5062C26.4548 45.7326 27.3692 45.7632 28.2578 45.596C29.1464 45.4287 29.9872 45.0676 30.7204 44.5384C31.4537 44.0092 32.0614 43.3249 32.5003 42.5342C32.9392 41.7434 33.1986 40.8656 33.2599 39.9632C33.3213 39.0608 33.1831 38.1559 32.8553 37.313" fill="white"/>
<path d="M47.1336 37.3405C47.0746 37.1859 47.0793 37.0141 47.1469 36.863C47.2144 36.7119 47.3392 36.5938 47.4938 36.5348C47.6484 36.4757 47.82 36.4805 47.9711 36.5481C48.1221 36.6156 48.2402 36.7405 48.2992 36.8951C48.4614 37.317 48.5842 37.753 48.666 38.1976C48.8661 39.2686 48.8277 40.3705 48.5536 41.425C48.2794 42.4794 47.7763 43.4604 47.0799 44.2982C46.3836 45.1359 45.5112 45.8097 44.5248 46.2717C43.5384 46.7337 42.4624 46.9725 41.3733 46.971C40.2842 46.9695 39.2088 46.7278 38.2237 46.2632C37.2386 45.7985 36.368 45.1223 35.6739 44.2826C34.9799 43.443 34.4794 42.4606 34.2081 41.4055C33.9368 40.3503 33.9014 39.2482 34.1045 38.1778C34.1887 37.7267 34.3149 37.2845 34.4815 36.8569C34.5111 36.7804 34.5554 36.7105 34.612 36.6511C34.6686 36.5917 34.7364 36.5441 34.8113 36.5109C34.8863 36.4777 34.9671 36.4596 35.0491 36.4577C35.1311 36.4557 35.2127 36.47 35.2891 36.4996C35.3656 36.5291 35.4355 36.5735 35.4949 36.6301C35.5542 36.6867 35.6019 36.7545 35.635 36.8295C35.6682 36.9045 35.6863 36.9854 35.6882 37.0674C35.6902 37.1494 35.676 37.231 35.6464 37.3075C35.3036 38.1943 35.171 39.1486 35.2588 40.0953C35.3466 41.0421 35.6525 41.9556 36.1524 42.7642C36.6524 43.5729 37.3329 44.2546 38.1404 44.756C38.948 45.2574 39.8607 45.5648 40.807 45.6541C41.7532 45.7434 42.7073 45.6121 43.5943 45.2706C44.4814 44.9291 45.2773 44.3867 45.9195 43.6858C46.5618 42.985 47.0331 42.1448 47.2963 41.2311C47.5595 40.3175 47.6075 39.3553 47.4366 38.42C47.369 38.0505 47.2673 37.6882 47.1329 37.3376" fill="white"/>
<path d="M40.1885 46.4706C40.1654 46.391 40.1583 46.3075 40.1678 46.2252C40.1772 46.1428 40.203 46.0632 40.2435 45.9909C40.284 45.9186 40.3386 45.8551 40.4039 45.8041C40.4692 45.7531 40.544 45.7156 40.624 45.6938C40.7039 45.672 40.7874 45.6664 40.8696 45.6772C40.9517 45.6881 41.0309 45.7152 41.1025 45.7569C41.1741 45.7987 41.2366 45.8543 41.2865 45.9205C41.3364 45.9867 41.3726 46.0622 41.393 46.1426C41.4816 46.4613 41.5485 46.7856 41.5932 47.1134C41.6378 47.4432 41.6603 47.7756 41.6607 48.1084C41.6607 50.0741 40.8802 51.9593 39.4907 53.3492C38.1013 54.7391 36.2169 55.52 34.252 55.52C32.287 55.52 30.4026 54.7391 29.0132 53.3492C27.6238 51.9593 26.8432 50.0741 26.8432 48.1084C26.8439 47.7756 26.8667 47.4432 26.9114 47.1134C26.9557 46.7854 27.0221 46.4608 27.1102 46.1418C27.1537 45.9818 27.2589 45.8457 27.4027 45.7633C27.5466 45.681 27.7172 45.6591 27.8771 45.7026C28.037 45.7461 28.1731 45.8514 28.2555 45.9953C28.3378 46.1391 28.3596 46.3099 28.3162 46.4698C28.2437 46.7349 28.189 47.0046 28.1526 47.277C28.1163 47.5517 28.0984 47.8285 28.099 48.1055C28.099 49.7382 28.7474 51.304 29.9014 52.4585C31.0554 53.6129 32.6206 54.2615 34.2527 54.2615C35.8847 54.2615 37.45 53.6129 38.604 52.4585C39.758 51.304 40.4064 49.7382 40.4064 48.1055C40.407 47.8285 40.3891 47.5517 40.3528 47.277C40.3165 47.0046 40.2618 46.7349 40.1892 46.4698" fill="white"/>
<path d="M34.5351 15.9174C34.5162 16.0768 34.4369 16.2229 34.3135 16.3255C34.19 16.4281 34.0319 16.4793 33.8718 16.4685C33.7117 16.4578 33.5618 16.3859 33.4532 16.2678C33.3445 16.1496 33.2854 15.9942 33.288 15.8337C33.2895 15.7926 34.1954 1.55659 43.2803 0.00896836C43.4421 -0.0145614 43.6066 0.0260631 43.7388 0.122175C43.871 0.218287 43.9604 0.362275 43.988 0.52342C44.0155 0.684564 43.9791 0.850107 43.8863 0.984725C43.7936 1.11934 43.6519 1.21238 43.4916 1.24398C35.3823 2.62649 34.5351 15.8792 34.5321 15.9203" fill="white"/>
<path d="M29.9365 10.7723C31.1005 11.0052 32.3032 10.9587 33.4458 10.6365C33.6209 9.46058 33.5141 8.25981 33.134 7.1333C32.7129 5.89738 31.9754 4.79345 30.9949 3.93156C30.0144 3.06967 28.8252 2.47993 27.5459 2.22112C26.3819 1.98787 25.1791 2.03439 24.0366 2.35688C23.8618 3.53188 23.9687 4.73161 24.3484 5.85719C24.7693 7.09329 25.5067 8.1974 26.4873 9.05944C27.4678 9.92147 28.657 10.5113 29.9365 10.7701M34.1492 11.7241C32.7023 12.2038 31.1549 12.2952 29.6616 11.9892C28.1683 11.6832 26.7815 10.9904 25.6398 9.98012C24.498 8.96986 23.6413 7.6775 23.1553 6.23221C22.6693 4.78692 22.571 3.23934 22.8703 1.74414C22.8936 1.62754 22.9496 1.51998 23.0317 1.43397C23.1137 1.34796 23.2185 1.28706 23.3339 1.25836C24.7812 0.778461 26.329 0.687088 27.8226 0.993377C29.3163 1.29967 30.7034 1.99288 31.8452 3.00369C32.987 4.01451 33.8435 5.30749 34.329 6.75335C34.8146 8.1992 34.9122 9.74725 34.6121 11.2427C34.5889 11.3591 34.533 11.4666 34.4511 11.5524C34.3691 11.6383 34.2644 11.6991 34.1492 11.7277V11.7241Z" fill="white"/>
<path d="M26.8755 5.68997C26.8117 5.63621 26.7592 5.57026 26.7213 5.49598C26.6833 5.42169 26.6605 5.34057 26.6543 5.25737C26.6481 5.17417 26.6586 5.09056 26.6851 5.01145C26.7116 4.93235 26.7536 4.85933 26.8087 4.7967C26.8638 4.73406 26.9309 4.68305 27.0059 4.64668C27.081 4.6103 27.1625 4.58929 27.2458 4.58487C27.3291 4.58044 27.4124 4.5927 27.4909 4.62092C27.5694 4.64914 27.6415 4.69276 27.7029 4.74921L34.4118 10.6491C34.4736 10.7035 34.524 10.7695 34.5603 10.8434C34.5965 10.9173 34.6178 10.9976 34.6231 11.0798C34.6283 11.1619 34.6172 11.2443 34.5906 11.3222C34.564 11.4001 34.5223 11.472 34.468 11.5337C34.4136 11.5955 34.3476 11.6459 34.2737 11.6822C34.1998 11.7184 34.1196 11.7398 34.0374 11.745C33.9553 11.7502 33.873 11.7392 33.7951 11.7126C33.7173 11.686 33.6454 11.6443 33.5837 11.5899L26.8755 5.68997Z" fill="white"/>
<path d="M7.85547 63.3688H7.68675C7.46838 62.7837 7.07589 62.2797 6.56224 61.9247C6.02308 61.5503 5.37939 61.3561 4.72325 61.3699C4.18141 61.3699 3.73028 61.4861 3.36987 61.7185C3.0128 61.9475 2.72295 62.2674 2.52996 62.6453C2.32811 63.039 2.18807 63.4615 2.11478 63.8979C2.03553 64.3685 1.99675 64.845 1.99888 65.3222C1.99888 66.5614 2.24584 67.5137 2.73976 68.179C3.23367 68.8443 3.89875 69.1765 4.73499 69.1755C5.336 69.1755 5.71182 69.0865 5.86244 68.9084C6.01306 68.7303 6.08861 68.4666 6.0891 68.1173V67.1296C6.09126 66.9541 6.07553 66.7788 6.04216 66.6064C6.00627 66.4466 5.9223 66.3017 5.80156 66.1911C5.67196 66.0649 5.47635 65.9942 5.21472 65.979V65.7985H8.78193V65.979C8.25867 66.0485 7.99704 66.3687 7.99704 66.9396V69.0258C7.08207 69.4441 6.04778 69.6535 4.89417 69.6539C4.47093 69.6571 4.04817 69.6249 3.63027 69.5578C3.28539 69.5019 2.947 69.4114 2.62019 69.2878C2.35983 69.1903 2.11051 69.0656 1.87638 68.9157C1.67472 68.7813 1.48435 68.6306 1.30715 68.4652C1.05718 68.2257 0.837667 67.9563 0.653569 67.6631C0.450042 67.3341 0.291646 66.9791 0.182635 66.6079C0.0569815 66.179 -0.00456773 65.7339 -1.6346e-05 65.287C-0.00765774 64.6786 0.109947 64.0751 0.345481 63.5141C0.570635 62.9858 0.904274 62.5108 1.32476 62.1198C1.74404 61.728 2.23665 61.423 2.77423 61.2224C3.60821 60.9208 4.50567 60.8387 5.3805 60.9839C5.62795 61.0304 6.04362 61.1312 6.62752 61.2862C6.82273 61.3493 7.02683 61.3805 7.23196 61.3787C7.46082 61.3787 7.61193 61.2278 7.68529 60.9259H7.854L7.85547 63.3688Z" fill="white"/>
<path d="M18.9877 65.5488H18.7141V68.2859C18.7141 68.6118 18.763 68.8549 18.8608 69.0154C18.9369 69.1585 19.0634 69.2684 19.2159 69.3236C19.3974 69.3743 19.5849 69.4007 19.7733 69.4021V69.5591H15.7513V69.3903C16.2003 69.3903 16.4888 69.2896 16.6169 69.088C16.745 68.8865 16.8089 68.6191 16.8084 68.2859V62.2877C16.8084 61.8768 16.7252 61.5872 16.559 61.4189C16.3927 61.2506 16.1237 61.1662 15.7521 61.1657V60.9955H20.1907C20.7171 60.9847 21.2405 61.0774 21.7312 61.2684C22.1362 61.4227 22.4873 61.6921 22.7412 62.0434C22.9746 62.3792 23.0967 62.7799 23.0904 63.1888C23.0974 63.5021 23.0264 63.8121 22.8839 64.0911C22.7414 64.3701 22.5318 64.6093 22.274 64.7871C22.019 64.9641 21.7375 65.0993 21.4399 65.1878C21.839 65.4402 22.2263 65.8859 22.6019 66.5248L23.6215 68.2603C23.7594 68.507 23.9211 68.7398 24.1042 68.9552C24.2118 69.0876 24.3438 69.1982 24.4929 69.281C24.6094 69.3343 24.7329 69.3704 24.8597 69.3881V69.5569H22.1016C21.8346 69.0726 21.6294 68.6871 21.4862 68.4004C21.0284 67.5052 20.6952 66.8831 20.4863 66.5343C20.2775 66.1855 20.0616 65.9336 19.8386 65.7785C19.6156 65.6229 19.332 65.5464 18.9877 65.5488ZM19.1792 61.4739H18.7141V65.0696H19.1036C19.7697 65.0696 20.2712 64.9099 20.6081 64.5904C20.9451 64.271 21.1138 63.8106 21.1143 63.2094C21.1238 62.8808 21.048 62.5554 20.8942 62.265C20.7448 62.0051 20.5167 61.7996 20.2428 61.6779C19.9074 61.5332 19.5443 61.4636 19.1792 61.4739Z" fill="white"/>
<path d="M36.691 60.9165L39.5672 68.3214C39.7222 68.7011 39.9041 68.9616 40.1129 69.103C40.3466 69.2541 40.6105 69.3523 40.8861 69.3906V69.5594H36.8304V69.3906C37.3839 69.3598 37.661 69.1854 37.6615 68.8674C37.659 68.7961 37.6501 68.7251 37.635 68.6553C37.6174 68.5643 37.5947 68.4675 37.5654 68.3618C37.536 68.2561 37.5177 68.196 37.5103 68.1732L36.7951 66.3541H34.2388L33.6292 68.1035C33.557 68.2849 33.5175 68.4777 33.5125 68.6729C33.5125 68.9361 33.5901 69.1135 33.7451 69.205C33.9156 69.3012 34.1032 69.3633 34.2974 69.3877V69.5565H31.73V69.3877C32.0153 69.3518 32.2798 69.2195 32.4797 69.0127C32.7115 68.7901 32.936 68.3804 33.1531 67.7836L35.5782 60.9165H36.691ZM34.4368 65.7868H36.5692L35.4689 62.9044L34.4368 65.7868Z" fill="white"/>
<path d="M50.6759 65.6766V68.2861C50.6759 68.6002 50.7282 68.8384 50.8329 69.0008C50.9234 69.1529 51.0672 69.2659 51.2363 69.3178C51.4226 69.3693 51.6153 69.394 51.8085 69.3912V69.56H47.7124V69.3912C47.9688 69.3957 48.2223 69.3367 48.4503 69.2195C48.6675 69.106 48.776 68.8416 48.776 68.4262V62.2886C48.776 61.8777 48.6897 61.588 48.5171 61.4198C48.3445 61.2515 48.0755 61.1671 47.7102 61.1666V60.9956H52.2479C52.8758 60.9956 53.3893 61.1147 53.7883 61.353C54.1874 61.5912 54.4703 61.8867 54.637 62.2394C54.801 62.5804 54.8865 62.9537 54.8872 63.3321C54.8872 63.7724 54.795 64.1434 54.6106 64.4453C54.4486 64.7212 54.2322 64.9614 53.9746 65.1512C53.6932 65.354 53.3787 65.5064 53.0452 65.6018C52.7029 65.6996 52.2457 65.7485 51.6735 65.7485C51.3399 65.7441 51.0067 65.7201 50.6759 65.6766ZM50.6759 61.5262V65.2114C50.8608 65.253 51.0497 65.2744 51.2393 65.2752C51.6652 65.2752 52.011 65.1718 52.2765 64.9648C52.5337 64.7686 52.7269 64.5004 52.8318 64.1943C52.9341 63.899 52.9869 63.5888 52.988 63.2763C52.9922 62.9722 52.9338 62.6704 52.8164 62.3899C52.6971 62.1167 52.4976 61.8863 52.2442 61.7294C51.9787 61.5587 51.6349 61.4733 51.2129 61.4733C51.0327 61.4759 50.8531 61.4935 50.6759 61.5262Z" fill="white"/>
<path d="M68.107 60.9956L68.1804 62.9131H68.0117C67.9504 62.6402 67.864 62.3737 67.7534 62.1169C67.6693 61.9205 67.5286 61.7537 67.3493 61.6377C67.1757 61.5266 66.9375 61.4714 66.6348 61.4719H64.9095V65.0676H66.2864C66.6967 65.0676 66.9959 64.9766 67.1842 64.7946C67.3725 64.6126 67.4818 64.3435 67.5121 63.9874H67.6808V66.4992H67.5121C67.4544 66.1196 67.3131 65.8659 67.0881 65.7383C66.8422 65.6053 66.5658 65.5393 66.2864 65.5467H64.9095V68.0109C64.9095 68.7242 65.2763 69.0806 66.0098 69.0801H66.5336C66.8277 69.0902 67.121 69.0428 67.3969 68.9406C67.626 68.842 67.8188 68.6745 67.9486 68.4615C68.1245 68.1611 68.2566 67.8371 68.341 67.4994H68.5097L68.3813 69.5541H61.9321V69.3853C62.382 69.3853 62.6725 69.2836 62.8035 69.0801C62.9346 68.8766 63.0006 68.6102 63.0016 68.2809V62.2827C63.0103 62.0063 62.9482 61.7322 62.8211 61.4865C62.7008 61.2693 62.4238 61.1607 61.99 61.1607H61.9321V60.9956H68.107Z" fill="white"/>
<path d="M22.7023 75.3931L22.7757 76.2003H22.6862C22.6527 76.0941 22.6088 75.9916 22.5549 75.8943C22.5032 75.8159 22.4294 75.7546 22.3429 75.7182C22.2107 75.6637 22.0683 75.6387 21.9255 75.6448H21.0328V77.5101H21.8089C21.9667 77.5115 22.1216 77.468 22.2556 77.3846C22.3906 77.301 22.4639 77.1498 22.4757 76.9312H22.5718V78.252H22.4757C22.4678 78.1218 22.4131 77.9987 22.3216 77.9057C22.2287 77.8112 22.0842 77.7638 21.8881 77.7633H21.0328V79.2735C21.0259 79.4239 21.0681 79.5726 21.1531 79.6969C21.2338 79.806 21.379 79.8608 21.5888 79.8613H21.6204V79.9508H19.4615V79.8613C19.6943 79.8613 19.8454 79.8087 19.9149 79.7035C19.9902 79.5732 20.0261 79.4238 20.0183 79.2735V76.0682C20.0222 75.925 19.9907 75.7831 19.9266 75.655C19.8655 75.5406 19.7207 75.4833 19.4924 75.4833H19.4615V75.3938L22.7023 75.3931Z" fill="white"/>
<path d="M27.119 77.8153H26.9723V79.2726C26.9627 79.4062 26.988 79.54 27.0457 79.6608C27.0861 79.7368 27.1533 79.7951 27.2342 79.8245C27.3296 79.8517 27.4284 79.8658 27.5276 79.8663V79.95H25.3959V79.8604C25.6351 79.8604 25.7889 79.8069 25.8573 79.6997C25.9307 79.5697 25.966 79.4217 25.9593 79.2726V76.0798C25.9593 75.8611 25.9148 75.707 25.8258 75.6175C25.7378 75.5272 25.594 75.4825 25.3959 75.4825V75.393H27.7587C28.039 75.3877 28.3176 75.4376 28.5788 75.5397C28.7943 75.6215 28.9812 75.7646 29.1164 75.9514C29.2408 76.1299 29.3057 76.343 29.302 76.5605C29.3059 76.7272 29.2682 76.8924 29.1924 77.0409C29.1166 77.1895 29.005 77.3169 28.8678 77.4117C28.733 77.5052 28.5845 77.5773 28.4277 77.6252C28.6399 77.7588 28.846 77.9958 29.046 78.3363L29.5903 79.2616C29.6642 79.3917 29.7501 79.5146 29.8471 79.6285C29.9045 79.699 29.975 79.7578 30.0547 79.8017C30.1163 79.8303 30.1818 79.8496 30.249 79.859V79.9485H28.782C28.6396 79.6907 28.5304 79.4855 28.4541 79.3328C28.2096 78.8568 28.032 78.5259 27.9215 78.34C27.836 78.1832 27.7186 78.0462 27.5767 77.9378C27.4408 77.8499 27.2807 77.807 27.119 77.8153ZM27.221 75.6469H26.9738V77.5614H27.1806C27.5349 77.5614 27.8027 77.4763 27.9817 77.306C28.1606 77.1358 28.2509 76.8914 28.2509 76.5722C28.2563 76.3974 28.2163 76.2243 28.135 76.0695C28.0556 75.9309 27.9344 75.821 27.7887 75.7555C27.6097 75.6783 27.4159 75.6412 27.221 75.6469Z" fill="white"/>
<path d="M36.1056 79.9501V79.0871H36.0917C35.7611 79.6966 35.2679 80.0014 34.6121 80.0014C34.299 80.0063 33.9904 79.9259 33.7194 79.7688C33.4737 79.632 33.2718 79.4285 33.137 79.1817C33.0049 78.9347 32.9389 78.5397 32.9389 77.9966V76.0784C32.9496 75.9229 32.9088 75.7682 32.823 75.6382C32.7453 75.5374 32.5963 75.4885 32.3763 75.4914V75.4019H34.516V75.4914C34.2813 75.4914 34.1287 75.545 34.0583 75.6521C33.9826 75.7823 33.9461 75.9316 33.9534 76.0821V78.1148C33.9439 78.3558 33.9805 78.5964 34.0612 78.8236C34.1107 78.9451 34.1848 79.055 34.2787 79.1466C34.3726 79.2381 34.4843 79.3093 34.607 79.3557C34.7319 79.404 34.8647 79.4289 34.9987 79.429C35.2797 79.4303 35.5508 79.3254 35.7579 79.1355C35.8582 79.046 35.9386 78.9365 35.9941 78.8141C36.0689 78.6365 36.1061 78.3601 36.1056 77.9849V76.085C36.1056 75.8688 36.0623 75.7152 35.9758 75.6242C35.8892 75.5332 35.7449 75.488 35.543 75.4884V75.4048H37.6827V75.4943C37.4502 75.4943 37.2976 75.5472 37.2272 75.6521C37.1489 75.7824 37.1115 75.9332 37.1201 76.085V79.2845C37.1201 79.4865 37.1604 79.636 37.2411 79.7328C37.3218 79.8297 37.4685 79.8786 37.6812 79.8796V79.9633L36.1056 79.9501Z" fill="white"/>
<path d="M40.2061 75.4767V75.3931H42.3465V75.4826C42.1093 75.4826 41.9563 75.5367 41.8873 75.6448C41.8129 75.7749 41.777 75.9235 41.7839 76.0733V79.2728C41.7827 79.3643 41.792 79.4556 41.8118 79.545C41.8344 79.6329 41.8861 79.7105 41.9585 79.7652C42.0648 79.8383 42.1929 79.8728 42.3216 79.8628H42.3465V79.9523H40.2061V79.8628C40.4413 79.8628 40.5939 79.8092 40.6638 79.702C40.7398 79.573 40.7765 79.4246 40.7694 79.275V76.0755C40.7694 75.8656 40.7232 75.713 40.6315 75.6198C40.5398 75.5266 40.3982 75.4767 40.2061 75.4767Z" fill="white"/>
<path d="M45.3798 75.3929H48.5619C48.6865 75.3968 48.8108 75.3779 48.9286 75.3372H49.0181L49.0431 76.4078H48.9565C48.911 76.0947 48.8342 75.8951 48.7262 75.809C48.6125 75.7215 48.472 75.6761 48.3286 75.6806H47.4784V79.2763C47.4762 79.3792 47.4895 79.4819 47.518 79.5808C47.547 79.665 47.605 79.736 47.6816 79.7812C47.7924 79.8408 47.9177 79.8682 48.0433 79.8604V79.9499H45.8991V79.8604C46.1368 79.8604 46.2901 79.8068 46.3605 79.6997C46.4359 79.5704 46.4723 79.4221 46.4654 79.2726V75.6769H45.6152C45.5496 75.6746 45.4842 75.686 45.4231 75.7104C45.3621 75.7347 45.3069 75.7716 45.2609 75.8185C45.17 75.9103 45.0812 76.1062 44.9947 76.4056H44.8993L44.9235 75.335H45.0137C45.1312 75.3764 45.2552 75.3961 45.3798 75.3929Z" fill="white"/>
</svg>
