<svg width="88" height="80" viewBox="0 0 88 80" fill="none" xmlns="http://www.w3.org/2000/svg">
<path d="M49.0257 10.0351C47.8364 8.84757 46.2712 8.10831 44.5969 7.94327C42.9225 7.77823 41.2426 8.19763 39.8434 9.13C38.4442 10.0624 37.4124 11.45 36.9236 13.0564C36.4349 14.6629 36.5196 16.3887 37.1632 17.9399C37.8069 19.491 38.9696 20.7714 40.4534 21.563C41.9371 22.3545 43.6501 22.6082 45.3003 22.2808C46.9505 21.9533 48.4358 21.0651 49.5032 19.7673C50.5706 18.4696 51.1539 16.8427 51.1539 15.1639C51.1552 14.2112 50.9678 13.2678 50.6026 12.3876C50.2374 11.5074 49.7015 10.708 49.0257 10.0351ZM43.8857 6.58448C45.875 6.58398 47.8029 7.27178 49.341 8.53067C50.879 9.78957 51.932 11.5417 52.3205 13.4884C52.709 15.4351 52.4089 17.4561 51.4715 19.2068C50.534 20.9575 49.0172 22.3298 47.1795 23.0897C45.3417 23.8496 43.2967 23.9501 41.393 23.3741C39.4893 22.7982 37.8446 21.5814 36.7392 19.931C35.6339 18.2807 35.1362 16.299 35.331 14.3236C35.5259 12.3482 36.4011 10.5013 37.8077 9.09765C38.6051 8.30008 39.5525 7.66751 40.5955 7.23623C41.6385 6.80495 42.7567 6.58346 43.8857 6.58448Z" fill="white"/>
<path d="M46.5361 22.9363C46.4721 22.8772 46.4205 22.806 46.3841 22.7269C46.3477 22.6479 46.3273 22.5624 46.324 22.4755C46.3174 22.2999 46.381 22.1288 46.5007 22C46.6205 21.8712 46.7866 21.7951 46.9626 21.7885C47.1386 21.7819 47.31 21.8453 47.4391 21.9648C49.9407 24.2783 53.0819 28.0881 53.6302 32.9727C54.1784 37.8573 52.1425 43.7528 44.306 50.1923C44.1855 50.2914 44.0337 50.3447 43.8776 50.3429C43.7215 50.3412 43.571 50.2844 43.4528 50.1827C35.6252 43.7498 33.593 37.8528 34.1405 32.9757C34.688 28.0985 37.83 24.2812 40.3316 21.9648C40.3953 21.9056 40.4701 21.8595 40.5517 21.8292C40.6333 21.7989 40.72 21.7849 40.807 21.788C40.894 21.7912 40.9796 21.8114 41.0587 21.8475C41.1379 21.8836 41.2092 21.9349 41.2685 21.9985C41.3278 22.0621 41.3739 22.1368 41.4043 22.2182C41.4347 22.2996 41.4487 22.3861 41.4456 22.4729C41.4424 22.5597 41.4222 22.6451 41.386 22.7241C41.3498 22.8031 41.2984 22.8742 41.2346 22.9334C38.8967 25.0962 35.9622 28.6396 35.4594 33.1182C34.9655 37.5166 36.8191 42.8703 43.8857 48.8199C50.9523 42.8703 52.8052 37.5166 52.3113 33.1182C51.8085 28.6396 48.8747 25.0962 46.5361 22.9334" fill="white"/>
<path d="M36.6823 27.4571C36.6063 27.4117 36.5403 27.3516 36.488 27.2803C36.4358 27.209 36.3984 27.128 36.378 27.042C36.3577 26.9561 36.3549 26.8669 36.3697 26.7798C36.3845 26.6928 36.4167 26.6095 36.4643 26.5351C36.5119 26.4606 36.574 26.3964 36.6469 26.3463C36.7198 26.2962 36.802 26.2612 36.8887 26.2434C36.9754 26.2255 37.0648 26.2252 37.1516 26.2425C37.2384 26.2597 37.3209 26.2942 37.3941 26.3438C38.7777 27.2255 40.9959 28.2609 43.7786 28.2572C45.7231 28.2572 47.9531 27.7429 50.384 26.3126C50.5354 26.2264 50.7146 26.2031 50.8831 26.2477C51.0515 26.2924 51.1956 26.4013 51.2842 26.551C51.3728 26.7007 51.3988 26.8792 51.3566 27.0479C51.3144 27.2166 51.2074 27.362 51.0587 27.4527C48.4017 29.0158 45.9388 29.5754 43.7786 29.5784C40.6783 29.5784 38.2161 28.4346 36.6823 27.4571Z" fill="white"/>
<path d="M34.3577 35.2959C34.2111 35.1991 34.1091 35.0481 34.0741 34.8762C34.0391 34.7043 34.0739 34.5255 34.171 34.3793C34.268 34.233 34.4194 34.1312 34.5916 34.0963C34.7639 34.0613 34.9431 34.0961 35.0896 34.193C36.9084 35.3946 39.9202 36.885 43.7376 36.9488C46.3746 36.9926 49.405 36.3551 52.7092 34.4757C52.8621 34.3891 53.0432 34.3667 53.2127 34.4133C53.3822 34.4599 53.5262 34.5718 53.613 34.7244C53.6998 34.8769 53.7223 35.0577 53.6756 35.2268C53.6289 35.3959 53.5167 35.5396 53.3638 35.6262C49.8298 37.6376 46.5673 38.3175 43.7168 38.2693C39.5736 38.2002 36.3192 36.5926 34.3577 35.2959Z" fill="white"/>
<path d="M37.9149 44.4097C37.7496 44.3498 37.6148 44.2269 37.5403 44.068C37.4658 43.909 37.4577 43.727 37.5177 43.5621C37.5776 43.3971 37.7008 43.2627 37.8601 43.1883C38.0194 43.114 38.2018 43.1059 38.3671 43.1657C40.1383 43.8143 42.0134 44.1345 43.8999 44.1106C45.6197 44.0853 47.5024 43.7647 49.5167 42.9972C49.6805 42.9383 49.861 42.946 50.0192 43.0186C50.1774 43.0911 50.3008 43.2227 50.3627 43.3851C50.4246 43.5475 50.4201 43.7277 50.3503 43.8868C50.2804 44.0459 50.1507 44.1713 49.9891 44.236C47.8267 45.0577 45.7885 45.402 43.9155 45.4295C41.8697 45.4556 39.8362 45.1093 37.9149 44.4075" fill="white"/>
<path d="M56.4783 0.113561C56.5697 0.0636739 56.6718 0.0366745 56.7759 0.0348852C56.8912 0.0116005 57.0086 -8.62287e-05 57.1262 4.78939e-07C57.4598 0.000126164 57.7868 0.0930416 58.0703 0.268312C58.3539 0.443582 58.5829 0.694267 58.7316 0.992215C58.8803 1.29016 58.9428 1.62357 58.9121 1.95501C58.8814 2.28644 58.7587 2.60277 58.5578 2.86848C58.3569 3.13419 58.0857 3.33875 57.7748 3.45918C57.4638 3.57962 57.1253 3.61117 56.7974 3.55029C56.4694 3.48941 56.165 3.33851 55.9182 3.11453C55.6715 2.89055 55.4922 2.60237 55.4005 2.28234C53.3296 3.57307 49.902 5.95858 48.1852 8.54895C48.0855 8.68924 47.9351 8.78536 47.7657 8.81696C47.5964 8.84857 47.4213 8.81319 47.2776 8.71831C47.1339 8.62342 47.0328 8.47648 46.9958 8.30856C46.9587 8.14065 46.9886 7.96493 47.079 7.8186C49.4214 4.28783 54.6016 1.17865 56.0796 0.336969C56.1903 0.257509 56.3096 0.19078 56.4352 0.138053L56.4783 0.113561ZM30.9925 0.0348852C31.0966 0.036763 31.1987 0.0637569 31.2901 0.113561L31.3354 0.138053C31.462 0.19073 31.582 0.257721 31.6932 0.337712C33.1727 1.18014 38.3507 4.28857 40.6938 7.8186C40.7909 7.96486 40.8258 8.1436 40.7907 8.31551C40.7557 8.48741 40.6537 8.6384 40.5071 8.73525C40.3605 8.8321 40.1814 8.86688 40.0091 8.83194C39.8368 8.797 39.6855 8.69521 39.5885 8.54895C37.8687 5.95858 34.4425 3.57604 32.3731 2.28234C32.2814 2.60237 32.1021 2.89055 31.8554 3.11453C31.6086 3.33851 31.3042 3.48941 30.9762 3.55029C30.6483 3.61117 30.3098 3.57962 29.9988 3.45918C29.6879 3.33875 29.4167 3.13419 29.2158 2.86848C29.0149 2.60277 28.8922 2.28644 28.8615 1.95501C28.8308 1.62357 28.8933 1.29016 29.042 0.992215C29.1907 0.694267 29.4197 0.443582 29.7033 0.268312C29.9869 0.0930416 30.3138 0.000126164 30.6474 4.78939e-07C30.764 7.69818e-05 30.8804 0.0117631 30.9948 0.0348852H30.9925Z" fill="white"/>
<path d="M37.8293 20.2797C37.9871 20.202 38.1694 20.1901 38.336 20.2466C38.5027 20.303 38.64 20.4232 38.7178 20.5807C38.7957 20.7381 38.8076 20.92 38.751 21.0863C38.6945 21.2526 38.574 21.3896 38.4162 21.4673C26.8463 27.1928 22.1259 33.2159 21.289 37.8838C20.8925 40.0889 21.3813 41.9764 22.4204 43.3533C23.4596 44.7301 25.038 45.5963 26.8374 45.7803C29.7176 46.0772 33.1542 44.6128 35.8484 40.6278C35.8973 40.5557 35.9599 40.4938 36.0326 40.4459C36.1054 40.3979 36.187 40.3647 36.2726 40.3481C36.3583 40.3316 36.4464 40.332 36.5318 40.3495C36.6173 40.3669 36.6985 40.4009 36.7708 40.4497C36.8431 40.4984 36.905 40.5609 36.9531 40.6335C37.0012 40.7061 37.0345 40.7875 37.0511 40.873C37.0677 40.9584 37.0672 41.0463 37.0497 41.1316C37.0323 41.2169 36.9982 41.2979 36.9493 41.37C33.9434 45.816 30.0241 47.4385 26.7028 47.0978C24.5322 46.8751 22.6168 45.8152 21.3612 44.1526C20.1056 42.49 19.5187 40.2507 19.9858 37.6522C20.8873 32.6318 25.8154 26.2279 37.8293 20.2841" fill="white"/>
<path d="M49.3441 21.4598C49.1863 21.3822 49.0658 21.2453 49.0092 21.0791C48.9526 20.9129 48.9644 20.731 49.0421 20.5736C49.1199 20.4161 49.2571 20.2959 49.4237 20.2393C49.5902 20.1828 49.7725 20.1947 49.9303 20.2722C61.9479 26.2197 66.876 32.6258 67.7783 37.647C68.2446 40.2447 67.6525 42.4915 66.4029 44.1474C65.1532 45.8033 63.2333 46.8699 61.0635 47.0925C57.7437 47.4332 53.8266 45.81 50.8214 41.3655C50.7228 41.2198 50.6862 41.041 50.7197 40.8684C50.7531 40.6958 50.854 40.5436 50.9999 40.4451C51.1459 40.3467 51.3251 40.3102 51.4981 40.3436C51.6711 40.377 51.8237 40.4776 51.9223 40.6233C54.6158 44.6075 58.0502 46.0705 60.9289 45.7751C62.7275 45.591 64.3104 44.7174 65.3436 43.348C66.3768 41.9786 66.8715 40.0822 66.475 37.8785C65.636 33.2092 60.9162 27.1838 49.3441 21.4568" fill="white"/>
<path d="M43.2207 49.6833C43.2177 49.5943 43.2327 49.5057 43.2648 49.4226C43.2968 49.3396 43.3453 49.2638 43.4073 49.1998C43.4693 49.1358 43.5436 49.085 43.6257 49.0502C43.7078 49.0155 43.7961 48.9976 43.8853 48.9976C43.9745 48.9976 44.0628 49.0155 44.145 49.0502C44.2271 49.085 44.3014 49.1358 44.3634 49.1998C44.4254 49.2638 44.4739 49.3396 44.5059 49.4226C44.538 49.5057 44.553 49.5943 44.55 49.6833V53.1977C44.5442 53.3698 44.4716 53.5329 44.3476 53.6525C44.2236 53.7722 44.0579 53.8391 43.8853 53.8391C43.7128 53.8391 43.5471 53.7722 43.423 53.6525C43.299 53.5329 43.2265 53.3698 43.2207 53.1977V49.6833Z" fill="white"/>
<path d="M37.7162 10.5417C37.6326 10.5134 37.5556 10.4689 37.4895 10.4105C37.4234 10.3522 37.3697 10.2813 37.3314 10.2019C37.2932 10.1226 37.2712 10.0364 37.2667 9.94853C37.2623 9.8606 37.2755 9.77268 37.3055 9.68991C37.3356 9.60714 37.3819 9.53119 37.4418 9.46652C37.5016 9.40185 37.5738 9.34976 37.6541 9.31329C37.7345 9.27683 37.8212 9.25674 37.9094 9.25418C37.9976 9.25163 38.0854 9.26667 38.1677 9.29843C38.8673 9.55224 39.4914 9.97794 39.9823 10.5362C40.4733 11.0944 40.8153 11.7671 40.9767 12.4922C41.1382 13.2172 41.1138 13.9711 40.9058 14.6843C40.6979 15.3974 40.3131 16.0468 39.7871 16.5722C39.3766 16.9832 38.8887 17.3092 38.3516 17.5315C37.8144 17.7537 37.2385 17.8679 36.657 17.8674C36.5885 17.8674 36.5015 17.8674 36.3981 17.8578H36.3855C36.2955 17.8526 36.2136 17.8459 36.1407 17.837C35.9659 17.8173 35.806 17.7291 35.6962 17.5918C35.5865 17.4545 35.536 17.2793 35.5557 17.1048C35.5754 16.9303 35.6638 16.7707 35.8014 16.6613C35.9391 16.5518 36.1146 16.5013 36.2895 16.521C36.4294 16.5344 36.5127 16.5388 36.6555 16.5418C37.385 16.5418 38.0912 16.2854 38.6501 15.8175C39.209 15.3496 39.5848 14.7002 39.7116 13.9834C39.8384 13.2665 39.708 12.528 39.3434 11.8975C38.9788 11.267 38.4032 10.7849 37.7177 10.5357" fill="white"/>
<path d="M51.4827 16.5271C51.5693 16.5174 51.657 16.5247 51.7407 16.5488C51.8244 16.5729 51.9026 16.6131 51.9708 16.6674C52.0389 16.7216 52.0957 16.7886 52.1378 16.8647C52.18 16.9408 52.2067 17.0245 52.2165 17.1109C52.2263 17.1973 52.2189 17.2848 52.1948 17.3683C52.1707 17.4519 52.1303 17.5299 52.076 17.5979C52.0216 17.6659 51.9544 17.7225 51.8782 17.7646C51.8019 17.8067 51.7181 17.8333 51.6315 17.8431C51.5571 17.852 51.4715 17.8594 51.3756 17.8646C51.2796 17.8698 51.1844 17.8743 51.1152 17.8743C50.5336 17.8748 49.9576 17.7606 49.4203 17.5383C48.883 17.3161 48.395 16.9901 47.9844 16.5791C47.4593 16.0532 47.0753 15.4038 46.868 14.6909C46.6606 13.9779 46.6365 13.2244 46.7978 12.4997C46.9592 11.775 47.3008 11.1025 47.7911 10.5442C48.2815 9.98597 48.9049 9.55988 49.6037 9.30527C49.686 9.27351 49.7738 9.25847 49.862 9.26102C49.9502 9.26357 50.037 9.28367 50.1173 9.32013C50.1976 9.3566 50.2698 9.40869 50.3297 9.47336C50.3895 9.53804 50.4359 9.61398 50.4659 9.69675C50.496 9.77952 50.5092 9.86744 50.5047 9.95537C50.5003 10.0433 50.4783 10.1294 50.44 10.2088C50.4018 10.2881 50.3481 10.359 50.282 10.4174C50.2159 10.4757 50.1388 10.5203 50.0552 10.5485C49.3754 10.8014 48.8059 11.2841 48.4456 11.9125C48.0854 12.5409 47.9572 13.2755 48.0834 13.9884C48.2096 14.7014 48.5821 15.3477 49.1363 15.815C49.6904 16.2823 50.3912 16.5411 51.1167 16.5464C51.2514 16.5464 51.3488 16.5382 51.4827 16.5256" fill="white"/>
<path d="M24.9265 34.4705C24.992 34.4134 25.068 34.3697 25.1504 34.3419C25.2328 34.3141 25.3198 34.3028 25.4066 34.3086C25.4933 34.3144 25.5781 34.3372 25.656 34.3757C25.734 34.4141 25.8035 34.4675 25.8608 34.5328C25.918 34.5982 25.9618 34.6741 25.9897 34.7563C26.0175 34.8385 26.0288 34.9253 26.023 35.0119C26.0172 35.0984 25.9944 35.183 25.9558 35.2608C25.9173 35.3385 25.8637 35.408 25.7983 35.4651C25.7894 35.4725 22.5581 38.2766 25.7529 41.535C25.8169 41.5963 25.8678 41.6697 25.9028 41.7509C25.9378 41.8322 25.9562 41.9196 25.9567 42.0081C25.9572 42.0965 25.94 42.1842 25.906 42.2658C25.8719 42.3475 25.8219 42.4216 25.7587 42.4836C25.6955 42.5456 25.6204 42.5943 25.538 42.6269C25.4556 42.6595 25.3675 42.6752 25.2789 42.6732C25.1903 42.6712 25.103 42.6515 25.0221 42.6152C24.9413 42.5789 24.8685 42.5269 24.8082 42.462C20.6285 38.1994 24.9139 34.4809 24.9265 34.4705Z" fill="white"/>
<path d="M61.9724 35.4651C61.907 35.408 61.8534 35.3385 61.8149 35.2608C61.7763 35.183 61.7535 35.0984 61.7477 35.0119C61.7419 34.9253 61.7532 34.8385 61.7811 34.7563C61.8089 34.6741 61.8527 34.5982 61.9099 34.5328C61.9672 34.4675 62.0368 34.4141 62.1147 34.3757C62.1926 34.3372 62.2774 34.3144 62.3641 34.3086C62.4509 34.3028 62.5379 34.3141 62.6203 34.3419C62.7027 34.3697 62.7788 34.4134 62.8442 34.4705C62.8569 34.4809 67.1422 38.1994 62.9625 42.462C62.9022 42.5269 62.8295 42.5789 62.7486 42.6152C62.6678 42.6515 62.5805 42.6712 62.4918 42.6732C62.4032 42.6752 62.3151 42.6595 62.2327 42.6269C62.1503 42.5943 62.0753 42.5456 62.0121 42.4836C61.9489 42.4216 61.8988 42.3475 61.8648 42.2658C61.8307 42.1842 61.8135 42.0965 61.814 42.0081C61.8146 41.9196 61.8329 41.8322 61.8679 41.7509C61.9029 41.6697 61.9539 41.5963 62.0178 41.535C65.2119 38.2766 61.9814 35.4725 61.9724 35.4651Z" fill="white"/>
<path d="M2.66299 64.6116H6.29819V62.3292C6.30512 62.083 6.25122 61.8388 6.14123 61.6182C6.0371 61.4203 5.78915 61.3213 5.39738 61.3213H5.34531V61.1729H8.96117V61.3213C8.55702 61.3213 8.29766 61.4133 8.1831 61.5974C8.06855 61.7815 8.01103 62.0247 8.01053 62.327V67.7044C8.00897 67.8579 8.02494 68.011 8.05814 68.1609C8.09555 68.3086 8.18177 68.4393 8.30286 68.532C8.43527 68.6419 8.6376 68.696 8.9091 68.696H8.96117V68.8445H5.34754V68.696C5.75418 68.696 6.01428 68.6057 6.12784 68.4251C6.24091 68.2448 6.29819 68.005 6.29819 67.7059V65.1215H2.66299V67.7059C2.66138 67.8611 2.6771 68.0159 2.70985 68.1676C2.7468 68.3156 2.83342 68.4466 2.95532 68.5387C3.08772 68.6461 3.2898 68.6998 3.56156 68.6998H3.61363V68.8482H0V68.6998C0.403663 68.6998 0.663019 68.6095 0.778068 68.4288C0.893117 68.2482 0.950393 68.0085 0.949897 67.7096V62.3322C0.957737 62.0846 0.902992 61.8391 0.790712 61.6182C0.685085 61.4237 0.438127 61.3265 0.0520682 61.3265H0V61.178H3.61363V61.3265C3.21691 61.3265 2.95929 61.4178 2.84077 61.6004C2.72225 61.783 2.66299 62.0269 2.66299 62.3322V64.6116Z" fill="white"/>
<path d="M13.1527 64.9869C13.1507 64.4762 13.2417 63.9695 13.4213 63.4913C13.5965 63.0172 13.8705 62.5856 14.2251 62.225C14.5798 61.8643 15.0071 61.5828 15.4788 61.399C16.5696 60.9974 17.7685 60.9992 18.8581 61.4042C19.3284 61.5907 19.7541 61.8741 20.1072 62.2359C20.4603 62.5977 20.733 63.0298 20.9074 63.5039C21.2596 64.4777 21.2625 65.5432 20.9156 66.5188C20.7478 66.9804 20.4893 67.4038 20.1554 67.7643C19.802 68.1385 19.3702 68.4302 18.8908 68.6186C18.3435 68.8346 17.7588 68.9408 17.1703 68.9311C16.481 68.9311 15.8795 68.8138 15.3657 68.5793C14.8818 68.367 14.4517 68.0492 14.1071 67.6492C13.7868 67.2735 13.5414 66.8402 13.3841 66.3726C13.2318 65.9264 13.1536 65.4583 13.1527 64.9869ZM14.9804 64.8874C14.9801 65.403 15.0194 65.9179 15.0979 66.4275C15.1805 66.9429 15.3895 67.43 15.7064 67.8452C16.0337 68.2846 16.5264 68.5043 17.1844 68.5043C18.1068 68.5043 18.6977 68.1332 18.957 67.391C19.2143 66.6618 19.3459 65.8943 19.346 65.1212C19.3493 64.5549 19.297 63.9896 19.1898 63.4334C19.0981 62.9362 18.8773 62.4717 18.5494 62.0863C18.227 61.7132 17.7721 61.5264 17.1844 61.5259C16.5224 61.5259 16.0287 61.7387 15.7034 62.1642C15.3915 62.5594 15.1834 63.026 15.0979 63.5217C15.0221 63.9731 14.9828 64.4298 14.9804 64.8874Z" fill="white"/>
<path d="M28.1541 61.1729L32.8485 66.1176V62.6053C32.8485 62.1437 32.7545 61.8285 32.5666 61.6598C32.3791 61.4913 32.0913 61.3792 31.7052 61.3235V61.1751H34.3578V61.3235C34.0657 61.3547 33.8482 61.4339 33.7054 61.561C33.5692 61.6773 33.4725 61.8329 33.4287 62.0064C33.3835 62.2028 33.3623 62.4039 33.3655 62.6053V68.9313H33.1728L27.5426 63.0225V67.3422C27.5332 67.666 27.6138 67.9861 27.7754 68.267C27.9302 68.5224 28.2165 68.6656 28.6346 68.6968V68.8452H25.8875V68.6968C26.6567 68.6344 27.0378 68.2576 27.0308 67.5664V62.4858C27.0011 62.4634 26.9732 62.4386 26.9475 62.4116C26.9163 62.3797 26.8642 62.33 26.7913 62.2632L26.5927 62.0754C26.1256 61.6271 25.7165 61.377 25.3654 61.325V61.1766L28.1541 61.1729Z" fill="white"/>
<path d="M43.8239 61.1729L43.8864 62.8918H43.7377C43.6829 62.6473 43.6052 62.4085 43.5056 62.1786C43.4301 62.0023 43.3037 61.8524 43.1426 61.7481C42.9856 61.6494 42.7707 61.5996 42.4999 61.5996H40.946V64.8253H42.1838C42.5527 64.8253 42.8217 64.7437 42.9908 64.5804C43.1599 64.4171 43.2591 64.1756 43.2884 63.856H43.4371V66.1072H43.2884C43.2358 65.7672 43.1086 65.5396 42.9068 65.4243C42.6857 65.3052 42.4371 65.2461 42.186 65.2529H40.946V67.4632C40.946 68.102 41.2768 68.4214 41.9383 68.4214H42.4084C42.6727 68.4304 42.9362 68.388 43.1842 68.2967C43.39 68.2079 43.5633 68.0578 43.6804 67.867C43.8382 67.5976 43.957 67.3072 44.033 67.0045H44.1817L44.0672 68.8489H38.2726V68.7005C38.6762 68.7005 38.9373 68.6095 39.0559 68.4274C39.1832 68.2105 39.245 67.9615 39.2336 67.7104V62.3329C39.2413 62.0851 39.1855 61.8393 39.0715 61.6189C38.9634 61.4245 38.7154 61.3272 38.3276 61.3272H38.2756V61.1788L43.8239 61.1729Z" fill="white"/>
<path d="M56.6845 61.1729V61.3213C56.3214 61.3338 55.9688 61.4466 55.6661 61.6471C55.3686 61.8451 55.0659 62.1667 54.7579 62.612L53.3371 64.7229V67.7029C53.3371 68.0434 53.4058 68.2935 53.5432 68.4533C53.6806 68.6132 53.9285 68.6931 54.287 68.6931V68.8415H50.6764V68.6931C51.0731 68.6931 51.3307 68.6038 51.4492 68.4251C51.5678 68.2465 51.6268 68.0058 51.6263 67.7029V65.1393L49.3375 62.1192C49.0865 61.7822 48.8822 61.566 48.7245 61.4705C48.5471 61.3706 48.3457 61.321 48.1421 61.3272V61.1788H51.9283V61.3272C51.7687 61.328 51.6102 61.3531 51.4582 61.4015C51.3431 61.443 51.2856 61.5368 51.2856 61.6828C51.2856 61.8114 51.3848 62.0128 51.5831 62.2869L53.0143 64.3191L54.1628 62.6202C54.3612 62.3233 54.4604 62.0512 54.4604 61.8037C54.4595 61.7418 54.4458 61.6807 54.4202 61.6242C54.3947 61.5678 54.3577 61.5172 54.3116 61.4757C54.2119 61.3784 54.0408 61.3272 53.7968 61.3272V61.1788L56.6845 61.1729Z" fill="white"/>
<path d="M65.2729 68.8479H60.6439V68.6995C61.0476 68.6995 61.3069 68.6091 61.422 68.4285C61.537 68.2479 61.5946 68.0082 61.5946 67.7093V62.3215C61.6015 62.0779 61.5486 61.8364 61.4406 61.6179C61.3379 61.4234 61.0932 61.3262 60.7064 61.3262H60.6439V61.1777H64.6548C65.1874 61.1777 65.6295 61.2384 65.9811 61.3596C66.1772 61.4387 66.3645 61.5382 66.5397 61.6565C66.7512 61.8014 66.933 61.9853 67.0753 62.1983C67.2404 62.4425 67.3251 62.7321 67.3178 63.0266C67.3178 63.4334 67.2002 63.7617 66.9652 64.0116C66.7501 64.2483 66.4816 64.4305 66.1819 64.543C65.911 64.6426 65.6327 64.721 65.3495 64.7775V64.7983C65.5982 64.8241 65.8449 64.8657 66.0882 64.923C66.3654 64.9873 66.6324 65.0892 66.8819 65.2258C67.1464 65.3722 67.3713 65.5806 67.5372 65.833C67.7177 66.0987 67.8082 66.4329 67.8087 66.8357C67.8192 67.2251 67.7048 67.6076 67.4821 67.9275C67.2593 68.2358 66.9599 68.4809 66.6133 68.6386C66.4197 68.734 66.2111 68.7957 65.9967 68.8212C65.756 68.8424 65.5145 68.8514 65.2729 68.8479ZM63.8373 61.5993H63.3039V64.6847H63.8373C64.2375 64.6838 64.6315 64.5862 64.9858 64.4005C65.3547 64.211 65.5392 63.7792 65.5392 63.1053C65.5392 62.6105 65.3825 62.2198 65.0691 61.9333C64.9483 61.8179 64.8017 61.7329 64.6414 61.6854C64.4633 61.628 64.1953 61.5993 63.8373 61.5993ZM63.8893 65.1115H63.3039V67.5661C63.3039 67.9382 63.3964 68.1735 63.5814 68.2719C63.8003 68.3788 64.0423 68.4298 64.2858 68.4204C64.464 68.4212 64.642 68.409 64.8184 68.384C65.0017 68.3553 65.1781 68.2934 65.3391 68.2014C65.5314 68.0873 65.6865 67.92 65.7854 67.7197C65.9074 67.4956 65.9684 67.1925 65.9684 66.8105C65.9684 66.3864 65.8769 66.0495 65.6939 65.7996C65.5105 65.5487 65.2518 65.3626 64.9553 65.2681C64.6109 65.1584 64.2508 65.1055 63.8893 65.1115Z" fill="white"/>
<path d="M77.5175 61.1729L77.58 62.8918H77.4312C77.3761 62.6474 77.2984 62.4087 77.1991 62.1786C77.1233 62.0025 76.997 61.8527 76.8361 61.7481C76.6789 61.6491 76.4647 61.5996 76.1934 61.5996H74.6425V64.8253H75.8803C76.2492 64.8253 76.5183 64.7437 76.6874 64.5804C76.8565 64.4171 76.9556 64.1756 76.9849 63.856H77.1337V66.1072H76.9849C76.9353 65.7672 76.8084 65.5396 76.6041 65.4243C76.3829 65.3054 76.1344 65.2463 75.8833 65.2529H74.6455V67.4632C74.6455 68.102 74.9763 68.4214 75.6378 68.4214H76.1079C76.3722 68.4303 76.6356 68.388 76.8837 68.2967C77.0894 68.2081 77.2625 68.0579 77.3791 67.867C77.5376 67.5979 77.6564 67.3074 77.7317 67.0045H77.8805L77.766 68.8489H71.9691V68.7005C72.3728 68.7005 72.6339 68.6095 72.7524 68.4274C72.8795 68.2104 72.941 67.9614 72.9294 67.7104V62.3329C72.9373 62.0851 72.8817 61.8394 72.768 61.6189C72.6604 61.4245 72.4125 61.3272 72.0242 61.3272H71.9721V61.1788L77.5175 61.1729Z" fill="white"/>
<path d="M87.407 61.1729L87.4695 62.8918H87.3207C87.2656 62.6474 87.1879 62.4087 87.0886 62.1786C87.0128 62.0025 86.8865 61.8527 86.7256 61.7481C86.5689 61.6491 86.3547 61.5996 86.0829 61.5996H84.529V64.8253H85.7668C86.1358 64.8253 86.4048 64.7437 86.5739 64.5804C86.743 64.4171 86.8422 64.1756 86.8714 63.856H87.0202V66.1072H86.8714C86.8218 65.7672 86.6949 65.5396 86.4906 65.4243C86.2694 65.3054 86.0209 65.2463 85.7698 65.2529H84.529V67.4632C84.529 68.102 84.8598 68.4214 85.5213 68.4214H85.9914C86.2557 68.4303 86.5192 68.388 86.7673 68.2967C86.973 68.2081 87.1461 68.0579 87.2627 67.867C87.4212 67.5979 87.5399 67.3074 87.6153 67.0045H87.764L87.6488 68.8489H81.8527V68.7005C82.2563 68.7005 82.5174 68.6095 82.6359 68.4274C82.7631 68.2104 82.8246 67.9614 82.813 67.7104V62.3329C82.8208 62.0851 82.7653 61.8394 82.6516 61.6189C82.5435 61.4245 82.2955 61.3272 81.9077 61.3272H81.8556V61.1788L87.407 61.1729Z" fill="white"/>
<path d="M25.613 78.0703V79.3387C25.6046 79.4589 25.6304 79.5791 25.6874 79.6853C25.7313 79.7594 25.8013 79.8145 25.8838 79.8397C25.9744 79.8642 26.0681 79.876 26.162 79.8746V79.9562H24.1685V79.8746C24.2933 79.8769 24.4167 79.8483 24.5277 79.7915C24.6334 79.7361 24.6862 79.6077 24.6862 79.4063V76.427C24.6862 76.2273 24.6445 76.087 24.5605 76.0046C24.4764 75.9223 24.3455 75.8822 24.1685 75.8822V75.8005H26.377C26.6379 75.7899 26.8969 75.8496 27.1267 75.9735C27.3046 76.0723 27.4484 76.2223 27.5396 76.404C27.6192 76.5696 27.6607 76.7509 27.6608 76.9347C27.6674 77.1237 27.621 77.3108 27.5269 77.475C27.4478 77.609 27.3423 77.7256 27.2168 77.8179C27.08 77.9165 26.9269 77.9903 26.7645 78.0361C26.5458 78.0913 26.3205 78.1162 26.095 78.1103C25.9337 78.1063 25.7728 78.0929 25.613 78.0703ZM25.613 76.0559V77.8446C25.7031 77.8649 25.7951 77.8754 25.8875 77.8758C26.0564 77.8854 26.2238 77.8392 26.3638 77.7443C26.5037 77.6495 26.6085 77.5113 26.6618 77.351C26.7112 77.2077 26.7364 77.0572 26.7362 76.9057C26.7379 76.7579 26.709 76.6114 26.6514 76.4752C26.5934 76.3429 26.4964 76.2313 26.3732 76.1553C26.2214 76.0663 26.047 76.023 25.8711 76.0306C25.7845 76.0318 25.6982 76.0402 25.613 76.0559Z" fill="white"/>
<path d="M31.0453 78.0077H30.9122V79.3385C30.9052 79.461 30.9309 79.5831 30.9866 79.6925C31.0237 79.7616 31.0852 79.8145 31.1591 79.841C31.2474 79.8662 31.3388 79.8792 31.4306 79.8796V79.9538H29.4698V79.8721C29.6885 79.8721 29.8289 79.8226 29.8909 79.7237C29.9586 79.6053 29.9911 79.4702 29.9846 79.334V76.4223C29.9846 76.2226 29.9437 76.0823 29.8626 75.9999C29.7815 75.9176 29.6506 75.8775 29.4698 75.8775V75.7958H31.627C31.8832 75.7905 32.138 75.8354 32.3768 75.928C32.5739 76.0027 32.7448 76.1332 32.8685 76.3035C32.9819 76.4666 33.0413 76.661 33.0381 76.8594C33.0411 77.0165 33.0042 77.1717 32.931 77.3107C32.8616 77.4404 32.7621 77.5516 32.6409 77.6351C32.5169 77.7211 32.3801 77.787 32.2355 77.8303C32.4299 77.952 32.6183 78.1682 32.8008 78.479L33.2985 79.3229C33.3656 79.4426 33.4443 79.5555 33.5335 79.6599C33.5769 79.7183 33.6319 79.7672 33.6951 79.8034C33.7584 79.8395 33.8285 79.8622 33.901 79.8699V79.9516H32.5606C32.4304 79.717 32.3307 79.5292 32.263 79.3904C32.0408 78.9555 31.8787 78.6536 31.7765 78.4849C31.6982 78.3408 31.5908 78.2145 31.4611 78.1138C31.3369 78.0364 31.1916 77.9993 31.0453 78.0077ZM31.1383 76.0296H30.9152V77.7798H31.1048C31.4284 77.7798 31.6731 77.7056 31.8368 77.5467C32.0004 77.3879 32.083 77.1682 32.083 76.8787C32.0879 76.7192 32.0512 76.5612 31.9766 76.42C31.9042 76.2937 31.7935 76.1934 31.6605 76.1335C31.4962 76.0612 31.3179 76.0257 31.1383 76.0296Z" fill="white"/>
<path d="M38.6311 75.7988L38.6654 76.7296H38.5835C38.5535 76.5971 38.5114 76.4677 38.4578 76.3429C38.4166 76.2477 38.348 76.1669 38.2607 76.1106C38.1548 76.0517 38.0344 76.0236 37.9133 76.0297H37.0735V77.7798H37.743C37.9414 77.7798 38.0869 77.7355 38.1796 77.647C38.279 77.5398 38.3359 77.4003 38.3396 77.2543H38.4214V78.4738H38.3396C38.3113 78.2887 38.2424 78.165 38.1328 78.1027C38.0133 78.0379 37.8789 78.0056 37.743 78.0092H37.0735V79.2056C37.0735 79.552 37.2525 79.7252 37.6106 79.7252H37.865C38.0082 79.73 38.151 79.7068 38.2853 79.6569C38.3968 79.6092 38.4906 79.528 38.5538 79.4246C38.6393 79.2789 38.7034 79.1216 38.7442 78.9577H38.8268L38.7643 79.956H35.6252V79.8744C35.8439 79.8744 35.9853 79.8249 36.0492 79.7259C36.1186 79.6087 36.1522 79.4738 36.1459 79.3378V76.426C36.15 76.2918 36.1198 76.1587 36.0582 76.0393C35.9996 75.9339 35.8648 75.8812 35.6535 75.8812H35.6252V75.7996L38.6311 75.7988Z" fill="white"/>
<path d="M45.8926 75.7988V75.8805C45.8014 75.8849 45.711 75.8986 45.6226 75.9213C45.5488 75.9431 45.4857 75.9915 45.4455 76.0571C45.3938 76.1531 45.376 76.2637 45.395 76.3711L45.6241 79.1618C45.6309 79.3096 45.6589 79.4555 45.7074 79.5953C45.7333 79.6721 45.784 79.7382 45.8517 79.7831C45.9383 79.8249 46.0301 79.8551 46.1247 79.8729V79.9545H44.213V79.8729C44.3499 79.8772 44.4838 79.8321 44.5901 79.746C44.6819 79.6653 44.7183 79.5055 44.6995 79.2665L44.4957 76.6197H44.4845L43.124 79.9545H43.0251L41.6222 76.7296H41.611L41.4273 79.0461C41.4028 79.2221 41.4194 79.4014 41.4756 79.5701C41.5098 79.6719 41.582 79.7568 41.6772 79.8068C41.7704 79.8455 41.8695 79.8678 41.9703 79.8729V79.9545H40.5599V79.8729C40.6399 79.872 40.7184 79.852 40.789 79.8147C40.8597 79.7774 40.9204 79.7238 40.9661 79.6584C41.0578 79.5273 41.1196 79.3081 41.1513 79.0008L41.431 76.3711C41.3559 76.2407 41.2523 76.1288 41.1279 76.0439C41.0035 75.959 40.8615 75.9031 40.7124 75.8805V75.7988H42.2172L43.4215 78.5324L44.5373 75.7988H45.8926Z" fill="white"/>
<path d="M47.8319 75.8745V75.8003H49.7882V75.8819C49.572 75.8819 49.4322 75.9314 49.3687 76.0304C49.3006 76.1492 49.2678 76.2848 49.2742 76.4215V79.3385C49.2732 79.4218 49.2817 79.505 49.2995 79.5864C49.3204 79.6659 49.3676 79.736 49.4334 79.7853C49.5309 79.8518 49.6482 79.8832 49.7659 79.8744H49.7882V79.956H47.8319V79.8744C48.0471 79.8744 48.1865 79.8249 48.25 79.7259C48.3194 79.6081 48.353 79.4728 48.3467 79.3363V76.4186C48.3467 76.2271 48.3045 76.0883 48.2202 76.0022C48.1369 75.9176 48.0067 75.8745 47.8319 75.8745Z" fill="white"/>
<path d="M54.8776 79.9545V79.1678H54.8665C54.563 79.7225 54.1115 79.9998 53.5119 79.9998C53.225 80.0048 52.9421 79.9316 52.6937 79.7883C52.4685 79.6626 52.2835 79.4757 52.1603 79.2494C52.0398 79.0238 51.9796 78.6636 51.9796 78.1687V76.4193C51.9893 76.2772 51.9519 76.1359 51.8732 76.017C51.8028 75.9255 51.6667 75.88 51.4648 75.8805V75.7988H53.4219V75.8805C53.2067 75.8805 53.0671 75.93 53.0031 76.0289C52.9337 76.1475 52.9004 76.2836 52.9072 76.4208V78.2764C52.8984 78.4959 52.932 78.7152 53.0061 78.9221C53.0508 79.034 53.1188 79.1352 53.2055 79.219C53.2905 79.3018 53.3918 79.3663 53.503 79.4083C53.7389 79.4969 53.9994 79.4953 54.2342 79.4038C54.3525 79.358 54.4613 79.2905 54.5548 79.2049C54.6471 79.1222 54.7208 79.021 54.7713 78.908C54.839 78.7462 54.8732 78.4946 54.8732 78.1517V76.4193C54.8732 76.2214 54.8335 76.0814 54.7542 75.9992C54.6753 75.9161 54.5429 75.8745 54.3584 75.8745V75.8003H56.3155V75.882C56.1023 75.882 55.9632 75.9299 55.8982 76.0259C55.8268 76.1449 55.7929 76.2824 55.8008 76.4208V79.3385C55.8008 79.5226 55.8374 79.6589 55.9108 79.7475C55.9842 79.836 56.1191 79.8803 56.3155 79.8803V79.9545H54.8776Z" fill="white"/>
<path d="M63.3627 75.7988V75.8805C63.2716 75.8849 63.1811 75.8986 63.0927 75.9213C63.0191 75.9432 62.9563 75.9916 62.9164 76.0571C62.8644 76.153 62.8463 76.2636 62.8651 76.3711L63.0942 79.1618C63.1014 79.3095 63.1294 79.4554 63.1775 79.5953C63.2037 79.6722 63.2543 79.7384 63.3218 79.7838C63.4085 79.8256 63.5003 79.8558 63.5948 79.8736V79.9553H61.6854V79.8736C61.8225 79.8781 61.9567 79.833 62.0632 79.7467C62.1547 79.6658 62.1904 79.5062 62.1718 79.2672L61.968 76.6205H61.9569L60.5971 79.9553H60.4952L59.0923 76.7303H59.0819L58.8981 79.0468C58.8736 79.2228 58.8898 79.4021 58.9458 79.5708C58.9801 79.6728 59.0526 79.7576 59.1481 79.8076C59.2413 79.8462 59.3404 79.8685 59.4411 79.8736V79.9553H58.0278V79.8736C58.1076 79.8726 58.186 79.8526 58.2565 79.8153C58.327 79.778 58.3876 79.7245 58.4332 79.6591C58.525 79.528 58.5867 79.3088 58.6185 79.0015L58.8989 76.3718C58.8238 76.2414 58.7202 76.1296 58.5958 76.0446C58.4713 75.9597 58.3294 75.9038 58.1803 75.8812V75.7996H59.6844L60.8894 78.5332L62.0052 75.7996L63.3627 75.7988Z" fill="white"/>
</svg>
