<svg width="84" height="80" viewBox="0 0 84 80" fill="none" xmlns="http://www.w3.org/2000/svg">
<path d="M33.8149 13.5875C33.8204 13.4544 33.8772 13.3285 33.9734 13.2363C34.0695 13.144 34.1977 13.0925 34.331 13.0925C34.4643 13.0925 34.5924 13.144 34.6886 13.2363C34.7847 13.3285 34.8415 13.4544 34.847 13.5875V18.5587C34.8469 18.6636 34.8148 18.766 34.7552 18.8523C34.6955 18.9385 34.611 19.0047 34.5128 19.0418C31.6834 20.3305 29.2845 22.4059 27.6026 25.0202C25.9207 27.6346 25.0268 30.6776 25.0275 33.786C25.0275 41.533 29.3624 46.4902 34.9106 48.6566C39.3421 50.3485 44.2418 50.3485 48.6732 48.6566C54.2215 46.4902 58.5563 41.533 58.5563 33.786C58.5574 30.6715 57.6605 27.6228 55.973 25.0049C54.2854 22.387 51.8788 20.3109 49.0414 19.0252C48.9509 18.9846 48.8742 18.9187 48.8203 18.8354C48.7664 18.7522 48.7378 18.6552 48.7378 18.556V13.5849C48.7432 13.4518 48.8 13.3259 48.8962 13.2336C48.9923 13.1414 49.1205 13.0898 49.2538 13.0898C49.3871 13.0898 49.5152 13.1414 49.6114 13.2336C49.7075 13.3259 49.7643 13.4518 49.7698 13.5849V18.2255C52.7094 19.6268 55.1918 21.8317 56.9298 24.5851C58.6678 27.3384 59.5901 30.5276 59.5901 33.7833C59.5901 42.0249 54.9665 47.3013 49.0483 49.6124C44.3769 51.402 39.2087 51.402 34.5373 49.6124C28.6147 47.3048 23.9911 42.0275 23.9911 33.786C23.9914 30.5298 24.9143 27.3404 26.6529 24.587C28.3915 21.8336 30.8747 19.6289 33.8149 18.2281V13.5875Z" fill="white"/>
<path d="M46.5725 5.76649V1.03173H37.0113V5.76649C37.0113 9.29772 38.2876 11.5565 39.9155 12.5289C40.4891 12.88 41.1473 13.0687 41.8198 13.0749C42.4904 13.073 43.1476 12.8872 43.7199 12.5377C45.3224 11.5783 46.5725 9.33435 46.5725 5.76649ZM47.6046 0.515429V5.76649C47.6046 9.74338 46.1337 12.2909 44.2477 13.4203C43.516 13.8652 42.6763 14.1011 41.8198 14.1023C40.9614 14.096 40.1207 13.8577 39.3868 13.4124C37.4763 12.2699 35.9793 9.70675 35.9793 5.76649V0.515429C35.9793 0.447669 35.9927 0.380574 36.0186 0.317982C36.0446 0.255391 36.0827 0.198531 36.1306 0.150658C36.1786 0.102785 36.2355 0.0648378 36.2982 0.0389866C36.3608 0.0131354 36.428 -0.000113916 36.4958 7.37795e-07H47.0881C47.1559 -0.000113916 47.223 0.0131354 47.2857 0.0389866C47.3483 0.0648378 47.4053 0.102785 47.4532 0.150658C47.5012 0.198531 47.5393 0.255391 47.5652 0.317982C47.5912 0.380574 47.6046 0.447669 47.6046 0.515429Z" fill="white"/>
<path d="M46.8718 7.61811C46.9413 7.61525 47.0107 7.62648 47.0758 7.65111C47.1409 7.67575 47.2004 7.71329 47.2506 7.76147C47.3008 7.80966 47.3408 7.86749 47.3681 7.93151C47.3954 7.99552 47.4094 8.06439 47.4094 8.13398C47.4094 8.20356 47.3954 8.27243 47.3681 8.33644C47.3408 8.40046 47.3008 8.45829 47.2506 8.50648C47.2004 8.55466 47.1409 8.5922 47.0758 8.61683C47.0107 8.64147 46.9413 8.6527 46.8718 8.64984H36.8246C36.6914 8.64436 36.5655 8.58762 36.4732 8.49148C36.3809 8.39533 36.3294 8.26723 36.3294 8.13398C36.3294 8.00072 36.3809 7.87262 36.4732 7.77648C36.5655 7.68033 36.6914 7.62359 36.8246 7.61811H46.8718Z" fill="white"/>
<path d="M44.9927 8.13333C44.9927 8.27026 44.9383 8.40159 44.8414 8.49841C44.7446 8.59524 44.6132 8.64963 44.4762 8.64963C44.3392 8.64963 44.2079 8.59524 44.111 8.49841C44.0142 8.40159 43.9598 8.27026 43.9598 8.13333V0.515325C43.9598 0.378394 44.0142 0.24707 44.111 0.150245C44.2079 0.0534207 44.3392 -0.000976562 44.4762 -0.000976562C44.6132 -0.000976562 44.7446 0.0534207 44.8414 0.150245C44.9383 0.24707 44.9927 0.378394 44.9927 0.515325V8.13333Z" fill="white"/>
<path d="M39.6232 8.1336C39.6261 8.20313 39.6148 8.27252 39.5902 8.3376C39.5656 8.40268 39.528 8.46211 39.4798 8.51231C39.4316 8.56252 39.3738 8.60246 39.3097 8.62975C39.2457 8.65704 39.1768 8.67111 39.1072 8.67111C39.0376 8.67111 38.9687 8.65704 38.9047 8.62975C38.8406 8.60246 38.7828 8.56252 38.7346 8.51231C38.6864 8.46211 38.6489 8.40268 38.6242 8.3376C38.5996 8.27252 38.5883 8.20313 38.5912 8.1336V0.515592C38.5967 0.382447 38.6534 0.256575 38.7496 0.164304C38.8458 0.072033 38.9739 0.0205078 39.1072 0.0205078C39.2405 0.0205078 39.3686 0.072033 39.4648 0.164304C39.561 0.256575 39.6177 0.382447 39.6232 0.515592V8.1336Z" fill="white"/>
<path d="M41.2755 13.5876C41.2755 13.4507 41.3299 13.3193 41.4267 13.2225C41.5236 13.1257 41.6549 13.0713 41.7919 13.0713C41.9289 13.0713 42.0602 13.1257 42.1571 13.2225C42.2539 13.3193 42.3083 13.4507 42.3083 13.5876V22.5923C42.3083 22.7292 42.2539 22.8605 42.1571 22.9574C42.0602 23.0542 41.9289 23.1086 41.7919 23.1086C41.6549 23.1086 41.5236 23.0542 41.4267 22.9574C41.3299 22.8605 41.2755 22.7292 41.2755 22.5923V13.5876Z" fill="white"/>
<path d="M41.2755 0.515325C41.2755 0.378394 41.3299 0.24707 41.4267 0.150245C41.5236 0.0534207 41.6549 -0.000976562 41.7919 -0.000976562C41.9289 -0.000976562 42.0602 0.0534207 42.1571 0.150245C42.2539 0.24707 42.3083 0.378394 42.3083 0.515325V8.13333C42.3083 8.27026 42.2539 8.40159 42.1571 8.49841C42.0602 8.59524 41.9289 8.64963 41.7919 8.64963C41.6549 8.64963 41.5236 8.59524 41.4267 8.49841C41.3299 8.40159 41.2755 8.27026 41.2755 8.13333V0.515325Z" fill="white"/>
<path d="M49.6904 26.3793C47.8635 24.5534 45.4599 23.4172 42.8891 23.1642C40.3182 22.9113 37.7392 23.5573 35.5913 24.9922C33.4435 26.427 31.8597 28.562 31.1098 31.0333C30.36 33.5047 30.4904 36.1595 31.4789 38.5454C32.4674 40.9314 34.2528 42.901 36.531 44.1185C38.8092 45.336 41.4391 45.7263 43.9728 45.2227C46.5065 44.7191 48.7872 43.3528 50.4262 41.3567C52.0653 39.3606 52.9614 36.8581 52.9618 34.2756C52.9637 32.8088 52.6757 31.3562 52.1143 30.0011C51.5529 28.646 50.7291 27.4152 49.6904 26.3793ZM41.7919 22.0772C44.6151 22.0763 47.3512 23.0542 49.534 24.844C51.7169 26.6339 53.2114 29.125 53.763 31.893C54.3146 34.661 53.8891 37.5345 52.559 40.024C51.2289 42.5135 49.0765 44.4649 46.4686 45.5457C43.8606 46.6266 40.9585 46.77 38.2566 45.9515C35.5548 45.133 33.2204 43.4033 31.6512 41.057C30.0821 38.7108 29.3752 35.8932 29.6511 33.0844C29.9269 30.2755 31.1685 27.6492 33.1642 25.6529C34.2957 24.518 35.6404 23.6179 37.1211 23.0042C38.6017 22.3906 40.1891 22.0755 41.7919 22.0772Z" fill="white"/>
<path d="M32.6608 27.0557C32.5485 26.9782 32.4717 26.8593 32.4472 26.7252C32.4226 26.5911 32.4524 26.4527 32.5299 26.3406C32.6074 26.2284 32.7263 26.1516 32.8605 26.127C32.9946 26.1025 33.133 26.1323 33.2453 26.2097L41.0966 31.6562C41.2087 31.7337 41.2855 31.8526 41.31 31.9867C41.3345 32.1208 41.3048 32.2591 41.2275 32.3713L33.6745 42.5621C33.5907 42.664 33.4711 42.7299 33.3402 42.7461C33.2092 42.7624 33.0771 42.7278 32.971 42.6495C32.8648 42.5711 32.7929 42.455 32.7699 42.3252C32.7469 42.1953 32.7747 42.0616 32.8474 41.9516L40.0812 32.2012L32.6608 27.0557Z" fill="white"/>
<path d="M38.5598 35.1353C38.4486 35.0568 38.3732 34.9373 38.3501 34.8032C38.3271 34.6691 38.3582 34.5313 38.4368 34.4201C38.5153 34.309 38.6348 34.2336 38.769 34.2105C38.9031 34.1875 39.041 34.2186 39.1521 34.2972L50.2888 42.1829C50.3439 42.2218 50.3907 42.2712 50.4267 42.3281C50.4627 42.3851 50.4871 42.4486 50.4985 42.515C50.5099 42.5814 50.5082 42.6494 50.4933 42.7152C50.4784 42.7809 50.4507 42.843 50.4119 42.8981C50.373 42.9531 50.3236 42.9999 50.2666 43.0359C50.2096 43.0719 50.1461 43.0962 50.0797 43.1077C50.0132 43.1191 49.9452 43.1173 49.8795 43.1025C49.8137 43.0876 49.7516 43.0599 49.6965 43.021L38.5598 35.1353Z" fill="white"/>
<path d="M43.1371 37.731C43.1003 37.7885 43.0525 37.8381 42.9963 37.8769C42.9402 37.9158 42.8769 37.9431 42.8101 37.9572C42.7433 37.9713 42.6744 37.9721 42.6073 37.9593C42.5402 37.9466 42.4764 37.9206 42.4194 37.883C42.3625 37.8453 42.3136 37.7967 42.2756 37.74C42.2377 37.6832 42.2114 37.6195 42.1983 37.5526C42.1852 37.4856 42.1855 37.4166 42.1993 37.3498C42.2131 37.283 42.2401 37.2195 42.2787 37.1632L49.7601 25.8701C49.8356 25.7563 49.9531 25.6771 50.087 25.6499C50.2208 25.6228 50.3599 25.6499 50.4737 25.7253C50.5876 25.8007 50.6668 25.9182 50.6939 26.052C50.7211 26.1858 50.694 26.3249 50.6186 26.4387L43.1371 37.731Z" fill="white"/>
<path fill-rule="evenodd" clip-rule="evenodd" d="M34.2363 11.9316C34.5924 11.9316 34.9406 12.0372 35.2367 12.235C35.5328 12.4328 35.7635 12.7139 35.8998 13.0428C36.0361 13.3718 36.0718 13.7337 36.0023 14.0829C35.9328 14.4321 35.7613 14.7528 35.5095 15.0045C35.2577 15.2563 34.9369 15.4277 34.5876 15.4972C34.2383 15.5666 33.8763 15.531 33.5473 15.3947C33.2182 15.2585 32.937 15.0278 32.7392 14.7318C32.5413 14.4358 32.4357 14.0877 32.4357 13.7317C32.436 13.2544 32.6257 12.7967 32.9634 12.4591C33.301 12.1216 33.7588 11.9319 34.2363 11.9316Z" fill="white"/>
<path fill-rule="evenodd" clip-rule="evenodd" d="M49.3484 11.9316C49.7044 11.9322 50.0523 12.0382 50.3481 12.2363C50.6438 12.4344 50.8742 12.7157 51.0101 13.0447C51.146 13.3736 51.1812 13.7355 51.1115 14.0845C51.0417 14.4335 50.87 14.754 50.6181 15.0055C50.3662 15.2569 50.0453 15.4281 49.6961 15.4974C49.3469 15.5666 48.985 15.5308 48.6562 15.3945C48.3273 15.2582 48.0462 15.0275 47.8485 14.7315C47.6508 14.4355 47.5452 14.0876 47.5452 13.7317C47.5455 13.2542 47.7354 12.7964 48.0732 12.4588C48.411 12.1213 48.8691 11.9316 49.3467 11.9316" fill="white"/>
<path fill-rule="evenodd" clip-rule="evenodd" d="M40.329 30.3467C40.685 30.3467 41.033 30.4522 41.329 30.6499C41.6251 30.8475 41.8559 31.1285 41.9922 31.4573C42.1286 31.7861 42.1644 32.1479 42.0951 32.497C42.0259 32.8461 41.8546 33.1668 41.6031 33.4187C41.3515 33.6705 41.0309 33.8421 40.6818 33.9119C40.3327 33.9817 39.9708 33.9464 39.6417 33.8105C39.3127 33.6747 39.0313 33.4444 38.8331 33.1487C38.6349 32.853 38.5289 32.5053 38.5284 32.1494C38.5284 31.672 38.7181 31.2141 39.0558 30.8765C39.3934 30.5389 39.8514 30.3493 40.329 30.3493" fill="white"/>
<path fill-rule="evenodd" clip-rule="evenodd" d="M42.8492 35.7495C43.2053 35.7495 43.5535 35.8551 43.8496 36.0529C44.1457 36.2507 44.3765 36.5318 44.5127 36.8607C44.649 37.1896 44.6847 37.5516 44.6152 37.9007C44.5457 38.2499 44.3742 38.5707 44.1224 38.8224C43.8706 39.0742 43.5498 39.2456 43.2005 39.3151C42.8512 39.3845 42.4892 39.3489 42.1602 39.2126C41.8312 39.0764 41.5499 38.8457 41.3521 38.5496C41.1542 38.2536 41.0486 37.9056 41.0486 37.5496C41.0489 37.0722 41.2387 36.6145 41.5763 36.277C41.9139 35.9395 42.3717 35.7497 42.8492 35.7495Z" fill="white"/>
<path d="M0.000854492 58.4873H1.66709V66.4498H6.65183V67.9664H0.000854492V58.4873Z" fill="white"/>
<path d="M14.443 58.4199H15.9871L20.1597 67.9671H18.3983L17.4387 65.6786H12.9547L11.9794 67.9671H10.2713L14.443 58.4199ZM16.8272 64.203L15.188 60.411L13.5628 64.203H16.8272Z" fill="white"/>
<path d="M24.484 58.4873H28.7368C29.8203 58.4873 30.6735 58.7856 31.2161 59.3272C31.4242 59.5312 31.5881 59.7758 31.6975 60.0459C31.8069 60.316 31.8595 60.6057 31.8521 60.897V60.924C31.8521 62.0578 31.2022 62.6683 30.4982 63.0363C31.6087 63.4157 32.3807 64.0523 32.3807 65.3387V65.3658C32.3807 67.0585 30.9849 67.9656 28.872 67.9656H24.484V58.4873ZM30.185 61.1691C30.185 60.4243 29.5883 59.9647 28.5187 59.9647H26.1223V62.4834H28.3983C29.4687 62.4834 30.1867 62.063 30.1867 61.1961L30.185 61.1691ZM28.7639 63.8945H26.1223V66.4951H28.886C30.0201 66.4951 30.718 66.0478 30.718 65.1948V65.1678C30.7145 64.3654 30.0777 63.8945 28.7639 63.8945Z" fill="white"/>
<path d="M36.9625 58.4873H44.0191V60.0039H38.6287V62.5907H43.4102V64.1073H38.6287V67.9664H36.9625V58.4873Z" fill="white"/>
<path d="M48.046 63.2554V63.2284C48.046 60.5606 50.1048 58.3262 53.0185 58.3262C55.9322 58.3262 57.9631 60.5335 57.9631 63.2014V63.2284C57.9631 65.8953 55.9043 68.1297 52.9906 68.1297C50.0768 68.1297 48.046 65.9233 48.046 63.2554ZM56.214 63.2554V63.2284C56.214 61.3865 54.8732 59.8559 52.9862 59.8559C51.0993 59.8559 49.7898 61.3594 49.7898 63.2014V63.2284C49.7898 65.0694 51.1307 66.5861 53.0176 66.5861C54.9046 66.5861 56.214 65.0965 56.214 63.2554Z" fill="white"/>
<path d="M62.6783 58.4873H66.9041C68.0966 58.4873 69.0309 58.8362 69.6407 59.4353C70.1414 59.9499 70.4258 60.6563 70.4258 61.4804V61.5075C70.4258 63.0642 69.4915 63.9991 68.1777 64.3776L70.7381 67.9664H68.7605L66.4304 64.662H64.3445V67.9664H62.6783V58.4873ZM66.7784 63.1863C67.9701 63.1863 68.7291 62.5636 68.7291 61.6017V61.5746C68.7291 60.5595 67.9972 60.0048 66.7645 60.0048H64.3402V63.1872L66.7784 63.1863Z" fill="white"/>
<path d="M75.1707 58.4873H76.836V63.2543L81.3471 58.4873H83.4059L79.4505 62.5636L83.5821 67.9708H81.5503L78.3129 63.7052L76.836 65.2218V67.9708H75.1707V58.4873Z" fill="white"/>
<path d="M30.6639 75.5198H29.0003V74.666H33.2557V75.5198H31.593V79.9092H30.6639V75.5198Z" fill="white"/>
<path d="M36.0491 74.666H39.9381V75.4937H36.972V76.8568H39.6014V77.674H36.9712V79.0816H39.9756V79.9057H36.0499L36.0491 74.666Z" fill="white"/>
<path d="M42.6599 77.3024V77.2876C42.6599 75.7971 43.7757 74.5762 45.3643 74.5762C46.3309 74.5762 46.9154 74.9128 47.4178 75.3925L46.8255 76.0745C46.4059 75.6846 45.9531 75.4221 45.3573 75.4221C44.3602 75.4221 43.6265 76.2463 43.6265 77.2728V77.2876C43.6265 78.3141 44.3532 79.1452 45.3573 79.1452C46.0011 79.1452 46.4137 78.8906 46.863 78.4711L47.4553 79.0702C46.9084 79.6397 46.309 79.999 45.3268 79.999C43.794 79.999 42.6599 78.8077 42.6599 77.3024Z" fill="white"/>
<path d="M50.2374 74.666H51.1586V76.8463H53.6614V74.666H54.5835V79.9092H53.6614V77.6993H51.1586V79.9092H50.2374V74.666Z" fill="white"/>
</svg>
