<svg width="80" height="82" viewBox="0 0 80 82" fill="none" xmlns="http://www.w3.org/2000/svg">
<path d="M35.7361 19.7418C37.2323 20.9462 38.7613 22.5768 40.1519 24.7881C41.4244 23.1081 42.92 21.6094 44.5976 20.3335C44.2091 19.5167 43.6099 18.8182 42.8617 18.31C42.1135 17.8017 41.2432 17.502 40.3406 17.4417C39.438 17.3815 38.5356 17.5628 37.7264 17.9671C36.9172 18.3714 36.2305 18.984 35.7368 19.7418M50.3923 18.6132C50.3576 18.6326 50.3212 18.6489 50.2837 18.662C48.7795 19.3416 47.3479 20.1716 46.0108 21.1393C45.973 21.1735 45.9317 21.2035 45.8876 21.2289C43.9927 22.6086 42.3343 24.2866 40.9769 26.1973C42.7989 29.5685 44.2966 34.0961 45.0116 40.1719C45.775 39.9416 46.5194 39.6524 47.2381 39.307C49.4682 38.2331 51.3813 36.6112 52.6567 34.4516C53.9321 32.292 54.5786 29.559 54.2674 26.2723C54.0363 23.8315 53.2791 21.081 51.8689 18.0194C51.5088 18.1484 50.9987 18.3422 50.3916 18.6132H50.3923ZM31.0061 17.0664C32.2496 17.5135 33.4326 18.1136 34.5277 18.8529C35.1626 17.9062 36.0324 17.1404 37.0521 16.6305C38.0718 16.1207 39.2065 15.8842 40.345 15.9442C41.4836 16.0042 42.587 16.3586 43.5475 16.9728C44.5079 17.587 45.2924 18.44 45.8242 19.4482C46.8846 18.733 47.9955 18.0958 49.1482 17.5415C48.5948 15.6609 47.4751 13.9965 45.9415 12.7749C44.7514 11.826 43.3513 11.1757 41.8584 10.8783C40.3654 10.5809 38.823 10.645 37.3599 11.0653C35.8968 11.4856 34.5556 12.2499 33.4483 13.2943C32.3411 14.3386 31.5 15.6328 30.9952 17.0686L31.0061 17.0664ZM39.3028 1.75114C39.2997 1.65058 39.3168 1.5504 39.3532 1.45657C39.3895 1.36274 39.4443 1.27716 39.5144 1.20492C39.5844 1.13267 39.6683 1.07523 39.7609 1.036C39.8536 0.996775 39.9532 0.976562 40.0539 0.976562C40.1545 0.976562 40.2541 0.996775 40.3468 1.036C40.4395 1.07523 40.5234 1.13267 40.5934 1.20492C40.6635 1.27716 40.7183 1.36274 40.7546 1.45657C40.7909 1.5504 40.808 1.65058 40.8049 1.75114V7.1552C40.808 7.25577 40.7909 7.35594 40.7546 7.44977C40.7183 7.5436 40.6635 7.62918 40.5934 7.70143C40.5234 7.77368 40.4395 7.83112 40.3468 7.87034C40.2541 7.90957 40.1545 7.92979 40.0539 7.92979C39.9532 7.92979 39.8536 7.90957 39.7609 7.87034C39.6683 7.83112 39.5844 7.77368 39.5144 7.70143C39.4443 7.62918 39.3895 7.5436 39.3532 7.44977C39.3168 7.35594 39.2997 7.25577 39.3028 7.1552V1.75114ZM45.5975 2.97884C45.6458 2.89184 45.711 2.81533 45.7892 2.75378C45.8674 2.69223 45.9571 2.64687 46.053 2.62036C46.1489 2.59385 46.2492 2.58672 46.3479 2.59938C46.4467 2.61204 46.5419 2.64424 46.628 2.6941C46.7141 2.74396 46.7895 2.81047 46.8496 2.88976C46.9098 2.96905 46.9535 3.05953 46.9783 3.15591C47.003 3.25228 47.0083 3.35262 46.9939 3.45107C46.9794 3.54953 46.9455 3.64411 46.8941 3.7293L44.3564 8.11769C44.2549 8.28575 44.0915 8.40727 43.9014 8.45612C43.7112 8.50497 43.5094 8.47723 43.3395 8.37888C43.1696 8.28053 43.0451 8.11942 42.9928 7.93022C42.9405 7.74102 42.9645 7.53886 43.0598 7.36723L45.5975 2.97884ZM33.2108 3.72785C33.1183 3.55632 33.0963 3.35554 33.1494 3.16805C33.2024 2.98056 33.3264 2.82109 33.4951 2.72343C33.6637 2.62577 33.8638 2.59759 34.0529 2.64486C34.242 2.69213 34.4052 2.81113 34.508 2.97666L37.045 7.36941C37.0992 7.45469 37.1356 7.55005 37.1519 7.64974C37.1683 7.74944 37.1643 7.85141 37.1402 7.94953C37.1161 8.04765 37.0724 8.13988 37.0118 8.22067C36.9511 8.30147 36.8747 8.36916 36.7872 8.41967C36.6996 8.47018 36.6028 8.50246 36.5025 8.51459C36.4022 8.52671 36.3004 8.51841 36.2034 8.4902C36.1063 8.46199 36.016 8.41445 35.9378 8.35043C35.8597 8.28641 35.7952 8.20724 35.7485 8.11769L33.2108 3.72785ZM50.5869 7.1603C50.7589 7.06156 50.9632 7.03518 51.1546 7.08696C51.3461 7.13875 51.5092 7.26446 51.608 7.43644C51.7067 7.60843 51.7331 7.81259 51.6813 8.00402C51.6295 8.19545 51.5038 8.35847 51.3317 8.45721L47.8451 10.4696C47.6736 10.5613 47.4731 10.5826 47.2861 10.529C47.0991 10.4754 46.9403 10.3512 46.8434 10.1826C46.7464 10.0139 46.719 9.81424 46.7668 9.62573C46.8146 9.43723 46.934 9.27474 47.0996 9.1727L50.5869 7.1603ZM28.7702 8.45794C28.685 8.40867 28.6104 8.3431 28.5505 8.26499C28.4907 8.18688 28.4468 8.09774 28.4215 8.00269C28.3961 7.90763 28.3897 7.80851 28.4026 7.71097C28.4156 7.61344 28.4476 7.51941 28.4969 7.43426C28.5462 7.3491 28.6118 7.27448 28.6899 7.21467C28.768 7.15485 28.8572 7.111 28.9523 7.08563C29.0473 7.06026 29.1465 7.05386 29.2441 7.0668C29.3416 7.07973 29.4357 7.11175 29.5208 7.16103L33.0053 9.17198C33.1708 9.27477 33.2899 9.43798 33.3371 9.62701C33.3844 9.81604 33.3562 10.016 33.2585 10.1847C33.1609 10.3533 33.0013 10.4772 32.8138 10.5303C32.6263 10.5833 32.4254 10.5613 32.2539 10.4689L28.7702 8.45794ZM52.6749 13.1115C52.8701 13.1176 53.0552 13.1994 53.1911 13.3395C53.3269 13.4797 53.4029 13.6672 53.4029 13.8624C53.4029 14.0575 53.3269 14.2451 53.1911 14.3852C53.0552 14.5253 52.8701 14.6071 52.6749 14.6132H50.4521C50.2569 14.6071 50.0718 14.5253 49.9359 14.3852C49.8001 14.2451 49.7241 14.0575 49.7241 13.8624C49.7241 13.6672 49.8001 13.4797 49.9359 13.3395C50.0718 13.1994 50.2569 13.1176 50.4521 13.1115H52.6749ZM27.4365 14.6132C27.2413 14.6071 27.0562 14.5253 26.9203 14.3852C26.7845 14.2451 26.7085 14.0575 26.7085 13.8624C26.7085 13.6672 26.7845 13.4797 26.9203 13.3395C27.0562 13.1994 27.2413 13.1176 27.4365 13.1115H29.636C29.8311 13.1176 30.0162 13.1994 30.1521 13.3395C30.288 13.4797 30.364 13.6672 30.364 13.8624C30.364 14.0575 30.288 14.2451 30.1521 14.3852C30.0162 14.5253 29.8311 14.6071 29.636 14.6132H27.4365ZM44.5772 41.8462L44.5182 41.8608C43.8932 42.0136 43.2607 42.1337 42.6233 42.2207V52.7287H53.9503C54.1455 52.7347 54.3306 52.8165 54.4665 52.9566C54.6023 53.0968 54.6783 53.2843 54.6783 53.4795C54.6783 53.6747 54.6023 53.8622 54.4665 54.0023C54.3306 54.1425 54.1455 54.2242 53.9503 54.2303H29.7941C29.599 54.2242 29.4139 54.1425 29.278 54.0023C29.1421 53.8622 29.0661 53.6747 29.0661 53.4795C29.0661 53.2843 29.1421 53.0968 29.278 52.9566C29.4139 52.8165 29.599 52.7347 29.7941 52.7287H41.1205V42.3322C41.1205 41.7442 40.9958 40.8335 41.8573 40.8072C42.425 40.7468 42.9891 40.6615 43.5459 40.5449C42.8426 34.386 41.334 29.8957 39.5142 26.6286C39.4647 26.5682 39.4255 26.5 39.3983 26.4268C37.8642 23.7309 36.1187 21.8868 34.4556 20.6198L34.4337 20.6096C34.3445 20.5658 34.265 20.5046 34.1998 20.4296C32.9252 19.4883 31.5025 18.766 29.9902 18.2926C29.952 18.2888 29.9142 18.2817 29.8772 18.2715C29.8269 18.2587 29.778 18.2406 29.7315 18.2176C29.2259 18.0721 28.7102 17.9647 28.1886 17.8963C26.7164 21.0592 25.941 23.8941 25.7209 26.4042C25.4359 29.6603 26.0853 32.3583 27.3643 34.5004C28.6434 36.6425 30.5419 38.244 32.7575 39.3129C34.5066 40.1544 36.451 40.663 38.4421 40.8371C38.6405 40.8542 38.824 40.9494 38.9522 41.1018C39.0804 41.2541 39.1429 41.4511 39.1257 41.6495C39.1086 41.8479 39.0134 42.0313 38.861 42.1595C38.7086 42.2876 38.5115 42.35 38.3131 42.3329C36.1612 42.1534 34.0592 41.5875 32.1081 40.6622C29.6411 39.4732 27.5166 37.675 26.0787 35.2633C24.6408 32.8516 23.9105 29.8592 24.2246 26.2745C24.4702 23.4737 25.3579 20.3087 27.0582 16.7808C27.1217 16.6501 27.2217 16.5407 27.3461 16.4658C27.4706 16.3909 27.6142 16.3538 27.7593 16.3589C27.7681 16.3589 28.4582 16.3742 29.5609 16.6394C30.1355 14.9685 31.1032 13.4601 32.3826 12.2412C33.6621 11.0222 35.2158 10.1285 36.9128 9.63522C38.6099 9.14195 40.4007 9.06359 42.1345 9.40673C43.8682 9.74987 45.494 10.5045 46.8751 11.607C48.5955 12.9796 49.8665 14.8348 50.525 16.9345C51.0254 16.7259 51.5363 16.5431 52.0554 16.3866C52.2252 16.3386 52.4065 16.3519 52.5673 16.4243C52.7282 16.4966 52.8584 16.6234 52.9351 16.7822C54.6055 20.2482 55.4918 23.3681 55.7541 26.1383C56.0974 29.7652 55.3744 32.7948 53.9438 35.221C52.5131 37.6473 50.3726 39.4651 47.8852 40.663C46.8244 41.1695 45.7145 41.566 44.5728 41.8462H44.5772Z" fill="white"/>
<path d="M3.31533 67.1981H3.03547V70.0003C3.03547 70.334 3.08405 70.583 3.18123 70.7471C3.25915 70.894 3.3891 71.0065 3.54563 71.0626C3.73167 71.1147 3.92383 71.1416 4.11701 71.1428V71.3038H0V71.1311C0.460604 71.1311 0.756256 71.0279 0.886955 70.8215C1.01765 70.615 1.08324 70.3413 1.08373 70.0003V63.8604C1.08373 63.4402 0.998218 63.1437 0.827192 62.9708C0.656166 62.7978 0.380435 62.7116 0 62.7121V62.5394H4.547C5.08598 62.5284 5.62185 62.6235 6.12414 62.8192C6.53894 62.9767 6.89882 63.2517 7.15976 63.6105C7.39866 63.9542 7.52357 64.3643 7.51688 64.7828C7.52424 65.1035 7.45169 65.421 7.30576 65.7066C7.15983 65.9923 6.94511 66.2372 6.68094 66.4192C6.41961 66.6001 6.13134 66.7386 5.82678 66.8295C6.23491 67.0874 6.63163 67.5435 7.01692 68.1978L8.06421 69.9763C8.20567 70.2287 8.37114 70.4668 8.55834 70.6874C8.66875 70.8228 8.80408 70.9358 8.95699 71.0204C9.07611 71.075 9.20254 71.1121 9.33232 71.1304V71.3031H6.5053C6.23127 70.8071 6.02089 70.4125 5.87416 70.1191C5.40627 69.2025 5.06616 68.566 4.85383 68.2094C4.64151 67.8529 4.42019 67.595 4.18989 67.4356C3.96008 67.2773 3.66855 67.1981 3.31533 67.1981ZM3.51138 63.0276H3.03547V66.7107H3.43412C4.11434 66.7107 4.62815 66.547 4.97554 66.2196C5.32294 65.8922 5.49566 65.4213 5.49372 64.8068C5.50451 64.4706 5.42739 64.1373 5.26998 63.84C5.11788 63.5729 4.88452 63.3613 4.60385 63.236C4.30795 63.0971 3.9438 63.0276 3.51138 63.0276Z" fill="white"/>
<path d="M12.7614 66.895C12.7592 66.3119 12.8629 65.7332 13.0675 65.1871C13.2672 64.646 13.5794 64.1533 13.9836 63.7416C14.3877 63.3299 14.8746 63.0086 15.412 62.7988C16.0239 62.5621 16.6757 62.4459 17.3317 62.4563C17.9921 62.4448 18.6483 62.5632 19.263 62.8046C19.7991 63.0177 20.2842 63.3413 20.6867 63.7545C21.0892 64.1677 21.4 64.6611 21.5989 65.2024C22.0001 66.3142 22.0032 67.5306 21.6076 68.6444C21.4168 69.1712 21.1224 69.6545 20.7418 70.0659C20.3402 70.4928 19.8495 70.8261 19.3046 71.0422C18.6806 71.2885 18.0142 71.4095 17.3434 71.3985C16.5577 71.3985 15.8724 71.2647 15.2874 70.997C14.736 70.7547 14.2459 70.392 13.8531 69.9354C13.4885 69.5063 13.2088 69.0118 13.0289 68.4782C12.8541 67.9686 12.7638 67.4338 12.7614 66.895ZM14.8443 66.7821C14.8438 67.3706 14.8884 67.9584 14.9777 68.5402C15.072 69.1285 15.3104 69.6844 15.6715 70.1584C16.0437 70.6607 16.6051 70.9115 17.3558 70.911C18.4067 70.911 19.0801 70.4875 19.376 69.6404C19.6689 68.8079 19.8187 67.9319 19.8191 67.0494C19.8231 66.4025 19.7633 65.7568 19.6406 65.1216C19.5367 64.5539 19.2853 64.0235 18.9118 63.5835C18.5444 63.1575 18.0258 62.9445 17.3558 62.9445C16.6017 62.9445 16.0393 63.1874 15.6686 63.6731C15.313 64.1243 15.0756 64.6569 14.9777 65.2228C14.8915 65.7382 14.8469 66.2596 14.8443 66.7821Z" fill="white"/>
<path d="M31.1389 64.7114H30.9071C30.7482 64.1645 30.4975 63.7336 30.155 63.4189C29.8133 63.1048 29.3633 62.9354 28.8993 62.946C28.6697 62.943 28.4425 62.9929 28.2353 63.0917C28.0412 63.1836 27.8764 63.3277 27.7594 63.5078C27.6408 63.6934 27.5797 63.9098 27.5838 64.13C27.5838 64.2658 27.607 64.4005 27.6523 64.5286C27.7307 64.7086 27.8428 64.8721 27.9824 65.0102C28.2227 65.2526 28.492 65.4645 28.7841 65.6411C29.1845 65.8908 29.4274 66.0494 29.5129 66.1169C29.9414 66.3783 30.3508 66.6698 30.738 66.989C31.0344 67.2315 31.2817 67.5283 31.4668 67.8634C31.6374 68.1922 31.7233 68.5583 31.7168 68.9286C31.7223 69.2671 31.6515 69.6024 31.5099 69.9099C31.3682 70.2174 31.1592 70.4891 30.8984 70.7049C30.624 70.9322 30.3089 71.1053 29.9699 71.215C29.5925 71.3388 29.1973 71.4 28.8001 71.3964C28.2914 71.3845 27.7867 71.3026 27.3003 71.153C27.2369 71.137 27.1545 71.1195 27.0598 71.0991C26.9752 71.0808 26.889 71.0708 26.8025 71.0692C26.6159 71.0692 26.4811 71.1669 26.398 71.3607H26.1896L26.2435 68.8834H26.4753C26.5333 69.3095 26.7005 69.7133 26.9606 70.0557C27.1673 70.3291 27.4336 70.5517 27.7394 70.7063C28.0452 70.861 28.3824 70.9438 28.7251 70.9483C29.1653 70.9483 29.5297 70.8254 29.8183 70.5796C29.9533 70.4721 30.0622 70.3355 30.1368 70.1799C30.2114 70.0243 30.2498 69.8538 30.249 69.6812C30.254 69.4601 30.1906 69.2428 30.0675 69.059C29.9176 68.8546 29.7334 68.6776 29.5231 68.5359C29.2802 68.3634 28.824 68.063 28.1544 67.6346C27.8393 67.4328 27.5382 67.21 27.2529 66.9679C27.0346 66.7867 26.8389 66.58 26.6699 66.3522C26.5404 66.1734 26.4419 65.9742 26.3783 65.7628C26.3195 65.5589 26.2903 65.3477 26.2916 65.1355C26.2953 64.6924 26.4088 64.2571 26.6218 63.8684C26.8411 63.4532 27.1643 63.1018 27.5597 62.8484C27.9719 62.5824 28.4539 62.4447 28.9445 62.4528C29.1786 62.4525 29.4121 62.477 29.6412 62.5256C29.7213 62.5379 29.8007 62.555 29.8788 62.5766C29.9779 62.6021 30.0617 62.6233 30.1288 62.6386C30.2581 62.6654 30.3895 62.6815 30.5216 62.6866C30.6205 62.696 30.7197 62.673 30.8044 62.6211C30.8661 62.5672 30.9175 62.5025 30.9559 62.4302H31.1403L31.1389 64.7114Z" fill="white"/>
<path d="M41.9725 62.5393L42.0454 64.5065H41.8727C41.8097 64.2272 41.7211 63.9543 41.6081 63.6912C41.522 63.4902 41.3779 63.3195 41.1941 63.2009C41.0153 63.0882 40.7724 63.0316 40.4653 63.0311H38.6936V66.7142H40.1038C40.5241 66.7142 40.8307 66.6209 41.0236 66.4344C41.2165 66.2479 41.3285 65.9722 41.3596 65.6075H41.5323V68.1772H41.3596C41.2998 67.7887 41.1541 67.529 40.9223 67.3984C40.6705 67.2618 40.3872 67.194 40.1009 67.2016H38.6936V69.7248C38.6936 70.4534 39.0704 70.8177 39.824 70.8177H40.3582C40.6596 70.8272 40.9599 70.7777 41.2422 70.672C41.4771 70.5711 41.6747 70.3997 41.8078 70.1816C41.988 69.8741 42.1233 69.5424 42.2094 69.1966H42.3821L42.2509 71.3029H35.6465V71.1303C36.1061 71.1303 36.4037 71.0261 36.5393 70.8177C36.6748 70.6093 36.7421 70.3366 36.7411 69.9995V63.8595C36.7503 63.5767 36.6868 63.2963 36.5568 63.045C36.4334 62.8225 36.1496 62.7113 35.7055 62.7113H35.6465V62.5386L41.9725 62.5393Z" fill="white"/>
<path d="M51.377 64.7115H51.1445C50.9862 64.164 50.7342 63.7327 50.3888 63.4175C50.0472 63.1033 49.5971 62.9338 49.1331 62.9446C48.9037 62.9416 48.6768 62.9914 48.4698 63.0903C48.2756 63.182 48.1107 63.3261 47.9939 63.5063C47.8754 63.6919 47.8142 63.9084 47.8183 64.1286C47.8184 64.2643 47.8415 64.3991 47.8868 64.5271C47.9647 64.7075 48.0768 64.871 48.2169 65.0087C48.4556 65.2512 48.7235 65.4631 49.0143 65.6397C49.4151 65.8894 49.658 66.048 49.7431 66.1155C50.1719 66.3778 50.5818 66.67 50.9696 66.9898C51.2656 67.2327 51.5128 67.5293 51.6984 67.8641C51.869 68.1929 51.9549 68.559 51.9484 68.9293C51.9529 69.2729 51.8807 69.6132 51.7371 69.9254C51.5957 70.2258 51.3905 70.4919 51.1358 70.705C50.8616 70.9325 50.5465 71.1056 50.2073 71.215C49.8311 71.3385 49.4372 71.3998 49.0412 71.3964C48.5324 71.3846 48.0277 71.3028 47.5414 71.153C47.4779 71.137 47.3956 71.1195 47.3001 71.0991C47.2151 71.0807 47.1284 71.0707 47.0414 71.0693C46.8548 71.0693 46.72 71.1669 46.6369 71.3607H46.4285L46.4817 68.8834H46.7142C46.7716 69.3095 46.9386 69.7134 47.1988 70.0558C47.4046 70.3291 47.67 70.552 47.9749 70.7074C48.2797 70.8628 48.616 70.9467 48.9581 70.9527C49.3983 70.9527 49.7627 70.8298 50.0513 70.584C50.1866 70.4767 50.2957 70.3401 50.3704 70.1844C50.4452 70.0288 50.4836 69.8583 50.4828 69.6856C50.4878 69.4645 50.4244 69.2472 50.3013 69.0634C50.1514 68.8589 49.9672 68.682 49.7569 68.5403C49.514 68.3678 49.0577 68.0674 48.3882 67.639C48.0731 67.4372 47.7719 67.2144 47.4867 66.9723C47.2685 66.7911 47.0727 66.5844 46.9036 66.3566C46.7748 66.1775 46.6763 65.9783 46.6121 65.7672C46.5536 65.5633 46.5246 65.352 46.5261 65.1399C46.5299 64.6968 46.6433 64.2615 46.8563 63.8728C47.0754 63.4576 47.3983 63.1062 47.7935 62.8528C48.2057 62.5868 48.6877 62.4491 49.1782 62.4572C49.4122 62.4569 49.6454 62.4814 49.8742 62.53C49.9546 62.5422 50.0342 62.5593 50.1126 62.581C50.2117 62.6065 50.2948 62.6276 50.3625 62.643C50.4919 62.6698 50.6233 62.6859 50.7554 62.691C50.8542 62.7003 50.9535 62.6773 51.0381 62.6255C51.0997 62.5714 51.151 62.5067 51.1897 62.4346H51.3741L51.377 64.7115Z" fill="white"/>
<path d="M62.9365 71.3039V69.6434H62.9125C62.2741 70.8141 61.3239 71.3991 60.0621 71.3986C59.4599 71.4083 58.8664 71.2542 58.3451 70.9527C57.871 70.6878 57.482 70.2936 57.2234 69.8161C56.9693 69.3406 56.8423 68.5811 56.8423 67.5378V63.8488C56.8423 63.4758 56.7679 63.1931 56.6193 63.0007C56.4706 62.8084 56.1839 62.7112 55.7593 62.7093V62.5366H59.8777V62.7093C59.4249 62.7093 59.1312 62.8125 58.9966 63.019C58.862 63.2254 58.7955 63.502 58.7969 63.8488V67.7578C58.7969 68.3329 58.8662 68.7871 59.0046 69.1203C59.0992 69.3556 59.2422 69.5683 59.4244 69.7447C59.6051 69.9196 59.82 70.0553 60.0556 70.1432C60.2959 70.2349 60.5512 70.2814 60.8084 70.2802C61.3479 70.2812 61.8681 70.0797 62.266 69.7156C62.459 69.5428 62.6141 69.3319 62.7215 69.0962C62.8644 68.7562 62.9358 68.2248 62.9358 67.5021V63.8488C62.9358 63.4321 62.8525 63.1365 62.6858 62.9621C62.5192 62.7877 62.2415 62.7006 61.8528 62.7006V62.5395H65.9713V62.7122C65.5223 62.7122 65.2308 62.8135 65.0967 63.016C64.9626 63.2186 64.8941 63.4962 64.8912 63.8488V70.0004C64.8912 70.389 64.9687 70.6766 65.1237 70.8631C65.2787 71.0496 65.5624 71.1429 65.9749 71.1429V71.3039H62.9365Z" fill="white"/>
<path d="M72.9299 62.5396L78.28 68.1862V64.1789C78.28 63.6514 78.1729 63.2915 77.9586 63.0991C77.7444 62.9068 77.4171 62.7788 76.9769 62.7151V62.5425H80V62.7151C79.6667 62.7506 79.4189 62.841 79.2566 62.9862C79.1008 63.1191 78.9904 63.2974 78.9411 63.4962C78.8895 63.7205 78.865 63.9502 78.8682 64.1804V71.403H78.6495L72.2361 64.6561V69.5888C72.2251 69.9584 72.3167 70.3238 72.5006 70.6445C72.677 70.936 73.0033 71.0997 73.4794 71.1356V71.3083H70.3456V71.1356C71.2201 71.0642 71.6547 70.6338 71.6494 69.8445V64.0434C71.6149 64.0189 71.5829 63.9911 71.5539 63.9603C71.5182 63.9246 71.4584 63.8671 71.3754 63.7876L71.1494 63.5734C70.615 63.062 70.1488 62.7763 69.7509 62.7166V62.5439L72.9299 62.5396Z" fill="white"/>
<path d="M27.0429 78.1634H26.9482C26.8946 77.954 26.7835 77.7637 26.6275 77.614C26.4827 77.481 26.2921 77.4092 26.0955 77.4137C25.998 77.4124 25.9015 77.4336 25.8135 77.4756C25.731 77.5144 25.6611 77.5755 25.6116 77.6519C25.5619 77.7308 25.5366 77.8225 25.5387 77.9157C25.5386 77.9733 25.5485 78.0305 25.5678 78.0847C25.601 78.1612 25.6485 78.2307 25.7078 78.2895C25.8093 78.3919 25.9228 78.4817 26.0459 78.5569C26.2165 78.6625 26.32 78.7303 26.3564 78.7587C26.5384 78.8698 26.7123 78.9938 26.8768 79.1295C27.0019 79.2326 27.1063 79.3584 27.1843 79.5004C27.2567 79.6398 27.2933 79.7951 27.2907 79.9521C27.2934 80.0955 27.2638 80.2377 27.2042 80.3681C27.1445 80.4985 27.0563 80.6138 26.946 80.7055C26.83 80.8029 26.6964 80.8771 26.5525 80.9241C26.3923 80.9766 26.2247 81.0027 26.0561 81.0013C25.8403 80.996 25.6263 80.9612 25.4199 80.8979C25.3929 80.8906 25.3594 80.8833 25.3179 80.8745C25.2817 80.867 25.2448 80.8628 25.2078 80.8622C25.1698 80.8619 25.1327 80.8738 25.1019 80.896C25.0711 80.9183 25.0482 80.9498 25.0366 80.986H24.9484L24.971 79.9361H25.0693C25.0938 80.1167 25.1646 80.2879 25.2749 80.433C25.3625 80.5491 25.4754 80.6435 25.6052 80.7092C25.7349 80.7749 25.8779 80.81 26.0233 80.8119C26.1918 80.818 26.3567 80.7623 26.4869 80.6552C26.5442 80.6097 26.5905 80.5517 26.6222 80.4857C26.6538 80.4197 26.6701 80.3474 26.6698 80.2742C26.672 80.1804 26.645 80.0882 26.5925 80.0104C26.5287 79.9248 26.4505 79.8509 26.3615 79.7918C26.259 79.719 26.0646 79.5917 25.7785 79.4101C25.6448 79.3244 25.517 79.23 25.3959 79.1274C25.3036 79.0503 25.2209 78.9625 25.1495 78.8658C25.0941 78.7902 25.0519 78.7056 25.0249 78.6159C24.9999 78.5295 24.9876 78.4399 24.9884 78.3499C24.9901 78.1619 25.0382 77.9772 25.1284 77.8122C25.2214 77.6363 25.3582 77.4872 25.5256 77.3794C25.7008 77.2669 25.9054 77.2086 26.1137 77.2119C26.2131 77.2117 26.3123 77.2217 26.4096 77.2417C26.4435 77.2473 26.4771 77.2546 26.5102 77.2636L26.6166 77.2898C26.6713 77.3014 26.7269 77.3082 26.7828 77.3102C26.8248 77.3141 26.8669 77.3044 26.903 77.2825C26.9292 77.2597 26.9509 77.2323 26.9671 77.2017H27.0451L27.0429 78.1634Z" fill="white"/>
<path d="M31.8647 80.959H29.0326V80.8862C29.2265 80.8862 29.3511 80.8425 29.4079 80.7557C29.4692 80.65 29.4985 80.5288 29.4925 80.4068V77.7969C29.5028 77.6668 29.4655 77.5373 29.3875 77.4326C29.3176 77.3534 29.1992 77.3136 29.0326 77.3131V77.2402H30.7897V77.3131C30.5959 77.3131 30.4698 77.3561 30.41 77.4428C30.3452 77.5483 30.3139 77.671 30.3204 77.7947V80.2807C30.3121 80.4037 30.3429 80.5261 30.4086 80.6304C30.4674 80.7096 30.5825 80.7494 30.754 80.7499H31.012C31.1859 80.7502 31.3567 80.7042 31.5069 80.6166C31.6614 80.5267 31.7994 80.3198 31.9208 79.9958H31.9937L31.8647 80.959Z" fill="white"/>
<path d="M33.7509 79.0894C33.7499 78.8421 33.7938 78.5967 33.8806 78.3652C33.9654 78.1356 34.098 77.9266 34.2694 77.7519C34.4409 77.5772 34.6474 77.4408 34.8754 77.3517C35.4024 77.1569 35.9817 77.1569 36.5087 77.3517C36.7363 77.4424 36.9422 77.5801 37.1129 77.7559C37.2836 77.9317 37.4152 78.1415 37.4991 78.3717C37.6692 78.8424 37.6704 79.3574 37.5027 79.8289C37.4228 80.0523 37.2989 80.2574 37.1383 80.4322C36.9681 80.6132 36.7601 80.7545 36.5291 80.846C36.2635 80.9518 35.9797 81.004 35.6939 80.9998C35.3934 81.0068 35.0951 80.9486 34.8193 80.8293C34.5854 80.7264 34.3775 80.5726 34.2107 80.379C34.0564 80.1967 33.938 79.9868 33.8616 79.7604C33.7884 79.5443 33.751 79.3176 33.7509 79.0894ZM34.6342 79.0413C34.634 79.2908 34.653 79.54 34.691 79.7867C34.7303 80.0361 34.8304 80.2721 34.9825 80.4737C35.1409 80.6865 35.3793 80.7929 35.6975 80.7929C36.143 80.7929 36.4287 80.6131 36.5546 80.2537C36.6788 79.9007 36.7424 79.5292 36.7426 79.155C36.7451 78.8807 36.7207 78.6069 36.6697 78.3375C36.6257 78.0955 36.5189 77.8694 36.36 77.6817C36.2045 77.501 35.9859 77.4107 35.7041 77.4107C35.3844 77.4107 35.1458 77.5137 34.9884 77.7196C34.8383 77.9107 34.7382 78.136 34.6969 78.3754C34.6579 78.5953 34.637 78.818 34.6342 79.0413Z" fill="white"/>
<path d="M42.9739 78.2721H42.901C42.8061 78.0181 42.6357 77.7992 42.4127 77.6448C42.1778 77.4816 41.8971 77.3971 41.6111 77.4036C41.4044 77.3959 41.2 77.4485 41.0229 77.5552C40.8681 77.6547 40.7423 77.7935 40.6585 77.9574C40.5705 78.1284 40.5095 78.312 40.4778 78.5016C40.4435 78.7058 40.4266 78.9125 40.4275 79.1195C40.4275 79.6582 40.5346 80.0711 40.7489 80.3581C40.8465 80.4962 40.9768 80.6079 41.1281 80.6834C41.2795 80.759 41.4471 80.7959 41.6162 80.7909C41.8771 80.7909 42.0403 80.7521 42.1059 80.6743C42.1783 80.5752 42.2132 80.4536 42.2043 80.3312V79.902C42.2053 79.826 42.1985 79.7501 42.1839 79.6754C42.1685 79.6059 42.1321 79.5428 42.0797 79.4947C42.008 79.4343 41.9169 79.4018 41.8231 79.4029V79.3242H43.3733V79.4029C43.1459 79.4328 43.0322 79.572 43.0322 79.819V80.7253C42.608 80.9125 42.1483 81.0055 41.6847 80.9978C41.5006 80.9994 41.3168 80.9852 41.1351 80.9556C40.9859 80.9317 40.8394 80.8929 40.6979 80.8397C40.5849 80.7975 40.4767 80.7435 40.375 80.6787C40.2874 80.6202 40.2048 80.5547 40.1279 80.4827C40.0191 80.3789 39.9236 80.2619 39.8437 80.1345C39.7553 79.9915 39.6864 79.8374 39.6389 79.6762C39.5845 79.4899 39.5577 79.2967 39.5595 79.1027C39.5563 78.8385 39.6074 78.5763 39.7096 78.3326C39.8076 78.1037 39.9526 77.8979 40.1352 77.7286C40.3175 77.5585 40.5315 77.4258 40.7649 77.3381C41.0043 77.2488 41.2579 77.2036 41.5134 77.2047C41.642 77.2033 41.7706 77.2133 41.8975 77.2346C42.0046 77.255 42.189 77.2987 42.4397 77.3665C42.5247 77.394 42.6135 77.4075 42.7028 77.4066C42.8 77.4066 42.8656 77.341 42.8996 77.2098H42.9725L42.9739 78.2721Z" fill="white"/>
<path d="M47.2177 77.207L48.4669 80.4224C48.5116 80.5559 48.5942 80.6736 48.7044 80.7612C48.8057 80.827 48.9201 80.8698 49.0397 80.8865V80.9593H47.2818V80.8865C47.5248 80.8724 47.6462 80.7966 47.6462 80.6592C47.6453 80.6283 47.6414 80.5975 47.6346 80.5674C47.6273 80.5273 47.6171 80.4858 47.6047 80.4413L47.5806 80.359L47.2702 79.5692H46.1522L45.8869 80.3284C45.8557 80.4074 45.8387 80.4912 45.8366 80.5761C45.8366 80.6905 45.8701 80.767 45.9379 80.8071C46.012 80.8486 46.0934 80.8756 46.1777 80.8865V80.9593H45.0619V80.8865C45.1857 80.8709 45.3005 80.8133 45.3869 80.7233C45.4882 80.6271 45.5859 80.4486 45.6785 80.1899L46.7338 77.207H47.2177ZM46.2382 79.32H47.1645L46.6849 78.0682L46.2382 79.32Z" fill="white"/>
<path d="M52.0591 77.2419L54.3286 79.6369V77.9363C54.3286 77.7124 54.2829 77.5596 54.1916 77.478C54.0717 77.3845 53.927 77.328 53.7754 77.3155V77.2427H55.0581V77.3155C54.9437 77.3203 54.8335 77.3603 54.7426 77.4299C54.6762 77.487 54.6293 77.5635 54.6085 77.6485C54.5865 77.7441 54.5762 77.8419 54.5779 77.9399V81.0001H54.4846L51.764 78.1367V80.2285C51.7592 80.3854 51.7981 80.5405 51.8762 80.6766C51.9505 80.8004 52.0888 80.8699 52.2909 80.885V80.9578H50.9637V80.885C51.3354 80.8544 51.5196 80.6717 51.5162 80.337V77.8766C51.5017 77.8662 51.4883 77.8545 51.4761 77.8416L51.4032 77.7687L51.307 77.6784C51.0815 77.4612 50.8838 77.3398 50.7137 77.3141V77.2412L52.0591 77.2419Z" fill="white"/>
</svg>
