<svg width="85" height="82" viewBox="0 0 85 82" fill="none" xmlns="http://www.w3.org/2000/svg">
<path d="M52.251 44.2121C50.7159 47.407 48.806 49.5015 46.7552 50.611C45.6481 51.2206 44.4075 51.5484 43.1431 51.5654C41.8903 51.5667 40.6542 51.2793 39.531 50.7254C37.1976 49.6052 35.0213 47.3908 33.3182 44.2473L34.6872 43.5127C36.2314 46.3607 38.1611 48.3497 40.1957 49.3285C41.1062 49.7794 42.1086 50.0147 43.1251 50.0161C44.1373 50.0001 45.1299 49.7348 46.0147 49.2438C47.7874 48.2866 49.4607 46.4238 50.8468 43.5461L52.251 44.2121ZM42.8424 9.16535C44.4475 9.15069 46.0442 9.39726 47.5697 9.89537C49.0049 10.3707 50.337 11.1126 51.4961 12.0818L50.5027 13.2723C49.4927 12.4274 48.3318 11.7804 47.0812 11.3653C45.8314 10.9462 44.4227 10.72 42.8469 10.72L42.8424 9.16535ZM42.7097 10.72C41.1339 10.72 39.7252 10.9462 38.4754 11.3653C37.2251 11.7793 36.0642 12.4251 35.0538 13.2687L34.0605 12.0782C35.2196 11.109 36.5517 10.3671 37.9869 9.89176C39.5124 9.39366 41.1091 9.14709 42.7142 9.16175L42.7097 10.72Z" fill="white"/>
<path d="M42.7756 28.8451C47.4831 28.8451 50.5561 27.6393 51.8826 26.1062C52.3197 25.5997 52.5463 25.0689 52.5554 24.5543C52.5644 24.0397 52.3594 23.5251 51.935 23.0321C50.6707 21.5694 47.6772 20.4257 42.7756 20.3887C37.874 20.4257 34.876 21.5694 33.6172 23.0321C33.1919 23.5251 32.9851 24.046 32.9968 24.5543C33.0085 25.0626 33.2325 25.5997 33.6696 26.1062C34.9961 27.6384 38.0691 28.8451 42.7756 28.8451ZM35.2526 13.1076C34.6746 13.5924 34.0344 14.7866 33.8782 16.4106C33.7653 17.5823 33.9188 18.9648 34.5455 20.4455C36.4066 19.4983 39.1383 18.8674 42.7729 18.8395H42.7792C46.4139 18.8674 49.1446 19.4983 51.0067 20.4455C51.6334 18.9648 51.7869 17.585 51.674 16.4106C51.5169 14.7884 50.8775 13.5924 50.2996 13.1076L51.2929 11.9233C52.1156 12.6137 53.0159 14.2035 53.2146 16.2655C53.3563 17.7328 53.155 19.4569 52.3323 21.2846C52.6151 21.5056 52.8761 21.753 53.1116 22.0236C53.7916 22.814 54.1185 23.6891 54.1049 24.5786C54.0914 25.4682 53.7356 26.3325 53.0538 27.1201C51.4663 28.9569 47.9743 30.3998 42.7729 30.3998C37.5715 30.3998 34.0804 28.9578 32.492 27.1201C31.8111 26.3325 31.4572 25.4619 31.4418 24.5786C31.4264 23.6954 31.7533 22.814 32.4351 22.0236C32.6707 21.753 32.9316 21.5056 33.2144 21.2846C32.3909 19.4569 32.1904 17.7328 32.3313 16.2655C32.5299 14.2035 33.4312 12.6146 34.2529 11.9233L35.2526 13.1076Z" fill="white"/>
<path d="M35.2435 13.1164C19.4632 25.9862 14.214 36.729 14.2934 43.8669C14.3404 47.9162 16.1365 50.7542 18.665 52.0808C21.1934 53.4075 24.4696 53.2362 27.483 51.2697C32.0658 48.2839 36.0129 41.2118 35.9795 29.0089L37.5011 28.7926C38.0799 30.7862 39.1166 32.2075 40.3339 33.0285C41.0804 33.5447 41.9642 33.8271 42.8723 33.8396C43.7725 33.837 44.6493 33.5533 45.38 33.0285C46.5214 32.2273 47.4894 30.8313 48.043 28.8044L49.5673 29.008C49.5339 41.2145 53.481 48.2866 58.0638 51.2688C61.0772 53.2317 64.3561 53.4012 66.8818 52.0799C69.4076 50.7587 71.2064 47.9153 71.2534 43.866C71.3346 36.7281 66.0863 25.9853 50.3032 13.1155L51.2884 11.9168C67.5031 25.1408 72.8941 36.3523 72.8075 43.8822C72.7542 48.5687 70.6176 51.8781 67.6088 53.4561C64.5999 55.0342 60.7313 54.863 57.224 52.5756C52.717 49.6394 48.7771 43.1738 48.1179 32.4066C47.6253 33.1434 47.0026 33.7847 46.2803 34.2992C45.2883 35.0088 44.099 35.391 42.8786 35.3925C41.6597 35.3791 40.4726 35.0025 39.4697 34.311C38.6758 33.7683 37.9902 33.0827 37.4478 32.2895C36.8094 43.1224 32.8587 49.624 28.3354 52.5675C24.8245 54.8549 20.9586 55.027 17.9507 53.448C14.9427 51.869 12.8034 48.557 12.752 43.8741C12.6617 36.3442 18.0563 25.1327 34.271 11.9087L35.2435 13.1164Z" fill="white"/>
<path d="M38.6813 9.10288H41.9177C41.8437 6.93448 41.4617 5.46274 40.9668 4.46777C40.109 2.74098 38.9802 2.55442 38.6813 2.55442C37.8112 2.55442 36.9767 2.89939 36.3615 3.51342C35.7463 4.12746 35.4006 4.96027 35.4006 5.82865C35.4006 6.69703 35.7463 7.52984 36.3615 8.14388C36.9767 8.75791 37.8112 9.10288 38.6813 9.10288ZM42.7097 10.6548H38.6813C37.3981 10.6548 36.1674 10.1461 35.26 9.24048C34.3527 8.33489 33.8429 7.10664 33.8429 5.82595C33.8429 4.54525 34.3527 3.317 35.26 2.41141C36.1674 1.50582 37.3981 0.99707 38.6813 0.99707C39.1924 0.99707 41.1131 1.26745 42.3611 3.77832C43.0068 5.07791 43.4881 7.01018 43.4881 9.87705H42.7097V10.6548Z" fill="white"/>
<path d="M46.8717 10.655H42.8433V9.87998H42.0649C42.0649 7.01312 42.5463 5.08084 43.1919 3.78124C44.4399 1.27127 46.3606 1 46.8717 1C48.1348 1.02983 49.336 1.55155 50.2187 2.45363C51.1015 3.35572 51.5956 4.56661 51.5956 5.82752C51.5956 7.08844 51.1015 8.29934 50.2187 9.20142C49.336 10.1035 48.1348 10.6252 46.8717 10.655ZM43.6353 9.1004H46.8717C47.7418 9.1004 48.5763 8.75544 49.1915 8.1414C49.8068 7.52736 50.1524 6.69455 50.1524 5.82617C50.1524 4.95779 49.8068 4.12498 49.1915 3.51095C48.5763 2.89691 47.7418 2.55195 46.8717 2.55195C46.5746 2.55195 45.444 2.7385 44.5862 4.46529C44.0904 5.46297 43.7112 6.93471 43.6344 9.10311L43.6353 9.1004Z" fill="white"/>
<path d="M80.7079 65.9779L84.5521 60.1685H82.6025L79.8645 64.4458L77.1554 60.1685H75.1507L78.9949 66.0194V69.828H80.7106L80.7079 65.9779ZM65.0224 69.828H71.7951V68.2959H66.7066V60.1685H65.0224V69.828ZM58.778 60.1685H51.5855V69.828H53.2723V65.895H58.1486V64.3629H53.2723V61.6997H58.7753L58.778 60.1685ZM45.1225 60.1685H37.9607V69.828H45.1912V68.2959H39.6475V65.7156H44.5013V64.1835H39.6475V61.6988H45.1234L45.1225 60.1685ZM29.4181 66.8476L24.2447 60.1685H22.6707V69.828H24.3575V62.956L29.6854 69.828H31.1067V60.1685H29.4181V66.8476ZM14.0197 60.1685V69.828H15.7066V60.1685H14.0197ZM0.998169 69.828H7.77083V68.2959H2.68682V60.1685H0.998169V69.828Z" fill="white"/>
<path d="M70.1362 76.3615H66.7544V80.9218H70.1697V80.2008H67.5509V78.9823H69.8419V78.2613H67.5509V77.0897H70.1362V76.3615ZM60.426 79.5158L57.9879 76.3615H57.2447V80.9218H58.0412V77.6773L60.5561 80.9218H61.227V76.3615H60.4306L60.426 79.5158ZM50.8603 76.3615V80.9218H51.6577V76.3615H50.8603ZM42.4171 80.9218H45.6156V80.2008H43.2135V76.3633H42.4171V80.9218ZM37.0161 80.2909V78.3749H35.071V79.0715H36.2395V79.9295C36.09 80.0401 35.9235 80.1256 35.7465 80.1828C35.5492 80.2455 35.343 80.2759 35.136 80.2729C34.919 80.2755 34.7037 80.2331 34.5039 80.1485C34.319 80.069 34.1524 79.9524 34.0145 79.806C33.8748 79.6561 33.767 79.4795 33.6975 79.2869C33.6218 79.0774 33.5842 78.8562 33.5864 78.6335C33.5844 78.4179 33.6233 78.2038 33.7011 78.0027C33.7731 77.8131 33.8793 77.6384 34.0145 77.4871C34.1457 77.3401 34.3054 77.2211 34.484 77.1375C34.6669 77.0522 34.8665 77.0088 35.0683 77.0104C35.201 77.0092 35.3335 77.0213 35.4638 77.0464C35.5766 77.0679 35.687 77.1005 35.7934 77.1438C35.894 77.1851 35.9902 77.2364 36.0806 77.297C36.1749 77.3587 36.2654 77.4261 36.3515 77.4989L36.8608 76.8932C36.7476 76.7957 36.6268 76.7074 36.4996 76.6292C36.3748 76.5521 36.2426 76.4878 36.105 76.4372C35.9586 76.3829 35.8074 76.3425 35.6534 76.3164C35.4744 76.2867 35.2931 76.2725 35.1116 76.2741C34.7853 76.2706 34.4619 76.3348 34.1616 76.4624C33.8824 76.5807 33.6296 76.7531 33.4176 76.9697C33.2057 77.1863 33.039 77.4428 32.9272 77.7242C32.8113 78.0142 32.7527 78.324 32.7547 78.6362C32.7515 78.9548 32.8091 79.2711 32.9245 79.5681C33.0288 79.8496 33.1906 80.1063 33.3997 80.322C33.6088 80.5377 33.8606 80.7076 34.1391 80.8208C34.4482 80.9443 34.7787 81.0055 35.1116 81.0011C35.3044 81.002 35.4968 80.9836 35.6859 80.9461C35.8614 80.9113 36.0331 80.86 36.1989 80.7929C36.353 80.7298 36.5013 80.6535 36.6422 80.5649C36.7729 80.4818 36.8978 80.3899 37.0161 80.29V80.2909ZM26.4778 79.1112H24.9039L25.6877 77.2871L26.4778 79.1112ZM26.0724 76.329H25.3283L23.3173 80.9254H24.1399L24.6104 79.825H26.7713L27.2346 80.9254H28.0834L26.0724 76.329ZM17.6427 77.105H19.0875V76.3624H15.3833V77.105H16.8327V80.9227H17.6454L17.6427 77.105Z" fill="white"/>
</svg>
