<svg width="84" height="80" viewBox="0 0 84 80" fill="none" xmlns="http://www.w3.org/2000/svg">
<path d="M38.3921 42.4872C38.4431 42.7182 38.4002 42.9599 38.2728 43.1593C38.1454 43.3586 37.9439 43.4993 37.7126 43.5503C37.4813 43.6013 37.2392 43.5585 37.0395 43.4312C36.8399 43.304 36.699 43.1027 36.6479 42.8718C35.8695 39.3677 34.0697 37.6947 32.2876 36.0419C30.7413 34.6059 29.2096 33.1812 28.2107 30.6922C27.2418 28.2775 26.9705 25.5257 27.3225 22.819C27.6794 20.0898 28.6726 17.3968 30.2294 15.1344C31.4633 13.3234 33.1041 11.8255 35.0209 10.7604C37.4223 9.44034 40.1469 8.82068 42.884 8.97207C45.6253 9.11027 48.2755 9.99928 50.5444 11.5417C52.3943 12.8078 53.9225 14.4878 55.0073 16.4478C56.2845 18.7603 57.0373 21.3248 57.2124 23.9599C57.3796 26.5109 56.9823 29.0571 55.9592 31.2808C54.9467 33.4836 53.5288 34.7792 52.1036 36.0822C50.3441 37.6947 48.5693 39.3137 47.7788 42.8718C47.7565 42.989 47.7108 43.1005 47.6445 43.1997C47.5782 43.299 47.4926 43.3839 47.3929 43.4495C47.2931 43.5151 47.1812 43.5601 47.0637 43.5817C46.9462 43.6034 46.8256 43.6013 46.7089 43.5756C46.5923 43.5498 46.482 43.501 46.3846 43.4319C46.2872 43.3629 46.2046 43.275 46.1418 43.1735C46.079 43.072 46.0373 42.959 46.019 42.8411C46.0008 42.7232 46.0064 42.6029 46.0355 42.4872C46.9463 38.3817 48.9311 36.5668 50.8989 34.7672C52.1908 33.5884 53.4714 32.4153 54.3346 30.5399C55.2293 28.5943 55.5749 26.3472 55.4263 24.0719C55.2697 21.7023 54.5941 19.3958 53.4472 17.3154C52.4964 15.5988 51.1577 14.1273 49.5375 13.0179C47.5403 11.6604 45.2073 10.8779 42.7944 10.7563C40.3924 10.6206 38.0006 11.1611 35.8913 12.3165C34.2182 13.248 32.786 14.5566 31.7087 16.1382C30.3142 18.1708 29.4211 20.5913 29.1006 23.0464C28.7849 25.4595 29.0198 27.8985 29.8733 30.0247C30.7268 32.1508 32.11 33.4304 33.5069 34.7309C35.486 36.57 37.4893 38.4309 38.3888 42.484" fill="white"/>
<path d="M34.1222 43.5748C34.0022 43.5784 33.8827 43.5579 33.7708 43.5145C33.6588 43.4712 33.5567 43.4058 33.4706 43.3223C33.3844 43.2388 33.3159 43.1389 33.2691 43.0285C33.2223 42.918 33.1982 42.7994 33.1982 42.6795C33.1982 42.5596 33.2223 42.4409 33.2691 42.3305C33.3159 42.22 33.3844 42.1201 33.4706 42.0366C33.5567 41.9531 33.6588 41.8878 33.7708 41.8444C33.8827 41.801 34.0022 41.7805 34.1222 41.7841H50.3071C50.5402 41.7911 50.7615 41.8885 50.9239 42.0556C51.0864 42.2228 51.1772 42.4465 51.1772 42.6795C51.1772 42.9124 51.0864 43.1361 50.9239 43.3033C50.7615 43.4704 50.5402 43.5678 50.3071 43.5748H34.1222Z" fill="white"/>
<path d="M45.3176 24.6177H47.6148C48.6452 24.6177 49.1789 24.3509 49.3646 23.9905C49.5503 23.6301 49.4453 23.1552 49.1757 22.7311C48.8858 22.2779 48.4199 21.9248 47.9015 21.8885C47.2781 21.845 46.5288 22.2683 45.7924 23.5156C45.584 23.8596 45.4237 24.2304 45.316 24.6177M39.109 24.6177C39.0012 24.2305 38.8412 23.8598 38.6334 23.5156C37.8994 22.2683 37.1469 21.845 36.5235 21.8885C36.0059 21.924 35.54 22.2779 35.2509 22.7327C34.9829 23.1552 34.8811 23.6422 35.0604 23.9905C35.2469 24.3509 35.7798 24.6177 36.811 24.6177H39.109ZM41.0631 42.6783C41.0561 42.9111 40.9585 43.132 40.7911 43.2942C40.6237 43.4564 40.3996 43.5472 40.1664 43.5472C39.9331 43.5472 39.709 43.4564 39.5416 43.2942C39.3742 43.132 39.2767 42.9111 39.2697 42.6783V26.9261H39.2737V26.4085H36.8126C34.9942 26.4085 33.9469 25.728 33.4721 24.8088C32.9812 23.8574 33.154 22.6988 33.7402 21.7748C34.3054 20.8815 35.2744 20.1832 36.4048 20.105C37.6451 20.0196 39.0291 20.6694 40.174 22.6134C40.619 23.3704 40.8418 23.9961 40.9524 24.6177H43.4725C43.5832 23.9961 43.806 23.3713 44.2509 22.6134C45.3959 20.6654 46.7799 20.0196 48.021 20.105C49.1514 20.1857 50.1204 20.8815 50.6856 21.7748C51.2718 22.6988 51.4438 23.8558 50.9537 24.8056C50.4789 25.7248 49.4316 26.4053 47.614 26.4053H45.1521V26.9229V42.6767C45.1451 42.9095 45.0475 43.1304 44.8801 43.2926C44.7127 43.4548 44.4886 43.5455 44.2554 43.5455C44.0221 43.5455 43.798 43.4548 43.6306 43.2926C43.4632 43.1304 43.3657 42.9095 43.3587 42.6767V26.9261V26.4085H41.0623V26.9261L41.0631 42.6783Z" fill="white"/>
<path d="M35.5449 46.7882C35.4248 46.7918 35.3053 46.7713 35.1934 46.7279C35.0814 46.6846 34.9794 46.6192 34.8932 46.5357C34.807 46.4522 34.7385 46.3523 34.6917 46.2418C34.645 46.1314 34.6208 46.0127 34.6208 45.8928C34.6208 45.773 34.645 45.6543 34.6917 45.5439C34.7385 45.4334 34.807 45.3335 34.8932 45.25C34.9794 45.1665 35.0814 45.1011 35.1934 45.0578C35.3053 45.0144 35.4248 44.9939 35.5449 44.9975H48.9633C49.0833 44.9939 49.2028 45.0144 49.3148 45.0578C49.4267 45.1011 49.5288 45.1665 49.615 45.25C49.7011 45.3335 49.7696 45.4334 49.8164 45.5439C49.8632 45.6543 49.8873 45.773 49.8873 45.8928C49.8873 46.0127 49.8632 46.1314 49.8164 46.2418C49.7696 46.3523 49.7011 46.4522 49.615 46.5357C49.5288 46.6192 49.4267 46.6846 49.3148 46.7279C49.2028 46.7713 49.0833 46.7918 48.9633 46.7882H35.5449Z" fill="white"/>
<path d="M37.0936 50.3121C36.8604 50.3051 36.6391 50.2077 36.4767 50.0406C36.3142 49.8734 36.2234 49.6497 36.2234 49.4168C36.2234 49.1838 36.3142 48.9601 36.4767 48.7929C36.6391 48.6258 36.8604 48.5284 37.0936 48.5214H47.4138C47.5338 48.5178 47.6533 48.5383 47.7652 48.5817C47.8772 48.6251 47.9793 48.6904 48.0654 48.7739C48.1516 48.8574 48.2201 48.9573 48.2669 49.0678C48.3137 49.1782 48.3378 49.2969 48.3378 49.4168C48.3378 49.5367 48.3137 49.6553 48.2669 49.7658C48.2201 49.8762 48.1516 49.9761 48.0654 50.0596C47.9793 50.1431 47.8772 50.2085 47.7652 50.2518C47.6533 50.2952 47.5338 50.3157 47.4138 50.3121H37.0936Z" fill="white"/>
<path d="M60.2726 9.25926C56.0947 5.08718 50.5973 2.49067 44.7171 1.91216C38.8369 1.33365 32.9377 2.80894 28.0247 6.08665C23.1117 9.36436 19.4889 14.2417 17.7735 19.8876C16.0582 25.5335 16.3565 31.5986 18.6175 37.0495C20.8786 42.5004 24.9625 46.9998 30.1735 49.7811C35.3845 52.5624 41.4 53.4535 47.1952 52.3025C52.9904 51.1515 58.2066 48.0297 61.955 43.4689C65.7035 38.9082 67.7522 33.1907 67.7522 27.2907C67.7566 23.9414 67.0981 20.6242 65.8145 17.5297C64.5309 14.4353 62.6475 11.6246 60.2726 9.25926ZM42.2145 2.38728e-05C48.5381 -0.00037329 54.6662 2.18865 59.5547 6.1941C64.4431 10.1995 67.7894 15.7736 69.0234 21.9665C70.2574 28.1594 69.3028 34.5879 66.3221 40.1567C63.3415 45.7256 58.5192 50.0901 52.6771 52.5067C46.8349 54.9234 40.3344 55.2425 34.283 53.4098C28.2316 51.5771 23.0039 47.7059 19.4905 42.4559C15.9771 37.2059 14.3955 30.9019 15.0151 24.618C15.6348 18.3341 18.4173 12.4592 22.8887 7.99422C25.4236 5.45592 28.4359 3.44295 31.7525 2.07102C35.0691 0.699093 38.6246 -0.00472508 42.2145 2.38728e-05Z" fill="white"/>
<path d="M1.00001 61.5742H2.85314V68.3155H7.05195V69.9861H0.995972L1.00001 61.5742Z" fill="white"/>
<path d="M14.1351 61.5146H15.8437L19.4538 69.9862H17.5159L16.7456 68.0995H13.1847L12.4144 69.9862H10.5249L14.1351 61.5146ZM16.0843 66.4652L14.9652 63.7375L13.846 66.4652H16.0843Z" fill="white"/>
<path d="M23.5525 61.5742H25.5493L27.7642 65.1315L29.9783 61.5742H31.976V69.9861H30.147V64.4945L27.7763 68.0873H27.7279L25.3814 64.53V69.9861H23.5525V61.5742Z" fill="white"/>
<path d="M36.7949 61.5742H40.2371C40.6969 61.567 41.1546 61.6382 41.5905 61.7847C41.9648 61.9115 42.309 62.1141 42.6014 62.3797C42.8783 62.6362 43.096 62.9499 43.2393 63.2988C43.3916 63.6747 43.4674 64.077 43.4622 64.4825V64.5066C43.4715 64.9495 43.381 65.3887 43.1973 65.7918C43.0283 66.1513 42.7798 66.4678 42.4706 66.7174C42.1495 66.9723 41.7817 67.1621 41.3878 67.2762C40.9559 67.4041 40.5075 67.468 40.0571 67.4657H38.6521V69.9893H36.7949V61.5742ZM40.1168 65.816C40.5819 65.816 40.9429 65.694 41.1996 65.45C41.3243 65.3343 41.4231 65.1937 41.4895 65.0372C41.5559 64.8807 41.5884 64.712 41.5848 64.5421V64.5187C41.5848 64.1016 41.4502 63.785 41.1811 63.5689C40.9119 63.3529 40.5448 63.2454 40.0797 63.2464H38.6521V65.8176L40.1168 65.816Z" fill="white"/>
<path d="M47.6326 61.5742H49.4897V68.3155H53.6885V69.9861H47.6326V61.5742Z" fill="white"/>
<path d="M57.9641 61.5742H59.8172V69.9861H57.9641V61.5742Z" fill="white"/>
<path d="M64.7217 61.5742H66.4287L70.3764 66.7537V61.5742H72.2053V69.9861H70.6275L66.5474 64.6389V69.9861H64.7185L64.7217 61.5742Z" fill="white"/>
<path d="M77.0269 61.5742H83.3687V63.2206H78.8566V64.9267H82.8277V66.5731H78.8566V68.3396H83.4292V69.9861H77.0269V61.5742Z" fill="white"/>
<path d="M27.434 79.9877C27.1188 79.9878 26.806 79.9332 26.5095 79.8264C26.2044 79.7171 25.9242 79.5482 25.6851 79.3298L26.2212 78.6847C26.3982 78.8303 26.593 78.9528 26.801 79.0492C27.0055 79.1409 27.2276 79.1871 27.4518 79.1846C27.6049 79.1933 27.7572 79.1574 27.8902 79.0814C27.9392 79.0519 27.9794 79.0099 28.0068 78.9598C28.0342 78.9096 28.0477 78.8531 28.0461 78.796V78.7847C28.0473 78.7308 28.0362 78.6773 28.0138 78.6283C27.9848 78.5757 27.9421 78.532 27.8902 78.5017C27.8098 78.4539 27.7246 78.4147 27.6359 78.3848C27.4973 78.3364 27.3564 78.2949 27.2136 78.2606C27.0221 78.2148 26.8333 78.158 26.6484 78.0905C26.4942 78.0378 26.3489 77.9622 26.2172 77.8664C26.0998 77.7747 26.0058 77.6568 25.9426 77.5221C25.8732 77.3609 25.8401 77.1863 25.8457 77.0109V76.9988C25.8429 76.8236 25.8787 76.6499 25.9507 76.4901C26.0202 76.3402 26.1209 76.2068 26.2462 76.099C26.3795 75.9856 26.534 75.8998 26.7008 75.8467C26.8885 75.7858 27.0849 75.7558 27.2822 75.758C27.5657 75.7548 27.8477 75.8006 28.1155 75.8934C28.3682 75.9832 28.6043 76.1142 28.814 76.2812L28.3424 76.9634C28.1725 76.8461 27.991 76.7466 27.8006 76.6666C27.6329 76.5959 27.4529 76.5589 27.2709 76.5578C27.1305 76.548 26.9907 76.5842 26.8728 76.661C26.8319 76.69 26.7986 76.7283 26.7755 76.7727C26.7525 76.8172 26.7405 76.8665 26.7404 76.9166V76.9287C26.739 76.9887 26.7523 77.0483 26.7792 77.102C26.8122 77.1581 26.8603 77.2039 26.9181 77.2343C27.005 77.2817 27.0971 77.319 27.1926 77.3455C27.3089 77.381 27.455 77.4261 27.6327 77.4697C27.8227 77.5183 28.0091 77.58 28.1906 77.6543C28.3404 77.715 28.4799 77.7985 28.604 77.9018C28.713 77.9939 28.7997 78.1094 28.8576 78.2397C28.9182 78.3868 28.9473 78.545 28.9432 78.7041V78.7162C28.9466 78.9033 28.9086 79.0889 28.8317 79.2596C28.7614 79.4164 28.6552 79.5545 28.5217 79.6628C28.3809 79.7751 28.2197 79.8591 28.0469 79.9103C27.8476 79.9665 27.641 79.9926 27.434 79.9877Z" fill="white"/>
<path d="M31.2169 75.813H32.1237V79.1123H34.1787V79.9298H31.2169V75.813Z" fill="white"/>
<path d="M38.3509 79.9998C38.05 80.0033 37.7515 79.9462 37.4732 79.8321C37.2156 79.727 36.9807 79.5735 36.7812 79.3798C36.5862 79.189 36.4319 78.9608 36.3274 78.709C36.2188 78.447 36.1639 78.166 36.1659 77.8825V77.8713C36.1628 77.5877 36.2178 77.3065 36.3274 77.0448C36.4349 76.7892 36.592 76.5573 36.7896 76.3624C36.9872 76.1676 37.2214 76.0137 37.4788 75.9096C38.0436 75.687 38.6719 75.687 39.2367 75.9096C39.4941 76.0153 39.729 76.1691 39.9287 76.3627C40.1234 76.5534 40.2777 76.7813 40.3825 77.0327C40.491 77.2947 40.5459 77.5757 40.544 77.8592V77.8713C40.547 78.1546 40.4921 78.4355 40.3825 78.6969C40.2749 78.9526 40.1179 79.1845 39.9203 79.3793C39.7226 79.5741 39.4884 79.728 39.231 79.8321C38.9518 79.9461 38.6525 80.0031 38.3509 79.9998ZM38.3622 79.1645C38.5342 79.1665 38.7048 79.1324 38.8628 79.0645C39.0114 79.0013 39.1449 78.9073 39.2544 78.7888C39.3635 78.6693 39.4494 78.5307 39.508 78.38C39.5694 78.2214 39.6003 78.0526 39.5992 77.8825V77.8713C39.6002 77.7004 39.5692 77.5309 39.508 77.3714C39.45 77.2185 39.362 77.0786 39.2493 76.96C39.1366 76.8413 39.0014 76.7463 38.8515 76.6804C38.6939 76.6108 38.5232 76.5756 38.3509 76.5772C38.1778 76.5751 38.0062 76.6091 37.847 76.6772C37.6996 76.7412 37.5673 76.8354 37.4586 76.9537C37.3493 77.073 37.2633 77.2117 37.2051 77.3625C37.1437 77.5209 37.1128 77.6894 37.1139 77.8592V77.8713C37.113 78.0421 37.1439 78.2116 37.2051 78.3712C37.2634 78.524 37.3515 78.6638 37.4643 78.7823C37.5764 78.9004 37.7105 78.9954 37.8591 79.0621C38.0175 79.132 38.1891 79.167 38.3622 79.1645Z" fill="white"/>
<path d="M44.8251 79.9999C44.5239 80.0029 44.2248 79.9482 43.9442 79.8387C43.6891 79.7391 43.4567 79.589 43.2611 79.3976C43.0688 79.2069 42.9176 78.9789 42.817 78.7276C42.7078 78.4585 42.6529 78.1705 42.6555 77.8802V77.8689C42.6531 77.5854 42.7081 77.3043 42.817 77.0425C43.0285 76.5297 43.435 76.1214 43.9474 75.9073C44.2217 75.7938 44.5162 75.737 44.813 75.7404C44.9817 75.7389 45.1503 75.7515 45.3169 75.7783C45.4601 75.802 45.6009 75.8384 45.7376 75.8871C45.8654 75.9328 45.988 75.992 46.1034 76.0637C46.2193 76.1357 46.3294 76.2166 46.4328 76.3056L45.8619 76.9933C45.7871 76.9296 45.7084 76.8706 45.6261 76.8167C45.5494 76.7666 45.4683 76.7235 45.3839 76.6877C45.2957 76.6516 45.2039 76.6245 45.1102 76.6071C45.0038 76.5864 44.8956 76.5764 44.7872 76.5773C44.6271 76.5764 44.469 76.6117 44.3245 76.6805C44.1826 76.7482 44.0549 76.8424 43.9482 76.9578C43.839 77.075 43.7529 77.2118 43.6947 77.361C43.633 77.5198 43.602 77.6889 43.6034 77.8593V77.8705C43.6013 78.0486 43.6322 78.2255 43.6947 78.3922C43.7522 78.5469 43.8403 78.6884 43.9539 78.8082C44.0652 78.9258 44.1996 79.0191 44.3487 79.0824C44.5081 79.1486 44.6792 79.1815 44.8518 79.1791C45.1557 79.189 45.4549 79.102 45.7061 78.9308V78.3382H44.7928V77.5561H46.583V79.3436C46.355 79.5341 46.1001 79.6898 45.8264 79.8056C45.5096 79.9387 45.1687 80.0048 44.8251 79.9999Z" fill="white"/>
<path d="M50.3602 75.7842H51.196L52.9627 79.93H52.0147L51.6376 79.006H49.8943L49.518 79.93H48.5935L50.3602 75.7842ZM51.3139 78.203L50.7664 76.8678L50.2189 78.203H51.3139Z" fill="white"/>
<path d="M55.0815 75.813H55.9181L57.8495 78.3479V75.813H58.745V79.9298H57.9739L55.977 77.3127V79.9298H55.0815V75.813Z" fill="white"/>
</svg>
