<svg width="35" height="35" viewBox="0 0 35 35" fill="none" xmlns="http://www.w3.org/2000/svg">
  <path d="M34.6041 13.3053L28.9828 8.60861V4.82274C28.9828 4.5317 28.8676 4.25258 28.6625 4.04679C28.4574 3.841 28.1792 3.72538 27.8892 3.72538C27.5991 3.72538 27.321 3.841 27.1159 4.04679C26.9108 4.25258 26.7956 4.5317 26.7956 4.82274V6.77603L19.5994 0.762525C19.0099 0.269813 18.2669 0 17.4996 0C16.7324 0 15.9894 0.269813 15.3998 0.762525L0.39508 13.3053C0.17174 13.4916 0.0312904 13.7592 0.00462775 14.0494C-0.0220349 14.3396 0.0672737 14.6285 0.252907 14.8526C0.438539 15.0767 0.705291 15.2176 0.994478 15.2443C1.28367 15.2711 1.5716 15.1815 1.79494 14.9952L16.7997 2.44696C16.9962 2.28273 17.2439 2.19279 17.4996 2.19279C17.7554 2.19279 18.003 2.28273 18.1995 2.44696L30.6233 12.8334V31.7079C30.6233 31.999 30.5081 32.2781 30.303 32.4839C30.0979 32.6897 29.8197 32.8053 29.5297 32.8053H24.0615V20.7344C24.0615 19.8613 23.7158 19.0239 23.1005 18.4065C22.4852 17.7892 21.6507 17.4423 20.7805 17.4423H14.2187C13.3485 17.4423 12.514 17.7892 11.8987 18.4065C11.2834 19.0239 10.9378 19.8613 10.9378 20.7344V32.8053H5.46957C5.17952 32.8053 4.90135 32.6897 4.69625 32.4839C4.49115 32.2781 4.37593 31.999 4.37593 31.7079V18.5397C4.37593 18.2486 4.26071 17.9695 4.05561 17.7637C3.85051 17.5579 3.57234 17.4423 3.28229 17.4423C2.99224 17.4423 2.71407 17.5579 2.50897 17.7637C2.30387 17.9695 2.18865 18.2486 2.18865 18.5397V31.7079C2.18865 32.581 2.53432 33.4184 3.14961 34.0358C3.7649 34.6532 4.59942 35 5.46957 35H29.5297C30.3998 35 31.2343 34.6532 31.8496 34.0358C32.4649 33.4184 32.8106 32.581 32.8106 31.7079V14.666L33.2043 14.9952C33.401 15.1588 33.6487 15.2481 33.9042 15.2476C34.1294 15.2481 34.3493 15.1787 34.5337 15.0491C34.7182 14.9195 34.8583 14.7359 34.9348 14.5234C35.0114 14.3109 35.0207 14.0799 34.9615 13.8619C34.9024 13.6438 34.7775 13.4495 34.6041 13.3053ZM13.1251 32.8053V20.7344C13.1251 20.4433 13.2403 20.1642 13.4454 19.9584C13.6505 19.7526 13.9286 19.637 14.2187 19.637H20.7805C21.0706 19.637 21.3488 19.7526 21.5539 19.9584C21.759 20.1642 21.8742 20.4433 21.8742 20.7344V32.8053H13.1251Z" fill="#6990FF"/>
  <path d="M16.406 27.3187C17.01 27.3187 17.4996 26.8274 17.4996 26.2214C17.4996 25.6153 17.01 25.124 16.406 25.124C15.802 25.124 15.3123 25.6153 15.3123 26.2214C15.3123 26.8274 15.802 27.3187 16.406 27.3187Z" fill="#6990FF"/>
</svg> 