<svg width="35" height="25" viewBox="0 0 35 25" fill="none" xmlns="http://www.w3.org/2000/svg">
<path d="M31.9238 0H3.07617C1.37655 0 0 1.3851 0 3.07617V21.5332C0 23.2343 1.38667 24.6094 3.07617 24.6094H31.9238C33.6092 24.6094 35 23.2401 35 21.5332V3.07617C35 1.38811 33.6289 0 31.9238 0ZM31.493 2.05078C30.8645 2.67593 20.0486 13.4349 19.6752 13.8063C19.0941 14.3874 18.3217 14.7073 17.5 14.7073C16.6783 14.7073 15.9059 14.3873 15.3229 13.8044C15.0717 13.5546 4.37521 2.91443 3.50697 2.05078H31.493ZM2.05078 21.1158V3.49487L10.9128 12.3102L2.05078 21.1158ZM3.50827 22.5586L12.3668 13.7564L13.8747 15.2564C14.8431 16.2248 16.1306 16.7581 17.5 16.7581C18.8694 16.7581 20.1569 16.2248 21.1234 15.2584L22.6332 13.7564L31.4917 22.5586H3.50827ZM32.9492 21.1158L24.0872 12.3102L32.9492 3.49487V21.1158Z" fill="#6990FF"/>
</svg>
