<svg width="35" height="35" viewBox="0 0 35 35" fill="none" xmlns="http://www.w3.org/2000/svg">
<path d="M27.6758 21.6812C26.9582 20.9351 26.0927 20.5362 25.1754 20.5362C24.2654 20.5362 23.3925 20.9277 22.6453 21.6738L20.3077 24.0007C20.1153 23.8973 19.923 23.8013 19.738 23.7052C19.4717 23.5723 19.2202 23.4467 19.0057 23.3137C16.8159 21.925 14.8259 20.1152 12.9173 17.7735C11.9926 16.6063 11.3712 15.6239 10.9199 14.6266C11.5265 14.0726 12.0888 13.4964 12.6362 12.9424C12.8433 12.7356 13.0505 12.5213 13.2576 12.3145C14.8111 10.7632 14.8111 8.75396 13.2576 7.2027L11.238 5.18605C11.0087 4.95705 10.772 4.72067 10.55 4.48428C10.1062 4.02629 9.64011 3.55352 9.15925 3.1103C8.44167 2.40115 7.58354 2.02441 6.68101 2.02441C5.77849 2.02441 4.90555 2.40115 4.16578 3.1103C4.15838 3.11769 4.15838 3.11769 4.15098 3.12508L1.63575 5.65881C0.68884 6.60435 0.148805 7.75672 0.0304406 9.09377C-0.147105 11.2508 0.489101 13.26 0.977352 14.5749C2.17579 17.803 3.96604 20.7948 6.63662 24.0007C9.87684 27.8641 13.7754 30.9149 18.2289 33.0646C19.9304 33.8697 22.2015 34.8227 24.7389 34.9852C24.8943 34.9926 25.057 34.9999 25.205 34.9999C26.9138 34.9999 28.349 34.3868 29.4735 33.168C29.4809 33.1532 29.4956 33.1458 29.503 33.131C29.8877 32.6657 30.3316 32.2446 30.7977 31.794C31.1158 31.4911 31.4413 31.1735 31.7594 30.8411C32.4917 30.0802 32.8764 29.1938 32.8764 28.2852C32.8764 27.3692 32.4843 26.4901 31.7372 25.7514L27.6758 21.6812ZM30.3242 29.4597C30.3168 29.4597 30.3168 29.4671 30.3242 29.4597C30.0357 29.77 29.7398 30.0507 29.4217 30.3609C28.9408 30.8189 28.4526 31.2991 27.9939 31.8383C27.2467 32.6361 26.3664 33.0128 25.2124 33.0128C25.1014 33.0128 24.983 33.0128 24.8721 33.0055C22.6749 32.8651 20.6332 32.0082 19.1018 31.2769C14.9147 29.2529 11.238 26.3793 8.18275 22.7375C5.66012 19.7015 3.97344 16.8944 2.85638 13.8805C2.16839 12.0412 1.91687 10.6081 2.02783 9.25628C2.10181 8.392 2.43471 7.67546 3.04872 7.06234L5.57135 4.54338C5.93384 4.20358 6.31852 4.0189 6.69581 4.0189C7.16186 4.0189 7.53915 4.29961 7.77588 4.53599C7.78328 4.54338 7.79067 4.55077 7.79807 4.55815C8.24933 4.97921 8.6784 5.41504 9.12966 5.88042C9.35899 6.11681 9.59572 6.35319 9.83245 6.59696L11.852 8.61361C12.6362 9.39663 12.6362 10.1206 11.852 10.9036C11.6375 11.1178 11.4304 11.332 11.2158 11.5389C10.5944 12.1741 10.0026 12.7651 9.35899 13.3413C9.3442 13.3561 9.3294 13.3634 9.32201 13.3782C8.6858 14.0135 8.80416 14.634 8.93732 15.0551C8.94472 15.0772 8.95212 15.0994 8.95952 15.1216C9.48476 16.3921 10.2245 17.5888 11.349 19.0145L11.3564 19.0219C13.3982 21.5335 15.5509 23.491 17.9256 24.9906C18.2289 25.1826 18.5396 25.3378 18.8355 25.4855C19.1018 25.6185 19.3533 25.744 19.5679 25.877C19.5975 25.8918 19.6271 25.9139 19.6567 25.9287C19.9082 26.0543 20.1449 26.1134 20.389 26.1134C21.003 26.1134 21.3877 25.7293 21.5135 25.6037L24.0435 23.0773C24.295 22.8262 24.6945 22.5233 25.1606 22.5233C25.6192 22.5233 25.9965 22.8114 26.2258 23.0626C26.2332 23.07 26.2332 23.07 26.2406 23.0773L30.3168 27.1476C31.0788 27.901 31.0788 28.6767 30.3242 29.4597Z" fill="#6990FF"/>
<path d="M18.9169 8.32595C20.8551 8.65098 22.6158 9.56696 24.0213 10.9705C25.4269 12.374 26.3368 14.1321 26.6697 16.0675C26.7511 16.5551 27.1728 16.8949 27.6536 16.8949C27.7128 16.8949 27.7646 16.8875 27.8238 16.8801C28.3712 16.7914 28.7337 16.2744 28.6449 15.7277C28.2455 13.386 27.1358 11.2512 25.4417 9.55958C23.7476 7.86795 21.6097 6.7599 19.2646 6.36101C18.7172 6.27236 18.2067 6.63433 18.1105 7.17358C18.0144 7.71283 18.3695 8.2373 18.9169 8.32595Z" fill="#6990FF"/>
<path d="M34.9848 15.4392C34.3264 11.5832 32.5066 8.07441 29.7102 5.28213C26.9139 2.48985 23.3999 0.672646 19.5383 0.0152035C18.9983 -0.0808274 18.4878 0.288522 18.3917 0.827773C18.3029 1.37441 18.6654 1.88411 19.2128 1.98014C22.6602 2.56372 25.8042 4.19624 28.3046 6.68566C30.8051 9.18246 32.4326 12.3219 33.017 15.7643C33.0984 16.2518 33.52 16.5916 34.0009 16.5916C34.0601 16.5916 34.1119 16.5842 34.171 16.5768C34.7111 16.4956 35.081 15.9785 34.9848 15.4392Z" fill="#6990FF"/>
</svg>
