<svg width="32" height="32" viewBox="0 0 32 32" fill="none" xmlns="http://www.w3.org/2000/svg">
<path d="M16 32C24.8366 32 32 24.8366 32 16C32 7.16344 24.8366 0 16 0C7.16344 0 0 7.16344 0 16C0 24.8366 7.16344 32 16 32Z" fill="#3A559F"/>
<path d="M21.0691 14.1055L20.7473 16.8927C20.7339 17.0199 20.6743 17.1378 20.5798 17.2239C20.4853 17.31 20.3624 17.3585 20.2346 17.36H17.3255L17.3109 25.6236C17.3119 25.7216 17.2743 25.8159 17.2063 25.8864C17.1382 25.9568 17.0452 25.9976 16.9473 26H14C13.951 26 13.9025 25.9902 13.8574 25.971C13.8123 25.9518 13.7716 25.9237 13.7376 25.8884C13.7036 25.8531 13.6772 25.8113 13.6598 25.7654C13.6424 25.7196 13.6344 25.6708 13.6364 25.6218V17.36H11.4546C11.386 17.3593 11.3183 17.3451 11.2553 17.3182C11.1923 17.2913 11.1351 17.2523 11.0872 17.2033C11.0392 17.1544 11.0014 17.0964 10.9758 17.0328C10.9503 16.9693 10.9375 16.9013 10.9382 16.8327L10.9273 14.0455C10.9263 13.9767 10.9389 13.9084 10.9644 13.8445C10.9898 13.7806 11.0276 13.7223 11.0755 13.673C11.1235 13.6237 11.1807 13.5844 11.2438 13.5572C11.307 13.53 11.3749 13.5155 11.4437 13.5145H13.6364V10.8236C13.6364 7.7 15.4909 6 18.2109 6H20.44C20.5089 6.00071 20.577 6.01502 20.6404 6.04211C20.7038 6.0692 20.7612 6.10854 20.8094 6.15786C20.8575 6.20719 20.8954 6.26553 20.921 6.32955C20.9465 6.39356 20.9592 6.46199 20.9582 6.53091V8.87636C20.9592 8.94528 20.9465 9.01371 20.921 9.07773C20.8954 9.14174 20.8575 9.20009 20.8094 9.24941C20.7612 9.29874 20.7038 9.33807 20.6404 9.36516C20.577 9.39225 20.5089 9.40656 20.44 9.40727H19.0728C17.5946 9.40727 17.3073 10.1345 17.3073 11.1855V13.5145H20.5564C20.6303 13.5155 20.7031 13.532 20.7702 13.5631C20.8372 13.5942 20.8969 13.6392 20.9453 13.695C20.9938 13.7508 21.0298 13.8162 21.0512 13.887C21.0725 13.9577 21.0786 14.0322 21.0691 14.1055Z" fill="white"/>
</svg>
