<svg width="43" height="42" viewBox="0 0 43 42" fill="none" xmlns="http://www.w3.org/2000/svg">
<path d="M41.947 20.9045C42.9612 18.898 42.5413 16.5162 40.9019 14.9776L38.5226 12.7443C37.9737 12.2293 37.6383 11.6481 37.4665 10.9151L36.7221 7.73807C36.2095 5.54904 34.3567 3.99437 32.1118 3.86952L28.8538 3.68828C28.1022 3.64647 27.4715 3.4169 26.8689 2.96592L24.2566 1.01048C22.4569 -0.33674 20.0382 -0.336911 18.2382 1.01048L15.6259 2.96583C15.0233 3.4169 14.3926 3.64647 13.6411 3.68828L10.383 3.86952C8.13823 3.99437 6.28544 5.54904 5.77268 7.73807L5.02829 10.9152C4.85665 11.6481 4.52109 12.2293 3.97233 12.7444L1.5929 14.9776C-0.0464374 16.5161 -0.466403 18.898 0.547822 20.9045L2.01997 23.8167C2.35956 24.4885 2.4761 25.1494 2.38673 25.8968L1.99941 29.1369C1.73266 31.3692 2.94191 33.4637 5.00858 34.3489L8.00824 35.6335C8.7001 35.9299 9.21424 36.3612 9.62632 36.9911L11.4124 39.7222C12.6428 41.6037 14.9154 42.431 17.0677 41.7805L20.1913 40.8366C20.9118 40.6187 21.583 40.6188 22.3034 40.8366L25.4269 41.7805C25.9166 41.9285 26.4124 42 26.9008 42C28.5592 41.9999 30.1318 41.1756 31.0823 39.7222L32.8684 36.9911C33.2804 36.3612 33.7945 35.9298 34.4864 35.6335L37.4861 34.3488C39.5527 33.4636 40.7621 31.3691 40.4952 29.1368L40.1079 25.8966C40.0185 25.1493 40.1351 24.4883 40.4747 23.8166L41.947 20.9045ZM39.2513 23.1982C38.7905 24.1097 38.6255 25.0456 38.7467 26.0595L39.1341 29.2996C39.3311 30.9479 38.4724 32.4351 36.9465 33.0886L33.9468 34.3733C33.0081 34.7754 32.2801 35.3862 31.7211 36.2408L29.935 38.9719C29.0265 40.3611 27.4125 40.9484 25.8237 40.4682L22.7001 39.5242C22.2113 39.3765 21.7295 39.3026 21.2474 39.3026C20.7655 39.3026 20.2834 39.3765 19.7947 39.5242L16.6711 40.4682C15.0823 40.9483 13.4684 40.3611 12.5598 38.9719L10.7738 36.2408C10.2148 35.3862 9.48665 34.7753 8.548 34.3733L5.54834 33.0886C4.02237 32.4352 3.16376 30.9479 3.36076 29.2996L3.74808 26.0595C3.86933 25.0455 3.70429 24.1096 3.24354 23.1982L1.77139 20.286C1.02263 18.8045 1.32074 17.1133 2.53111 15.9772L4.91055 13.7441C5.65511 13.0453 6.13026 12.2222 6.36316 11.2279L7.10755 8.05075C7.48613 6.43456 8.80173 5.33062 10.4591 5.2385L13.7172 5.05727C14.7368 5.00054 15.6298 4.67543 16.4474 4.06352L19.0597 2.10808C20.3886 1.11339 22.1061 1.1133 23.435 2.10808L26.0473 4.06352C26.8649 4.67543 27.758 5.00054 28.7776 5.05727L32.0356 5.2385C33.6931 5.3307 35.0086 6.43456 35.3872 8.05084L36.1316 11.2279C36.3645 12.2223 36.8397 13.0454 37.5843 13.7441L39.9636 15.9772C41.174 17.1132 41.4721 18.8045 40.7233 20.286L39.2513 23.1982ZM21.2475 6.98469C13.52 6.98469 7.23326 13.2714 7.23326 20.9989C7.23326 28.7264 13.52 35.0132 21.2475 35.0132C28.975 35.0132 35.2617 28.7264 35.2617 20.9989C35.2617 13.2714 28.975 6.98469 21.2475 6.98469ZM21.2475 33.6421C14.276 33.6421 8.6043 27.9704 8.6043 20.9989C8.6043 14.0275 14.276 8.35573 21.2475 8.35573C28.219 8.35573 33.8907 14.0275 33.8907 20.9989C33.8907 27.9704 28.219 33.6421 21.2475 33.6421ZM27.0824 14.6467C27.079 14.6467 27.0755 14.6467 27.0722 14.6467C26.3872 14.6494 25.7448 14.9186 25.2634 15.4049L19.5787 21.1462L17.231 18.7984C16.7461 18.3136 16.1014 18.0466 15.4155 18.0466C14.7296 18.0466 14.0849 18.3136 13.6 18.7985C12.5991 19.7995 12.5991 21.4283 13.6 22.4293L17.7698 26.599C18.2703 27.0994 18.9277 27.3497 19.5852 27.3497C20.2427 27.3497 20.9002 27.0995 21.4007 26.599C22.9816 25.018 24.5767 23.4 26.1194 21.8354C27.0463 20.8951 27.9734 19.955 28.9026 19.017C29.8968 18.0137 29.8915 16.388 28.8909 15.393C28.4069 14.9114 27.765 14.6467 27.0824 14.6467ZM27.9287 18.0519C26.9987 18.9907 26.0708 19.9317 25.143 20.8728C23.6021 22.4358 22.0087 24.052 20.4312 25.6294C19.9647 26.0959 19.2056 26.0959 18.7393 25.6294L14.5696 21.4597C14.1032 20.9933 14.1032 20.2342 14.5696 19.7677C14.7955 19.5419 15.0959 19.4174 15.4155 19.4174C15.7351 19.4174 16.0356 19.5419 16.2615 19.7677L19.0963 22.6027C19.225 22.7312 19.3993 22.8035 19.5811 22.8035H19.5828C19.7652 22.803 19.94 22.7299 20.0682 22.6003L26.2377 16.3694C26.461 16.1437 26.7593 16.0188 27.0775 16.0176H27.0823C27.4001 16.0176 27.6989 16.1408 27.9243 16.3649C28.3897 16.828 28.3917 17.5846 27.9287 18.0519Z" fill="#6990FF"/>
</svg>
