<svg width="38" height="42" viewBox="0 0 38 42" fill="none" xmlns="http://www.w3.org/2000/svg">
<path d="M29.9104 29.8317L26.0115 28.5324L24.6118 25.7329C25.8727 24.4494 26.7483 22.7512 27.0435 20.9799L27.2181 19.9336H28.7109C30.0679 19.9336 31.1719 18.8296 31.1719 17.4727V12.3047C31.1719 5.51988 25.652 0 18.8672 0C12.065 0 6.5625 5.50405 6.5625 12.3047V17.4727C6.5625 18.542 7.24836 19.4539 8.20312 19.7925V20.7539C8.20312 22.1109 9.3071 23.2148 10.6641 23.2148H11.3845C11.7401 23.9873 12.2003 24.7028 12.7605 25.3455C12.8766 25.4791 12.9978 25.6085 13.1219 25.7344L11.7229 28.5324L7.82389 29.8318C3.29044 31.3435 0 36.116 0 41.1797C0 41.6327 0.367254 42 0.820312 42H36.9141C37.367 42 37.7344 41.6327 37.7344 41.1797C37.7344 36.116 34.444 31.3435 29.9104 29.8317ZM29.5312 17.4727C29.5312 17.925 29.1633 18.293 28.7109 18.293H27.459C27.6675 16.6778 27.8065 14.959 27.8623 13.2661C27.864 13.2184 27.8653 13.1719 27.8668 13.125H29.5312V17.4727ZM9.02344 18.293C8.57112 18.293 8.20312 17.925 8.20312 17.4727V13.125H9.8682C9.8709 13.2106 9.87377 13.2965 9.87697 13.3831C9.87705 13.386 9.87722 13.3889 9.8773 13.3918C9.8773 13.3921 9.8773 13.3923 9.8773 13.3926C9.93472 15.0391 10.0719 16.7133 10.2756 18.2929H9.02344V18.293ZM10.6641 21.5742C10.2117 21.5742 9.84375 21.2062 9.84375 20.7539V19.9336H10.5162L10.6908 20.9802C10.7241 21.1792 10.765 21.3773 10.8124 21.5742H10.6641ZM9.84514 11.4844H8.2343C8.64979 5.98656 13.238 1.64062 18.8672 1.64062C24.4714 1.64062 29.0797 5.98598 29.5 11.4844H27.8893C27.8302 6.95404 24.1411 3.28125 19.6014 3.28125H18.1331C13.5936 3.28125 9.90413 6.95404 9.84514 11.4844ZM18.133 4.92188H19.6014C23.2771 4.92188 26.2521 7.9284 26.25 11.6C26.25 11.8582 26.2479 12.083 26.2436 12.2875C26.2436 12.2901 26.2435 12.2928 26.2435 12.2955L25.2175 12.1489C22.43 11.7509 19.7982 10.4349 17.8066 8.44339C17.6527 8.28959 17.4441 8.20312 17.2266 8.20312C15.0235 8.20312 12.9147 9.20686 11.5206 10.9026C11.8642 7.56238 14.6879 4.92188 18.133 4.92188ZM12.513 21.5742C12.1024 20.2082 11.6325 16.1886 11.5287 13.6128L12.6327 12.1407C13.6467 10.7892 15.2243 9.94941 16.9024 9.85302C19.1104 11.9543 21.9669 13.342 24.9855 13.773L26.1932 13.9456C26.1124 15.6588 25.9475 17.378 25.7111 18.9591C25.7111 18.9596 25.711 18.9602 25.7109 18.9608C25.6357 19.4691 25.5765 19.7963 25.4253 20.71C24.9908 23.3157 23.0465 25.6721 20.4798 26.3138C19.4235 26.5776 18.3107 26.5775 17.2549 26.3138C15.6523 25.9132 14.1828 24.8043 13.2344 23.2148H14.9067C15.2453 24.1696 16.1571 24.8555 17.2266 24.8555H18.8672C20.2269 24.8555 21.3281 23.7543 21.3281 22.3945C21.3281 21.0376 20.2241 19.9336 18.8672 19.9336H17.2266C16.1333 19.9336 15.235 20.6397 14.9053 21.5742H12.513ZM17.1576 27.974C17.7202 28.0925 18.2939 28.1531 18.8672 28.1531C19.316 28.1531 19.7649 28.1156 20.2086 28.0427L18.7592 29.5756L17.1576 27.974ZM17.6314 30.7682L15.0295 33.5197C14.3132 32.1486 13.6977 30.7217 13.1929 29.2609L14.17 27.3067L17.6314 30.7682ZM23.4253 27.0288L24.5413 29.2608C24.0357 30.7241 23.42 32.1515 22.7044 33.5209L19.9196 30.7361L23.4253 27.0288ZM16.4062 22.3945C16.4062 21.9416 16.7736 21.5742 17.2266 21.5742H18.8672C19.3195 21.5742 19.6875 21.9422 19.6875 22.3945C19.6875 22.8475 19.3201 23.2148 18.8672 23.2148H17.2266C16.7742 23.2148 16.4062 22.8469 16.4062 22.3945ZM1.67344 40.3594C1.99853 36.2956 4.70302 32.6019 8.34274 31.3882L11.7958 30.2375C12.4284 31.9868 13.2121 33.687 14.1306 35.3021C14.1322 35.3049 14.1337 35.3076 14.1352 35.3104C14.1352 35.3104 14.1353 35.3104 14.1353 35.3105C14.8064 36.4909 15.5617 37.6443 16.3807 38.7393L17.3898 40.3594H1.67344ZM18.8672 39.6281L17.7547 37.8421C17.7422 37.8221 17.7289 37.8026 17.7148 37.7838C17.0505 36.8977 16.4309 35.971 15.8665 35.0224L18.792 31.9287L21.8745 35.0113C21.3064 35.9667 20.6846 36.8972 20.0197 37.7836C19.9795 37.8372 20.0365 37.7528 18.8672 39.6281ZM20.3446 40.3594L21.3536 38.7394C22.1762 37.6402 22.9369 36.4775 23.6147 35.2833C23.6188 35.2761 23.6227 35.2687 23.6268 35.2615C23.6273 35.2606 23.6278 35.2597 23.6283 35.2588C24.5351 33.6592 25.3107 31.9737 25.9386 30.2375L29.3916 31.3882C33.0314 32.6019 35.7358 36.2956 36.0609 40.3594H20.3446Z" fill="#6990FF"/>
</svg>
