<svg width="42" height="42" viewBox="0 0 42 42" fill="none" xmlns="http://www.w3.org/2000/svg">
<path d="M35.9032 12.1936H30.4839V16.2581H35.9032V12.1936ZM34.5484 14.9033H31.8387V13.5484H34.5484V14.9033Z" fill="#6990FF"/>
<path d="M38.6129 17.6129V10.7141C39.3994 10.4336 39.9677 9.68845 39.9677 8.80645V7.45161L37.7621 0H20.496L18.3188 7.25719L18.2903 8.80645C18.2903 9.68845 18.8587 10.4336 19.6452 10.7141V17.6129H13.755C15.6748 16.2635 16.9355 14.0361 16.9355 11.5161C16.9355 7.40758 13.5924 4.06452 9.48387 4.06452C5.37532 4.06452 2.03226 7.40758 2.03226 11.5161C2.03226 14.0361 3.29294 16.2635 5.21274 17.6129H3.3871C1.51945 17.6129 0 19.1324 0 21V38.6129C0 40.4805 1.51945 42 3.3871 42H38.6129C40.4805 42 42 40.4805 42 38.6129V21C42 19.1324 40.4805 17.6129 38.6129 17.6129ZM37.9355 9.48387H33.871C33.497 9.48387 33.1936 9.17971 33.1936 8.80645V8.12903H38.6129V8.80645C38.6129 9.17971 38.3094 9.48387 37.9355 9.48387ZM31.8387 8.80645C31.8387 9.17971 31.5352 9.48387 31.1613 9.48387H27.0968C26.7228 9.48387 26.4194 9.17971 26.4194 8.80645V8.12903H31.8387V8.80645ZM25.0645 8.80645C25.0645 9.17971 24.761 9.48387 24.3871 9.48387H20.3226C19.9486 9.48387 19.6452 9.17971 19.6452 8.80645V8.12903H25.0645V8.80645ZM26.4905 6.77419L27.0324 1.35484H31.2256L31.7703 6.77419H26.4905ZM38.3799 6.77419H33.1292L32.5873 1.35484H36.7541L38.3799 6.77419ZM21.504 1.35484H25.6708L25.1316 6.77419H19.8782L21.504 1.35484ZM21 10.8387H24.3871C24.9094 10.8387 25.3815 10.6348 25.7419 10.3103C26.1023 10.6355 26.5745 10.8387 27.0968 10.8387H31.1613C31.6836 10.8387 32.1557 10.6348 32.5161 10.3103C32.8765 10.6355 33.3487 10.8387 33.871 10.8387H37.2581V17.6129H29.129V12.1935H22.3548V17.6129H21V10.8387ZM27.7742 17.6129H23.7097V13.5484H27.7742V17.6129ZM3.3871 11.5161C3.3871 8.15477 6.12184 5.41935 9.48387 5.41935C12.8459 5.41935 15.5806 8.15477 15.5806 11.5161C15.5806 14.8775 12.8459 17.6129 9.48387 17.6129C6.12184 17.6129 3.3871 14.8775 3.3871 11.5161ZM40.6452 38.6129C40.6452 39.7334 39.7334 40.6452 38.6129 40.6452H3.3871C2.26665 40.6452 1.35484 39.7334 1.35484 38.6129V21C1.35484 19.8795 2.26665 18.9677 3.3871 18.9677H38.6129C39.7334 18.9677 40.6452 19.8795 40.6452 21V38.6129Z" fill="#6990FF"/>
<path d="M35.2258 20.3225H6.77415C6.02696 20.3225 5.41931 20.9302 5.41931 21.6773V37.9354C5.41931 38.6826 6.02696 39.2903 6.77415 39.2903H35.2258C35.973 39.2903 36.5806 38.6826 36.5806 37.9354V21.6773C36.5806 20.9302 35.973 20.3225 35.2258 20.3225ZM35.2258 37.9354H6.77415V21.6773L35.2258 21.6767V37.9354Z" fill="#6990FF"/>
<path d="M37.9354 26.4194H39.2903V33.1936H37.9354V26.4194Z" fill="#6990FF"/>
<path d="M2.70972 31.8386H4.06456V33.1935H2.70972V31.8386Z" fill="#6990FF"/>
<path d="M2.70972 26.4194H4.06456V30.4839H2.70972V26.4194Z" fill="#6990FF"/>
<path d="M10.1613 27.0967H12.6704L13.4664 32.6665C12.7213 32.9679 12.1935 33.6968 12.1935 34.5484C12.1935 35.6688 13.1054 36.5806 14.2258 36.5806C15.3463 36.5806 16.2581 35.6688 16.2581 34.5484C16.2581 34.3099 16.2093 34.0836 16.1334 33.8709H20.4479C20.3714 34.0836 20.3226 34.3099 20.3226 34.5484C20.3226 35.6688 21.2344 36.5806 22.3548 36.5806C23.4753 36.5806 24.3871 35.6688 24.3871 34.5484C24.3871 33.73 23.898 33.0269 23.1989 32.7051L24.3614 28.6372L24.3871 27.0967H14.0395L13.7083 24.7766C13.5653 23.7821 12.7009 23.0322 11.6963 23.0322H10.1613C9.04083 23.0322 8.12903 23.944 8.12903 25.0645C8.12903 26.1849 9.04083 27.0967 10.1613 27.0967ZM14.9032 34.5484C14.9032 34.9223 14.5997 35.2258 14.2258 35.2258C13.8519 35.2258 13.5484 34.9223 13.5484 34.5484C13.5484 34.1744 13.8519 33.8709 14.2258 33.8709C14.5997 33.8709 14.9032 34.1744 14.9032 34.5484ZM22.3548 35.2258C21.9809 35.2258 21.6774 34.9223 21.6774 34.5484C21.6774 34.1744 21.9809 33.8709 22.3548 33.8709C22.7288 33.8709 23.0323 34.1744 23.0323 34.5484C23.0323 34.9223 22.7288 35.2258 22.3548 35.2258ZM23.0052 28.4516L21.8434 32.5161H14.8131L14.2326 28.4516H23.0052ZM10.1613 24.3871H11.6963C12.031 24.3871 12.3195 24.637 12.3663 24.9683L12.4767 25.7419H10.1613C9.78735 25.7419 9.48387 25.4384 9.48387 25.0645C9.48387 24.6905 9.78735 24.3871 10.1613 24.3871Z" fill="#6990FF"/>
<path d="M10.1613 9.48385C10.5352 9.48385 10.8387 9.78801 10.8387 10.1613H12.1935C12.1935 9.04081 11.2817 8.12901 10.1613 8.12901V6.77417H8.80643V8.12901H6.77417V10.1613C6.77417 11.2817 7.68598 12.1935 8.80643 12.1935H10.1613C10.5352 12.1935 10.8387 12.4977 10.8387 12.8709V13.5484H8.80643C8.43249 13.5484 8.12901 13.2442 8.12901 12.8709H6.77417C6.77417 13.9914 7.68598 14.9032 8.80643 14.9032V16.258H10.1613V14.9032H12.1935V12.8709C12.1935 11.7505 11.2817 10.8387 10.1613 10.8387H8.80643C8.43249 10.8387 8.12901 10.5345 8.12901 10.1613V9.48385H10.1613Z" fill="#6990FF"/>
<path d="M33.871 23.0322H25.7419V31.1613H33.871V23.0322ZM32.5161 29.8064H27.0968V24.3871H32.5161V29.8064Z" fill="#6990FF"/>
<path d="M32.5161 32.5161H33.871V36.5806H32.5161V32.5161Z" fill="#6990FF"/>
<path d="M29.8064 32.5161H31.1612V36.5806H29.8064V32.5161Z" fill="#6990FF"/>
<path d="M27.0968 32.5161H28.4516V36.5806H27.0968V32.5161Z" fill="#6990FF"/>
</svg>
