<svg width="42" height="42" viewBox="0 0 42 42" fill="none" xmlns="http://www.w3.org/2000/svg">
<path d="M21 0C19.8598 0.000748989 18.8985 0.931052 18.8985 2.09863C18.8985 3.26622 19.848 4.20062 21 4.20137C22.152 4.20062 23.1029 3.26622 23.1029 2.09863C23.1029 0.931052 22.1402 0.000748989 21 0ZM18.9491 4.93555C17.678 5.64515 16.8011 7.02667 16.8011 8.62012V9.44043C16.8011 10.4017 17.5725 11.1973 18.5526 11.1973H23.4488C24.4289 11.1973 25.2003 10.4017 25.2003 9.44043V8.62012C25.2003 7.02667 24.3234 5.64515 23.0523 4.93555C22.479 5.35033 21.7673 5.60107 21 5.60137C20.2327 5.60107 19.5224 5.35033 18.9491 4.93555ZM28.3177 7.20098C34.525 10.0588 38.5039 16.2613 38.5039 23.0945C38.5039 24.0034 38.433 24.9146 38.292 25.8125C38.065 26.7896 39.587 27.0294 39.6715 26.0299C39.8237 25.0602 39.904 24.0761 39.904 23.0946C39.904 15.7182 35.6077 9.01444 28.907 5.9295C28.8293 5.89213 28.7462 5.86942 28.6212 5.86114C27.8333 5.87778 27.6314 6.90067 28.3177 7.20098V7.20098ZM13.0958 5.93222C6.39507 9.01713 2.09877 15.7223 2.09877 23.0986C2.09877 24.0802 2.17894 25.0629 2.33121 26.0326C2.41567 27.0322 3.93782 26.7924 3.71079 25.8153C3.56982 24.9174 3.49886 24.0075 3.49886 23.0986C3.49886 16.2654 7.47636 10.0615 13.6837 7.20372C14.365 6.90199 14.1653 5.8855 13.3815 5.86386C13.2567 5.87148 13.1734 5.89485 13.0958 5.93222V5.93222ZM9.10059 16.8C8.3402 16.8 7.7005 17.4137 7.7005 18.2014V28C7.7005 28.7877 8.33993 29.4 9.10059 29.4H16.2159C16.4014 29.3988 16.5801 29.4721 16.7122 29.6024L20.505 33.4004C20.7879 33.6832 21.2135 33.6832 21.4963 33.4004L25.2892 29.6024C25.4213 29.4721 25.5999 29.3988 25.7855 29.4H32.9021C33.6667 29.4 34.3022 28.7877 34.3022 28V18.2014C34.3022 17.441 33.6899 16.8 32.9021 16.8H9.10059ZM12.6077 19.6C12.8658 19.6032 13.1004 19.7569 13.2147 19.9979L13.9243 21.4908L15.5131 21.7356C16.0754 21.8198 16.3015 22.5382 15.896 22.9524L14.7433 24.1172L15.0168 25.766C15.1083 26.3465 14.5241 26.7869 14.0228 26.5152L12.6022 25.7373L11.183 26.5152C10.6802 26.7943 10.0886 26.3508 10.1835 25.766L10.4569 24.1172L9.30979 22.9524C8.90497 22.5401 9.12716 21.8236 9.68715 21.7356L11.2759 21.4908L11.9855 19.9979C12.1023 19.7519 12.3441 19.5972 12.6077 19.6ZM21.0068 19.6C21.265 19.6032 21.4996 19.7569 21.6139 19.9979L22.3235 21.4908L23.9123 21.7356C24.4746 21.8198 24.7006 22.5382 24.2951 22.9524L23.1425 24.1172L23.416 25.766C23.5075 26.3465 22.9233 26.7869 22.422 26.5152L21.0014 25.7373L19.5835 26.5152C19.0807 26.7943 18.4891 26.3508 18.584 25.766L18.8575 24.1172L17.7103 22.9524C17.3055 22.5401 17.5277 21.8236 18.0877 21.7356L19.6765 21.4908L20.3861 19.9979C20.5028 19.7519 20.7433 19.5972 21.0068 19.6ZM29.4074 19.6C29.6655 19.6032 29.9001 19.7569 30.0145 19.9979L30.7241 21.4908L32.3128 21.7356C32.8752 21.8198 33.1012 22.5382 32.6957 22.9524L31.5431 24.1172L31.8165 25.766C31.908 26.3465 31.3238 26.7869 30.8225 26.5152L29.4019 25.7373L27.9827 26.5152C27.4799 26.7943 26.8883 26.3508 26.9832 25.766L27.2567 24.1172L26.1095 22.9524C25.7047 22.5401 25.9269 21.8236 26.4869 21.7356L28.0757 21.4908L28.7853 19.9979C28.902 19.7519 29.1438 19.5973 29.4074 19.6ZM12.5967 21.9283L12.3465 22.4629C12.2464 22.6751 12.0518 22.8221 11.8269 22.8553L11.265 22.94L11.6738 23.3557C11.8348 23.5194 11.9083 23.755 11.8707 23.9859L11.7723 24.5779L12.2809 24.299C12.4807 24.1897 12.7195 24.1897 12.9194 24.299L13.4267 24.5779L13.3296 23.9859C13.293 23.7542 13.3681 23.5186 13.5306 23.3557L13.9408 22.94L13.3733 22.8553C13.1484 22.8221 12.9539 22.6751 12.8538 22.4629L12.5967 21.9283ZM20.9959 21.9283L20.7471 22.4629C20.6469 22.6751 20.4524 22.8221 20.2275 22.8553L19.6655 22.94L20.0744 23.3557C20.2353 23.5194 20.3089 23.755 20.2712 23.9859L20.1728 24.5779L20.6814 24.299C20.8813 24.1897 21.1187 24.1897 21.3186 24.299L21.8258 24.5779L21.7288 23.9859C21.6921 23.7542 21.7673 23.5186 21.9297 23.3557L22.3399 22.94L21.7711 22.8553C21.5468 22.8216 21.3528 22.6748 21.2529 22.4629L20.9959 21.9283ZM29.3964 21.9283L29.1462 22.4629C29.0461 22.6751 28.8516 22.8221 28.6267 22.8553L28.0647 22.94L28.4735 23.3557C28.6345 23.5194 28.7081 23.755 28.6704 23.9859L28.572 24.5779L29.0806 24.299C29.2805 24.1897 29.5193 24.1897 29.7191 24.299L30.2264 24.5779L30.1293 23.9859C30.0927 23.7542 30.1679 23.5186 30.3303 23.3557L30.7405 22.94L30.1731 22.8553C29.9482 22.8221 29.7536 22.6751 29.6535 22.4629L29.3964 21.9283ZM4.20027 30.7986C3.06009 30.7994 2.0974 31.7297 2.0974 32.8973C2.0974 34.0649 3.04824 34.9992 4.20027 35C5.35231 34.9992 6.30314 34.0649 6.30314 32.8973C6.30314 31.7297 5.34046 30.7994 4.20027 30.7986ZM37.7997 30.7986C36.6596 30.7994 35.6969 31.7297 35.6969 32.8973C35.6969 34.0649 36.6477 34.9992 37.7997 35C38.9518 34.9992 39.9026 34.0649 39.9026 32.8973C39.9026 31.7297 38.9399 30.7994 37.7997 30.7986ZM2.14799 35.7342C0.876906 36.4438 0 37.8253 0 39.4188V40.2391C0 41.2004 0.771401 41.9959 1.75148 41.9959H6.64907C7.62915 41.9959 8.40055 41.2004 8.40055 40.2391V39.4188C8.40055 37.8253 7.52364 36.4438 6.25256 35.7342C5.67922 36.149 4.96754 36.3997 4.20027 36.4C3.43301 36.3997 2.72132 36.149 2.14799 35.7342ZM35.7474 35.7342C34.4764 36.4438 33.5995 37.8253 33.5995 39.4188V40.2391C33.5995 41.2004 34.3709 41.9959 35.3509 41.9959H40.2485C41.2286 41.9959 42 41.2004 42 40.2391V39.4188C42 37.8253 41.1231 36.4438 39.852 35.7342C39.2787 36.149 38.567 36.3997 37.7997 36.4C37.0325 36.3997 36.3208 36.149 35.7474 35.7342ZM29.7601 38.2484C27.0981 39.7868 24.0746 40.5986 21 40.5986C17.9253 40.5986 14.9047 39.7869 12.2426 38.2484C12.1423 38.1887 12.0284 38.1546 11.9117 38.15C11.1733 38.1196 10.8981 39.1056 11.5453 39.4625C14.4203 41.124 17.6794 42 21 42C24.3205 42 27.5825 41.1239 30.4575 39.4625C31.1658 39.0556 30.7203 38.0745 30.0555 38.1473C29.9605 38.1576 29.8613 38.1903 29.7601 38.2484V38.2484Z" fill="#6990FF"/>
</svg>
