<svg width="42" height="42" viewBox="0 0 42 42" fill="none" xmlns="http://www.w3.org/2000/svg">
                <path d="M23.7891 42H18.2109C17.3064 42 16.5703 41.264 16.5703 40.3594V37.9103C15.0268 37.5069 13.5537 36.8961 12.1765 36.0883L10.4433 37.8215C9.80338 38.4611 8.7626 38.4611 8.12302 37.8215L4.17847 33.877C3.53888 33.2374 3.53888 32.1966 4.17847 31.557L5.9117 29.8235C5.10388 28.4463 4.49313 26.9732 4.08971 25.4297H1.64062C0.736038 25.4297 0 24.6936 0 23.7891V18.2109C0 17.3064 0.736038 16.5703 1.64062 16.5703H4.08426C4.4864 15.0242 5.09651 13.5486 5.90433 12.1688L4.17847 10.443C3.53888 9.80338 3.53888 8.7626 4.17847 8.12302L8.12302 4.17847C8.7626 3.53888 9.80338 3.53888 10.4433 4.17847L12.1631 5.89856C13.5441 5.0869 15.0217 4.47359 16.5703 4.06888V1.64062C16.5703 0.736038 17.3064 0 18.2109 0H23.7891C24.6936 0 25.4297 0.736038 25.4297 1.64062V4.06343C26.9806 4.46686 28.461 5.07953 29.8443 5.89087L31.557 4.17847C32.1966 3.53888 33.2374 3.53888 33.877 4.17847L37.8215 8.12302C38.4611 8.7626 38.4611 9.80338 37.8215 10.4433L36.1091 12.1557C36.9205 13.539 37.5331 15.0194 37.9366 16.5703H40.3594C41.264 16.5703 42 17.3064 42 18.2109V23.7891C42 24.6936 41.264 25.4297 40.3594 25.4297H37.9311C37.5264 26.9783 36.9128 28.4559 36.1014 29.8369L37.8212 31.557C38.4608 32.1966 38.4608 33.2374 37.8212 33.877L33.877 37.8215C33.2374 38.4611 32.1966 38.4611 31.5567 37.8215L29.8312 36.0957C28.4511 36.9035 26.9755 37.5136 25.4297 37.9157V40.3594C25.4297 41.264 24.6936 42 23.7891 42ZM12.0535 34.2307C12.206 34.2307 12.3588 34.273 12.4947 34.3596C14.0555 35.3561 15.7625 36.0639 17.5678 36.4635C17.9437 36.5468 18.2109 36.8798 18.2109 37.2646V40.3594H23.7891V37.2691C23.7891 36.8839 24.0569 36.5507 24.4331 36.468C26.241 36.07 27.9505 35.3632 29.5139 34.3672C29.8382 34.1606 30.2628 34.207 30.5349 34.4791L32.717 36.6612L36.6612 32.717L34.4839 30.5397C34.2115 30.2673 34.1654 29.8421 34.373 29.5175C35.3731 27.9538 36.0838 26.2426 36.4847 24.4322C36.5677 24.0563 36.9009 23.7891 37.2854 23.7891H40.3594V18.2109H37.2899C36.9048 18.2109 36.5715 17.9431 36.4888 17.5669C36.0899 15.7538 35.3805 14.0402 34.3804 12.4739C34.1734 12.1493 34.2198 11.7247 34.4919 11.4523L36.6612 9.28299L32.717 5.33876L30.5477 7.5081C30.2756 7.78015 29.8507 7.82661 29.5261 7.61961C27.9598 6.61954 26.2462 5.91042 24.4331 5.51115C24.0569 5.42848 23.7891 5.09523 23.7891 4.71007V1.64062H18.2109V4.71455C18.2109 5.0994 17.9437 5.43233 17.5681 5.51564C15.7574 5.9165 14.0462 6.62691 12.4825 7.62698C12.1582 7.83463 11.7327 7.78848 11.4607 7.51611L9.28299 5.33876L5.33876 9.28299L7.52092 11.4655C7.79297 11.7372 7.83943 12.1618 7.63275 12.4861C6.63684 14.0495 5.92996 15.759 5.53198 17.5669C5.44931 17.9431 5.11606 18.2109 4.7309 18.2109H1.64062V23.7891H4.73538C5.12022 23.7891 5.45316 24.0566 5.53647 24.4322C5.93605 26.2378 6.64421 27.9445 7.64044 29.5053C7.84744 29.8299 7.8013 30.2548 7.52893 30.5268L5.33876 32.717L9.28299 36.6616L11.4732 34.4711C11.6318 34.3128 11.8417 34.2307 12.0535 34.2307Z" fill="white"/>
                <path d="M21.0001 32.971C17.9332 32.971 14.8663 31.8034 12.5313 29.4687C7.86163 24.799 7.86163 17.2008 12.5313 12.5311C14.4148 10.648 16.803 9.47003 19.4376 9.12524C21.9886 8.79135 24.6223 9.297 26.8544 10.5486C27.2495 10.77 27.3902 11.2699 27.1688 11.665C26.947 12.0604 26.4472 12.2011 26.0521 11.9794C22.0351 9.7267 16.952 10.4307 13.6916 13.6914C9.66151 17.7212 9.66151 24.2786 13.6916 28.3087C15.7065 30.3233 18.3536 31.3307 21.0001 31.331C23.6472 31.3314 26.2937 30.3239 28.3089 28.3087C31.4597 25.1579 32.24 20.3645 30.2501 16.3812C30.0476 15.9758 30.2119 15.483 30.6173 15.2805C31.0223 15.078 31.5151 15.2427 31.7177 15.648C34.0235 20.2636 33.1199 25.818 29.4689 29.4687C27.1338 31.8034 24.067 32.971 21.0001 32.971Z" fill="white"/>
                <path d="M29.068 14.1104C28.8514 14.1104 28.6405 14.0232 28.487 13.8697C28.3345 13.7172 28.2477 13.5063 28.2477 13.29C28.2477 13.0741 28.3345 12.8626 28.487 12.7101C28.6396 12.5572 28.8514 12.4697 29.068 12.4697C29.2836 12.4697 29.4951 12.5572 29.648 12.7101C29.8005 12.8626 29.8883 13.0741 29.8883 13.29C29.8883 13.5063 29.8005 13.7172 29.648 13.8697C29.4945 14.0232 29.2836 14.1104 29.068 14.1104Z" fill="white"/>
                <path d="M19.8422 27.0432C19.6246 27.0432 19.416 26.9567 19.2622 26.8029L14.0747 21.615C13.7542 21.2949 13.7542 20.7755 14.0747 20.455L17.0169 17.5125C17.1707 17.3587 17.3793 17.2725 17.5969 17.2725C17.8145 17.2725 18.0234 17.3587 18.1772 17.5125L19.8422 19.1778L23.8229 15.1974C24.1431 14.8769 24.6625 14.8769 24.9829 15.1974L27.9255 18.1399C28.2456 18.46 28.2456 18.9794 27.9255 19.2999L20.4225 26.8029C20.2684 26.9567 20.0598 27.0432 19.8422 27.0432ZM15.8146 21.035L19.8422 25.0626L26.1852 18.7199L24.4029 16.9376L20.4225 20.9181C20.2687 21.0719 20.0598 21.1584 19.8422 21.1584C19.6246 21.1584 19.416 21.0719 19.2622 20.9181L17.5969 19.2528L15.8146 21.035Z" fill="white"/>
              </svg>