<svg width="34" height="42" viewBox="0 0 34 42" fill="none" xmlns="http://www.w3.org/2000/svg">
                <path d="M27.2605 0H18.3352C16.3797 0 14.5411 0.831961 13.1581 2.34257L2.14413 14.3717C0.761624 15.8826 0.000300249 17.8908 0.000300249 20.0263V21.2737C0.000300249 21.2785 0 21.2832 0 21.2879C0 21.2903 0.000300249 21.2927 0.000300249 21.2951V35.4793C0.000300249 39.0748 2.67842 42 5.97028 42H7.73746C8.04854 42 8.30074 41.7245 8.30074 41.3848C8.30074 41.045 8.04854 40.7695 7.73746 40.7695H5.97028C3.2996 40.7695 1.12685 38.3964 1.12685 35.4793V21.2737C1.13391 19.2381 2.65205 17.5843 4.5174 17.5843H10.1291C13.4209 17.5843 16.0989 14.6592 16.0989 11.0638V4.93443C16.0989 2.89226 17.62 1.2308 19.4897 1.2308C19.4919 1.2308 19.4941 1.23047 19.4963 1.23047H27.2606C29.9313 1.23047 32.104 3.60363 32.104 6.52066V9.33811H28.8626L26.3689 6.61516C26.3857 6.48236 26.3951 6.347 26.3951 6.20919C26.3951 4.58448 25.1849 3.26263 23.6974 3.26263C22.2099 3.26263 20.9997 4.58448 20.9997 6.20919C20.9997 7.8339 22.2099 9.15575 23.6974 9.15575C23.8235 9.15575 23.9474 9.1455 24.0689 9.12712L27.0388 12.3709C27.3457 12.7061 27.754 12.8908 28.1883 12.8908H32.104V13.718H29.3695C29.0584 13.718 28.8062 13.9935 28.8062 14.3332C28.8062 14.673 29.0584 14.9485 29.3695 14.9485H32.104V16.0398H25.3543C25.2049 16.0398 25.0616 16.1046 24.956 16.22L23.9843 17.2813C23.7945 16.9785 23.5544 16.7163 23.2772 16.509L24.56 15.1079C24.6541 15.0051 24.7797 14.9485 24.9136 14.9485H27.1163C27.4274 14.9485 27.6796 14.673 27.6796 14.3332C27.6796 13.9935 27.4274 13.718 27.1163 13.718H24.9136C24.4788 13.718 24.0704 13.9026 23.7635 14.2378L22.1284 16.0237C22.007 16.0054 21.8831 15.9952 21.7572 15.9952C20.2697 15.9952 19.0595 17.317 19.0595 18.9418C19.0595 20.5665 20.2697 21.8883 21.7572 21.8883C23.2447 21.8883 24.4549 20.5665 24.4549 18.9418C24.4549 18.8041 24.4455 18.6688 24.4287 18.5361L25.5876 17.2704H32.104V18.0981H30.9444C30.51 18.0981 30.1019 18.2827 29.7948 18.618L26.8246 21.8621C26.7032 21.8438 26.5794 21.8336 26.4534 21.8336C24.9659 21.8336 23.7557 23.1555 23.7557 24.7802C23.7557 26.4049 24.9659 27.7267 26.4534 27.7267C27.9409 27.7267 29.1511 26.4049 29.1511 24.7802C29.1511 24.6423 29.1417 24.5068 29.1248 24.3738L31.6185 21.6508H32.1039V35.4793C32.1039 38.3964 29.9311 40.7695 27.2605 40.7695H9.99042C9.67934 40.7695 9.42714 41.045 9.42714 41.3848C9.42714 41.7245 9.67934 42 9.99042 42H27.2605C30.5523 42 33.2304 39.0748 33.2304 35.4793V6.52066C33.2305 2.92515 30.5524 0 27.2605 0V0ZM14.9723 11.0638C14.9723 13.9808 12.7996 16.3538 10.1291 16.3538H4.51732C3.38003 16.3538 2.34045 16.8162 1.5454 17.5767C1.8525 16.7118 2.32235 15.9176 2.94075 15.2417L13.9547 3.21267C14.5734 2.5369 15.3005 2.02355 16.0922 1.68796C15.3958 2.55634 14.9723 3.69206 14.9723 4.93451V11.0638ZM21.7572 20.6578C20.8909 20.6578 20.186 19.888 20.186 18.9418C20.186 17.9955 20.8909 17.2257 21.7572 17.2257C22.6235 17.2257 23.3283 17.9955 23.3283 18.9418C23.3283 19.888 22.6235 20.6578 21.7572 20.6578ZM22.1262 6.20919C22.1262 5.26296 22.8311 4.4931 23.6974 4.4931C24.5637 4.4931 25.2686 5.26296 25.2686 6.20919C25.2686 7.15542 24.5637 7.92528 23.6974 7.92528C22.8311 7.92528 22.1262 7.1555 22.1262 6.20919ZM28.1882 11.6604C28.0548 11.6604 27.9295 11.6037 27.8353 11.5009L25.2176 8.64175C25.4947 8.43454 25.7347 8.17245 25.9244 7.86983L28.231 10.3885C28.3366 10.5039 28.4798 10.5687 28.6292 10.5687H32.104V11.6604H28.1882ZM26.4534 26.4963C25.5871 26.4963 24.8822 25.7264 24.8822 24.7802C24.8822 23.8339 25.5871 23.0641 26.4534 23.0641C27.3197 23.0641 28.0246 23.8339 28.0246 24.7802C28.0246 25.7264 27.3198 26.4963 26.4534 26.4963ZM31.3853 20.4203C31.2359 20.4203 31.0927 20.4851 30.987 20.6004L28.6803 23.1193C28.4905 22.8167 28.2506 22.5547 27.9735 22.3474L30.5914 19.4881C30.6856 19.3852 30.8109 19.3285 30.9443 19.3285H32.104V20.4203H31.3853Z" fill="white"/>
                <path d="M4.89702 22.9426H15.9161C16.2272 22.9426 16.4794 22.6672 16.4794 22.3274C16.4794 21.9876 16.2272 21.7122 15.9161 21.7122H4.89702C4.58594 21.7122 4.33374 21.9876 4.33374 22.3274C4.33374 22.6672 4.58594 22.9426 4.89702 22.9426Z" fill="white"/>
                <path d="M4.89702 26.1609H20.694C21.0051 26.1609 21.2573 25.8854 21.2573 25.5457C21.2573 25.2059 21.0051 24.9304 20.694 24.9304H4.89702C4.58594 24.9304 4.33374 25.2059 4.33374 25.5457C4.33374 25.8854 4.58594 26.1609 4.89702 26.1609Z" fill="white"/>
                <path d="M4.89702 29.3787H20.694C21.0051 29.3787 21.2573 29.1032 21.2573 28.7634C21.2573 28.4237 21.0051 28.1482 20.694 28.1482H4.89702C4.58594 28.1482 4.33374 28.4237 4.33374 28.7634C4.33374 29.1032 4.58594 29.3787 4.89702 29.3787Z" fill="white"/>
                <path d="M4.89702 32.5962H20.694C21.0051 32.5962 21.2573 32.3207 21.2573 31.981C21.2573 31.6412 21.0051 31.3657 20.694 31.3657H4.89702C4.58594 31.3657 4.33374 31.6412 4.33374 31.981C4.33374 32.3207 4.58594 32.5962 4.89702 32.5962Z" fill="white"/>
                <path d="M21.7571 36.8538H27.5212C27.8323 36.8538 28.0845 36.5783 28.0845 36.2385C28.0845 35.8988 27.8323 35.6233 27.5212 35.6233H21.7571C21.446 35.6233 21.1938 35.8988 21.1938 36.2385C21.1938 36.5783 21.446 36.8538 21.7571 36.8538Z" fill="white"/>
              </svg> 