<svg width="38" height="42" viewBox="0 0 38 42" fill="none" xmlns="http://www.w3.org/2000/svg">
                <path d="M36.6272 27.1979C36.268 26.5981 34.796 24.8166 30.9343 27.0656L24.2078 30.9834C23.9192 31.1515 23.6262 31.2767 23.3229 31.36C23.4241 31.1743 23.5055 30.97 23.5649 30.7484C23.9169 29.4345 23.1369 28.0631 21.7892 27.6261C21.7612 27.6171 21.7325 27.6099 21.7034 27.6045C19.7752 27.2568 17.8699 26.5679 16.339 26.0145C15.8058 25.8217 15.3021 25.6396 14.8733 25.5005C13.1283 24.9344 11.5571 25.6318 10.2505 26.3888L5.29897 29.2576L4.96675 28.6706C4.75068 28.2888 4.39779 28.0137 3.9732 27.8961C3.54861 27.7784 3.10442 27.8325 2.72273 28.0486L0.835383 29.1168C0.453614 29.3328 0.178485 29.6857 0.0608541 30.1102C-0.0568591 30.5348 -0.00263729 30.9789 0.21343 31.3607L5.76203 41.1647C5.9781 41.5465 6.33099 41.8216 6.7555 41.9392C6.90233 41.9799 7.05146 42 7.19961 42C7.47982 42 7.75635 41.9279 8.00605 41.7865L9.89331 40.7184C10.6834 40.2712 10.9625 39.2645 10.5153 38.4743L9.8614 37.3189L10.9298 36.702L19.5213 39.0041C20.0017 39.1328 20.4798 39.1969 20.95 39.1969C21.901 39.1968 22.8199 38.935 23.6599 38.418L35.8668 30.9015C37.0057 30.2003 37.3682 28.435 36.6272 27.1979ZM9.24692 39.5763L7.35948 40.6444C7.25604 40.7029 7.1563 40.6883 7.10609 40.6744C7.05589 40.6604 6.96279 40.6216 6.9043 40.5182L1.3557 30.7142C1.29713 30.6107 1.31173 30.5109 1.32568 30.4607C1.33954 30.4105 1.37842 30.3175 1.48194 30.2589L3.36921 29.1907C3.4268 29.1582 3.48323 29.1482 3.53065 29.1482C3.56838 29.1482 3.60045 29.1545 3.62277 29.1606C3.67297 29.1746 3.76607 29.2135 3.82456 29.3169L9.37308 39.1207C9.46224 39.2785 9.4045 39.487 9.24692 39.5763ZM21.4359 32.7209C22.7011 32.9232 23.8238 32.726 24.8684 32.1177L31.5949 28.1998C33.4994 27.0906 34.9597 26.9681 35.5013 27.8724C35.8725 28.4922 35.7098 29.4569 35.1787 29.7838L22.9719 37.3003C22.0183 37.8873 20.9715 38.0339 19.861 37.7363L11.007 35.3638C10.8389 35.3188 10.6597 35.3423 10.509 35.4295L9.21492 36.1766L5.94553 30.3998L10.9084 27.5244C12.0178 26.8817 13.2169 26.3427 14.4684 26.749C14.8764 26.8812 15.3474 27.0515 15.8928 27.2487C17.4578 27.8144 19.4024 28.5175 21.4226 28.8874C22.0931 29.1239 22.468 29.771 22.2972 30.4086C22.0898 31.1828 21.4751 31.3313 20.9415 31.3002C19.8439 31.0861 18.856 30.806 17.8205 30.5123C17.3733 30.3854 16.911 30.2543 16.4246 30.124C16.0747 30.0305 15.7147 30.238 15.6208 30.588C15.527 30.9381 15.7348 31.2979 16.0849 31.3918C16.562 31.5197 17.0197 31.6494 17.4623 31.7749C18.4499 32.0551 19.3954 32.3233 20.4426 32.5389L21.4359 32.7209ZM3.77665 30.8367C3.83047 31.2049 3.5756 31.5471 3.20737 31.6009C2.83913 31.6547 2.49698 31.3998 2.44317 31.0316C2.38936 30.6634 2.64415 30.3212 3.01238 30.2674C3.38069 30.2136 3.72284 30.4684 3.77665 30.8367ZM12.0405 20.3626C16.268 20.3626 19.7456 17.0919 20.0766 12.9482L21.6732 12.954V21.3145C21.6732 21.6769 21.967 21.9707 22.3294 21.9707H24.9931V22.9185C24.9931 23.864 25.7624 24.6333 26.7079 24.6333H29.916C30.8615 24.6333 31.6308 23.864 31.6308 22.9185V19.7105C31.6308 18.765 30.8615 17.9957 29.916 17.9957H26.7079C25.7624 17.9957 24.9931 18.765 24.9931 19.7105V20.6583H22.9857V12.9588L24.9931 12.966V13.9208C24.9931 14.8663 25.7624 15.6356 26.7079 15.6356H29.916C30.8615 15.6356 31.6308 14.8663 31.6308 13.9208V10.7127C31.6308 9.76716 30.8615 8.99788 29.916 8.99788H26.7079C25.7624 8.99788 24.9931 9.76716 24.9931 10.7127V11.6535L22.9857 11.6463V3.9751H24.9931V4.92287C24.9931 5.86844 25.7624 6.63771 26.7079 6.63771H29.916C30.8615 6.63771 31.6308 5.86844 31.6308 4.92287V1.71484C31.6309 0.769279 30.8616 0 29.916 0H26.7079C25.7624 0 24.9931 0.769279 24.9931 1.71484V2.66262H22.3294C21.967 2.66262 21.6732 2.95645 21.6732 3.31886V11.6415L20.0751 11.6357C19.7359 7.50001 16.2621 4.23825 12.0405 4.23825C7.59499 4.23825 3.97828 7.85496 3.97828 12.3004C3.97828 16.7459 7.59508 20.3626 12.0405 20.3626ZM26.3057 19.7104C26.3057 19.4923 26.4899 19.3081 26.708 19.3081H29.916C30.1342 19.3081 30.3184 19.4923 30.3184 19.7104V22.9184C30.3184 23.1365 30.1342 23.3208 29.916 23.3208H26.708C26.4899 23.3208 26.3057 23.1365 26.3057 22.9184V19.7104ZM26.3057 10.7126C26.3057 10.4945 26.4899 10.3103 26.708 10.3103H29.916C30.1342 10.3103 30.3184 10.4945 30.3184 10.7126V13.9207C30.3184 14.1388 30.1342 14.323 29.916 14.323H26.708C26.4899 14.323 26.3057 14.1388 26.3057 13.9207V10.7126ZM26.3057 1.71484C26.3057 1.49672 26.4899 1.31248 26.708 1.31248H29.916C30.1342 1.31248 30.3184 1.49672 30.3184 1.71484V4.92279C30.3184 5.14091 30.1342 5.32515 29.916 5.32515H26.708C26.4899 5.32515 26.3057 5.14091 26.3057 4.92279V1.71484ZM12.0405 5.55073C15.7623 5.55073 18.7902 8.57863 18.7902 12.3004C18.7902 16.0222 15.7623 19.0501 12.0405 19.0501C8.31875 19.0501 5.29085 16.0222 5.29085 12.3004C5.29085 8.57863 8.31875 5.55073 12.0405 5.55073ZM9.02806 14.4513C8.94037 14.0997 9.15439 13.7435 9.50605 13.6558C9.85779 13.5684 10.2138 13.7822 10.3015 14.1338C10.5198 15.0092 11.4205 15.3003 12.1216 15.2833C12.7345 15.2687 13.3058 15.0566 13.577 14.743C13.7274 14.5691 13.783 14.3689 13.7519 14.1131C13.7003 13.6882 13.4478 13.1688 11.9409 12.9214C9.7984 12.5695 9.29835 11.4594 9.25618 10.5903C9.19778 9.38736 10.0328 8.38085 11.334 8.08579C11.3507 8.08202 11.3675 8.07833 11.3843 8.0748V7.61395C11.3843 7.25155 11.6781 6.95771 12.0405 6.95771C12.4029 6.95771 12.6968 7.25155 12.6968 7.61395V8.06914C13.563 8.24066 14.3967 8.77427 14.8259 9.79669C14.9662 10.1308 14.8091 10.5155 14.4749 10.6558C14.1408 10.7962 13.7561 10.6389 13.6158 10.3048C13.2476 9.4278 12.3504 9.20099 11.6243 9.36595C11.0919 9.4867 10.5345 9.85502 10.5672 10.5268C10.5784 10.758 10.6082 11.3725 12.1537 11.6263C13.9266 11.9174 14.9026 12.701 15.0549 13.9551C15.1305 14.5779 14.9627 15.1473 14.5697 15.6017C14.1482 16.089 13.4711 16.4258 12.6968 16.547V16.987C12.6968 17.3494 12.4029 17.6432 12.0405 17.6432C11.6781 17.6432 11.3843 17.3494 11.3843 16.987V16.5365C10.2069 16.3213 9.30015 15.543 9.02806 14.4513Z" fill="white"/>
              </svg>