<svg width="45" height="42" viewBox="0 0 45 42" fill="none" xmlns="http://www.w3.org/2000/svg">
                <path d="M3 36H4.5V34.5H3C2.17144 34.5 1.5 33.8286 1.5 33V3C1.5 2.17144 2.17144 1.5 3 1.5H36C36.8286 1.5 37.5 2.17144 37.5 3V4.5H39V3C39 1.34325 37.6567 0 36 0H3C1.34325 0 0 1.34325 0 3V33C0 34.6567 1.34325 36 3 36Z" fill="white"/>
                <path d="M3 3H4.5V4.5H3V3Z" fill="white"/>
                <path d="M6.00024 3H7.50024V4.5H6.00024V3Z" fill="white"/>
                <path d="M9.00024 3H10.5002V4.5H9.00024V3Z" fill="white"/>
                <path d="M6.00024 38.9997C6.00024 40.6565 7.34349 41.9997 9.00024 41.9997H42.0002C43.657 41.9997 45.0002 40.6565 45.0002 38.9997V8.99975C45.0002 7.34301 43.657 5.99976 42.0002 5.99976H9.00024C7.34349 5.99976 6.00024 7.34301 6.00024 8.99975V38.9997ZM7.50024 8.99975C7.50024 8.17119 8.17168 7.49976 9.00024 7.49976H42.0002C42.8288 7.49976 43.5002 8.17119 43.5002 8.99975V38.9997C43.5002 39.8283 42.8288 40.4997 42.0002 40.4997H9.00024C8.17168 40.4997 7.50024 39.8283 7.50024 38.9997V8.99975Z" fill="white"/>
                <path d="M9.00024 9H10.5002V10.5H9.00024V9Z" fill="white"/>
                <path d="M11.9999 9H13.4999V10.5H11.9999V9Z" fill="white"/>
                <path d="M14.9998 9H16.4998V10.5H14.9998V9Z" fill="white"/>
                <path d="M9.00024 12.0005H42.0002V13.5005H9.00024V12.0005Z" fill="white"/>
                <path d="M9.00024 15.7493H15.0002V17.2493H9.00024V15.7493Z" fill="white"/>
                <path d="M9.00024 18.7493H13.5002V20.2493H9.00024V18.7493Z" fill="white"/>
                <path d="M25.5001 21.7495C22.6004 21.7495 20.2501 24.0998 20.2501 26.9995C20.2501 29.8992 22.6004 32.2495 25.5001 32.2495C28.3998 32.2495 30.7501 29.8992 30.7501 26.9995C30.7467 24.1015 28.3981 21.7529 25.5001 21.7495ZM25.5001 30.7495C23.4292 30.7495 21.7501 29.0704 21.7501 26.9995C21.7501 24.9286 23.4292 23.2495 25.5001 23.2495C27.5711 23.2495 29.2501 24.9286 29.2501 26.9995C29.2475 29.0695 27.5701 30.7469 25.5001 30.7495Z" fill="white"/>
                <path d="M37.4998 24.7505C37.4998 24.3361 37.1641 24.0005 36.7498 24.0005H34.7675C34.6087 23.5077 34.4107 23.0283 34.1743 22.568L35.576 21.1672C35.8685 20.8741 35.8685 20.3995 35.576 20.1065L32.3938 16.9242C32.1007 16.6317 31.6261 16.6317 31.3331 16.9242L29.9323 18.3252C29.4712 18.0897 28.9921 17.8917 28.4998 17.7327V15.7505C28.4998 15.3361 28.1641 15.0005 27.7498 15.0005H23.2498C22.8354 15.0005 22.4998 15.3361 22.4998 15.7505V17.7327C22.0074 17.8917 21.5283 18.0897 21.0673 18.3252L19.6664 16.9242C19.3734 16.6317 18.8988 16.6317 18.6058 16.9242L15.4235 20.1065C15.131 20.3995 15.131 20.8741 15.4235 21.1672L16.8245 22.568C16.7619 22.6908 16.7015 22.814 16.6445 22.9385C16.4863 23.2842 16.3486 23.6386 16.232 24.0005H14.2498C13.8354 24.0005 13.4998 24.3361 13.4998 24.7505V29.2505C13.4998 29.6649 13.8354 30.0005 14.2498 30.0005H16.232C16.3908 30.4932 16.5888 30.9727 16.8253 31.433L15.4235 32.8338C15.131 33.1269 15.131 33.6014 15.4235 33.8945L18.6058 37.0767C18.8988 37.3692 19.3734 37.3692 19.6664 37.0767L21.0673 35.6757C21.5283 35.9112 22.0074 36.1092 22.4998 36.2682V38.2505C22.4998 38.6649 22.8354 39.0005 23.2498 39.0005H27.7498C28.1641 39.0005 28.4998 38.6649 28.4998 38.2505V36.2682C28.9921 36.1092 29.4712 35.9112 29.9323 35.6757L31.3331 37.0767C31.6261 37.3692 32.1007 37.3692 32.3938 37.0767L35.576 33.8945C35.8685 33.6014 35.8685 33.1269 35.576 32.8338L34.1743 31.433C34.4107 30.9727 34.6087 30.4932 34.7675 30.0005H36.7498C37.1641 30.0005 37.4998 29.6649 37.4998 29.2505V24.7505ZM35.9998 28.5005H34.2043C33.8623 28.5005 33.5638 28.732 33.4783 29.063C33.2866 29.8074 32.9913 30.5217 32.6008 31.184C32.4269 31.4784 32.4748 31.8534 32.7163 32.0952L33.9843 33.364L31.8633 35.486L30.5945 34.217C30.3524 33.9751 29.9774 33.9275 29.6829 34.1015C29.0206 34.492 28.3066 34.7875 27.5623 34.979C27.2313 35.0645 26.9998 35.363 26.9998 35.705V37.5005H23.9998V35.705C23.9998 35.363 23.7682 35.0645 23.4373 34.979C22.6929 34.7875 21.9789 34.492 21.3166 34.1015C21.0221 33.9275 20.6471 33.9751 20.405 34.217L19.1362 35.486L17.0152 33.364L18.2833 32.0952C18.5248 31.8534 18.5726 31.4784 18.3988 31.184C18.0082 30.5217 17.7129 29.8074 17.5213 29.063C17.4358 28.732 17.1373 28.5005 16.7953 28.5005H14.9998V25.5005H16.7953C17.1373 25.5005 17.4358 25.2689 17.5213 24.938C17.6424 24.4659 17.8057 24.0061 18.0089 23.5634C18.1261 23.3067 18.2563 23.0564 18.3988 22.8134C18.572 22.5189 18.5246 22.1444 18.2833 21.9027L17.0152 20.6339L19.1362 18.512L20.405 19.7814C20.6471 20.0232 21.0221 20.0705 21.3166 19.8963C21.9789 19.5061 22.6929 19.2102 23.4373 19.0188C23.7682 18.9335 23.9998 18.6346 23.9998 18.2932V16.5005H26.9998V18.296C26.9998 18.638 27.2313 18.9365 27.5623 19.022C28.3066 19.2134 29.0206 19.5089 29.6829 19.8995C29.9774 20.0735 30.3524 20.0259 30.5945 19.784L31.8633 18.515L33.9843 20.6369L32.7163 21.9057C32.4748 22.1476 32.4269 22.5226 32.6008 22.817C32.9913 23.4792 33.2866 24.1936 33.4783 24.938C33.5638 25.2689 33.8623 25.5005 34.2043 25.5005H35.9998V28.5005Z" fill="white"/>
                <path d="M37.4999 37.5005H41.9999V39.0005H37.4999V37.5005Z" fill="white"/>
              </svg>    