
<svg width="42" height="42" viewBox="0 0 42 42" fill="none" xmlns="http://www.w3.org/2000/svg">
<g clip-path="url(#clip0_1905_128)">
<path d="M23.8852 1.0415C22.5226 1.0415 21.1684 1.3734 19.9687 2.00135C19.6641 2.16082 19.5465 2.53702 19.7058 2.8416C19.8652 3.14626 20.2416 3.26398 20.5461 3.10451C21.5683 2.5695 22.7228 2.28666 23.8851 2.28666C27.8612 2.28666 31.096 5.52139 31.096 9.49753C31.096 13.4737 27.8613 16.7084 23.8851 16.7084C19.909 16.7084 16.6743 13.4737 16.6743 9.49753C16.6743 7.47554 17.5314 5.53362 19.026 4.16968C19.28 3.93795 19.298 3.5442 19.0662 3.29014C18.8345 3.03618 18.4407 3.01821 18.1867 3.24995C16.4343 4.84915 15.4292 7.12634 15.4292 9.49753C15.4292 14.1601 19.2225 17.9534 23.8851 17.9534C28.5477 17.9534 32.3411 14.1601 32.3411 9.49745C32.3411 4.83479 28.5479 1.0415 23.8852 1.0415Z" fill="white"/>
<path d="M28.3085 7.09935C28.0654 6.85621 27.6712 6.85621 27.4281 7.09935L23.2658 11.2617L21.0464 9.04226C20.8032 8.79912 20.4091 8.79912 20.166 9.04226C19.9229 9.2854 19.9229 9.67956 20.166 9.92262L22.8256 12.5822C22.9423 12.6991 23.1007 12.7647 23.2658 12.7647C23.4309 12.7647 23.5892 12.6991 23.706 12.5823L28.3085 7.97979C28.5516 7.73657 28.5516 7.34241 28.3085 7.09935Z" fill="white"/>
<path d="M41.8823 9.6925C41.7583 9.51293 41.5541 9.40588 41.336 9.40588H34.3757C34.009 9.40588 33.7117 9.70325 33.7117 10.0699C33.7117 10.4366 34.009 10.734 34.3757 10.734H40.3748L39.8529 12.1131H33.2416C32.8749 12.1131 32.5775 12.4104 32.5775 12.7771C32.5775 13.1439 32.8748 13.4412 33.2416 13.4412H39.3505L35.4476 23.7563L10.7203 25.0145L10.0873 22.1785C10.0076 21.8206 9.65265 21.5949 9.29467 21.6751C8.93668 21.7549 8.71134 22.1098 8.79124 22.4677L9.51779 25.7224L8.95506 28.9797C8.83743 29.6603 9.02511 30.3536 9.47005 30.8821C9.91499 31.4104 10.5663 31.7135 11.257 31.7135H34.5152C34.8819 31.7135 35.1792 31.4163 35.1792 31.0495V29.7686C35.1792 28.6356 34.2574 27.7137 33.1243 27.7137H22.6804C22.3137 27.7137 22.0163 28.011 22.0163 28.3777C22.0163 28.7445 22.3137 29.0418 22.6804 29.0418H33.124C33.5247 29.0418 33.8508 29.3679 33.8508 29.7686V30.3855H11.2567C10.9586 30.3855 10.6776 30.2547 10.4856 30.0267C10.2936 29.7987 10.2127 29.4996 10.2634 29.2059L10.2917 29.0419H19.2844C19.651 29.0419 19.9484 28.7446 19.9484 28.3778C19.9484 28.0111 19.6511 27.7138 19.2844 27.7138H10.5212L10.7582 26.3423L35.9488 25.0605C36.2122 25.047 36.4427 24.8789 36.5361 24.6323L41.9571 10.3048C42.0342 10.1009 42.0064 9.87198 41.8823 9.6925Z" fill="white"/>
<path d="M14.4446 12.1131H7.84047L7.5326 10.734H13.2515C13.6182 10.734 13.9155 10.4367 13.9155 10.0699C13.9155 9.70319 13.6182 9.40591 13.2515 9.40591H10.6694L11.173 6.44466C11.3562 5.36759 11.057 4.27124 10.3523 3.43641C9.64745 2.60166 8.61664 2.12292 7.52423 2.12292H0.664043C0.297281 2.12301 0 2.42037 0 2.78705V5.22887C0 5.59555 0.297281 5.89292 0.664043 5.89292H6.42444C6.5812 5.89292 6.72632 5.96379 6.8227 6.0875C6.91909 6.2112 6.95239 6.36919 6.914 6.52128L6.06022 9.90777C6.05965 9.90991 6.05948 9.91212 6.05891 9.91434C6.05678 9.92319 6.0553 9.93222 6.05358 9.94116C6.05071 9.95576 6.04784 9.97036 6.04595 9.98496C6.04488 9.99333 6.04431 10.0017 6.04357 10.0101C6.04218 10.0257 6.04103 10.0412 6.0407 10.0568C6.04054 10.0647 6.0407 10.0725 6.04078 10.0804C6.04103 10.0966 6.04177 10.1128 6.04316 10.1288C6.0439 10.1362 6.04464 10.1437 6.04554 10.1512C6.04759 10.1678 6.05038 10.1844 6.05366 10.2008C6.05456 10.2055 6.05489 10.21 6.05587 10.2147L6.65766 12.9106C6.65774 12.911 6.65782 12.9114 6.6579 12.9118L8.09041 19.3292C8.15948 19.6385 8.43371 19.8487 8.73789 19.8487C8.78579 19.8487 8.83452 19.8435 8.88316 19.8327C9.24107 19.7528 9.46649 19.3978 9.38659 19.0399L8.13693 13.4413H14.4446C14.8113 13.4413 15.1087 13.1439 15.1087 12.7772C15.1086 12.4105 14.8113 12.1131 14.4446 12.1131ZM6.42444 4.56475H1.32809V3.45101H7.52432C8.22478 3.45101 8.88563 3.75797 9.33762 4.29314C9.78953 4.82832 9.98132 5.53132 9.86385 6.22194L9.32244 9.40591H7.55631L8.20173 6.84579C8.34086 6.29397 8.22011 5.72 7.87032 5.27112C7.52054 4.82225 6.99349 4.56475 6.42444 4.56475Z" fill="white"/>
<path d="M11.7862 33.0682C9.61081 33.0682 7.84106 34.838 7.84106 37.0134C7.84106 39.1888 9.61089 40.9585 11.7862 40.9585C13.9615 40.9585 15.7313 39.1888 15.7313 37.0134C15.7313 34.838 13.9616 33.0682 11.7862 33.0682ZM11.7862 39.7133C10.2973 39.7133 9.08613 38.5021 9.08613 37.0132C9.08613 35.5243 10.2974 34.3131 11.7862 34.3131C13.275 34.3131 14.4863 35.5243 14.4863 37.0132C14.4862 38.5021 13.275 39.7133 11.7862 39.7133Z" fill="white"/>
<path d="M33.2681 33.0682C31.0927 33.0682 29.323 34.838 29.323 37.0134C29.323 39.1888 31.0927 40.9585 33.2681 40.9585C35.4435 40.9585 37.2133 39.1888 37.2133 37.0134C37.2133 34.838 35.4434 33.0682 33.2681 33.0682ZM33.2681 39.7133C31.7793 39.7133 30.5681 38.5021 30.5681 37.0132C30.5681 35.5243 31.7793 34.3131 33.2681 34.3131C34.757 34.3131 35.9682 35.5243 35.9682 37.0132C35.9681 38.5021 34.7568 39.7133 33.2681 39.7133Z" fill="white"/>
<path d="M11.7862 34.9254C10.6349 34.9254 9.69824 35.862 9.69824 37.0134C9.69824 38.1647 10.635 39.1013 11.7862 39.1013C12.9374 39.1013 13.8741 38.1646 13.8741 37.0134C13.8741 35.8621 12.9375 34.9254 11.7862 34.9254ZM11.7862 37.8563C11.3214 37.8563 10.9433 37.4781 10.9433 37.0134C10.9433 36.5487 11.3215 36.1706 11.7862 36.1706C12.2509 36.1706 12.6291 36.5487 12.6291 37.0134C12.6291 37.4782 12.2509 37.8563 11.7862 37.8563Z" fill="white"/>
<path d="M33.2681 34.9254C32.1168 34.9254 31.1802 35.862 31.1802 37.0134C31.1802 38.1647 32.1169 39.1013 33.2681 39.1013C34.4193 39.1013 35.3561 38.1646 35.3561 37.0134C35.3561 35.8621 34.4193 34.9254 33.2681 34.9254ZM33.2681 37.8563C32.8033 37.8563 32.4252 37.4781 32.4252 37.0134C32.4252 36.5487 32.8034 36.1706 33.2681 36.1706C33.7328 36.1706 34.111 36.5487 34.111 37.0134C34.111 37.4782 33.7328 37.8563 33.2681 37.8563Z" fill="white"/>
</g>
<defs>
<clipPath id="clip0_1905_128">
<rect width="42" height="42" fill="white"/>
</clipPath>
</defs>
</svg>
