<svg width="40" height="42" viewBox="0 0 40 42" fill="none" xmlns="http://www.w3.org/2000/svg">
                <path d="M39.0338 10.2889L28.925 0.180223C28.8137 0.081375 28.6948 0.002625 28.4899 0H11.4685C9.77222 0 8.39229 1.37993 8.39229 3.07617V10.4203H6.97651C6.53813 10.4203 6.18163 10.7769 6.18163 11.2152V12.2665C5.44072 12.555 4.75354 12.9531 4.13207 13.4536L3.22448 12.9285C3.04049 12.822 2.82597 12.7938 2.62065 12.8487C2.41532 12.9038 2.24372 13.0355 2.13757 13.2197L0.105981 16.7459C-0.11255 17.1251 0.0177975 17.6119 0.396618 17.831L1.30561 18.3569C1.24581 18.7491 1.21562 19.1471 1.21562 19.5439C1.21562 19.9407 1.24581 20.3387 1.30561 20.731L0.3967 21.2569C0.0178795 21.476 -0.11255 21.9628 0.105899 22.3418L2.13757 25.8681C2.24372 26.0523 2.41532 26.184 2.62065 26.2391C2.82597 26.2941 3.04049 26.2658 3.2244 26.1593L4.13207 25.6341C4.75363 26.1347 5.44088 26.5328 6.18171 26.8213V27.8726C6.18171 28.3109 6.5383 28.6675 6.97651 28.6675H11.0393C11.4776 28.6675 11.8341 28.3109 11.8341 27.8726V26.8213C12.575 26.5328 13.2622 26.1347 13.8837 25.6342L14.7915 26.1594C14.9755 26.2657 15.1898 26.2941 15.3953 26.239C15.6005 26.184 15.7721 26.0522 15.8782 25.8681L17.9098 22.3419C18.1283 21.9627 17.9979 21.476 17.6192 21.2569L16.7102 20.7309C16.77 20.3387 16.8002 19.9407 16.8002 19.5439C16.8002 19.1471 16.77 18.7491 16.7102 18.3568L17.6191 17.8309C17.998 17.6118 18.1283 17.125 17.9099 16.7459L15.8782 13.2197C15.7721 13.0355 15.6005 12.9037 15.3953 12.8487C15.1898 12.7936 14.9755 12.822 14.7913 12.9285L13.8837 13.4536C13.2622 12.9531 12.5751 12.555 11.8341 12.2665V11.2152C11.8341 10.7769 11.4775 10.4203 11.0393 10.4203H9.62267V3.07617C9.62267 2.05841 10.4507 1.23047 11.4684 1.23047H27.8745V3.69141H22.1511C21.8112 3.69141 21.5358 3.96687 21.5358 4.30664C21.5358 4.64641 21.8112 4.92188 22.1511 4.92188H27.8745V8.26317C27.8745 8.28425 27.8757 8.30517 27.8762 8.32617H13.6283C13.5152 8.32617 13.4233 8.23413 13.4233 8.12109V5.12695C13.4233 5.01391 13.5152 4.92188 13.6283 4.92188H19.28C19.6198 4.92188 19.8952 4.64641 19.8952 4.30664C19.8952 3.96687 19.6198 3.69141 19.28 3.69141H13.6283C12.8368 3.69141 12.1928 4.33543 12.1928 5.12695V8.12109C12.1928 8.91261 12.8368 9.55664 13.6283 9.55664H28.1608C28.6502 10.6082 29.7165 11.3393 30.9508 11.3393H37.9834V38.9238C37.9834 39.9416 37.1554 40.7695 36.1377 40.7695H11.4685C10.4508 40.7695 9.62275 39.9416 9.62275 38.9238V30.9233C9.62275 30.5835 9.34738 30.3081 9.00752 30.3081C8.66766 30.3081 8.39229 30.5835 8.39229 30.9233V38.9238C8.39229 40.6201 9.77222 42 11.4685 42H36.1377C37.834 42 39.2139 40.6201 39.2139 38.9238V10.7257C39.2217 10.6602 39.1556 10.4057 39.0338 10.2889ZM10.6037 11.6508V12.5715C10.6037 12.9102 10.8195 13.2121 11.1407 13.3225C11.9416 13.5983 12.6731 14.022 13.3147 14.582C13.5713 14.8059 13.9412 14.8421 14.2352 14.6719L15.03 14.2121L16.6267 16.9837L15.8307 17.4442C15.5378 17.6136 15.3845 17.9512 15.4492 18.2837C15.5293 18.6973 15.5699 19.1213 15.5699 19.544C15.5699 19.9667 15.5292 20.3907 15.4493 20.8038C15.3845 21.1368 15.5378 21.4743 15.8306 21.6437L16.6267 22.1043L15.03 24.8758L14.2353 24.416C13.9414 24.2459 13.5712 24.2821 13.3147 24.5061C12.673 25.066 11.9416 25.4897 11.1405 25.7655C10.8194 25.8762 10.6037 26.1779 10.6037 26.5164V27.4372H7.41218V26.5164C7.41218 26.1779 7.19643 25.8761 6.8752 25.7654C6.07433 25.4897 5.34286 25.066 4.70121 24.506C4.44445 24.282 4.07449 24.246 3.78057 24.416L2.98585 24.8758L1.38911 22.1043L2.18539 21.6436C2.47808 21.4741 2.6314 21.1366 2.56667 20.8044C2.48661 20.3908 2.446 19.9667 2.446 19.544C2.446 19.1214 2.48661 18.6973 2.56659 18.2843C2.63131 17.9514 2.47816 17.6139 2.18523 17.4443L1.38911 16.9837L2.98585 14.2122L3.78082 14.6721C4.07465 14.842 4.44461 14.8058 4.70129 14.582C5.34286 14.022 6.07425 13.5983 6.87504 13.3226C7.19627 13.2121 7.41209 12.9103 7.41209 12.5715V11.6508H10.6037ZM30.9508 10.1089C30.1103 10.1089 29.3998 9.54393 29.1775 8.77398C29.1756 8.76701 29.1738 8.76003 29.1716 8.75323C29.1286 8.59704 29.1051 8.43281 29.1051 8.26317V4.30828C29.1051 4.30771 29.1052 4.30721 29.1052 4.30664C29.1052 4.30607 29.1051 4.30557 29.1051 4.305V2.10041L37.1135 10.1088L30.9508 10.1089ZM5.05165 19.5439C5.05165 21.7255 6.82647 23.5002 9.00793 23.5002C11.1894 23.5002 12.9642 21.7255 12.9642 19.5439C12.9642 17.3624 11.1894 15.5877 9.00793 15.5877C6.82647 15.5877 5.05165 17.3624 5.05165 19.5439ZM11.7338 19.5439C11.7338 21.047 10.5111 22.2698 9.00801 22.2698C7.50495 22.2698 6.28211 21.047 6.28211 19.5439C6.28211 18.0409 7.50487 16.8181 9.00793 16.8181C10.511 16.8181 11.7338 18.0409 11.7338 19.5439ZM34.9074 17.3086H21.4217C21.0819 17.3086 20.8065 17.5841 20.8065 17.9238C20.8065 18.2636 21.0819 18.5391 21.4217 18.5391H34.9073C35.2472 18.5391 35.5226 18.2636 35.5226 17.9238C35.5226 17.5841 35.2472 17.3086 34.9074 17.3086ZM15.8846 28.998C15.8846 29.3378 16.16 29.6133 16.4998 29.6133H34.9073C35.2472 29.6133 35.5226 29.3378 35.5226 28.998C35.5226 28.6583 35.2472 28.3828 34.9073 28.3828H16.4998C16.1601 28.3828 15.8846 28.6583 15.8846 28.998ZM12.1932 32.6895C12.1932 33.0292 12.4686 33.3047 12.8084 33.3047H34.9073C35.2472 33.3047 35.5226 33.0292 35.5226 32.6895C35.5226 32.3497 35.2472 32.0742 34.9073 32.0742H12.8084C12.4687 32.0742 12.1932 32.3497 12.1932 32.6895ZM12.8084 36.9961H34.9073C35.2472 36.9961 35.5226 36.7206 35.5226 36.3809C35.5226 36.0411 35.2472 35.7656 34.9073 35.7656H12.8084C12.4686 35.7656 12.1932 36.0411 12.1932 36.3809C12.1932 36.7206 12.4687 36.9961 12.8084 36.9961ZM34.9074 13.6172H20.5619C20.2221 13.6172 19.9467 13.8926 19.9467 14.2324C19.9467 14.5722 20.2221 14.8477 20.5619 14.8477H34.9074C35.2473 14.8477 35.5226 14.5722 35.5226 14.2324C35.5226 13.8926 35.2472 13.6172 34.9074 13.6172ZM19.576 25.3066C19.576 25.6464 19.8514 25.9219 20.1912 25.9219H34.9073C35.2472 25.9219 35.5226 25.6464 35.5226 25.3066C35.5226 24.9669 35.2472 24.6914 34.9073 24.6914H20.1912C19.8515 24.6914 19.576 24.9669 19.576 25.3066ZM34.9074 21H21.4217C21.0819 21 20.8065 21.2755 20.8065 21.6152C20.8065 21.955 21.0819 22.2305 21.4217 22.2305H34.9073C35.2472 22.2305 35.5226 21.955 35.5226 21.6152C35.5226 21.2755 35.2472 21 34.9074 21Z" fill="white"/>
              </svg>  