<svg width="42" height="42" viewBox="0 0 42 42" fill="none" xmlns="http://www.w3.org/2000/svg">
                <path d="M13.5484 23.0329C18.7781 23.0329 23.0323 18.7787 23.0323 13.5491C23.0323 8.31938 18.7781 4.06519 13.5484 4.06519C8.31871 4.06519 4.06451 8.31938 4.06451 13.5491C4.06451 18.7787 8.31871 23.0329 13.5484 23.0329ZM11.5161 10.162C11.5161 9.04151 12.4279 8.1297 13.5484 8.1297C14.6688 8.1297 15.5806 9.04151 15.5806 10.162C15.5806 11.2824 14.6688 12.1942 13.5484 12.1942C12.4279 12.1942 11.5161 11.2824 11.5161 10.162ZM14.8741 13.7414L13.5484 15.4458L12.2227 13.7414C12.644 13.6182 13.0877 13.5491 13.5484 13.5491C14.009 13.5491 14.4527 13.6182 14.8741 13.7414ZM10.9593 14.3233L12.6901 16.5493L11.5161 18.0586V21.4105C10.5271 21.1544 9.61258 20.7195 8.80645 20.1383V18.291C8.80645 16.6313 9.66474 15.1708 10.9593 14.3233ZM12.871 21.6435V18.5233L16.1375 14.3233C17.432 15.1708 18.2903 16.6313 18.2903 18.291V20.1383C16.9538 21.103 15.3185 21.6781 13.5484 21.6781C13.3194 21.6781 13.0952 21.6625 12.871 21.6435ZM13.5484 5.42002C18.0309 5.42002 21.6774 9.06657 21.6774 13.5491C21.6774 15.603 20.9058 17.4754 19.6452 18.9081V18.291C19.6452 15.7385 18.0668 13.5504 15.836 12.6433C16.5074 12.0242 16.9355 11.1449 16.9355 10.162C16.9355 8.29431 15.416 6.77486 13.5484 6.77486C11.6807 6.77486 10.1613 8.29431 10.1613 10.162C10.1613 11.1449 10.5894 12.0242 11.2607 12.6433C9.03 13.5504 7.45161 15.7385 7.45161 18.291V18.9081C6.19093 17.4754 5.41935 15.603 5.41935 13.5491C5.41935 9.06657 9.0659 5.42002 13.5484 5.42002Z" fill="white"/>
                <path d="M39.2903 4.13294V0H16.0691H12.871H11.0277L10.439 1.76535C9.38158 2.04377 8.36816 2.46445 7.41774 3.01926L5.75061 2.18603L2.18603 5.75061L3.01926 7.41774C2.46445 8.36816 2.04377 9.38158 1.76535 10.439L0 11.0277V16.0684L1.76535 16.6571C2.04377 17.7145 2.46445 18.7279 3.01926 19.6784L2.18603 21.3455L5.41935 24.5795V42H39.2903V37.7858C39.6846 37.6076 40.0057 37.2811 40.1628 36.8618L42 31.9613V7.45161C42 5.81632 40.8342 4.44794 39.2903 4.13294ZM40.6452 7.45161V9.48387H36.5806V7.45161C36.5806 6.33116 37.4925 5.41935 38.6129 5.41935C39.7334 5.41935 40.6452 6.33116 40.6452 7.45161ZM39.2903 31.1613V13.5484H40.6452V31.1613H39.2903ZM36.5806 13.5484H37.9355V31.1613H36.5806V13.5484ZM36.5806 12.1935V10.8387H40.6452V12.1935H36.5806ZM4.36665 19.2882C3.72377 18.2625 3.26245 17.1502 2.99419 15.9817L2.90952 15.6111L1.35484 15.0922V12.0039L2.90884 11.4856L2.99352 11.1151C3.26177 9.94655 3.72377 8.83423 4.36597 7.80861L4.56784 7.48616L3.83487 6.01819L6.01819 3.83487L7.48684 4.56852L7.80929 4.36665C8.8349 3.72377 9.94723 3.26245 11.1158 2.99419L11.4863 2.90952L12.0045 1.35484H12.871H15.0922L15.6105 2.90884L15.981 2.99352C17.1495 3.26177 18.2619 3.72377 19.2875 4.36597L19.6099 4.56784L21.0786 3.83419L23.2619 6.01752L22.5283 7.48616L22.7301 7.80861C23.373 8.83423 23.8343 9.94655 24.1026 11.1151L24.1873 11.4856L25.7419 12.0045V15.0929L24.1879 15.6111L24.1033 15.9817C23.835 17.1502 23.373 18.2625 22.7308 19.2882L22.5289 19.6106L23.2626 21.0793L21.0793 23.2626L19.6106 22.5289L19.2882 22.7308C18.2625 23.3737 17.1502 23.835 15.9817 24.1033L15.6111 24.1879L15.0922 25.7419H12.0039L11.4856 24.1879L11.1151 24.1033C9.94655 23.835 8.83423 23.373 7.80861 22.7308L7.48616 22.5289L6.01752 23.2626L3.83419 21.0793L4.56784 19.6106L4.36665 19.2882ZM6.77419 40.6452V24.3993L7.41842 24.0775C8.36884 24.6323 9.38226 25.053 10.4397 25.3314L11.0277 27.0968H16.0684L16.6571 25.3314C17.7145 25.053 18.7279 24.6323 19.6784 24.0768L21.3462 24.9107L24.9101 21.3462L24.0768 19.679C24.6316 18.7286 25.0523 17.7152 25.3307 16.6577L27.0968 16.0691V11.0284L25.3314 10.4397C25.053 9.38226 24.6323 8.36884 24.0775 7.41842L24.9107 5.75129L21.3468 2.18671L19.679 3.02061C18.7286 2.46513 17.7152 2.04513 16.6577 1.76603L16.5202 1.35484H37.9355V4.13294C36.3916 4.44794 35.2258 5.81632 35.2258 7.45161V31.9613L37.063 36.8611C37.2201 37.2804 37.5412 37.6069 37.9355 37.7858V40.6452H6.77419ZM38.894 36.3862C38.8066 36.6193 38.4198 36.6193 38.3325 36.3862L36.8807 32.5161H40.3451L38.894 36.3862Z" fill="white"/>
                <path d="M20.6585 37.4894C20.3632 37.8267 20.246 37.9358 19.9818 37.9358C19.7176 37.9358 19.6004 37.8267 19.305 37.4894C18.988 37.1276 18.5091 36.5809 17.6088 36.5809C16.7085 36.5809 16.2302 37.1283 15.9139 37.49C15.6199 37.8267 15.502 37.9358 15.2398 37.9358C14.9777 37.9358 14.8598 37.8267 14.5651 37.49C14.2488 37.1283 13.7705 36.5809 12.8709 36.5809V35.5648C12.8709 34.2574 11.8074 33.1938 10.4999 33.1938C9.19252 33.1938 8.12897 34.2574 8.12897 35.5648V37.9358H9.48381V35.5648C9.48381 35.0046 9.93971 34.5487 10.4999 34.5487C11.0602 34.5487 11.5161 35.0046 11.5161 35.5648V37.9358H12.8709C13.1331 37.9358 13.2509 38.0448 13.5449 38.3815C13.8613 38.7433 14.3395 39.2906 15.2398 39.2906C16.1394 39.2906 16.6177 38.7433 16.9341 38.3815C17.2287 38.0448 17.3459 37.9358 17.6088 37.9358C17.873 37.9358 17.9902 38.0448 18.2855 38.3822C18.6025 38.7439 19.0815 39.2906 19.9818 39.2906C20.8821 39.2906 21.361 38.7439 21.678 38.3822C21.9734 38.0448 22.0906 37.9358 22.3548 37.9358H23.0322V36.5809H22.3548C21.4545 36.5809 20.9755 37.1276 20.6585 37.4894Z" fill="white"/>
                <path d="M25.7419 2.71021H33.8709V4.06504H25.7419V2.71021Z" fill="white"/>
                <path d="M27.0968 5.41919H33.871V6.77403H27.0968V5.41919Z" fill="white"/>
                <path d="M27.0968 8.12891H33.871V9.48375H27.0968V8.12891Z" fill="white"/>
                <path d="M28.4517 10.8386H33.8711V12.1935H28.4517V10.8386Z" fill="white"/>
                <path d="M28.4517 13.5488H33.8711V14.9037H28.4517V13.5488Z" fill="white"/>
                <path d="M28.4517 16.2576H33.8711V17.6124H28.4517V16.2576Z" fill="white"/>
                <path d="M28.4517 18.9675H33.8711V20.3224H28.4517V18.9675Z" fill="white"/>
                <path d="M25.7419 21.6777H33.8709V23.0326H25.7419V21.6777Z" fill="white"/>
                <path d="M25.7419 24.3877H33.8709V25.7425H25.7419V24.3877Z" fill="white"/>
                <path d="M25.7419 39.2897H33.8709V27.0962H25.7419V39.2897ZM27.0967 28.451H32.5161V37.9349H27.0967V28.451Z" fill="white"/>
              </svg>