<svg width="32" height="42" viewBox="0 0 32 42" fill="none" xmlns="http://www.w3.org/2000/svg">
                <mask id="path-1-inside-1_1334_2036" fill="white">
                <path d="M18.4886 10.2859H3.71999C2.80284 10.2859 2.05713 11.0316 2.05713 11.9487V20.7945C2.05713 21.703 2.80284 22.4487 3.71999 22.4487H18.4886C19.4057 22.4487 20.1514 21.703 20.1514 20.7945V11.9487C20.1514 11.0316 19.4057 10.2859 18.4886 10.2859ZM19.2943 20.7945C19.2943 21.2316 18.9343 21.5916 18.4886 21.5916H3.71999C3.27427 21.5916 2.91427 21.2316 2.91427 20.7945V11.9487C2.91427 11.503 3.27427 11.143 3.71999 11.143H18.4886C18.9343 11.143 19.2943 11.503 19.2943 11.9487V20.7945Z"/>
                </mask>
                <path d="M18.4886 8.78589H3.71999V11.7859H18.4886V8.78589ZM3.71999 8.78589C1.97441 8.78589 0.557129 10.2032 0.557129 11.9487H3.55713C3.55713 11.86 3.63127 11.7859 3.71999 11.7859V8.78589ZM0.557129 11.9487V20.7945H3.55713V11.9487H0.557129ZM0.557129 20.7945C0.557129 22.5365 1.97946 23.9487 3.71999 23.9487V20.9487C3.67605 20.9487 3.63614 20.9324 3.6034 20.8998C3.57043 20.8669 3.55713 20.8302 3.55713 20.7945H0.557129ZM3.71999 23.9487H18.4886V20.9487H3.71999V23.9487ZM18.4886 23.9487C20.2291 23.9487 21.6514 22.5365 21.6514 20.7945H18.6514C18.6514 20.8302 18.6381 20.8669 18.6051 20.8998C18.5724 20.9324 18.5325 20.9487 18.4886 20.9487V23.9487ZM21.6514 20.7945V11.9487H18.6514V20.7945H21.6514ZM21.6514 11.9487C21.6514 10.2032 20.2341 8.78589 18.4886 8.78589V11.7859C18.5773 11.7859 18.6514 11.86 18.6514 11.9487H21.6514ZM17.7943 20.7945C17.7943 20.3928 18.1163 20.0916 18.4886 20.0916V23.0916C19.7522 23.0916 20.7943 22.0705 20.7943 20.7945H17.7943ZM18.4886 20.0916H3.71999V23.0916H18.4886V20.0916ZM3.71999 20.0916C4.09224 20.0916 4.41427 20.3928 4.41427 20.7945H1.41427C1.41427 22.0704 2.4563 23.0916 3.71999 23.0916V20.0916ZM4.41427 20.7945V11.9487H1.41427V20.7945H4.41427ZM4.41427 11.9487C4.41427 12.3315 4.1027 12.643 3.71999 12.643V9.64303C2.44584 9.64303 1.41427 10.6746 1.41427 11.9487H4.41427ZM3.71999 12.643H18.4886V9.64303H3.71999V12.643ZM18.4886 12.643C18.1058 12.643 17.7943 12.3315 17.7943 11.9487H20.7943C20.7943 10.6746 19.7627 9.64303 18.4886 9.64303V12.643ZM17.7943 11.9487V20.7945H20.7943V11.9487H17.7943Z" fill="white" mask="url(#path-1-inside-1_1334_2036)"/>
                <mask id="path-3-inside-2_1334_2036" fill="white">
                <path d="M28.8343 16.0371H25.2857V15.5743C25.2171 14.5029 24.3171 13.6543 23.2371 13.6543H22.2086V8.16C22.2086 7.03714 21.2914 6.12857 20.1686 6.12857H17.5629V1.13143C17.5629 0.994286 17.4943 0.865714 17.3829 0.78L16.3886 0.0771429C16.2429 -0.0257143 16.0457 -0.0257143 15.8914 0.0771429L15.1371 0.608572L14.3829 0.0771429C14.2371 -0.0257143 14.04 -0.0257143 13.8857 0.0771429L13.1229 0.608572L12.3686 0.0771429C12.2229 -0.0257143 12.0257 -0.0257143 11.8714 0.0771429L11.1171 0.608572L10.3629 0.0771429C10.2171 -0.0257143 10.02 -0.0257143 9.86571 0.0771429L9.11143 0.608572L8.35714 0.0771429C8.21143 -0.0257143 8.01428 -0.0257143 7.86 0.0771429L7.10571 0.608572L6.35143 0.0771429C6.20571 -0.0257143 6.00857 -0.0257143 5.86286 0.0771429L4.86 0.78C4.74857 0.857143 4.68 0.994286 4.68 1.13143V6.13714H2.04C0.917143 6.13714 0 7.04571 0 8.16857V39.9686C0 41.0914 0.917143 42 2.04 42H20.1429C21.2657 42 22.1829 41.0914 22.1829 39.9686V39.6771H23.2114C24.2914 39.6771 25.1829 38.8371 25.2514 37.7314V37.3971H28.8086C30.0257 37.3971 31.0114 36.4114 31.0114 35.1943V18.24C31.0286 17.0229 30.0429 16.0371 28.8343 16.0371ZM23.2286 14.52C23.8714 14.52 24.3857 15 24.42 15.6086V16.0371H22.2V14.52H23.2286ZM5.55429 1.35429L6.12857 0.951429L6.88286 1.48286C7.02857 1.58571 7.22571 1.58571 7.38 1.48286L8.13428 0.951429L8.88857 1.48286C9.03429 1.58571 9.23143 1.58571 9.38571 1.48286L10.14 0.951429L10.8943 1.48286C11.04 1.58571 11.2371 1.58571 11.3829 1.48286L12.1371 0.951429L12.8914 1.48286C13.0371 1.58571 13.2343 1.58571 13.3886 1.48286L14.1429 0.951429L14.8971 1.48286C15.0429 1.58571 15.24 1.58571 15.3943 1.48286L16.1486 0.951429L16.7143 1.35429V6.49714C16.7143 6.52286 16.6971 6.54 16.6971 6.56571C16.6971 6.59143 16.7057 6.60857 16.7143 6.63429V8.47714H5.55429V1.35429ZM20.16 41.1429H2.05714C1.40571 41.1429 0.874285 40.6114 0.874285 39.9686V8.16857C0.874285 7.51714 1.40571 6.99429 2.05714 6.99429H4.69714V8.90571C4.69714 9.14571 4.88571 9.33429 5.12571 9.33429H17.1171C17.3571 9.33429 17.5457 9.14571 17.5457 8.90571V6.99429H20.1514C20.8029 6.99429 21.3343 7.52571 21.3343 8.16857V39.9686C21.3429 40.6114 20.8114 41.1429 20.16 41.1429ZM24.4114 37.6971C24.3771 38.3229 23.8543 38.8114 23.2286 38.8114H22.2V37.3886H24.4114V37.6971ZM30.1714 35.1943C30.1714 35.94 29.5714 36.54 28.8257 36.54H22.2V16.8943H28.8257C29.5714 16.8943 30.1714 17.4943 30.1714 18.24V35.1943Z"/>
                </mask>
                <path d="M25.2857 16.0371H23.7857V17.5371H25.2857V16.0371ZM25.2857 15.5743H26.7857V15.5263L26.7826 15.4785L25.2857 15.5743ZM22.2086 13.6543H20.7086V15.1543H22.2086V13.6543ZM17.5629 6.12857H16.0629V7.62857H17.5629V6.12857ZM17.3829 0.78L18.2974 -0.408936L18.2734 -0.427393L18.2487 -0.444866L17.3829 0.78ZM16.3886 0.0771429L17.2544 -1.14772L17.2536 -1.14831L16.3886 0.0771429ZM15.8914 0.0771429L15.0594 -1.17093L15.0433 -1.16021L15.0275 -1.14908L15.8914 0.0771429ZM15.1371 0.608572L14.2732 1.8348L15.1371 2.44347L16.0011 1.8348L15.1371 0.608572ZM14.3829 0.0771429L13.5178 1.3026L13.5189 1.30337L14.3829 0.0771429ZM13.8857 0.0771429L13.0537 -1.17093L13.0409 -1.16242L13.0283 -1.15365L13.8857 0.0771429ZM13.1229 0.608572L12.2589 1.8348L13.118 2.44005L13.9803 1.83937L13.1229 0.608572ZM12.3686 0.0771429L11.5035 1.3026L11.5046 1.30337L12.3686 0.0771429ZM11.8714 0.0771429L11.0394 -1.17093L11.0233 -1.16021L11.0075 -1.14908L11.8714 0.0771429ZM11.1171 0.608572L10.2532 1.8348L11.1171 2.44347L11.9811 1.83479L11.1171 0.608572ZM10.3629 0.0771429L9.49783 1.3026L9.49893 1.30337L10.3629 0.0771429ZM9.86571 0.0771429L9.03366 -1.17093L9.01758 -1.16021L9.00178 -1.14908L9.86571 0.0771429ZM9.11143 0.608572L8.2475 1.8348L9.11143 2.44347L9.97536 1.83479L9.11143 0.608572ZM8.35714 0.0771429L7.49212 1.3026L7.49321 1.30337L8.35714 0.0771429ZM7.86 0.0771429L7.02795 -1.17093L7.01187 -1.16021L6.99607 -1.14908L7.86 0.0771429ZM7.10571 0.608572L6.24178 1.8348L7.10571 2.44347L7.96965 1.83479L7.10571 0.608572ZM6.35143 0.0771429L5.4864 1.3026L5.4875 1.30337L6.35143 0.0771429ZM5.86286 0.0771429L6.72376 1.3055L6.72788 1.30259L5.86286 0.0771429ZM4.86 0.78L5.71383 2.01331L5.7209 2.00835L4.86 0.78ZM4.68 6.13714V7.63714H6.18V6.13714H4.68ZM22.1829 39.6771V38.1771H20.6829V39.6771H22.1829ZM25.2514 37.7314L26.7486 37.8243L26.7514 37.7779V37.7314H25.2514ZM25.2514 37.3971V35.8971H23.7514V37.3971H25.2514ZM31.0114 18.24L29.5116 18.2189L29.5114 18.2294V18.24H31.0114ZM24.42 15.6086H25.92V15.5664L25.9176 15.5242L24.42 15.6086ZM24.42 16.0371V17.5371H25.92V16.0371H24.42ZM22.2 16.0371H20.7V17.5371H22.2V16.0371ZM22.2 14.52V13.02H20.7V14.52H22.2ZM5.55429 1.35429L4.69286 0.126299L4.05429 0.574256V1.35429H5.55429ZM6.12857 0.951429L6.9925 -0.274795L6.13045 -0.882153L5.26715 -0.276558L6.12857 0.951429ZM6.88286 1.48286L7.74788 0.257405L7.74679 0.256634L6.88286 1.48286ZM7.38 1.48286L8.21205 2.73093L8.22813 2.72021L8.24393 2.70908L7.38 1.48286ZM8.13428 0.951429L8.99821 -0.274795L8.13428 -0.883473L7.27035 -0.274795L8.13428 0.951429ZM8.88857 1.48286L9.7536 0.257405L9.7525 0.256633L8.88857 1.48286ZM9.38571 1.48286L10.2178 2.73093L10.2338 2.72021L10.2496 2.70908L9.38571 1.48286ZM10.14 0.951429L11.0039 -0.274795L10.14 -0.883473L9.27607 -0.274795L10.14 0.951429ZM10.8943 1.48286L11.7593 0.257405L11.7582 0.256633L10.8943 1.48286ZM11.3829 1.48286L10.5189 0.256633L10.5178 0.257405L11.3829 1.48286ZM12.1371 0.951429L13.0011 -0.274795L12.1371 -0.883473L11.2732 -0.274795L12.1371 0.951429ZM12.8914 1.48286L13.7565 0.257405L13.7554 0.256633L12.8914 1.48286ZM13.3886 1.48286L14.2206 2.73093L14.2367 2.72021L14.2525 2.70908L13.3886 1.48286ZM14.1429 0.951429L15.0068 -0.274795L14.1429 -0.883473L13.2789 -0.274795L14.1429 0.951429ZM14.8971 1.48286L15.7622 0.257405L15.7611 0.256633L14.8971 1.48286ZM15.3943 1.48286L16.2263 2.73093L16.2424 2.72021L16.2582 2.70908L15.3943 1.48286ZM16.1486 0.951429L17.0187 -0.270421L16.1532 -0.886739L15.2846 -0.274795L16.1486 0.951429ZM16.7143 1.35429H18.2143V0.580997L17.5844 0.132436L16.7143 1.35429ZM16.7143 6.63429H18.2143V6.39087L18.1373 6.15994L16.7143 6.63429ZM16.7143 8.47714V9.97714H18.2143V8.47714H16.7143ZM5.55429 8.47714H4.05429V9.97714H5.55429V8.47714ZM4.69714 6.99429H6.19714V5.49429H4.69714V6.99429ZM17.5457 6.99429V5.49429H16.0457V6.99429H17.5457ZM21.3343 39.9686H19.8343V39.9786L19.8344 39.9886L21.3343 39.9686ZM24.4114 37.6971L25.9092 37.7792L25.9114 37.7382V37.6971H24.4114ZM22.2 38.8114H20.7V40.3114H22.2V38.8114ZM22.2 37.3886V35.8886H20.7V37.3886H22.2ZM24.4114 37.3886H25.9114V35.8886H24.4114V37.3886ZM22.2 36.54H20.7V38.04H22.2V36.54ZM22.2 16.8943V15.3943H20.7V16.8943H22.2ZM28.8343 14.5371H25.2857V17.5371H28.8343V14.5371ZM26.7857 16.0371V15.5743H23.7857V16.0371H26.7857ZM26.7826 15.4785C26.6636 13.6188 25.1097 12.1543 23.2371 12.1543V15.1543C23.5246 15.1543 23.7707 15.387 23.7888 15.6701L26.7826 15.4785ZM23.2371 12.1543H22.2086V15.1543H23.2371V12.1543ZM23.7086 13.6543V8.16H20.7086V13.6543H23.7086ZM23.7086 8.16C23.7086 6.20051 22.1116 4.62857 20.1686 4.62857V7.62857C20.4712 7.62857 20.7086 7.87378 20.7086 8.16H23.7086ZM20.1686 4.62857H17.5629V7.62857H20.1686V4.62857ZM19.0629 6.12857V1.13143H16.0629V6.12857H19.0629ZM19.0629 1.13143C19.0629 0.484311 18.7414 -0.0674049 18.2974 -0.408936L16.4683 1.96894C16.2472 1.79883 16.0629 1.50426 16.0629 1.13143H19.0629ZM18.2487 -0.444866L17.2544 -1.14772L15.5227 1.30201L16.517 2.00487L18.2487 -0.444866ZM17.2536 -1.14831C16.5751 -1.62725 15.7025 -1.59967 15.0594 -1.17093L16.7235 1.32522C16.3889 1.54824 15.9106 1.57582 15.5235 1.30259L17.2536 -1.14831ZM15.0275 -1.14908L14.2732 -0.617653L16.0011 1.8348L16.7554 1.30337L15.0275 -1.14908ZM16.0011 -0.617653L15.2468 -1.14908L13.5189 1.30337L14.2732 1.8348L16.0011 -0.617653ZM15.2479 -1.14831C14.5694 -1.62725 13.6968 -1.59967 13.0537 -1.17093L14.7178 1.32522C14.3832 1.54824 13.9049 1.57582 13.5178 1.30259L15.2479 -1.14831ZM13.0283 -1.15365L12.2654 -0.622222L13.9803 1.83937L14.7431 1.30794L13.0283 -1.15365ZM13.9868 -0.617653L13.2325 -1.14908L11.5046 1.30337L12.2589 1.8348L13.9868 -0.617653ZM13.2336 -1.14831C12.5551 -1.62725 11.6825 -1.59967 11.0394 -1.17093L12.7035 1.32522C12.3689 1.54824 11.8906 1.57582 11.5035 1.30259L13.2336 -1.14831ZM11.0075 -1.14908L10.2532 -0.617652L11.9811 1.83479L12.7354 1.30337L11.0075 -1.14908ZM11.9811 -0.617653L11.2268 -1.14908L9.49893 1.30337L10.2532 1.8348L11.9811 -0.617653ZM11.2279 -1.14831C10.5494 -1.62725 9.67677 -1.59967 9.03366 -1.17093L10.6978 1.32522C10.3632 1.54824 9.8849 1.57582 9.49783 1.30259L11.2279 -1.14831ZM9.00178 -1.14908L8.2475 -0.617652L9.97536 1.83479L10.7296 1.30337L9.00178 -1.14908ZM9.97536 -0.617653L9.22107 -1.14908L7.49321 1.30337L8.2475 1.8348L9.97536 -0.617653ZM9.22217 -1.14831C8.54367 -1.62725 7.67105 -1.59967 7.02795 -1.17093L8.69205 1.32522C8.35752 1.54824 7.87919 1.57582 7.49212 1.30259L9.22217 -1.14831ZM6.99607 -1.14908L6.24178 -0.617652L7.96965 1.83479L8.72393 1.30337L6.99607 -1.14908ZM7.96964 -0.617653L7.21536 -1.14908L5.4875 1.30337L6.24178 1.8348L7.96964 -0.617653ZM7.21645 -1.14831C6.55215 -1.61723 5.66214 -1.61723 4.99783 -1.14831L6.72788 1.30259C6.355 1.5658 5.85928 1.5658 5.4864 1.30259L7.21645 -1.14831ZM5.00196 -1.15121L3.9991 -0.448354L5.7209 2.00835L6.72375 1.3055L5.00196 -1.15121ZM4.00618 -0.453288C3.46806 -0.0807426 3.18 0.52944 3.18 1.13143H6.18C6.18 1.45913 6.02908 1.79503 5.71381 2.01329L4.00618 -0.453288ZM3.18 1.13143V6.13714H6.18V1.13143H3.18ZM4.68 4.63714H2.04V7.63714H4.68V4.63714ZM2.04 4.63714C0.09695 4.63714 -1.5 6.20908 -1.5 8.16857H1.5C1.5 7.88235 1.73734 7.63714 2.04 7.63714V4.63714ZM-1.5 8.16857V39.9686H1.5V8.16857H-1.5ZM-1.5 39.9686C-1.5 41.9281 0.0969508 43.5 2.04 43.5V40.5C1.73734 40.5 1.5 40.2548 1.5 39.9686H-1.5ZM2.04 43.5H20.1429V40.5H2.04V43.5ZM20.1429 43.5C22.0859 43.5 23.6829 41.9281 23.6829 39.9686H20.6829C20.6829 40.2548 20.4455 40.5 20.1429 40.5V43.5ZM23.6829 39.9686V39.6771H20.6829V39.9686H23.6829ZM22.1829 41.1771H23.2114V38.1771H22.1829V41.1771ZM23.2114 41.1771C25.0988 41.1771 26.6319 39.7058 26.7486 37.8243L23.7543 37.6386C23.7338 37.9685 23.484 38.1771 23.2114 38.1771V41.1771ZM26.7514 37.7314V37.3971H23.7514V37.7314H26.7514ZM25.2514 38.8971H28.8086V35.8971H25.2514V38.8971ZM28.8086 38.8971C30.8541 38.8971 32.5114 37.2399 32.5114 35.1943H29.5114C29.5114 35.583 29.1973 35.8971 28.8086 35.8971V38.8971ZM32.5114 35.1943V18.24H29.5114V35.1943H32.5114ZM32.5113 18.2611C32.5403 16.1989 30.871 14.5371 28.8343 14.5371V17.5371C29.2147 17.5371 29.5168 17.8469 29.5116 18.2189L32.5113 18.2611ZM23.2286 16.02C23.1138 16.02 22.935 15.9162 22.9224 15.6929L25.9176 15.5242C25.8365 14.0838 24.629 13.02 23.2286 13.02V16.02ZM22.92 15.6086V16.0371H25.92V15.6086H22.92ZM24.42 14.5371H22.2V17.5371H24.42V14.5371ZM23.7 16.0371V14.52H20.7V16.0371H23.7ZM22.2 16.02H23.2286V13.02H22.2V16.02ZM6.41571 2.58227L6.98999 2.17942L5.26715 -0.276558L4.69286 0.126299L6.41571 2.58227ZM5.26464 2.17765L6.01893 2.70908L7.74679 0.256634L6.9925 -0.274795L5.26464 2.17765ZM6.01783 2.70831C6.69633 3.18725 7.56894 3.15967 8.21205 2.73093L6.54795 0.234782C6.88248 0.0117592 7.36081 -0.0158213 7.74788 0.257405L6.01783 2.70831ZM8.24393 2.70908L8.99821 2.17765L7.27035 -0.274795L6.51607 0.256634L8.24393 2.70908ZM7.27035 2.17765L8.02464 2.70908L9.7525 0.256633L8.99821 -0.274795L7.27035 2.17765ZM8.02355 2.70831C8.70205 3.18725 9.57466 3.15967 10.2178 2.73093L8.55366 0.234782C8.8882 0.0117592 9.36652 -0.0158213 9.7536 0.257405L8.02355 2.70831ZM10.2496 2.70908L11.0039 2.17765L9.27607 -0.274795L8.52178 0.256634L10.2496 2.70908ZM9.27607 2.17765L10.0304 2.70908L11.7582 0.256633L11.0039 -0.274795L9.27607 2.17765ZM10.0293 2.70831C10.6936 3.17723 11.5836 3.17723 12.2479 2.70831L10.5178 0.257405C10.8907 -0.00580166 11.3864 -0.00580166 11.7593 0.257405L10.0293 2.70831ZM12.2468 2.70908L13.0011 2.17765L11.2732 -0.274795L10.5189 0.256634L12.2468 2.70908ZM11.2732 2.17765L12.0275 2.70908L13.7554 0.256633L13.0011 -0.274795L11.2732 2.17765ZM12.0264 2.70831C12.7049 3.18725 13.5775 3.15967 14.2206 2.73093L12.5565 0.234782C12.8911 0.0117592 13.3694 -0.0158213 13.7565 0.257405L12.0264 2.70831ZM14.2525 2.70908L15.0068 2.17765L13.2789 -0.274795L12.5246 0.256634L14.2525 2.70908ZM13.2789 2.17765L14.0332 2.70908L15.7611 0.256633L15.0068 -0.274795L13.2789 2.17765ZM14.0321 2.70831C14.7106 3.18725 15.5832 3.15967 16.2263 2.73093L14.5622 0.234782C14.8968 0.0117592 15.3751 -0.0158213 15.7622 0.257405L14.0321 2.70831ZM16.2582 2.70908L17.0125 2.17765L15.2846 -0.274795L14.5304 0.256633L16.2582 2.70908ZM15.2785 2.17328L15.8442 2.57614L17.5844 0.132436L17.0187 -0.270421L15.2785 2.17328ZM15.2143 1.35429V6.49714H18.2143V1.35429H15.2143ZM15.2143 6.49714C15.2143 6.41619 15.2211 6.34116 15.2318 6.27332C15.2424 6.20606 15.2563 6.14857 15.2693 6.103C15.2821 6.05817 15.2946 6.023 15.3022 6.00238C15.3061 5.99191 15.3093 5.98375 15.311 5.97932C15.3126 5.9754 15.3138 5.97224 15.313 5.97433C15.3128 5.97492 15.3104 5.98076 15.3078 5.98736C15.305 5.99448 15.3008 6.00533 15.2959 6.01852C15.2863 6.04456 15.272 6.08523 15.2575 6.13568C15.2429 6.18688 15.2276 6.25012 15.2161 6.32335C15.2045 6.39715 15.1971 6.47833 15.1971 6.56571H18.1971C18.1971 6.64667 18.1903 6.72169 18.1797 6.78953C18.1691 6.8568 18.1551 6.91428 18.1421 6.95986C18.1293 7.00468 18.1168 7.03986 18.1092 7.06048C18.1053 7.07095 18.1021 7.07911 18.1004 7.08354C18.0989 7.08746 18.0976 7.09061 18.0984 7.08853C18.0987 7.08793 18.101 7.0821 18.1036 7.07549C18.1064 7.06838 18.1106 7.05752 18.1155 7.04434C18.1251 7.01829 18.1395 6.97763 18.1539 6.92718C18.1685 6.87598 18.1838 6.81274 18.1953 6.73951C18.2069 6.66571 18.2143 6.58453 18.2143 6.49714H15.2143ZM15.1971 6.56571C15.1971 6.76122 15.2326 6.92058 15.2658 7.03103C15.2794 7.0766 15.2928 7.11359 15.2954 7.12085C15.301 7.13649 15.2956 7.12166 15.2913 7.10863L18.1373 6.15994C18.1287 6.13405 18.119 6.10744 18.1206 6.11183C18.1206 6.11183 18.1206 6.11191 18.1207 6.11205C18.1207 6.11219 18.1208 6.11241 18.1209 6.11269C18.1211 6.11325 18.1214 6.11415 18.1218 6.11529C18.1226 6.11753 18.1239 6.12118 18.1255 6.12583C18.1286 6.13496 18.1335 6.14998 18.1392 6.16897C18.1659 6.25799 18.1971 6.39592 18.1971 6.56571H15.1971ZM15.2143 6.63429V8.47714H18.2143V6.63429H15.2143ZM16.7143 6.97714H5.55429V9.97714H16.7143V6.97714ZM7.05429 8.47714V1.35429H4.05429V8.47714H7.05429ZM20.16 39.6429H2.05714V42.6429H20.16V39.6429ZM2.05714 39.6429C2.22704 39.6429 2.37429 39.7759 2.37429 39.9686H-0.625715C-0.625715 41.4469 0.584386 42.6429 2.05714 42.6429V39.6429ZM2.37429 39.9686V8.16857H-0.625715V39.9686H2.37429ZM2.37429 8.16857C2.37429 8.35975 2.21989 8.49429 2.05714 8.49429V5.49429C0.591536 5.49429 -0.625715 6.67454 -0.625715 8.16857H2.37429ZM2.05714 8.49429H4.69714V5.49429H2.05714V8.49429ZM3.19714 6.99429V8.90571H6.19714V6.99429H3.19714ZM3.19714 8.90571C3.19714 9.97414 4.05729 10.8343 5.12571 10.8343V7.83429C5.71414 7.83429 6.19714 8.31729 6.19714 8.90571H3.19714ZM5.12571 10.8343H17.1171V7.83429H5.12571V10.8343ZM17.1171 10.8343C18.1856 10.8343 19.0457 9.97414 19.0457 8.90571H16.0457C16.0457 8.31729 16.5287 7.83429 17.1171 7.83429V10.8343ZM19.0457 8.90571V6.99429H16.0457V8.90571H19.0457ZM17.5457 8.49429H20.1514V5.49429H17.5457V8.49429ZM20.1514 8.49429C19.9815 8.49429 19.8343 8.36122 19.8343 8.16857H22.8343C22.8343 6.69021 21.6242 5.49429 20.1514 5.49429V8.49429ZM19.8343 8.16857V39.9686H22.8343V8.16857H19.8343ZM19.8344 39.9886C19.8316 39.7763 19.9942 39.6429 20.16 39.6429V42.6429C21.6286 42.6429 22.8541 41.4465 22.8342 39.9486L19.8344 39.9886ZM22.9137 37.6151C22.9235 37.4353 23.068 37.3114 23.2286 37.3114V40.3114C24.6406 40.3114 25.8308 39.2104 25.9092 37.7792L22.9137 37.6151ZM23.2286 37.3114H22.2V40.3114H23.2286V37.3114ZM23.7 38.8114V37.3886H20.7V38.8114H23.7ZM22.2 38.8886H24.4114V35.8886H22.2V38.8886ZM22.9114 37.3886V37.6971H25.9114V37.3886H22.9114ZM28.6714 35.1943C28.6714 35.1116 28.743 35.04 28.8257 35.04V38.04C30.3999 38.04 31.6714 36.7684 31.6714 35.1943H28.6714ZM28.8257 35.04H22.2V38.04H28.8257V35.04ZM23.7 36.54V16.8943H20.7V36.54H23.7ZM22.2 18.3943H28.8257V15.3943H22.2V18.3943ZM28.8257 18.3943C28.743 18.3943 28.6714 18.3227 28.6714 18.24H31.6714C31.6714 16.6659 30.3999 15.3943 28.8257 15.3943V18.3943ZM28.6714 18.24V35.1943H31.6714V18.24H28.6714Z" fill="white" mask="url(#path-3-inside-2_1334_2036)"/>
                <mask id="path-5-inside-3_1334_2036" fill="white">
                <path d="M6.59137 23.2806H3.99423C3.30851 23.2806 2.7428 23.8378 2.7428 24.5321V27.1292C2.7428 27.8149 3.29994 28.3806 3.99423 28.3806H6.59137C7.27708 28.3806 7.8428 27.8235 7.8428 27.1292V24.5321C7.83423 23.8378 7.27708 23.2806 6.59137 23.2806ZM6.97708 27.1292C6.97708 27.3435 6.80565 27.5235 6.5828 27.5235H3.98565C3.77137 27.5235 3.59137 27.3521 3.59137 27.1292V24.5321C3.59137 24.3178 3.7628 24.1378 3.98565 24.1378H6.5828C6.79708 24.1378 6.97708 24.3092 6.97708 24.5321V27.1292Z"/>
                </mask>
                <path d="M7.8428 24.5321H9.3428V24.5228L9.34268 24.5136L7.8428 24.5321ZM6.59137 21.7806H3.99423V24.7806H6.59137V21.7806ZM3.99423 21.7806C2.48678 21.7806 1.2428 23.0027 1.2428 24.5321H4.2428C4.2428 24.6729 4.13024 24.7806 3.99423 24.7806V21.7806ZM1.2428 24.5321V27.1292H4.2428V24.5321H1.2428ZM1.2428 27.1292C1.2428 28.6367 2.46484 29.8806 3.99423 29.8806V26.8806C4.13505 26.8806 4.2428 26.9932 4.2428 27.1292H1.2428ZM3.99423 29.8806H6.59137V26.8806H3.99423V29.8806ZM6.59137 29.8806C8.09881 29.8806 9.3428 28.6586 9.3428 27.1292H6.3428C6.3428 26.9884 6.45535 26.8806 6.59137 26.8806V29.8806ZM9.3428 27.1292V24.5321H6.3428V27.1292H9.3428ZM9.34268 24.5136C9.32419 23.0155 8.11558 21.7806 6.59137 21.7806V24.7806C6.43858 24.7806 6.34426 24.66 6.34291 24.5506L9.34268 24.5136ZM5.47708 27.1292C5.47708 26.5364 5.95605 26.0235 6.5828 26.0235V29.0235C7.65526 29.0235 8.47708 28.1506 8.47708 27.1292H5.47708ZM6.5828 26.0235H3.98565V29.0235H6.5828V26.0235ZM3.98565 26.0235C4.57845 26.0235 5.09137 26.5025 5.09137 27.1292H2.09137C2.09137 28.2017 2.96429 29.0235 3.98565 29.0235V26.0235ZM5.09137 27.1292V24.5321H2.09137V27.1292H5.09137ZM5.09137 24.5321C5.09137 25.1249 4.61241 25.6378 3.98565 25.6378V22.6378C2.91319 22.6378 2.09137 23.5107 2.09137 24.5321H5.09137ZM3.98565 25.6378H6.5828V22.6378H3.98565V25.6378ZM6.5828 25.6378C5.99001 25.6378 5.47708 25.1588 5.47708 24.5321H8.47708C8.47708 23.4596 7.60416 22.6378 6.5828 22.6378V25.6378ZM5.47708 24.5321V27.1292H8.47708V24.5321H5.47708Z" fill="white" mask="url(#path-5-inside-3_1334_2036)"/>
                <mask id="path-7-inside-4_1334_2036" fill="white">
                <path d="M12.4029 23.2806H9.80575C9.12003 23.2806 8.55432 23.8378 8.55432 24.5321V27.1292C8.55432 27.8149 9.11146 28.3806 9.80575 28.3806H12.4029C13.0886 28.3806 13.6543 27.8235 13.6543 27.1292V24.5321C13.6543 23.8378 13.0972 23.2806 12.4029 23.2806ZM12.7972 27.1292C12.7972 27.3435 12.6258 27.5235 12.4029 27.5235H9.80575C9.59146 27.5235 9.41146 27.3521 9.41146 27.1292V24.5321C9.41146 24.3178 9.58289 24.1378 9.80575 24.1378H12.4029C12.6172 24.1378 12.7972 24.3092 12.7972 24.5321V27.1292Z"/>
                </mask>
                <path d="M12.4029 21.7806H9.80575V24.7806H12.4029V21.7806ZM9.80575 21.7806C8.2983 21.7806 7.05432 23.0027 7.05432 24.5321H10.0543C10.0543 24.6729 9.94177 24.7806 9.80575 24.7806V21.7806ZM7.05432 24.5321V27.1292H10.0543V24.5321H7.05432ZM7.05432 27.1292C7.05432 28.6367 8.27636 29.8806 9.80575 29.8806V26.8806C9.94657 26.8806 10.0543 26.9932 10.0543 27.1292H7.05432ZM9.80575 29.8806H12.4029V26.8806H9.80575V29.8806ZM12.4029 29.8806C13.9103 29.8806 15.1543 28.6586 15.1543 27.1292H12.1543C12.1543 26.9884 12.2669 26.8806 12.4029 26.8806V29.8806ZM15.1543 27.1292V24.5321H12.1543V27.1292H15.1543ZM15.1543 24.5321C15.1543 23.0094 13.9256 21.7806 12.4029 21.7806V24.7806C12.2688 24.7806 12.1543 24.6662 12.1543 24.5321H15.1543ZM11.2972 27.1292C11.2972 26.5364 11.7761 26.0235 12.4029 26.0235V29.0235C13.4754 29.0235 14.2972 28.1506 14.2972 27.1292H11.2972ZM12.4029 26.0235H9.80575V29.0235H12.4029V26.0235ZM9.80575 26.0235C10.3985 26.0235 10.9115 26.5025 10.9115 27.1292H7.91146C7.91146 28.2017 8.78438 29.0235 9.80575 29.0235V26.0235ZM10.9115 27.1292V24.5321H7.91146V27.1292H10.9115ZM10.9115 24.5321C10.9115 25.1249 10.4325 25.6378 9.80575 25.6378V22.6378C8.73328 22.6378 7.91146 23.5107 7.91146 24.5321H10.9115ZM9.80575 25.6378H12.4029V22.6378H9.80575V25.6378ZM12.4029 25.6378C11.8101 25.6378 11.2972 25.1588 11.2972 24.5321H14.2972C14.2972 23.4596 13.4243 22.6378 12.4029 22.6378V25.6378ZM11.2972 24.5321V27.1292H14.2972V24.5321H11.2972Z" fill="white" mask="url(#path-7-inside-4_1334_2036)"/>
                <mask id="path-9-inside-5_1334_2036" fill="white">
                <path d="M18.2228 23.2806H15.6257C14.94 23.2806 14.3743 23.8378 14.3743 24.5321V27.1292C14.3743 27.8149 14.9314 28.3806 15.6257 28.3806H18.2228C18.9086 28.3806 19.4743 27.8235 19.4743 27.1292V24.5321C19.4743 23.8378 18.9171 23.2806 18.2228 23.2806ZM18.6171 27.1292C18.6171 27.3435 18.4457 27.5235 18.2228 27.5235H15.6257C15.4114 27.5235 15.2314 27.3521 15.2314 27.1292V24.5321C15.2314 24.3178 15.4028 24.1378 15.6257 24.1378H18.2228C18.4371 24.1378 18.6171 24.3092 18.6171 24.5321V27.1292Z"/>
                </mask>
                <path d="M18.2228 21.7806H15.6257V24.7806H18.2228V21.7806ZM15.6257 21.7806C14.1183 21.7806 12.8743 23.0027 12.8743 24.5321H15.8743C15.8743 24.6729 15.7617 24.7806 15.6257 24.7806V21.7806ZM12.8743 24.5321V27.1292H15.8743V24.5321H12.8743ZM12.8743 27.1292C12.8743 28.6367 14.0963 29.8806 15.6257 29.8806V26.8806C15.7665 26.8806 15.8743 26.9932 15.8743 27.1292H12.8743ZM15.6257 29.8806H18.2228V26.8806H15.6257V29.8806ZM18.2228 29.8806C19.7303 29.8806 20.9743 28.6586 20.9743 27.1292H17.9743C17.9743 26.9884 18.0868 26.8806 18.2228 26.8806V29.8806ZM20.9743 27.1292V24.5321H17.9743V27.1292H20.9743ZM20.9743 24.5321C20.9743 23.0094 19.7455 21.7806 18.2228 21.7806V24.7806C18.0887 24.7806 17.9743 24.6662 17.9743 24.5321H20.9743ZM17.1171 27.1292C17.1171 26.5364 17.5961 26.0235 18.2228 26.0235V29.0235C19.2953 29.0235 20.1171 28.1506 20.1171 27.1292H17.1171ZM18.2228 26.0235H15.6257V29.0235H18.2228V26.0235ZM15.6257 26.0235C16.2185 26.0235 16.7314 26.5024 16.7314 27.1292H13.7314C13.7314 28.2017 14.6043 29.0235 15.6257 29.0235V26.0235ZM16.7314 27.1292V24.5321H13.7314V27.1292H16.7314ZM16.7314 24.5321C16.7314 25.1249 16.2524 25.6378 15.6257 25.6378V22.6378C14.5532 22.6378 13.7314 23.5107 13.7314 24.5321H16.7314ZM15.6257 25.6378H18.2228V22.6378H15.6257V25.6378ZM18.2228 25.6378C17.6301 25.6378 17.1171 25.1588 17.1171 24.5321H20.1171C20.1171 23.4596 19.2442 22.6378 18.2228 22.6378V25.6378ZM17.1171 24.5321V27.1292H20.1171V24.5321H17.1171Z" fill="white" mask="url(#path-9-inside-5_1334_2036)"/>
                <mask id="path-11-inside-6_1334_2036" fill="white">
                <path d="M6.59137 28.8942H3.99423C3.30851 28.8942 2.7428 29.4513 2.7428 30.1456V32.7427C2.7428 33.4285 3.29994 33.9942 3.99423 33.9942H6.59137C7.27708 33.9942 7.8428 33.437 7.8428 32.7427V30.1456C7.83423 29.4513 7.27708 28.8942 6.59137 28.8942ZM6.97708 32.7342C6.97708 32.9485 6.80565 33.1285 6.5828 33.1285H3.98565C3.77137 33.1285 3.59137 32.957 3.59137 32.7342V30.137C3.59137 29.9227 3.7628 29.7427 3.98565 29.7427H6.5828C6.79708 29.7427 6.97708 29.9142 6.97708 30.137V32.7342Z"/>
                </mask>
                <path d="M7.8428 30.1456H9.3428V30.1363L9.34268 30.1271L7.8428 30.1456ZM6.59137 27.3942H3.99423V30.3942H6.59137V27.3942ZM3.99423 27.3942C2.48678 27.3942 1.2428 28.6162 1.2428 30.1456H4.2428C4.2428 30.2864 4.13024 30.3942 3.99423 30.3942V27.3942ZM1.2428 30.1456V32.7427H4.2428V30.1456H1.2428ZM1.2428 32.7427C1.2428 34.2502 2.46484 35.4942 3.99423 35.4942V32.4942C4.13505 32.4942 4.2428 32.6067 4.2428 32.7427H1.2428ZM3.99423 35.4942H6.59137V32.4942H3.99423V35.4942ZM6.59137 35.4942C8.09881 35.4942 9.3428 34.2721 9.3428 32.7427H6.3428C6.3428 32.6019 6.45535 32.4942 6.59137 32.4942V35.4942ZM9.3428 32.7427V30.1456H6.3428V32.7427H9.3428ZM9.34268 30.1271C9.32419 28.629 8.11558 27.3942 6.59137 27.3942V30.3942C6.43858 30.3942 6.34426 30.2736 6.34291 30.1641L9.34268 30.1271ZM5.47708 32.7342C5.47708 32.1414 5.95603 31.6285 6.5828 31.6285V34.6285C7.65528 34.6285 8.47708 33.7555 8.47708 32.7342H5.47708ZM6.5828 31.6285H3.98565V34.6285H6.5828V31.6285ZM3.98565 31.6285C4.57846 31.6285 5.09137 32.1074 5.09137 32.7342H2.09137C2.09137 33.8066 2.96428 34.6285 3.98565 34.6285V31.6285ZM5.09137 32.7342V30.137H2.09137V32.7342H5.09137ZM5.09137 30.137C5.09137 30.7298 4.61241 31.2427 3.98565 31.2427V28.2427C2.91319 28.2427 2.09137 29.1157 2.09137 30.137H5.09137ZM3.98565 31.2427H6.5828V28.2427H3.98565V31.2427ZM6.5828 31.2427C5.99001 31.2427 5.47708 30.7638 5.47708 30.137H8.47708C8.47708 29.0645 7.60416 28.2427 6.5828 28.2427V31.2427ZM5.47708 30.137V32.7342H8.47708V30.137H5.47708Z" fill="white" mask="url(#path-11-inside-6_1334_2036)"/>
                <mask id="path-13-inside-7_1334_2036" fill="white">
                <path d="M12.4029 28.8942H9.80575C9.12003 28.8942 8.55432 29.4513 8.55432 30.1456V32.7427C8.55432 33.4285 9.11146 33.9942 9.80575 33.9942H12.4029C13.0886 33.9942 13.6543 33.437 13.6543 32.7427V30.1456C13.6543 29.4513 13.0972 28.8942 12.4029 28.8942ZM12.7972 32.7342C12.7972 32.9485 12.6258 33.1285 12.4029 33.1285H9.80575C9.59146 33.1285 9.41146 32.957 9.41146 32.7342V30.137C9.41146 29.9227 9.58289 29.7427 9.80575 29.7427H12.4029C12.6172 29.7427 12.7972 29.9142 12.7972 30.137V32.7342Z"/>
                </mask>
                <path d="M12.4029 27.3942H9.80575V30.3942H12.4029V27.3942ZM9.80575 27.3942C8.2983 27.3942 7.05432 28.6162 7.05432 30.1456H10.0543C10.0543 30.2864 9.94177 30.3942 9.80575 30.3942V27.3942ZM7.05432 30.1456V32.7427H10.0543V30.1456H7.05432ZM7.05432 32.7427C7.05432 34.2502 8.27636 35.4942 9.80575 35.4942V32.4942C9.94657 32.4942 10.0543 32.6067 10.0543 32.7427H7.05432ZM9.80575 35.4942H12.4029V32.4942H9.80575V35.4942ZM12.4029 35.4942C13.9103 35.4942 15.1543 34.2721 15.1543 32.7427H12.1543C12.1543 32.6019 12.2669 32.4942 12.4029 32.4942V35.4942ZM15.1543 32.7427V30.1456H12.1543V32.7427H15.1543ZM15.1543 30.1456C15.1543 28.6229 13.9256 27.3942 12.4029 27.3942V30.3942C12.2688 30.3942 12.1543 30.2797 12.1543 30.1456H15.1543ZM11.2972 32.7342C11.2972 32.1414 11.7761 31.6285 12.4029 31.6285V34.6285C13.4754 34.6285 14.2972 33.7555 14.2972 32.7342H11.2972ZM12.4029 31.6285H9.80575V34.6285H12.4029V31.6285ZM9.80575 31.6285C10.3986 31.6285 10.9115 32.1074 10.9115 32.7342H7.91146C7.91146 33.8066 8.78437 34.6285 9.80575 34.6285V31.6285ZM10.9115 32.7342V30.137H7.91146V32.7342H10.9115ZM10.9115 30.137C10.9115 30.7298 10.4325 31.2427 9.80575 31.2427V28.2427C8.73328 28.2427 7.91146 29.1157 7.91146 30.137H10.9115ZM9.80575 31.2427H12.4029V28.2427H9.80575V31.2427ZM12.4029 31.2427C11.8101 31.2427 11.2972 30.7638 11.2972 30.137H14.2972C14.2972 29.0646 13.4243 28.2427 12.4029 28.2427V31.2427ZM11.2972 30.137V32.7342H14.2972V30.137H11.2972Z" fill="white" mask="url(#path-13-inside-7_1334_2036)"/>
                <mask id="path-15-inside-8_1334_2036" fill="white">
                <path d="M18.2228 28.8942H15.6257C14.94 28.8942 14.3743 29.4513 14.3743 30.1456V32.7427C14.3743 33.4285 14.9314 33.9942 15.6257 33.9942H18.2228C18.9086 33.9942 19.4743 33.437 19.4743 32.7427V30.1456C19.4743 29.4513 18.9171 28.8942 18.2228 28.8942ZM18.6171 32.7342C18.6171 32.9485 18.4457 33.1285 18.2228 33.1285H15.6257C15.4114 33.1285 15.2314 32.957 15.2314 32.7342V30.137C15.2314 29.9227 15.4028 29.7427 15.6257 29.7427H18.2228C18.4371 29.7427 18.6171 29.9142 18.6171 30.137V32.7342Z"/>
                </mask>
                <path d="M18.2228 27.3942H15.6257V30.3942H18.2228V27.3942ZM15.6257 27.3942C14.1183 27.3942 12.8743 28.6162 12.8743 30.1456H15.8743C15.8743 30.2864 15.7617 30.3942 15.6257 30.3942V27.3942ZM12.8743 30.1456V32.7427H15.8743V30.1456H12.8743ZM12.8743 32.7427C12.8743 34.2502 14.0963 35.4942 15.6257 35.4942V32.4942C15.7665 32.4942 15.8743 32.6067 15.8743 32.7427H12.8743ZM15.6257 35.4942H18.2228V32.4942H15.6257V35.4942ZM18.2228 35.4942C19.7303 35.4942 20.9743 34.2721 20.9743 32.7427H17.9743C17.9743 32.6019 18.0868 32.4942 18.2228 32.4942V35.4942ZM20.9743 32.7427V30.1456H17.9743V32.7427H20.9743ZM20.9743 30.1456C20.9743 28.6229 19.7455 27.3942 18.2228 27.3942V30.3942C18.0887 30.3942 17.9743 30.2797 17.9743 30.1456H20.9743ZM17.1171 32.7342C17.1171 32.1414 17.5961 31.6285 18.2228 31.6285V34.6285C19.2953 34.6285 20.1171 33.7555 20.1171 32.7342H17.1171ZM18.2228 31.6285H15.6257V34.6285H18.2228V31.6285ZM15.6257 31.6285C16.2185 31.6285 16.7314 32.1074 16.7314 32.7342H13.7314C13.7314 33.8066 14.6043 34.6285 15.6257 34.6285V31.6285ZM16.7314 32.7342V30.137H13.7314V32.7342H16.7314ZM16.7314 30.137C16.7314 30.7298 16.2524 31.2427 15.6257 31.2427V28.2427C14.5532 28.2427 13.7314 29.1156 13.7314 30.137H16.7314ZM15.6257 31.2427H18.2228V28.2427H15.6257V31.2427ZM18.2228 31.2427C17.6301 31.2427 17.1171 30.7638 17.1171 30.137H20.1171C20.1171 29.0645 19.2442 28.2427 18.2228 28.2427V31.2427ZM17.1171 30.137V32.7342H20.1171V30.137H17.1171Z" fill="white" mask="url(#path-15-inside-8_1334_2036)"/>
                <mask id="path-17-inside-9_1334_2036" fill="white">
                <path d="M6.59137 34.4991H3.99423C3.30851 34.4991 2.7428 35.0563 2.7428 35.7506V38.3477C2.7428 39.0334 3.29994 39.5991 3.99423 39.5991H6.59137C7.27708 39.5991 7.8428 39.042 7.8428 38.3477V35.742C7.83423 35.0563 7.27708 34.4991 6.59137 34.4991ZM6.97708 38.3477C6.97708 38.562 6.80565 38.742 6.5828 38.742H3.98565C3.77137 38.742 3.59137 38.5706 3.59137 38.3477V35.742C3.59137 35.5277 3.7628 35.3477 3.98565 35.3477H6.5828C6.79708 35.3477 6.97708 35.5191 6.97708 35.742V38.3477Z"/>
                </mask>
                <path d="M7.8428 35.742H9.3428V35.7326L9.34268 35.7233L7.8428 35.742ZM6.59137 32.9991H3.99423V35.9991H6.59137V32.9991ZM3.99423 32.9991C2.48678 32.9991 1.2428 34.2212 1.2428 35.7506H4.2428C4.2428 35.8914 4.13024 35.9991 3.99423 35.9991V32.9991ZM1.2428 35.7506V38.3477H4.2428V35.7506H1.2428ZM1.2428 38.3477C1.2428 39.8552 2.46484 41.0991 3.99423 41.0991V38.0991C4.13505 38.0991 4.2428 38.2117 4.2428 38.3477H1.2428ZM3.99423 41.0991H6.59137V38.0991H3.99423V41.0991ZM6.59137 41.0991C8.09881 41.0991 9.3428 39.8771 9.3428 38.3477H6.3428C6.3428 38.2069 6.45535 38.0991 6.59137 38.0991V41.0991ZM9.3428 38.3477V35.742H6.3428V38.3477H9.3428ZM9.34268 35.7233C9.32398 34.2274 8.10907 32.9991 6.59137 32.9991V35.9991C6.4451 35.9991 6.34447 35.8852 6.34292 35.7608L9.34268 35.7233ZM5.47708 38.3477C5.47708 37.7549 5.95605 37.242 6.5828 37.242V40.242C7.65526 40.242 8.47708 39.3691 8.47708 38.3477H5.47708ZM6.5828 37.242H3.98565V40.242H6.5828V37.242ZM3.98565 37.242C4.57845 37.242 5.09137 37.721 5.09137 38.3477H2.09137C2.09137 39.4202 2.96429 40.242 3.98565 40.242V37.242ZM5.09137 38.3477V35.742H2.09137V38.3477H5.09137ZM5.09137 35.742C5.09137 36.3348 4.61241 36.8477 3.98565 36.8477V33.8477C2.91319 33.8477 2.09137 34.7206 2.09137 35.742H5.09137ZM3.98565 36.8477H6.5828V33.8477H3.98565V36.8477ZM6.5828 36.8477C5.99001 36.8477 5.47708 36.3688 5.47708 35.742H8.47708C8.47708 34.6695 7.60416 33.8477 6.5828 33.8477V36.8477ZM5.47708 35.742V38.3477H8.47708V35.742H5.47708Z" fill="white" mask="url(#path-17-inside-9_1334_2036)"/>
                <mask id="path-19-inside-10_1334_2036" fill="white">
                <path d="M12.4029 34.4991H9.80575C9.12003 34.4991 8.55432 35.0563 8.55432 35.7506V38.3477C8.55432 39.0334 9.11146 39.5991 9.80575 39.5991H12.4029C13.0886 39.5991 13.6543 39.042 13.6543 38.3477V35.742C13.6543 35.0563 13.0972 34.4991 12.4029 34.4991ZM12.7972 38.3477C12.7972 38.562 12.6258 38.742 12.4029 38.742H9.80575C9.59146 38.742 9.41146 38.5706 9.41146 38.3477V35.742C9.41146 35.5277 9.58289 35.3477 9.80575 35.3477H12.4029C12.6172 35.3477 12.7972 35.5191 12.7972 35.742V38.3477Z"/>
                </mask>
                <path d="M12.4029 32.9991H9.80575V35.9991H12.4029V32.9991ZM9.80575 32.9991C8.2983 32.9991 7.05432 34.2212 7.05432 35.7506H10.0543C10.0543 35.8914 9.94177 35.9991 9.80575 35.9991V32.9991ZM7.05432 35.7506V38.3477H10.0543V35.7506H7.05432ZM7.05432 38.3477C7.05432 39.8552 8.27636 41.0991 9.80575 41.0991V38.0991C9.94657 38.0991 10.0543 38.2117 10.0543 38.3477H7.05432ZM9.80575 41.0991H12.4029V38.0991H9.80575V41.0991ZM12.4029 41.0991C13.9103 41.0991 15.1543 39.8771 15.1543 38.3477H12.1543C12.1543 38.2069 12.2669 38.0991 12.4029 38.0991V41.0991ZM15.1543 38.3477V35.742H12.1543V38.3477H15.1543ZM15.1543 35.742C15.1543 34.2212 13.9189 32.9991 12.4029 32.9991V35.9991C12.2755 35.9991 12.1543 35.8914 12.1543 35.742H15.1543ZM11.2972 38.3477C11.2972 37.7549 11.7761 37.242 12.4029 37.242V40.242C13.4754 40.242 14.2972 39.3691 14.2972 38.3477H11.2972ZM12.4029 37.242H9.80575V40.242H12.4029V37.242ZM9.80575 37.242C10.3985 37.242 10.9115 37.721 10.9115 38.3477H7.91146C7.91146 39.4202 8.78438 40.242 9.80575 40.242V37.242ZM10.9115 38.3477V35.742H7.91146V38.3477H10.9115ZM10.9115 35.742C10.9115 36.3348 10.4325 36.8477 9.80575 36.8477V33.8477C8.73328 33.8477 7.91146 34.7206 7.91146 35.742H10.9115ZM9.80575 36.8477H12.4029V33.8477H9.80575V36.8477ZM12.4029 36.8477C11.8101 36.8477 11.2972 36.3688 11.2972 35.742H14.2972C14.2972 34.6695 13.4243 33.8477 12.4029 33.8477V36.8477ZM11.2972 35.742V38.3477H14.2972V35.742H11.2972Z" fill="white" mask="url(#path-19-inside-10_1334_2036)"/>
                <mask id="path-21-inside-11_1334_2036" fill="white">
                <path d="M18.2228 34.4991H15.6257C14.94 34.4991 14.3743 35.0563 14.3743 35.7506V38.3477C14.3743 39.0334 14.9314 39.5991 15.6257 39.5991H18.2228C18.9086 39.5991 19.4743 39.042 19.4743 38.3477V35.742C19.4743 35.0563 18.9171 34.4991 18.2228 34.4991ZM18.6171 38.3477C18.6171 38.562 18.4457 38.742 18.2228 38.742H15.6257C15.4114 38.742 15.2314 38.5706 15.2314 38.3477V35.742C15.2314 35.5277 15.4028 35.3477 15.6257 35.3477H18.2228C18.4371 35.3477 18.6171 35.5191 18.6171 35.742V38.3477Z"/>
                </mask>
                <path d="M18.2228 32.9991H15.6257V35.9991H18.2228V32.9991ZM15.6257 32.9991C14.1183 32.9991 12.8743 34.2212 12.8743 35.7506H15.8743C15.8743 35.8914 15.7617 35.9991 15.6257 35.9991V32.9991ZM12.8743 35.7506V38.3477H15.8743V35.7506H12.8743ZM12.8743 38.3477C12.8743 39.8552 14.0963 41.0991 15.6257 41.0991V38.0991C15.7665 38.0991 15.8743 38.2117 15.8743 38.3477H12.8743ZM15.6257 41.0991H18.2228V38.0991H15.6257V41.0991ZM18.2228 41.0991C19.7303 41.0991 20.9743 39.8771 20.9743 38.3477H17.9743C17.9743 38.2069 18.0868 38.0991 18.2228 38.0991V41.0991ZM20.9743 38.3477V35.742H17.9743V38.3477H20.9743ZM20.9743 35.742C20.9743 34.2212 19.7388 32.9991 18.2228 32.9991V35.9991C18.0954 35.9991 17.9743 35.8914 17.9743 35.742H20.9743ZM17.1171 38.3477C17.1171 37.7549 17.5961 37.242 18.2228 37.242V40.242C19.2953 40.242 20.1171 39.3691 20.1171 38.3477H17.1171ZM18.2228 37.242H15.6257V40.242H18.2228V37.242ZM15.6257 37.242C16.2185 37.242 16.7314 37.721 16.7314 38.3477H13.7314C13.7314 39.4202 14.6043 40.242 15.6257 40.242V37.242ZM16.7314 38.3477V35.742H13.7314V38.3477H16.7314ZM16.7314 35.742C16.7314 36.3348 16.2524 36.8477 15.6257 36.8477V33.8477C14.5532 33.8477 13.7314 34.7206 13.7314 35.742H16.7314ZM15.6257 36.8477H18.2228V33.8477H15.6257V36.8477ZM18.2228 36.8477C17.6301 36.8477 17.1171 36.3688 17.1171 35.742H20.1171C20.1171 34.6695 19.2442 33.8477 18.2228 33.8477V36.8477ZM17.1171 35.742V38.3477H20.1171V35.742H17.1171Z" fill="white" mask="url(#path-21-inside-11_1334_2036)"/>
                <mask id="path-23-inside-12_1334_2036" fill="white">
                <path d="M14.8972 3.21472H7.35435C7.11435 3.21472 6.92578 3.40329 6.92578 3.64329C6.92578 3.88329 7.11435 4.07186 7.35435 4.07186H14.8972C15.1372 4.07186 15.3258 3.88329 15.3258 3.64329C15.3258 3.40329 15.1286 3.21472 14.8972 3.21472Z"/>
                </mask>
                <path d="M14.8972 1.71472H7.35435V4.71472H14.8972V1.71472ZM7.35435 1.71472C6.28593 1.71472 5.42578 2.57487 5.42578 3.64329H8.42578C8.42578 4.23172 7.94278 4.71472 7.35435 4.71472V1.71472ZM5.42578 3.64329C5.42578 4.71172 6.28593 5.57186 7.35435 5.57186V2.57186C7.94278 2.57186 8.42578 3.05487 8.42578 3.64329H5.42578ZM7.35435 5.57186H14.8972V2.57186H7.35435V5.57186ZM14.8972 5.57186C15.9656 5.57186 16.8258 4.71172 16.8258 3.64329H13.8258C13.8258 3.05487 14.3088 2.57186 14.8972 2.57186V5.57186ZM16.8258 3.64329C16.8258 2.55543 15.9375 1.71472 14.8972 1.71472V4.71472C14.3198 4.71472 13.8258 4.25116 13.8258 3.64329H16.8258Z" fill="white" mask="url(#path-23-inside-12_1334_2036)"/>
                <mask id="path-25-inside-13_1334_2036" fill="white">
                <path d="M14.8972 5.26331H7.35435C7.11435 5.26331 6.92578 5.45188 6.92578 5.69188C6.92578 5.93188 7.11435 6.12045 7.35435 6.12045H14.8972C15.1372 6.12045 15.3258 5.93188 15.3258 5.69188C15.3258 5.45188 15.1286 5.26331 14.8972 5.26331Z"/>
                </mask>
                <path d="M14.8972 3.76331H7.35435V6.76331H14.8972V3.76331ZM7.35435 3.76331C6.28593 3.76331 5.42578 4.62345 5.42578 5.69188H8.42578C8.42578 6.2803 7.94278 6.76331 7.35435 6.76331V3.76331ZM5.42578 5.69188C5.42578 6.7603 6.28593 7.62045 7.35435 7.62045V4.62045C7.94278 4.62045 8.42578 5.10345 8.42578 5.69188H5.42578ZM7.35435 7.62045H14.8972V4.62045H7.35435V7.62045ZM14.8972 7.62045C15.9656 7.62045 16.8258 6.7603 16.8258 5.69188H13.8258C13.8258 5.10345 14.3088 4.62045 14.8972 4.62045V7.62045ZM16.8258 5.69188C16.8258 4.60401 15.9375 3.76331 14.8972 3.76331V6.76331C14.3198 6.76331 13.8258 6.29974 13.8258 5.69188H16.8258Z" fill="white" mask="url(#path-25-inside-13_1334_2036)"/>
                <mask id="path-27-inside-14_1334_2036" fill="white">
                <path d="M27.3515 30.8826H25.0115C24.5743 30.8826 24.2229 31.234 24.2229 31.6711V34.6626C24.2229 35.0997 24.5743 35.4511 25.0115 35.4511H27.3515C27.7886 35.4511 28.14 35.0997 28.14 34.6626V31.6711C28.1486 31.234 27.7886 30.8826 27.3515 30.8826ZM27.2915 34.594H25.0886V31.7397H27.2915V34.594Z"/>
                </mask>
                <path d="M28.14 31.6711L26.6403 31.6417L26.64 31.6564V31.6711H28.14ZM27.2915 34.594V36.094H28.7915V34.594H27.2915ZM25.0886 34.594H23.5886V36.094H25.0886V34.594ZM25.0886 31.7397V30.2397H23.5886V31.7397H25.0886ZM27.2915 31.7397H28.7915V30.2397H27.2915V31.7397ZM27.3515 29.3826H25.0115V32.3826H27.3515V29.3826ZM25.0115 29.3826C23.7459 29.3826 22.7229 30.4056 22.7229 31.6711H25.7229C25.7229 32.0624 25.4028 32.3826 25.0115 32.3826V29.3826ZM22.7229 31.6711V34.6626H25.7229V31.6711H22.7229ZM22.7229 34.6626C22.7229 35.9281 23.7459 36.9511 25.0115 36.9511V33.9511C25.4028 33.9511 25.7229 34.2713 25.7229 34.6626H22.7229ZM25.0115 36.9511H27.3515V33.9511H25.0115V36.9511ZM27.3515 36.9511C28.617 36.9511 29.64 35.9281 29.64 34.6626H26.64C26.64 34.2713 26.9602 33.9511 27.3515 33.9511V36.9511ZM29.64 34.6626V31.6711H26.64V34.6626H29.64ZM29.6398 31.7005C29.6655 30.3852 28.5896 29.3826 27.3515 29.3826V32.3826C26.9876 32.3826 26.6317 32.0828 26.6403 31.6417L29.6398 31.7005ZM27.2915 33.094H25.0886V36.094H27.2915V33.094ZM26.5886 34.594V31.7397H23.5886V34.594H26.5886ZM25.0886 33.2397H27.2915V30.2397H25.0886V33.2397ZM25.7915 31.7397V34.594H28.7915V31.7397H25.7915Z" fill="white" mask="url(#path-27-inside-14_1334_2036)"/>
                <mask id="path-29-inside-15_1334_2036" fill="white">
                <path d="M26.3915 28.4397C26.6315 28.4397 26.82 28.2511 26.82 28.0111V18.4111C26.82 18.1711 26.6315 17.9825 26.3915 17.9825C26.1515 17.9825 25.9629 18.1711 25.9629 18.4111V28.0111C25.9629 28.2425 26.16 28.4397 26.3915 28.4397Z"/>
                </mask>
                <path d="M26.3915 29.9397C27.4599 29.9397 28.32 29.0795 28.32 28.0111H25.32C25.32 27.4227 25.803 26.9397 26.3915 26.9397V29.9397ZM28.32 28.0111V18.4111H25.32V28.0111H28.32ZM28.32 18.4111C28.32 17.3427 27.4599 16.4825 26.3915 16.4825V19.4825C25.803 19.4825 25.32 18.9995 25.32 18.4111H28.32ZM26.3915 16.4825C25.323 16.4825 24.4629 17.3427 24.4629 18.4111H27.4629C27.4629 18.9995 26.9799 19.4825 26.3915 19.4825V16.4825ZM24.4629 18.4111V28.0111H27.4629V18.4111H24.4629ZM24.4629 28.0111C24.4629 29.071 25.3316 29.9397 26.3915 29.9397V26.9397C26.9885 26.9397 27.4629 27.4141 27.4629 28.0111H24.4629Z" fill="white" mask="url(#path-29-inside-15_1334_2036)"/>
                <mask id="path-31-inside-16_1334_2036" fill="white">
                <path d="M28.3371 17.9825C28.0971 17.9825 27.9086 18.1711 27.9086 18.4111V24.7883C27.9086 25.0283 28.0971 25.2168 28.3371 25.2168C28.5771 25.2168 28.7657 25.0283 28.7657 24.7883V18.4111C28.7657 18.1797 28.5771 17.9825 28.3371 17.9825Z"/>
                </mask>
                <path d="M28.3371 16.4825C27.2687 16.4825 26.4086 17.3427 26.4086 18.4111H29.4086C29.4086 18.9995 28.9256 19.4825 28.3371 19.4825V16.4825ZM26.4086 18.4111V24.7883H29.4086V18.4111H26.4086ZM26.4086 24.7883C26.4086 25.8567 27.2687 26.7168 28.3371 26.7168V23.7168C28.9256 23.7168 29.4086 24.1998 29.4086 24.7883H26.4086ZM28.3371 26.7168C29.4056 26.7168 30.2657 25.8567 30.2657 24.7883H27.2657C27.2657 24.1998 27.7487 23.7168 28.3371 23.7168V26.7168ZM30.2657 24.7883V18.4111H27.2657V24.7883H30.2657ZM30.2657 18.4111C30.2657 17.3708 29.425 16.4825 28.3371 16.4825V19.4825C27.7293 19.4825 27.2657 18.9885 27.2657 18.4111H30.2657Z" fill="white" mask="url(#path-31-inside-16_1334_2036)"/>
              </svg> 