<svg width="40" height="42" viewBox="0 0 40 42" fill="none" xmlns="http://www.w3.org/2000/svg">
                <path d="M1.69318 22.9441C1.07538 22.3263 1.07538 21.3211 1.69318 20.7036L16.7693 5.62749C17.0096 5.38717 17.0096 4.99752 16.7693 4.75751C16.529 4.51687 16.1393 4.51719 15.8993 4.75751L0.822876 19.8336C-0.274292 20.9308 -0.274292 22.7166 0.822876 23.8141L4.62035 27.6112C4.74019 27.7311 4.89784 27.7913 5.05518 27.7913C5.21283 27.7913 5.37016 27.7314 5.49033 27.6112C5.73065 27.3709 5.73065 26.9813 5.49033 26.7413L1.69318 22.9441Z" fill="white"/>
                <path d="M13.7878 12.2537L4.47785 21.5636C4.23753 21.804 4.23753 22.1936 4.47785 22.4339C4.59801 22.5538 4.75535 22.614 4.913 22.614C5.07034 22.614 5.22767 22.5541 5.34783 22.4339L14.6577 13.124C14.8981 12.8837 14.8981 12.4941 14.6577 12.2537C14.4177 12.0137 14.0281 12.0137 13.7878 12.2537Z" fill="white"/>
                <path d="M19.4177 11.2676C20.0554 11.2676 20.693 11.0251 21.1785 10.5396L23.0409 8.67725C24.0118 7.70634 24.0118 6.12659 23.0409 5.15568C22.0699 4.18476 20.4902 4.18476 19.5193 5.15568L17.6569 7.01804C17.1865 7.48844 16.9276 8.11361 16.9276 8.77883C16.9276 9.44373 17.1865 10.0692 17.6569 10.5396C18.1424 11.0251 18.78 11.2676 19.4177 11.2676ZM18.5269 7.88802L20.3893 6.02566C20.8805 5.53443 21.6797 5.53443 22.1706 6.02566C22.6618 6.51688 22.6618 7.31605 22.1706 7.80695L20.3082 9.66932C19.8173 10.1605 19.0181 10.1605 18.5269 9.66932C18.2891 9.43156 18.1581 9.11529 18.1581 8.77883C18.1581 8.44238 18.2891 8.12579 18.5269 7.88802Z" fill="white"/>
                <path d="M36.3549 20.553H30.4327L34.9957 15.99C36.0931 14.8925 36.0931 13.1067 34.9957 12.0092L23.8106 0.824478C23.279 0.292877 22.5721 0 21.8203 0C21.0686 0 20.3617 0.292877 19.8298 0.824478L17.638 3.01625C17.398 3.25658 17.398 3.6459 17.638 3.88623C17.8784 4.12656 18.268 4.12656 18.508 3.88623L20.7001 1.69446C20.9991 1.39517 21.397 1.23047 21.8203 1.23047C22.2433 1.23047 22.6413 1.39517 22.9406 1.69446L34.1254 12.8792C34.7432 13.497 34.7432 14.5019 34.1254 15.1197L28.6924 20.5527H13.1446L17.6166 16.0807C17.8569 15.8407 17.8569 15.451 17.6166 15.2107C17.3762 14.9704 16.9866 14.9704 16.7466 15.2107L11.4046 20.553H9.47528C7.9231 20.553 6.66058 21.8155 6.66058 23.3674V39.1853C6.66058 40.7372 7.9231 42 9.47528 42H36.3549C37.9071 42 39.1696 40.7372 39.1696 39.1853V36.9115C39.1696 36.5715 38.8944 36.2963 38.5544 36.2963C38.2147 36.2963 37.9392 36.5715 37.9392 36.9115V39.1853C37.9392 40.0588 37.2288 40.7695 36.3549 40.7695H9.47528C8.60178 40.7695 7.89105 40.0588 7.89105 39.1853V30.5525H37.9392V34.4506C37.9392 34.7902 38.2144 35.0658 38.5544 35.0658C38.8944 35.0658 39.1696 34.7902 39.1696 34.4506V23.3677C39.1696 21.8155 37.9071 20.553 36.3549 20.553ZM9.47528 21.7835H36.3549C37.2284 21.7835 37.9392 22.4942 37.9392 23.3677V25.5223H7.89105V23.3677C7.89105 22.4942 8.60178 21.7835 9.47528 21.7835ZM7.89105 29.322V26.7528H37.9392V29.322H7.89105Z" fill="white"/>
                <path d="M31.1949 35.0635C30.6749 35.0635 30.2516 35.4868 30.2516 36.0068V38.3505C30.2516 38.8709 30.6749 39.2939 31.1949 39.2939H34.9229C35.4429 39.2939 35.8662 38.8709 35.8662 38.3505V36.0068C35.8662 35.4868 35.4429 35.0635 34.9229 35.0635H31.1949ZM34.6358 38.0634H31.4821V36.2939H34.6358V38.0634Z" fill="white"/>
                <path d="M19.9551 35.0635C19.435 35.0635 19.0117 35.4868 19.0117 36.0068V38.3505C19.0117 38.8709 19.435 39.2939 19.9551 39.2939H27.84C28.3601 39.2939 28.7834 38.8709 28.7834 38.3505V36.0068C28.7834 35.4868 28.3601 35.0635 27.84 35.0635H19.9551ZM27.5529 38.0634H20.2422V36.2939H27.5529V38.0634Z" fill="white"/>
                <path d="M12.4845 38.0679C12.1448 38.0679 11.8693 38.3434 11.8693 38.6831C11.8693 39.0231 12.1448 39.2983 12.4845 39.2983H16.413C16.7527 39.2983 17.0283 39.0231 17.0283 38.6831C17.0283 38.3434 16.7527 38.0679 16.413 38.0679H12.4845Z" fill="white"/>
              </svg>  