<svg width="43" height="42" viewBox="0 0 43 42" fill="none" xmlns="http://www.w3.org/2000/svg">
                <path d="M22.3339 16.1656C22.633 16.234 22.9402 16.0864 23.0737 15.8098C23.4365 15.0578 23.7135 14.2691 23.8969 13.4656C24.0802 12.6624 24.1729 11.8317 24.1722 10.9966C24.1721 10.6895 23.9596 10.4232 23.6602 10.355L22.153 10.0109C22.0776 9.32875 21.9256 8.6606 21.6986 8.01475L22.9061 7.05171C23.1463 6.86021 23.2222 6.52824 23.0892 6.25144C22.7273 5.49857 22.2834 4.79029 21.7698 4.14633C21.256 3.50205 20.6643 2.9117 20.011 2.39153C19.7709 2.20028 19.4302 2.20036 19.1902 2.39186L17.9806 3.35647C17.4009 2.99048 16.784 2.69303 16.1376 2.46775V0.921871C16.1376 0.61476 15.9255 0.34836 15.626 0.279819C13.9978 -0.093273 12.3167 -0.093273 10.689 0.279819C10.3896 0.348442 10.1774 0.61476 10.1774 0.921871V2.46775C9.53113 2.69286 8.91419 2.99039 8.33432 3.35655L7.12478 2.39186C6.88472 2.20036 6.54417 2.20019 6.30378 2.39153C5.65025 2.91194 5.05849 3.5023 4.54509 4.14633C4.0312 4.7907 3.58734 5.49898 3.22573 6.25152C3.09278 6.52833 3.16867 6.86021 3.40881 7.05171L4.61636 8.01475C4.38935 8.66068 4.23724 9.32891 4.16193 10.0109L2.65478 10.355C2.35543 10.4232 2.14295 10.6894 2.1427 10.9965C2.14196 11.8317 2.23462 12.6624 2.41802 13.4656C2.60127 14.2688 2.87824 15.0574 3.24134 15.8098C3.3747 16.0864 3.68165 16.2341 3.98108 16.1656L5.48823 15.8216C5.85191 16.4012 6.27925 16.9364 6.76474 17.4207L6.09345 18.8146C5.96025 19.0913 6.03581 19.4233 6.27579 19.615C6.92799 20.1361 7.63528 20.5816 8.37792 20.9393C9.12047 21.2968 9.90984 21.5719 10.724 21.7571C10.7728 21.7681 10.8218 21.7736 10.8702 21.7736C11.1188 21.7736 11.3519 21.6321 11.4634 21.4006L12.1345 20.007C12.8203 20.0854 13.4947 20.0854 14.1804 20.007L14.8516 21.4006C14.9848 21.6773 15.2918 21.8246 15.591 21.7571C16.4053 21.5719 17.1946 21.2968 17.9371 20.9392C18.6796 20.5815 19.3869 20.1359 20.0392 19.6149C20.279 19.4233 20.3547 19.0912 20.2215 18.8145L19.5502 17.4206C20.0357 16.9365 20.463 16.4011 20.8267 15.8215L22.3339 16.1656ZM19.928 14.7534C19.5057 15.5163 18.9609 16.1987 18.3089 16.7816C18.09 16.9772 18.027 17.294 18.1544 17.5584L18.8006 18.9006C18.3451 19.2266 17.8642 19.5121 17.3654 19.7524C16.8667 19.9925 16.3435 20.1905 15.8046 20.3434L15.1584 19.0016C15.0473 18.7709 14.8148 18.6286 14.5652 18.6286C14.5288 18.6286 14.492 18.6316 14.4552 18.6378C14.0208 18.7112 13.5842 18.7485 13.1574 18.7485C12.7307 18.7485 12.2941 18.7112 11.8596 18.6378C11.5714 18.5888 11.2837 18.7371 11.1565 19.0015L10.5103 20.3433C9.97136 20.1904 9.44822 19.9923 8.94953 19.7523C8.45067 19.512 7.96965 19.2265 7.51422 18.9005L8.16057 17.5583C8.28791 17.2939 8.22498 16.9771 8.00606 16.7815C7.35385 16.1984 6.80908 15.5161 6.38702 14.7534C6.24498 14.4966 5.95009 14.3648 5.66412 14.4301L4.21337 14.7613C3.99677 14.2444 3.82542 13.7119 3.70229 13.1724C3.57917 12.6328 3.50253 12.0787 3.47338 11.5192L4.92496 11.1878C5.21142 11.1224 5.41985 10.8752 5.43604 10.5818C5.4841 9.7082 5.67791 8.85722 6.01195 8.05232C6.1245 7.78105 6.04382 7.46808 5.81417 7.28491L4.65146 6.35763C4.92033 5.86621 5.22984 5.40021 5.5751 4.96742C5.91995 4.53479 6.30535 4.12932 6.72477 3.75763L7.88987 4.68673C8.11953 4.86989 8.44266 4.87898 8.68222 4.70853C9.39463 4.20191 10.1805 3.82295 11.018 3.58232C11.3002 3.50114 11.4947 3.24292 11.4947 2.94927V1.46086C12.5985 1.26862 13.7162 1.26862 14.8202 1.46086V2.94952C14.8202 3.24317 15.0146 3.50139 15.2969 3.58257C16.1345 3.82337 16.9203 4.20216 17.6325 4.70878C17.8721 4.87922 18.1954 4.87014 18.4249 4.68698L19.59 3.75788C20.0092 4.12949 20.3947 4.53495 20.7398 4.96767C21.0848 5.4003 21.3943 5.86637 21.6633 6.35788L20.5006 7.28516C20.2709 7.46832 20.1903 7.7813 20.3028 8.05257C20.6368 8.8573 20.8305 9.70828 20.8787 10.5821C20.8949 10.8755 21.1034 11.1226 21.3898 11.188L22.8413 11.5194C22.8122 12.079 22.7355 12.6331 22.6125 13.1726C22.4893 13.7123 22.3179 14.2448 22.1014 14.7615L20.6506 14.4304C20.3648 14.3649 20.0701 14.4967 19.928 14.7534Z" fill="white"/>
                <path d="M14.8203 5.44358H13.8323V4.45553C13.8323 4.09176 13.5374 3.79688 13.1736 3.79688C12.8099 3.79688 12.515 4.09176 12.515 4.45553V5.4435H11.527C10.4375 5.4435 9.55096 6.32999 9.55096 7.41954V9.06624C9.55096 10.3375 10.5851 11.3716 11.8563 11.3716H14.491C15.0359 11.3716 15.479 11.8148 15.479 12.3596V14.0063C15.479 14.3695 15.1834 14.6649 14.8203 14.6649H11.5269C11.1637 14.6649 10.8683 14.3694 10.8683 14.0063V13.3476C10.8683 12.9839 10.5734 12.689 10.2096 12.689C9.84585 12.689 9.55096 12.9839 9.55096 13.3476V14.0063C9.55096 15.0958 10.4375 15.9823 11.527 15.9823H12.515V16.9703C12.515 17.3341 12.8099 17.6289 13.1736 17.6289C13.5374 17.6289 13.8323 17.3341 13.8323 16.9703V15.9823H14.8203C15.9098 15.9823 16.7963 15.0958 16.7963 14.0063V12.3596C16.7963 11.0884 15.7621 10.0542 14.4909 10.0542H11.8562C11.3114 10.0542 10.8683 9.61102 10.8683 9.06624V7.41962C10.8683 7.05644 11.1638 6.76097 11.5269 6.76097H14.8203C15.1835 6.76097 15.479 7.05652 15.479 7.41962V8.07827C15.479 8.44203 15.7739 8.73692 16.1376 8.73692C16.5014 8.73692 16.7963 8.44203 16.7963 8.07827V7.41962C16.7962 6.32999 15.9098 5.44358 14.8203 5.44358Z" fill="white"/>
                <path d="M39.8109 0.924163C39.7411 0.795423 39.6533 0.681959 39.5369 0.606812C39.2108 0.396236 38.8393 0.591618 38.5201 0.713917C38.0456 0.895674 37.5711 1.07751 37.0966 1.25927C35.9187 1.71056 34.7408 2.16186 33.5628 2.61315C33.238 2.7376 32.9131 2.86205 32.5882 2.98657C32.2486 3.1168 32.0787 3.49766 32.2088 3.83739C32.3391 4.17712 32.7201 4.34665 33.0595 4.21684L38.0946 2.28771C36.5925 6.13383 33.2386 11.7664 27.9193 16.7577C20.483 23.7355 11.0469 27.6529 0.631318 28.0861C0.267888 28.1013 -0.0145327 28.4082 0.00057926 28.7716C0.0153609 29.1258 0.30703 29.4029 0.658239 29.4029C0.667405 29.4029 0.676819 29.4028 0.686068 29.4024C6.51722 29.1598 12.0316 27.8812 17.0761 25.6021C21.354 23.6693 25.3054 21.0169 28.8208 17.7183C34.1633 12.7051 37.5934 7.03419 39.2088 3.04867L41.0065 7.74106C41.107 8.00333 41.3568 8.16428 41.6217 8.16428C41.7001 8.16428 41.7798 8.15024 41.8572 8.12051C42.197 7.99029 42.3668 7.60943 42.2368 7.26978C41.8854 6.35258 41.5339 5.43537 41.1826 4.51817C40.916 3.82244 40.6494 3.12663 40.3829 2.4309C40.2642 2.12115 40.1339 1.81354 40.0313 1.49867C39.9734 1.32112 39.9102 1.10724 39.8109 0.924163Z" fill="white"/>
                <path d="M39.85 14.3357H34.5805C33.491 14.3357 32.6045 15.2222 32.6045 16.3117V40.6828H30.9578V25.8626C30.9578 24.773 30.0713 23.8865 28.9818 23.8865H23.7123C22.6228 23.8865 21.7363 24.773 21.7363 25.8626V40.6828H20.0896V30.8026C20.0896 29.7131 19.2031 28.8266 18.1135 28.8266H12.8441C11.7545 28.8266 10.8681 29.7131 10.8681 30.8026V40.6828H9.22135V32.7786C9.22135 31.6891 8.33487 30.8026 7.24532 30.8026H1.97603C0.886486 30.8026 0 31.6891 0 32.7786V41.3414C0 41.7052 0.29489 42.0001 0.65865 42.0001H41.1673C41.5311 42.0001 41.8259 41.7052 41.8259 41.3414V16.3117C41.826 15.2222 40.9395 14.3357 39.85 14.3357ZM33.9219 16.3117C33.9219 15.9485 34.2174 15.6531 34.5805 15.6531H39.85C40.2132 15.6531 40.5086 15.9486 40.5086 16.3117V40.6828H33.9219V16.3117ZM23.0538 25.8626C23.0538 25.4994 23.3493 25.2039 23.7124 25.2039H28.9819C29.345 25.2039 29.6405 25.4995 29.6405 25.8626V40.6828H23.0538V25.8626ZM12.1855 30.8026C12.1855 30.4394 12.4811 30.144 12.8442 30.144H18.1136C18.4768 30.144 18.7723 30.4395 18.7723 30.8026V40.6828H12.1855V30.8026ZM1.97603 32.12H7.24548C7.60867 32.12 7.90413 32.4155 7.90413 32.7786V40.6828H1.31738V32.7786C1.31738 32.4155 1.61293 32.12 1.97603 32.12Z" fill="white"/>
              </svg>  