<svg width="32" height="32" viewBox="0 0 32 32" fill="none" xmlns="http://www.w3.org/2000/svg">
<path d="M31.9972 16.095C31.9972 7.31059 24.876 0.189453 16.0917 0.189453C7.30729 0.189453 0.186157 7.31059 0.186157 16.095C0.186157 24.8793 7.30729 32.0005 16.0917 32.0005C24.876 32.0005 31.9972 24.8793 31.9972 16.095Z" fill="url(#paint0_linear_1066_252)"/>
<path opacity="0.1" d="M28.0627 5.63066C25.7438 9.88747 22.4644 14.2782 18.3666 18.376C14.2689 22.4737 9.87811 25.7469 5.62757 28.0658C5.36108 27.8342 5.10227 27.5928 4.85113 27.3417C3.33311 25.8743 2.12241 24.1194 1.28963 22.1794C0.456848 20.2393 0.018648 18.1528 0.000582344 16.0416C-0.0174833 13.9304 0.384947 11.8367 1.18441 9.88268C1.98387 7.92863 3.16436 6.15329 4.65704 4.66018C6.14973 3.16708 7.92474 1.98609 9.87858 1.18609C11.8324 0.386083 13.926 -0.0169313 16.0372 0.000544967C18.1484 0.0180212 20.235 0.455639 22.1753 1.28788C24.1156 2.12012 25.8708 3.33033 27.3386 4.84794C27.5897 5.09908 27.8311 5.35998 28.0627 5.63066Z" fill="white"/>
<path d="M19.8587 7.72266H12.3246C11.1034 7.72266 9.93234 8.20774 9.06888 9.0712C8.20542 9.93466 7.72034 11.1058 7.72034 12.3269V19.8611C7.72034 21.0822 8.20542 22.2533 9.06888 23.1167C9.93234 23.9802 11.1034 24.4653 12.3246 24.4653H19.8587C21.0799 24.4653 22.251 23.9802 23.1144 23.1167C23.9779 22.2533 24.463 21.0822 24.463 19.8611V12.3269C24.463 11.1058 23.9779 9.93466 23.1144 9.0712C22.251 8.20774 21.0799 7.72266 19.8587 7.72266ZM22.998 19.1997C22.998 20.2077 22.5976 21.1744 21.8848 21.8871C21.1721 22.5999 20.2054 23.0003 19.1974 23.0003H12.9859C11.9779 23.0003 11.0112 22.5999 10.2985 21.8871C9.58573 21.1744 9.18532 20.2077 9.18532 19.1997V12.9882C9.18532 11.9802 9.58573 11.0135 10.2985 10.3008C11.0112 9.58805 11.9779 9.18764 12.9859 9.18764H19.1974C20.2054 9.18764 21.1721 9.58805 21.8848 10.3008C22.5976 11.0135 22.998 11.9802 22.998 12.9882V19.1997Z" fill="white"/>
<path d="M19.145 13.0724L19.1053 13.0326L19.0718 12.9991C18.2805 12.2106 17.2087 11.768 16.0916 11.7686C15.5275 11.7724 14.9696 11.8873 14.4499 12.1068C13.9302 12.3263 13.4588 12.6461 13.0627 13.0478C12.6667 13.4495 12.3536 13.9254 12.1415 14.4481C11.9293 14.9709 11.8223 15.5303 11.8264 16.0944C11.8256 17.2393 12.2769 18.3382 13.0821 19.1521C13.4765 19.5513 13.9465 19.8679 14.4647 20.0835C14.9828 20.2991 15.5388 20.4094 16.1 20.4078C16.9418 20.3901 17.7603 20.1279 18.4556 19.653C19.1509 19.1782 19.6931 18.5113 20.0159 17.7336C20.3387 16.956 20.4283 16.1012 20.2736 15.2735C20.119 14.4458 19.7269 13.681 19.145 13.0724ZM16.0916 18.9323C15.5287 18.9402 14.9762 18.7805 14.5043 18.4735C14.0324 18.1665 13.6625 17.7261 13.4416 17.2083C13.2207 16.6905 13.1588 16.1187 13.2637 15.5656C13.3687 15.0125 13.6358 14.5031 14.031 14.1022C14.4263 13.7014 14.9318 13.4271 15.4834 13.3143C16.035 13.2016 16.6076 13.2554 17.1285 13.469C17.6493 13.6826 18.0949 14.0462 18.4085 14.5137C18.7222 14.9812 18.8897 15.5315 18.8897 16.0944C18.8925 16.4645 18.8223 16.8316 18.6831 17.1745C18.544 17.5175 18.3386 17.8297 18.0787 18.0932C17.8189 18.3568 17.5096 18.5665 17.1687 18.7105C16.8277 18.8545 16.4617 18.9298 16.0916 18.9323Z" fill="white"/>
<path d="M21.6229 11.5694C21.624 11.7037 21.5986 11.8369 21.5482 11.9614C21.4977 12.0859 21.4233 12.1992 21.329 12.2948C21.2347 12.3904 21.1225 12.4665 20.9987 12.5188C20.875 12.571 20.7422 12.5983 20.6079 12.5991C20.4747 12.599 20.3429 12.5726 20.22 12.5212C20.0972 12.4698 19.9857 12.3946 19.8921 12.2998C19.7504 12.156 19.6539 11.9737 19.6148 11.7755C19.5756 11.5774 19.5955 11.3721 19.6719 11.1851C19.7484 10.9982 19.878 10.8378 20.0447 10.7238C20.2115 10.6098 20.408 10.5473 20.61 10.5439C20.8463 10.5439 21.0752 10.6269 21.2567 10.7783L21.2776 10.7993C21.3113 10.8267 21.3422 10.8576 21.3697 10.8914L21.3927 10.9165C21.5425 11.101 21.6238 11.3317 21.6229 11.5694Z" fill="white"/>
<defs>
<linearGradient id="paint0_linear_1066_252" x1="4.8448" y1="4.84809" x2="27.3385" y2="27.3418" gradientUnits="userSpaceOnUse">
<stop stop-color="#FAE100"/>
<stop offset="0.15" stop-color="#FCB720"/>
<stop offset="0.3" stop-color="#FF7950"/>
<stop offset="0.5" stop-color="#FF1C74"/>
<stop offset="1" stop-color="#6C1CD1"/>
</linearGradient>
</defs>
</svg>
