<svg width="136" height="50" viewBox="0 0 136 50" fill="none" xmlns="http://www.w3.org/2000/svg">
<path d="M51.3525 34V15.0909H58.4435C59.8961 15.0909 61.1149 15.3617 62.0997 15.9034C63.0907 16.4451 63.8386 17.1899 64.3433 18.1378C64.8542 19.0795 65.1096 20.1506 65.1096 21.3509C65.1096 22.5634 64.8542 23.6406 64.3433 24.5824C63.8324 25.5241 63.0784 26.2659 62.0812 26.8075C61.0841 27.343 59.8561 27.6108 58.3973 27.6108H53.6977V24.7947H57.9356C58.7851 24.7947 59.4806 24.647 60.0223 24.3516C60.564 24.0561 60.9641 23.6499 61.2226 23.1328C61.4873 22.6158 61.6196 22.0218 61.6196 21.3509C61.6196 20.6799 61.4873 20.089 61.2226 19.5781C60.9641 19.0672 60.5609 18.6702 60.0131 18.3871C59.4714 18.0978 58.7728 17.9531 57.9172 17.9531H54.778V34H51.3525ZM73.9202 34.277C72.5353 34.277 71.335 33.9723 70.3193 33.3629C69.3037 32.7536 68.5158 31.901 67.9557 30.8054C67.4017 29.7098 67.1247 28.4295 67.1247 26.9645C67.1247 25.4995 67.4017 24.2161 67.9557 23.1143C68.5158 22.0125 69.3037 21.157 70.3193 20.5476C71.335 19.9382 72.5353 19.6335 73.9202 19.6335C75.3051 19.6335 76.5054 19.9382 77.521 20.5476C78.5367 21.157 79.3215 22.0125 79.8754 23.1143C80.4356 24.2161 80.7156 25.4995 80.7156 26.9645C80.7156 28.4295 80.4356 29.7098 79.8754 30.8054C79.3215 31.901 78.5367 32.7536 77.521 33.3629C76.5054 33.9723 75.3051 34.277 73.9202 34.277ZM73.9387 31.5994C74.6896 31.5994 75.3174 31.3932 75.8222 30.9808C76.3269 30.5623 76.7024 30.0021 76.9486 29.3004C77.201 28.5987 77.3272 27.817 77.3272 26.9553C77.3272 26.0874 77.201 25.3026 76.9486 24.6009C76.7024 23.893 76.3269 23.3298 75.8222 22.9112C75.3174 22.4927 74.6896 22.2834 73.9387 22.2834C73.1692 22.2834 72.5291 22.4927 72.0182 22.9112C71.5135 23.3298 71.1349 23.893 70.8826 24.6009C70.6363 25.3026 70.5132 26.0874 70.5132 26.9553C70.5132 27.817 70.6363 28.5987 70.8826 29.3004C71.1349 30.0021 71.5135 30.5623 72.0182 30.9808C72.5291 31.3932 73.1692 31.5994 73.9387 31.5994ZM94.7613 23.5668L91.7144 23.8991C91.6282 23.5914 91.4774 23.3021 91.262 23.0312C91.0527 22.7604 90.7696 22.5419 90.4126 22.3757C90.0556 22.2095 89.6185 22.1264 89.1015 22.1264C88.4059 22.1264 87.8212 22.2772 87.3472 22.5788C86.8794 22.8804 86.6486 23.2713 86.6547 23.7514C86.6486 24.1638 86.7994 24.4993 87.1072 24.7578C87.4211 25.0163 87.9381 25.2287 88.6583 25.3949L91.0773 25.9119C92.4192 26.2012 93.4163 26.6598 94.0688 27.2876C94.7274 27.9155 95.0598 28.7372 95.066 29.7528C95.0598 30.6454 94.7982 31.4332 94.2812 32.1165C93.7703 32.7936 93.0593 33.3229 92.1484 33.7045C91.2374 34.0862 90.191 34.277 89.0092 34.277C87.2734 34.277 85.8761 33.9138 84.8174 33.1875C83.7587 32.455 83.1278 31.4363 82.9246 30.1314L86.1839 29.8175C86.3316 30.4576 86.6455 30.9408 87.1256 31.267C87.6057 31.5933 88.2305 31.7564 88.9999 31.7564C89.794 31.7564 90.431 31.5933 90.9111 31.267C91.3974 30.9408 91.6405 30.5376 91.6405 30.0575C91.6405 29.6513 91.4836 29.3158 91.1697 29.0511C90.8619 28.7865 90.3818 28.5833 89.7293 28.4418L87.3103 27.9339C85.95 27.6508 84.9436 27.1738 84.2911 26.5028C83.6386 25.8258 83.3155 24.9702 83.3216 23.9361C83.3155 23.062 83.5525 22.3049 84.0326 21.6648C84.5189 21.0185 85.1929 20.5199 86.0546 20.169C86.9225 19.812 87.9227 19.6335 89.0553 19.6335C90.7172 19.6335 92.0252 19.9875 92.9793 20.6953C93.9395 21.4032 94.5335 22.3603 94.7613 23.5668ZM97.822 34V19.8182H101.164V34H97.822ZM99.5024 17.8054C98.973 17.8054 98.5176 17.63 98.1359 17.2791C97.7543 16.9221 97.5635 16.4943 97.5635 15.9957C97.5635 15.491 97.7543 15.0632 98.1359 14.7124C98.5176 14.3553 98.973 14.1768 99.5024 14.1768C100.038 14.1768 100.493 14.3553 100.869 14.7124C101.251 15.0632 101.441 15.491 101.441 15.9957C101.441 16.4943 101.251 16.9221 100.869 17.2791C100.493 17.63 100.038 17.8054 99.5024 17.8054ZM107.944 25.6903V34H104.601V19.8182H107.796V22.228H107.962C108.288 21.4339 108.808 20.803 109.522 20.3352C110.243 19.8674 111.132 19.6335 112.191 19.6335C113.169 19.6335 114.022 19.8428 114.748 20.2614C115.481 20.6799 116.047 21.2862 116.447 22.0803C116.853 22.8743 117.053 23.8376 117.047 24.9702V34H113.705V25.4872C113.705 24.5393 113.459 23.7976 112.966 23.2621C112.48 22.7266 111.806 22.4588 110.944 22.4588C110.36 22.4588 109.839 22.5881 109.384 22.8466C108.935 23.099 108.581 23.4652 108.322 23.9453C108.07 24.4254 107.944 25.0071 107.944 25.6903ZM126.613 39.6136C125.412 39.6136 124.381 39.4505 123.52 39.1243C122.658 38.8042 121.965 38.3733 121.442 37.8317C120.919 37.29 120.556 36.6899 120.353 36.0312L123.363 35.3018C123.498 35.5788 123.695 35.8527 123.954 36.1236C124.212 36.4006 124.56 36.6283 124.997 36.8068C125.44 36.9915 125.997 37.0838 126.668 37.0838C127.616 37.0838 128.401 36.853 129.022 36.3913C129.644 35.9358 129.955 35.1849 129.955 34.1385V31.4517H129.789C129.616 31.7964 129.364 32.1503 129.032 32.5135C128.705 32.8767 128.272 33.1813 127.73 33.4276C127.194 33.6738 126.52 33.7969 125.708 33.7969C124.618 33.7969 123.63 33.5414 122.744 33.0305C121.864 32.5135 121.162 31.7441 120.639 30.7223C120.122 29.6944 119.863 28.4079 119.863 26.8629C119.863 25.3056 120.122 23.9915 120.639 22.9205C121.162 21.8433 121.867 21.0277 122.753 20.4737C123.64 19.9136 124.628 19.6335 125.717 19.6335C126.548 19.6335 127.231 19.7751 127.767 20.0582C128.308 20.3352 128.739 20.6707 129.059 21.0646C129.379 21.4524 129.623 21.8187 129.789 22.1634H129.973V19.8182H133.27V34.2308C133.27 35.4434 132.98 36.4467 132.402 37.2408C131.823 38.0348 131.032 38.6288 130.029 39.0227C129.026 39.4167 127.887 39.6136 126.613 39.6136ZM126.64 31.1747C127.348 31.1747 127.951 31.0024 128.45 30.6577C128.949 30.313 129.327 29.8175 129.586 29.1712C129.844 28.5249 129.973 27.7493 129.973 26.8445C129.973 25.9519 129.844 25.1702 129.586 24.4993C129.333 23.8284 128.958 23.3082 128.459 22.9389C127.967 22.5634 127.361 22.3757 126.64 22.3757C125.896 22.3757 125.274 22.5696 124.775 22.9574C124.277 23.3452 123.901 23.8776 123.649 24.5547C123.397 25.2256 123.27 25.9889 123.27 26.8445C123.27 27.7124 123.397 28.4725 123.649 29.125C123.907 29.7713 124.286 30.276 124.785 30.6392C125.289 30.9962 125.908 31.1747 126.64 31.1747Z" fill="#1C2528"/>
<path d="M14.5142 0V5.61966C25.1831 5.61966 33.8631 14.2923 33.8631 24.9522C33.8631 35.6122 25.1831 44.2845 14.5142 44.2845V49.9045C28.3066 49.9045 39.4875 38.733 39.4875 24.9522C39.4875 11.1714 28.3066 0 14.5142 0Z" fill="#6990FF"/>
<path d="M13.6752 10.1396C6.97397 10.5125 1.46231 15.3271 0.0311656 21.6854C0.0206605 21.7791 0.0105051 21.8718 6.06315e-08 21.9653V49.9971L0.000795122 49.9992L0.00279987 50.0002H5.62162L5.62277 50L5.62373 49.9993L5.62431 49.9983L5.62442 49.9971V22.4971C6.75616 18.4088 10.6402 15.451 15.1511 15.7557C19.4824 16.0479 23.3657 19.879 23.7089 24.2027C24.1389 29.6198 19.8497 34.1657 14.517 34.1674L14.515 34.1682L14.5142 34.1702V39.7843L14.5152 39.7863L14.5173 39.7871C22.4837 39.7871 28.9845 33.5156 29.3473 25.6452C29.7514 16.8834 22.4423 9.65148 13.6752 10.1396Z" fill="#6990FF"/>
<path d="M14.6815 29.4344C17.1589 29.4344 19.1672 27.4278 19.1672 24.9526C19.1672 22.4773 17.1589 20.4707 14.6815 20.4707C12.2042 20.4707 10.1959 22.4773 10.1959 24.9526C10.1959 27.4278 12.2042 29.4344 14.6815 29.4344Z" fill="#6990FF"/>
</svg>
