<svg width="52" height="52" viewBox="0 0 52 52" fill="none" xmlns="http://www.w3.org/2000/svg">
<path d="M11.2278 38.5259C14.3022 38.923 16.9844 40.1715 18.8835 41.8915C19.2813 42.2518 19.1331 43.3986 18.657 43.646C16.3832 44.8272 13.4718 45.3534 10.3974 44.9564C7.32299 44.5593 4.64081 43.3108 2.74169 41.5908C2.34394 41.2305 2.49209 40.0837 2.96825 39.8363C5.24197 38.6551 8.15336 38.1289 11.2278 38.5259Z" fill="url(#paint0_linear_1347_2492)"/>
<path d="M11.2278 38.5259C14.3022 38.923 16.9844 40.1715 18.8835 41.8915C19.2813 42.2518 19.1331 43.3986 18.657 43.646C16.3832 44.8272 13.4718 45.3534 10.3974 44.9564C7.32299 44.5593 4.64081 43.3108 2.74169 41.5908C2.34394 41.2305 2.49209 40.0837 2.96825 39.8363C5.24197 38.6551 8.15336 38.1289 11.2278 38.5259Z" fill="url(#paint1_linear_1347_2492)"/>
<path d="M11.5872 34.2207C14.8751 35.6461 17.4546 37.892 19.0134 40.4106C19.3398 40.9381 18.808 42.1646 18.1999 42.2869C15.2961 42.871 11.8936 42.5232 8.60574 41.0978C5.31781 39.6723 2.73831 37.4266 1.17953 34.9078C0.853154 34.3804 1.38488 33.1539 1.99297 33.0315C4.89682 32.4476 8.29925 32.7953 11.5872 34.2207Z" fill="url(#paint2_linear_1347_2492)"/>
<path d="M11.5872 34.2207C14.8751 35.6461 17.4546 37.892 19.0134 40.4106C19.3398 40.9381 18.808 42.1646 18.1999 42.2869C15.2961 42.871 11.8936 42.5232 8.60574 41.0978C5.31781 39.6723 2.73831 37.4266 1.17953 34.9078C0.853154 34.3804 1.38488 33.1539 1.99297 33.0315C4.89682 32.4476 8.29925 32.7953 11.5872 34.2207Z" fill="url(#paint3_linear_1347_2492)"/>
<path d="M17.5075 27.3095C18.8244 30.6423 19.0604 34.0544 18.3816 36.9376C18.2395 37.5414 16.9961 38.0326 16.4797 37.6891C14.0134 36.0487 11.8533 33.3969 10.5364 30.0641C9.2195 26.7313 8.98346 23.3192 9.66231 20.436C9.80445 19.8322 11.0478 19.341 11.5642 19.6845C14.0305 21.3248 16.1906 23.9766 17.5075 27.3095Z" fill="url(#paint4_linear_1347_2492)"/>
<path d="M17.5075 27.3095C18.8244 30.6423 19.0604 34.0544 18.3816 36.9376C18.2395 37.5414 16.9961 38.0326 16.4797 37.6891C14.0134 36.0487 11.8533 33.3969 10.5364 30.0641C9.2195 26.7313 8.98346 23.3192 9.66231 20.436C9.80445 19.8322 11.0478 19.341 11.5642 19.6845C14.0305 21.3248 16.1906 23.9766 17.5075 27.3095Z" fill="url(#paint5_linear_1347_2492)"/>
<path d="M12.7085 27.4349C16.0609 30.4489 18.2408 34.1585 19.0938 37.7858C19.2724 38.5454 18.1481 39.796 17.3738 39.699C13.6765 39.2354 9.7567 37.4612 6.40423 34.4472C3.05176 31.4332 0.871943 27.7236 0.0189387 24.0963C-0.159697 23.3367 0.964625 22.0861 1.73892 22.1831C5.43612 22.6467 9.356 24.421 12.7085 27.4349Z" fill="url(#paint6_linear_1347_2492)"/>
<path d="M1.55481 28.2177C2.69524 30.4381 4.32376 32.5766 6.40437 34.4472C9.75684 37.4612 13.6766 39.2354 17.3739 39.699C18.1482 39.7961 19.2725 38.5455 19.0939 37.7858C18.2409 34.1585 16.0611 30.4489 12.7086 27.4349C10.7345 25.6601 8.56359 24.3158 6.35737 23.4152L1.55481 28.2177Z" fill="url(#paint7_linear_1347_2492)"/>
<path d="M40.7712 38.5259C37.6968 38.923 35.0146 40.1715 33.1155 41.8915C32.7177 42.2518 32.8659 43.3986 33.342 43.646C35.6158 44.8272 38.5271 45.3534 41.6016 44.9564C44.676 44.5593 47.3582 43.3108 49.2573 41.5908C49.655 41.2305 49.5069 40.0837 49.0307 39.8363C46.757 38.6551 43.8456 38.1289 40.7712 38.5259Z" fill="url(#paint8_linear_1347_2492)"/>
<path d="M40.7712 38.5259C37.6968 38.923 35.0146 40.1715 33.1155 41.8915C32.7177 42.2518 32.8659 43.3986 33.342 43.646C35.6158 44.8272 38.5271 45.3534 41.6016 44.9564C44.676 44.5593 47.3582 43.3108 49.2573 41.5908C49.655 41.2305 49.5069 40.0837 49.0307 39.8363C46.757 38.6551 43.8456 38.1289 40.7712 38.5259Z" fill="url(#paint9_linear_1347_2492)"/>
<path d="M40.4118 34.2207C37.1238 35.6461 34.5443 37.892 32.9856 40.4106C32.6592 40.9381 33.1909 42.1646 33.799 42.2869C36.7028 42.871 40.1054 42.5232 43.3932 41.0978C46.6811 39.6723 49.2606 37.4266 50.8194 34.9078C51.1458 34.3804 50.6141 33.1539 50.006 33.0315C47.1021 32.4476 43.6997 32.7953 40.4118 34.2207Z" fill="url(#paint10_linear_1347_2492)"/>
<path d="M40.4118 34.2207C37.1238 35.6461 34.5443 37.892 32.9856 40.4106C32.6592 40.9381 33.1909 42.1646 33.799 42.2869C36.7028 42.871 40.1054 42.5232 43.3932 41.0978C46.6811 39.6723 49.2606 37.4266 50.8194 34.9078C51.1458 34.3804 50.6141 33.1539 50.006 33.0315C47.1021 32.4476 43.6997 32.7953 40.4118 34.2207Z" fill="url(#paint11_linear_1347_2492)"/>
<path d="M34.4916 27.3095C33.1747 30.6423 32.9387 34.0544 33.6175 36.9376C33.7596 37.5414 35.003 38.0326 35.5194 37.6891C37.9857 36.0487 40.1458 33.3969 41.4627 30.0641C42.7796 26.7313 43.0156 23.3192 42.3368 20.436C42.1947 19.8322 40.9513 19.341 40.4349 19.6845C37.9686 21.3248 35.8085 23.9766 34.4916 27.3095Z" fill="url(#paint12_linear_1347_2492)"/>
<path d="M34.4916 27.3095C33.1747 30.6423 32.9387 34.0544 33.6175 36.9376C33.7596 37.5414 35.003 38.0326 35.5194 37.6891C37.9857 36.0487 40.1458 33.3969 41.4627 30.0641C42.7796 26.7313 43.0156 23.3192 42.3368 20.436C42.1947 19.8322 40.9513 19.341 40.4349 19.6845C37.9686 21.3248 35.8085 23.9766 34.4916 27.3095Z" fill="url(#paint13_linear_1347_2492)"/>
<path d="M39.2906 27.4349C35.9381 30.4489 33.7583 34.1585 32.9053 37.7858C32.7267 38.5454 33.851 39.796 34.6253 39.699C38.3226 39.2354 42.2423 37.4612 45.5948 34.4472C48.9473 31.4332 51.1271 27.7236 51.9801 24.0963C52.1587 23.3367 51.0344 22.0861 50.2601 22.1831C46.5629 22.6467 42.6431 24.421 39.2906 27.4349Z" fill="url(#paint14_linear_1347_2492)"/>
<path d="M50.4443 28.2177C49.3038 30.4381 47.6753 32.5766 45.5947 34.4472C42.2422 37.4612 38.3224 39.2354 34.6251 39.699C33.8509 39.7961 32.7265 38.5455 32.9052 37.7858C33.7582 34.1585 35.938 30.4489 39.2905 27.4349C41.2645 25.6601 43.4355 24.3158 45.6417 23.4152L50.4443 28.2177Z" fill="url(#paint15_linear_1347_2492)"/>
<path d="M25.9991 52.0002C34.9541 52.0002 42.2135 44.7408 42.2135 35.7858C42.2135 26.8309 34.9541 19.5714 25.9991 19.5714C17.0441 19.5714 9.78467 26.8309 9.78467 35.7858C9.78467 44.7408 17.0441 52.0002 25.9991 52.0002Z" fill="url(#paint16_linear_1347_2492)"/>
<path d="M25.9991 48.7095C33.1369 48.7095 38.9232 42.9232 38.9232 35.7854C38.9232 28.6477 33.1369 22.8614 25.9991 22.8614C18.8614 22.8614 13.0751 28.6477 13.0751 35.7854C13.0751 42.9232 18.8614 48.7095 25.9991 48.7095Z" fill="url(#paint17_linear_1347_2492)"/>
<path d="M25.9991 46.8813C32.1269 46.8813 37.0944 41.9137 37.0944 35.7859C37.0944 29.6581 32.1269 24.6906 25.9991 24.6906C19.8713 24.6906 14.9037 29.6581 14.9037 35.7859C14.9037 41.9137 19.8713 46.8813 25.9991 46.8813Z" fill="url(#paint18_linear_1347_2492)"/>
<path d="M9.78467 35.7854C9.78467 44.7405 17.0441 51.9999 25.9991 51.9999C34.9541 51.9999 42.2135 44.7405 42.2135 35.7854C42.2135 35.7225 42.2119 35.66 42.2112 35.5972H9.78701C9.7863 35.66 9.78467 35.7225 9.78467 35.7854Z" fill="url(#paint19_linear_1347_2492)"/>
<path d="M30.5466 51.3526C35.6558 49.8625 39.7214 45.9263 41.3908 40.8963L33.4936 32.9991L31.7132 33.0865L26.9082 28.2815L21.0521 41.8581L30.5466 51.3526Z" fill="url(#paint20_linear_1347_2492)"/>
<path d="M32.6477 32.2621L29.4679 31.4938C29.1721 31.4224 28.9136 31.243 28.743 30.991L26.91 28.2814C26.6882 27.9536 26.3486 27.7778 25.9991 27.7494C25.6495 27.7778 25.3098 27.9536 25.0881 28.2814L23.2551 30.991C23.0846 31.243 22.8261 31.4224 22.5302 31.4938L19.3504 32.2621C18.4878 32.4705 18.1284 33.5 18.6737 34.2001L20.6842 36.7807C20.8712 37.0208 20.962 37.322 20.9385 37.6254L20.6866 40.8871C20.6183 41.7718 21.4863 42.4319 22.3206 42.1295L25.3963 41.0148C25.5906 40.9444 25.7979 40.9262 25.9991 40.9574C26.2003 40.9263 26.4075 40.9445 26.6018 41.0148L29.6775 42.1295C30.5117 42.4318 31.3798 41.7718 31.3115 40.8871L31.0596 37.6254C31.0361 37.322 31.1269 37.0208 31.3139 36.7807L33.3244 34.2001C33.8697 33.5 33.5103 32.4705 32.6477 32.2621Z" fill="url(#paint21_linear_1347_2492)"/>
<path d="M26.6018 41.0148L29.6775 42.1295C30.5117 42.4318 31.3798 41.7718 31.3115 40.8871L31.0595 37.6254C31.0361 37.322 31.1268 37.0208 31.3138 36.7807L33.3244 34.2001C33.8698 33.5001 33.5103 32.4705 32.6477 32.2621L29.4678 31.4938C29.172 31.4224 28.9136 31.243 28.743 30.991L26.9099 28.2814C26.6882 27.9536 26.3485 27.7778 25.999 27.7494V40.9574C26.2003 40.9262 26.4076 40.9444 26.6018 41.0148Z" fill="url(#paint22_linear_1347_2492)"/>
<path d="M32.6477 32.2621L29.4678 31.4938C29.3593 31.4676 29.2559 31.4265 29.1599 31.373L21.0538 41.8579C21.3718 42.1652 21.8516 42.2995 22.3206 42.1295L25.3962 41.0149C25.5906 40.9444 25.7979 40.9263 25.999 40.9575C26.2003 40.9264 26.4075 40.9445 26.6018 41.0149L29.6775 42.1295C30.5117 42.4318 31.3798 41.7718 31.3115 40.8871L31.0596 37.6255C31.0361 37.3221 31.1268 37.0209 31.3138 36.7808L33.3244 34.2001C33.8697 33.5 33.5103 32.4705 32.6477 32.2621Z" fill="url(#paint23_linear_1347_2492)"/>
<path d="M19.3504 32.2621L22.5302 31.4938C22.6388 31.4676 22.7422 31.4265 22.8382 31.373L30.9443 41.8579C30.6262 42.1652 30.1465 42.2995 29.6775 42.1295L26.6018 41.0149C26.4075 40.9444 26.2002 40.9263 25.9991 40.9575C25.7978 40.9264 25.5906 40.9445 25.3963 41.0149L22.3206 42.1295C21.4864 42.4318 20.6183 41.7718 20.6866 40.8871L20.9385 37.6255C20.962 37.3221 20.8712 37.0209 20.6842 36.7808L18.6737 34.2001C18.1284 33.5 18.4878 32.4705 19.3504 32.2621Z" fill="url(#paint24_linear_1347_2492)"/>
<path d="M18.504 32.9989C18.3527 33.3803 18.389 33.8347 18.6736 34.2L20.6842 36.7807C20.8712 37.0208 20.9619 37.322 20.9385 37.6254L20.6865 40.887C20.6182 41.7717 21.4862 42.4318 22.3205 42.1294L25.3962 41.0148C25.5905 40.9443 25.7978 40.9262 25.999 40.9574C26.2003 40.9263 26.4074 40.9444 26.6018 41.0148L29.6774 42.1294C30.5117 42.4317 31.3798 41.7717 31.3115 40.887L31.0595 37.6254C31.0465 37.4571 31.0698 37.2897 31.124 37.1328L18.504 32.9989Z" fill="url(#paint25_linear_1347_2492)"/>
<path d="M33.4952 32.9989C33.6465 33.3803 33.6103 33.8347 33.3256 34.2L31.315 36.7807C31.128 37.0208 31.0373 37.322 31.0607 37.6254L31.3127 40.887C31.381 41.7717 30.5129 42.4318 29.6786 42.1294L26.603 41.0148C26.4087 40.9443 26.2014 40.9262 26.0002 40.9574C25.7989 40.9263 25.5918 40.9444 25.3974 41.0148L22.3218 42.1294C21.4875 42.4317 20.6194 41.7717 20.6877 40.887L20.9397 37.6254C20.9527 37.4571 20.9294 37.2897 20.8751 37.1328L33.4952 32.9989Z" fill="url(#paint26_linear_1347_2492)"/>
<path d="M25.9991 19.5712C25.9319 19.5712 25.8651 19.5729 25.798 19.5737L23.2957 22.076L41.563 40.3434C41.9858 38.8974 42.2136 37.3681 42.2136 35.7855C42.2136 26.8306 34.9542 19.5712 25.9991 19.5712Z" fill="url(#paint27_linear_1347_2492)"/>
<path d="M16.2109 0.339844V8.90455L25.9992 18.6928L35.7874 8.90455V0.339844H16.2109Z" fill="url(#paint28_linear_1347_2492)"/>
<path d="M16.2109 0.339844V3.0053L25.9664 12.7608C25.9845 12.7789 26.0139 12.7789 26.0319 12.7608L35.7874 3.0053V0.339844H16.2109Z" fill="url(#paint29_linear_1347_2492)"/>
<path d="M16.2109 0.339844V3.0053L25.9664 12.7608C25.9845 12.7789 26.0139 12.7789 26.0319 12.7608L35.7874 3.0053V0.339844H16.2109Z" fill="url(#paint30_linear_1347_2492)"/>
<path d="M25.9992 14.3031C25.5956 14.3031 25.1922 14.1495 24.885 13.8423L16.2109 5.16818V8.90464L25.9992 18.6929L35.7874 8.90464V5.16818L27.1133 13.8423C26.8062 14.1494 26.4027 14.3031 25.9992 14.3031Z" fill="url(#paint31_linear_1347_2492)"/>
<path d="M25.9992 14.3031C25.5956 14.3031 25.1922 14.1495 24.885 13.8423L16.2109 5.16818V8.90464L25.9992 18.6929L35.7874 8.90464V5.16818L27.1133 13.8423C26.8062 14.1494 26.4027 14.3031 25.9992 14.3031Z" fill="url(#paint32_linear_1347_2492)"/>
<path d="M25.9992 14.3031C26.4027 14.3031 26.8062 14.1495 27.1133 13.8423L35.7874 5.16818V8.90464L25.9992 18.6929L16.2109 8.90464V5.16818L24.885 13.8423C25.1922 14.1494 25.5957 14.3031 25.9992 14.3031Z" fill="url(#paint33_linear_1347_2492)"/>
<path d="M24.9258 16.4694L16.5962 8.13985C15.9716 7.51523 14.9588 7.51523 14.3342 8.13985C13.7096 8.76446 13.7096 9.77723 14.3342 10.4018L25.9991 22.067L37.6641 10.4019C38.2887 9.77734 38.2887 8.76456 37.6641 8.13995C37.0395 7.51534 36.0267 7.51534 35.4021 8.13995L27.0726 16.4695C26.4797 17.0623 25.5186 17.0623 24.9258 16.4694Z" fill="url(#paint34_linear_1347_2492)"/>
<path d="M14.334 8.15881L24.7708 18.5956C25.4492 19.274 26.549 19.274 27.2274 18.5956L37.6641 8.15881C37.6671 8.15575 37.6696 8.15239 37.6726 8.14933C37.6697 8.14627 37.6671 8.1429 37.6641 8.13985C37.0395 7.51523 36.0267 7.51523 35.4021 8.13985L27.0725 16.4694C26.4797 17.0622 25.5185 17.0622 24.9257 16.4694L16.5961 8.13985C15.9715 7.51523 14.9587 7.51523 14.3341 8.13985C14.3311 8.1429 14.3286 8.14627 14.3256 8.14933C14.3285 8.15239 14.331 8.15575 14.334 8.15881Z" fill="url(#paint35_linear_1347_2492)"/>
<path d="M25.9991 22.067L34.2334 13.8327H29.7093L27.0725 16.4695C26.4797 17.0623 25.5185 17.0623 24.9257 16.4695L22.2889 13.8327H17.7648L25.9991 22.067Z" fill="url(#paint36_linear_1347_2492)"/>
<path d="M24.9795 21.0474L25.9991 22.067L36.4425 11.6236H31.9184L27.0725 16.4694C26.497 17.045 25.5754 17.06 24.9795 16.5181V21.0474Z" fill="url(#paint37_linear_1347_2492)"/>
<path d="M25.9991 23.1959C28.1107 23.1959 29.8224 21.4841 29.8224 19.3726C29.8224 17.261 28.1107 15.5492 25.9991 15.5492C23.8875 15.5492 22.1758 17.261 22.1758 19.3726C22.1758 21.4841 23.8875 23.1959 25.9991 23.1959Z" fill="url(#paint38_linear_1347_2492)"/>
<path d="M25.9991 21.5644C27.2097 21.5644 28.191 20.5831 28.191 19.3725C28.191 18.1619 27.2097 17.1805 25.9991 17.1805C24.7885 17.1805 23.8071 18.1619 23.8071 19.3725C23.8071 20.5831 24.7885 21.5644 25.9991 21.5644Z" fill="url(#paint39_linear_1347_2492)"/>
<path d="M37.266 3.8065H14.7323C14.0848 3.8065 13.5599 3.28161 13.5599 2.63416V1.17235C13.5599 0.524894 14.0848 0 14.7323 0H37.2661C37.9135 0 38.4384 0.524894 38.4384 1.17235V2.63426C38.4384 3.28171 37.9135 3.8065 37.266 3.8065Z" fill="url(#paint40_linear_1347_2492)"/>
<defs>
<linearGradient id="paint0_linear_1347_2492" x1="7.41466" y1="37.0562" x2="10.7794" y2="41.6954" gradientUnits="userSpaceOnUse">
<stop stop-color="#FEF0AE"/>
<stop offset="1" stop-color="#FBC56D"/>
</linearGradient>
<linearGradient id="paint1_linear_1347_2492" x1="7.10826" y1="40.0315" x2="12.4102" y2="42.4785" gradientUnits="userSpaceOnUse">
<stop stop-color="#DC8758" stop-opacity="0"/>
<stop offset="0.9957" stop-color="#DC8758" stop-opacity="0.996"/>
<stop offset="1" stop-color="#DC8758"/>
</linearGradient>
<linearGradient id="paint2_linear_1347_2492" x1="3.96337" y1="33.1017" x2="9.52023" y2="37.2311" gradientUnits="userSpaceOnUse">
<stop stop-color="#FEF0AE"/>
<stop offset="1" stop-color="#FBC56D"/>
</linearGradient>
<linearGradient id="paint3_linear_1347_2492" x1="6.29297" y1="37.7206" x2="10.5073" y2="37.6527" gradientUnits="userSpaceOnUse">
<stop stop-color="#DC8758" stop-opacity="0"/>
<stop offset="0.9957" stop-color="#DC8758" stop-opacity="0.996"/>
<stop offset="1" stop-color="#DC8758"/>
</linearGradient>
<linearGradient id="paint4_linear_1347_2492" x1="15.1272" y1="23.6025" x2="13.8527" y2="29.4653" gradientUnits="userSpaceOnUse">
<stop stop-color="#FEF0AE"/>
<stop offset="1" stop-color="#FBC56D"/>
</linearGradient>
<linearGradient id="paint5_linear_1347_2492" x1="9.6199" y1="24.193" x2="12.8826" y2="27.5236" gradientUnits="userSpaceOnUse">
<stop stop-color="#DC8758" stop-opacity="0"/>
<stop offset="0.9957" stop-color="#DC8758" stop-opacity="0.996"/>
<stop offset="1" stop-color="#DC8758"/>
</linearGradient>
<linearGradient id="paint6_linear_1347_2492" x1="7.66008" y1="25.0108" x2="10.464" y2="33.7794" gradientUnits="userSpaceOnUse">
<stop stop-color="#FEF0AE"/>
<stop offset="1" stop-color="#FBC56D"/>
</linearGradient>
<linearGradient id="paint7_linear_1347_2492" x1="8.22508" y1="29.7855" x2="11.8277" y2="32.9124" gradientUnits="userSpaceOnUse">
<stop stop-color="#DC8758" stop-opacity="0"/>
<stop offset="0.9957" stop-color="#DC8758" stop-opacity="0.996"/>
<stop offset="1" stop-color="#DC8758"/>
</linearGradient>
<linearGradient id="paint8_linear_1347_2492" x1="44.5842" y1="37.0562" x2="41.2195" y2="41.6954" gradientUnits="userSpaceOnUse">
<stop stop-color="#FEF0AE"/>
<stop offset="1" stop-color="#FBC56D"/>
</linearGradient>
<linearGradient id="paint9_linear_1347_2492" x1="44.8907" y1="40.0315" x2="39.5888" y2="42.4785" gradientUnits="userSpaceOnUse">
<stop stop-color="#DC8758" stop-opacity="0"/>
<stop offset="0.9957" stop-color="#DC8758" stop-opacity="0.996"/>
<stop offset="1" stop-color="#DC8758"/>
</linearGradient>
<linearGradient id="paint10_linear_1347_2492" x1="48.0356" y1="33.1017" x2="42.4787" y2="37.2311" gradientUnits="userSpaceOnUse">
<stop stop-color="#FEF0AE"/>
<stop offset="1" stop-color="#FBC56D"/>
</linearGradient>
<linearGradient id="paint11_linear_1347_2492" x1="45.706" y1="37.7206" x2="41.4916" y2="37.6527" gradientUnits="userSpaceOnUse">
<stop stop-color="#DC8758" stop-opacity="0"/>
<stop offset="0.9957" stop-color="#DC8758" stop-opacity="0.996"/>
<stop offset="1" stop-color="#DC8758"/>
</linearGradient>
<linearGradient id="paint12_linear_1347_2492" x1="36.8719" y1="23.6025" x2="38.1464" y2="29.4653" gradientUnits="userSpaceOnUse">
<stop stop-color="#FEF0AE"/>
<stop offset="1" stop-color="#FBC56D"/>
</linearGradient>
<linearGradient id="paint13_linear_1347_2492" x1="42.3792" y1="24.193" x2="39.1165" y2="27.5236" gradientUnits="userSpaceOnUse">
<stop stop-color="#DC8758" stop-opacity="0"/>
<stop offset="0.9957" stop-color="#DC8758" stop-opacity="0.996"/>
<stop offset="1" stop-color="#DC8758"/>
</linearGradient>
<linearGradient id="paint14_linear_1347_2492" x1="44.339" y1="25.0108" x2="41.535" y2="33.7794" gradientUnits="userSpaceOnUse">
<stop stop-color="#FEF0AE"/>
<stop offset="1" stop-color="#FBC56D"/>
</linearGradient>
<linearGradient id="paint15_linear_1347_2492" x1="43.774" y1="29.7855" x2="40.1714" y2="32.9124" gradientUnits="userSpaceOnUse">
<stop stop-color="#DC8758" stop-opacity="0"/>
<stop offset="0.9957" stop-color="#DC8758" stop-opacity="0.996"/>
<stop offset="1" stop-color="#DC8758"/>
</linearGradient>
<linearGradient id="paint16_linear_1347_2492" x1="16.0022" y1="25.789" x2="33.1027" y2="42.8894" gradientUnits="userSpaceOnUse">
<stop stop-color="#FEF0AE"/>
<stop offset="1" stop-color="#FBC56D"/>
</linearGradient>
<linearGradient id="paint17_linear_1347_2492" x1="34.3931" y1="44.1795" x2="17.3602" y2="27.1465" gradientUnits="userSpaceOnUse">
<stop stop-color="#FEF0AE"/>
<stop offset="1" stop-color="#FBC56D"/>
</linearGradient>
<linearGradient id="paint18_linear_1347_2492" x1="17.933" y1="27.7199" x2="31.2101" y2="40.9969" gradientUnits="userSpaceOnUse">
<stop stop-color="#FEF0AE"/>
<stop offset="1" stop-color="#FBC56D"/>
</linearGradient>
<linearGradient id="paint19_linear_1347_2492" x1="25.9991" y1="40.5295" x2="25.9991" y2="51.1721" gradientUnits="userSpaceOnUse">
<stop stop-color="#DC8758" stop-opacity="0"/>
<stop offset="0.9957" stop-color="#DC8758" stop-opacity="0.996"/>
<stop offset="1" stop-color="#DC8758"/>
</linearGradient>
<linearGradient id="paint20_linear_1347_2492" x1="35.7101" y1="44.2123" x2="22.3192" y2="35.7835" gradientUnits="userSpaceOnUse">
<stop stop-color="#DC8758" stop-opacity="0"/>
<stop offset="0.9957" stop-color="#DC8758" stop-opacity="0.996"/>
<stop offset="1" stop-color="#DC8758"/>
</linearGradient>
<linearGradient id="paint21_linear_1347_2492" x1="22.6215" y1="32.7034" x2="28.7122" y2="38.794" gradientUnits="userSpaceOnUse">
<stop stop-color="#FBC56D"/>
<stop offset="1" stop-color="#C5715A"/>
</linearGradient>
<linearGradient id="paint22_linear_1347_2492" x1="29.6485" y1="34.364" x2="21.2303" y2="37.8442" gradientUnits="userSpaceOnUse">
<stop stop-color="#8C3D27" stop-opacity="0"/>
<stop offset="1" stop-color="#8C3D27"/>
</linearGradient>
<linearGradient id="paint23_linear_1347_2492" x1="27.4505" y1="37.3514" x2="22.8417" y2="35.3761" gradientUnits="userSpaceOnUse">
<stop stop-color="#8C3D27" stop-opacity="0"/>
<stop offset="1" stop-color="#8C3D27"/>
</linearGradient>
<linearGradient id="paint24_linear_1347_2492" x1="24.5475" y1="37.3514" x2="29.1564" y2="35.3761" gradientUnits="userSpaceOnUse">
<stop stop-color="#8C3D27" stop-opacity="0"/>
<stop offset="1" stop-color="#8C3D27"/>
</linearGradient>
<linearGradient id="paint25_linear_1347_2492" x1="24.6499" y1="37.5826" x2="27.6127" y2="32.8209" gradientUnits="userSpaceOnUse">
<stop stop-color="#8C3D27" stop-opacity="0"/>
<stop offset="1" stop-color="#8C3D27"/>
</linearGradient>
<linearGradient id="paint26_linear_1347_2492" x1="27.1209" y1="36.9812" x2="26.874" y2="32.3254" gradientUnits="userSpaceOnUse">
<stop stop-color="#8C3D27" stop-opacity="0"/>
<stop offset="1" stop-color="#8C3D27"/>
</linearGradient>
<linearGradient id="paint27_linear_1347_2492" x1="33.9892" y1="28.9357" x2="27.7356" y2="17.9919" gradientUnits="userSpaceOnUse">
<stop stop-color="#DC8758" stop-opacity="0"/>
<stop offset="0.9957" stop-color="#DC8758" stop-opacity="0.996"/>
<stop offset="1" stop-color="#DC8758"/>
</linearGradient>
<linearGradient id="paint28_linear_1347_2492" x1="26.7243" y1="5.77874" x2="30.7518" y2="12.2023" gradientUnits="userSpaceOnUse">
<stop stop-color="#F9F5F3"/>
<stop offset="1" stop-color="#D8E8F0"/>
</linearGradient>
<linearGradient id="paint29_linear_1347_2492" x1="22.7072" y1="-2.10242" x2="35.2144" y2="12.24" gradientUnits="userSpaceOnUse">
<stop stop-color="#FD4755"/>
<stop offset="1" stop-color="#A72B2B"/>
</linearGradient>
<linearGradient id="paint30_linear_1347_2492" x1="25.9992" y1="6.7804" x2="25.9992" y2="3.41223" gradientUnits="userSpaceOnUse">
<stop stop-color="#A72B2B" stop-opacity="0"/>
<stop offset="1" stop-color="#42210B"/>
</linearGradient>
<linearGradient id="paint31_linear_1347_2492" x1="20.0503" y1="0.214519" x2="32.5574" y2="14.5569" gradientUnits="userSpaceOnUse">
<stop stop-color="#FD4755"/>
<stop offset="1" stop-color="#A72B2B"/>
</linearGradient>
<linearGradient id="paint32_linear_1347_2492" x1="29.8732" y1="10.9103" x2="31.6136" y2="12.6508" gradientUnits="userSpaceOnUse">
<stop stop-color="#A72B2B" stop-opacity="0"/>
<stop offset="1" stop-color="#42210B"/>
</linearGradient>
<linearGradient id="paint33_linear_1347_2492" x1="22.1252" y1="10.9103" x2="20.3847" y2="12.6508" gradientUnits="userSpaceOnUse">
<stop stop-color="#A72B2B" stop-opacity="0"/>
<stop offset="1" stop-color="#42210B"/>
</linearGradient>
<linearGradient id="paint34_linear_1347_2492" x1="34.8377" y1="18.1095" x2="13.9296" y2="-2.79861" gradientUnits="userSpaceOnUse">
<stop stop-color="#FEF0AE"/>
<stop offset="1" stop-color="#FBC56D"/>
</linearGradient>
<linearGradient id="paint35_linear_1347_2492" x1="25.9991" y1="8.32684" x2="25.9991" y2="22.6053" gradientUnits="userSpaceOnUse">
<stop stop-color="#FEF0AE"/>
<stop offset="1" stop-color="#FBC56D"/>
</linearGradient>
<linearGradient id="paint36_linear_1347_2492" x1="25.9991" y1="16.6196" x2="25.9991" y2="21.3143" gradientUnits="userSpaceOnUse">
<stop stop-color="#DC8758" stop-opacity="0"/>
<stop offset="0.9957" stop-color="#DC8758" stop-opacity="0.996"/>
<stop offset="1" stop-color="#DC8758"/>
</linearGradient>
<linearGradient id="paint37_linear_1347_2492" x1="30.8185" y1="13.9614" x2="27.9636" y2="16.8673" gradientUnits="userSpaceOnUse">
<stop stop-color="#DC8758" stop-opacity="0"/>
<stop offset="0.9957" stop-color="#DC8758" stop-opacity="0.996"/>
<stop offset="1" stop-color="#DC8758"/>
</linearGradient>
<linearGradient id="paint38_linear_1347_2492" x1="23.8069" y1="17.1804" x2="29.2139" y2="22.5874" gradientUnits="userSpaceOnUse">
<stop stop-color="#FBC56D"/>
<stop offset="1" stop-color="#C5715A"/>
</linearGradient>
<linearGradient id="paint39_linear_1347_2492" x1="28.1403" y1="21.5137" x2="23.0752" y2="16.4486" gradientUnits="userSpaceOnUse">
<stop stop-color="#FBC56D"/>
<stop offset="1" stop-color="#C5715A"/>
</linearGradient>
<linearGradient id="paint40_linear_1347_2492" x1="25.9992" y1="1.15552" x2="25.9992" y2="3.28018" gradientUnits="userSpaceOnUse">
<stop stop-color="#FEF0AE"/>
<stop offset="1" stop-color="#FBC56D"/>
</linearGradient>
</defs>
</svg>
