<svg width="42" height="52" viewBox="0 0 42 52" fill="none" xmlns="http://www.w3.org/2000/svg">
<path d="M8.95839 32.5764C11.2583 34.8275 12.7009 37.5392 13.1995 40.152C13.304 40.6992 12.4643 41.5571 11.9149 41.4645C9.292 41.0221 6.54997 39.638 4.25004 37.3871C1.95011 35.1361 0.507571 32.4243 0.00888117 29.8115C-0.0955267 29.2642 0.744121 28.4063 1.29349 28.499C3.91643 28.9414 6.65846 30.3253 8.95839 32.5764Z" fill="url(#paint0_linear_1347_2495)"/>
<path d="M8.95839 32.5764C11.2583 34.8275 12.7009 37.5392 13.1995 40.152C13.304 40.6992 12.4643 41.5571 11.9149 41.4645C9.292 41.0221 6.54997 39.638 4.25004 37.3871C1.95011 35.1361 0.507571 32.4243 0.00888117 29.8115C-0.0955267 29.2642 0.744121 28.4063 1.29349 28.499C3.91643 28.9414 6.65846 30.3253 8.95839 32.5764Z" fill="url(#paint1_linear_1347_2495)"/>
<path d="M12.0773 27.2452C13.9215 30.8493 14.5587 34.6603 14.1097 37.9764C14.0157 38.6708 12.6712 39.3588 12.0529 39.0287C9.10086 37.453 6.38289 34.7066 4.53883 31.1025C2.69476 27.4984 2.05741 23.6874 2.50644 20.3713C2.60045 19.6769 3.9449 18.9889 4.56319 19.319C7.51516 20.8947 10.2331 23.6411 12.0773 27.2452Z" fill="url(#paint2_linear_1347_2495)"/>
<path d="M2.47131 24.321C2.715 26.5493 3.39426 28.8657 4.53877 31.1025C6.38294 34.7066 9.1008 37.453 12.0529 39.0287C12.6711 39.3587 14.0155 38.6707 14.1096 37.9764C14.5587 34.6604 13.9214 30.8493 12.0772 27.2452C10.9914 25.1229 9.60225 23.2985 8.04092 21.835L2.47131 24.321Z" fill="url(#paint3_linear_1347_2495)"/>
<path d="M33.0226 32.5764C30.7227 34.8275 29.2802 37.5391 28.7815 40.152C28.6771 40.6992 29.5167 41.5571 30.0661 41.4644C32.689 41.022 35.431 39.638 37.731 37.387C40.0309 35.136 41.4734 32.4243 41.9721 29.8114C42.0765 29.2642 41.2369 28.4063 40.6875 28.499C38.0646 28.9414 35.3226 30.3253 33.0226 32.5764Z" fill="url(#paint4_linear_1347_2495)"/>
<path d="M33.0226 32.5764C30.7227 34.8275 29.2802 37.5391 28.7815 40.152C28.6771 40.6992 29.5167 41.5571 30.0661 41.4644C32.689 41.022 35.431 39.638 37.731 37.387C40.0309 35.136 41.4734 32.4243 41.9721 29.8114C42.0765 29.2642 41.2369 28.4063 40.6875 28.499C38.0646 28.9414 35.3226 30.3253 33.0226 32.5764Z" fill="url(#paint5_linear_1347_2495)"/>
<path d="M29.9038 27.2452C28.0597 30.8493 27.4224 34.6603 27.8714 37.9764C27.9654 38.6708 29.3099 39.3588 29.9282 39.0287C32.8803 37.453 35.5982 34.7066 37.4423 31.1025C39.2864 27.4984 39.9237 23.6874 39.4747 20.3713C39.3807 19.6769 38.0362 18.9889 37.4179 19.319C34.466 20.8947 31.748 23.6411 29.9038 27.2452Z" fill="url(#paint6_linear_1347_2495)"/>
<path d="M39.5096 24.3209C39.2659 26.5493 38.5867 28.8656 37.4422 31.1025C35.598 34.7066 32.8801 37.453 29.9281 39.0287C29.3099 39.3586 27.9654 38.6707 27.8713 37.9763C27.4223 34.6604 28.0595 30.8493 29.9037 27.2452C30.9896 25.1229 32.3787 23.2985 33.94 21.8349L39.5096 24.3209Z" fill="url(#paint7_linear_1347_2495)"/>
<path d="M20.9905 52.0002C29.9455 52.0002 37.205 44.7408 37.205 35.7858C37.205 26.8309 29.9455 19.5714 20.9905 19.5714C12.0356 19.5714 4.77612 26.8309 4.77612 35.7858C4.77612 44.7408 12.0356 52.0002 20.9905 52.0002Z" fill="url(#paint8_linear_1347_2495)"/>
<path d="M20.9906 48.71C28.1283 48.71 33.9146 42.9237 33.9146 35.786C33.9146 28.6482 28.1283 22.8619 20.9906 22.8619C13.8528 22.8619 8.06653 28.6482 8.06653 35.786C8.06653 42.9237 13.8528 48.71 20.9906 48.71Z" fill="url(#paint9_linear_1347_2495)"/>
<path d="M20.9906 46.8811C27.1184 46.8811 32.086 41.9135 32.086 35.7857C32.086 29.6579 27.1184 24.6903 20.9906 24.6903C14.8628 24.6903 9.89526 29.6579 9.89526 35.7857C9.89526 41.9135 14.8628 46.8811 20.9906 46.8811Z" fill="url(#paint10_linear_1347_2495)"/>
<path d="M4.77612 35.786C4.77612 44.741 12.0355 52.0004 20.9905 52.0004C29.9456 52.0004 37.205 44.741 37.205 35.786C37.205 35.7231 37.2033 35.6606 37.2026 35.5978H4.77847C4.77775 35.6606 4.77612 35.7231 4.77612 35.786Z" fill="url(#paint11_linear_1347_2495)"/>
<path d="M25.5382 51.3526C30.6473 49.8625 34.7129 45.9263 36.3823 40.8963L28.4852 32.9991L26.7048 33.0865L21.8998 28.2815L16.0437 41.8581L25.5382 51.3526Z" fill="url(#paint12_linear_1347_2495)"/>
<path d="M27.6392 32.2621L24.4593 31.4938C24.1635 31.4223 23.9051 31.243 23.7345 30.9909L21.9014 28.2813C21.6797 27.9536 21.34 27.7778 20.9905 27.7494C20.641 27.7778 20.3013 27.9536 20.0796 28.2813L18.2465 30.9909C18.0761 31.243 17.8176 31.4223 17.5217 31.4938L14.3418 32.2621C13.4793 32.4705 13.1198 33.5 13.6651 34.2001L15.6757 36.7807C15.8627 37.0208 15.9534 37.322 15.93 37.6254L15.678 40.8871C15.6097 41.7718 16.4777 42.4319 17.3121 42.1294L20.3877 41.0148C20.5821 40.9444 20.7893 40.9262 20.9905 40.9574C21.1918 40.9263 21.399 40.9445 21.5933 41.0148L24.6689 42.1294C25.5032 42.4318 26.3713 41.7718 26.303 40.8871L26.051 37.6254C26.0276 37.322 26.1183 37.0208 26.3053 36.7807L28.3159 34.2001C28.8612 33.5 28.5018 32.4705 27.6392 32.2621Z" fill="url(#paint13_linear_1347_2495)"/>
<path d="M21.5933 41.0149L24.6689 42.1296C25.5032 42.4319 26.3713 41.7719 26.3029 40.8872L26.051 37.6256C26.0275 37.3221 26.1183 37.0209 26.3053 36.7808L28.3159 34.2002C28.8612 33.5002 28.5017 32.4706 27.6391 32.2622L24.4593 31.494C24.1635 31.4225 23.905 31.2431 23.7344 30.9911L21.9014 28.2815C21.6796 27.9538 21.34 27.7779 20.9905 27.7495V40.9575C21.1917 40.9263 21.399 40.9445 21.5933 41.0149Z" fill="url(#paint14_linear_1347_2495)"/>
<path d="M27.6391 32.2622L24.4593 31.494C24.3507 31.4678 24.2473 31.4267 24.1514 31.3731L16.0453 41.8581C16.3633 42.1654 16.843 42.2997 17.3121 42.1297L20.3877 41.0151C20.582 40.9446 20.7893 40.9265 20.9905 40.9577C21.1918 40.9266 21.3989 40.9447 21.5933 41.0151L24.6689 42.1297C25.5032 42.432 26.3713 41.772 26.303 40.8873L26.051 37.6257C26.0276 37.3222 26.1183 37.0211 26.3053 36.7809L28.3159 34.2003C28.8611 33.5001 28.5017 32.4706 27.6391 32.2622Z" fill="url(#paint15_linear_1347_2495)"/>
<path d="M14.3418 32.2622L17.5217 31.494C17.6303 31.4678 17.7337 31.4267 17.8296 31.3731L25.9357 41.8581C25.6177 42.1654 25.138 42.2997 24.6689 42.1297L21.5933 41.0151C21.399 40.9446 21.1917 40.9265 20.9905 40.9577C20.7892 40.9266 20.5821 40.9447 20.3877 41.0151L17.3121 42.1297C16.4778 42.432 15.6097 41.772 15.678 40.8873L15.93 37.6257C15.9534 37.3222 15.8627 37.0211 15.6757 36.7809L13.6651 34.2003C13.1198 33.5001 13.4793 32.4706 14.3418 32.2622Z" fill="url(#paint16_linear_1347_2495)"/>
<path d="M13.4955 32.9991C13.3443 33.3804 13.3806 33.8349 13.6652 34.2002L15.6758 36.7808C15.8628 37.0209 15.9535 37.3221 15.93 37.6256L15.6781 40.8872C15.6098 41.7719 16.4778 42.432 17.3121 42.1296L20.3878 41.015C20.5821 40.9445 20.7894 40.9263 20.9906 40.9575C21.1918 40.9265 21.399 40.9446 21.5934 41.015L24.669 42.1296C25.5032 42.4319 26.3713 41.7719 26.303 40.8872L26.0511 37.6256C26.038 37.4572 26.0614 37.2899 26.1156 37.133L13.4955 32.9991Z" fill="url(#paint17_linear_1347_2495)"/>
<path d="M28.4868 32.9991C28.638 33.3804 28.6018 33.8349 28.3172 34.2002L26.3066 36.7808C26.1196 37.0209 26.0289 37.3221 26.0523 37.6256L26.3042 40.8872C26.3726 41.7719 25.5045 42.432 24.6702 42.1296L21.5946 41.015C21.4002 40.9445 21.193 40.9263 20.9918 40.9575C20.7905 40.9265 20.5833 40.9446 20.389 41.015L17.3133 42.1296C16.4791 42.4319 15.611 41.7719 15.6793 40.8872L15.9313 37.6256C15.9443 37.4572 15.921 37.2899 15.8667 37.133L28.4868 32.9991Z" fill="url(#paint18_linear_1347_2495)"/>
<path d="M20.9906 19.5712C20.9233 19.5712 20.8565 19.5729 20.7894 19.5737L18.2871 22.076L36.5545 40.3434C36.9772 38.8974 37.205 37.3681 37.205 35.7855C37.205 26.8306 29.9456 19.5712 20.9906 19.5712Z" fill="url(#paint19_linear_1347_2495)"/>
<path d="M11.2025 0.339844V8.90455L20.9908 18.6928L30.779 8.90455V0.339844H11.2025Z" fill="url(#paint20_linear_1347_2495)"/>
<path d="M11.2025 0.339844V3.0053L20.958 12.7608C20.9761 12.7789 21.0054 12.7789 21.0235 12.7608L30.779 3.0053V0.339844H11.2025Z" fill="url(#paint21_linear_1347_2495)"/>
<path d="M20.9908 14.3031C20.5872 14.3031 20.1837 14.1495 19.8766 13.8423L11.2025 5.16821V8.90467L20.9908 18.6929L30.779 8.90467V5.16821L22.1049 13.8423C21.7978 14.1494 21.3943 14.3031 20.9908 14.3031Z" fill="url(#paint22_linear_1347_2495)"/>
<path d="M11.2025 0.339844V3.0053L20.958 12.7608C20.9761 12.7789 21.0054 12.7789 21.0235 12.7608L30.779 3.0053V0.339844H11.2025Z" fill="url(#paint23_linear_1347_2495)"/>
<path d="M20.9908 14.3031C20.5872 14.3031 20.1837 14.1495 19.8766 13.8423L11.2025 5.16821V8.90467L20.9908 18.6929L30.779 8.90467V5.16821L22.1049 13.8423C21.7978 14.1494 21.3943 14.3031 20.9908 14.3031Z" fill="url(#paint24_linear_1347_2495)"/>
<path d="M20.9908 14.3031C21.3943 14.3031 21.7978 14.1495 22.1049 13.8423L30.779 5.16821V8.90467L20.9908 18.6929L11.2025 8.90467V5.16821L19.8766 13.8423C20.1837 14.1494 20.5873 14.3031 20.9908 14.3031Z" fill="url(#paint25_linear_1347_2495)"/>
<path d="M19.9173 16.4694L11.5878 8.13983C10.9631 7.51522 9.95037 7.51522 9.32576 8.13983C8.70115 8.76444 8.70115 9.77722 9.32576 10.4018L20.9907 22.067L32.6557 10.4019C33.2803 9.77732 33.2803 8.76454 32.6557 8.13993C32.0311 7.51532 31.0183 7.51532 30.3937 8.13993L22.0641 16.4695C21.4712 17.0623 20.5101 17.0623 19.9173 16.4694Z" fill="url(#paint26_linear_1347_2495)"/>
<path d="M9.3256 8.15878L19.7624 18.5956C20.4408 19.2739 21.5406 19.2739 22.219 18.5956L32.6557 8.15878C32.6587 8.15572 32.6612 8.15236 32.6642 8.1493C32.6613 8.14624 32.6587 8.14287 32.6557 8.13982C32.031 7.5152 31.0183 7.5152 30.3937 8.13982L22.0641 16.4694C21.4713 17.0622 20.5101 17.0622 19.9173 16.4694L11.5877 8.13982C10.9631 7.5152 9.95032 7.5152 9.3257 8.13982C9.32264 8.14287 9.3202 8.14624 9.31714 8.1493C9.3201 8.15236 9.32254 8.15572 9.3256 8.15878Z" fill="url(#paint27_linear_1347_2495)"/>
<path d="M20.9907 22.0669L29.225 13.8327H24.7009L22.064 16.4695C21.4712 17.0623 20.5101 17.0623 19.9173 16.4695L17.2804 13.8327H12.7563L20.9907 22.0669Z" fill="url(#paint28_linear_1347_2495)"/>
<path d="M19.9711 21.0473L20.9907 22.0669L31.4341 11.6235H26.91L22.0641 16.4694C21.4886 17.045 20.5669 17.06 19.9711 16.518V21.0473Z" fill="url(#paint29_linear_1347_2495)"/>
<path d="M20.9907 23.1959C23.1022 23.1959 24.814 21.4841 24.814 19.3726C24.814 17.261 23.1022 15.5492 20.9907 15.5492C18.8791 15.5492 17.1674 17.261 17.1674 19.3726C17.1674 21.4841 18.8791 23.1959 20.9907 23.1959Z" fill="url(#paint30_linear_1347_2495)"/>
<path d="M20.9907 21.5644C22.2012 21.5644 23.1826 20.583 23.1826 19.3725C23.1826 18.1619 22.2012 17.1805 20.9907 17.1805C19.7801 17.1805 18.7987 18.1619 18.7987 19.3725C18.7987 20.583 19.7801 21.5644 20.9907 21.5644Z" fill="url(#paint31_linear_1347_2495)"/>
<path d="M32.2575 3.8065H9.72374C9.07629 3.8065 8.55139 3.28161 8.55139 2.63416V1.17235C8.55139 0.524894 9.07629 0 9.72374 0H32.2576C32.9049 0 33.4298 0.524894 33.4298 1.17235V2.63426C33.4298 3.28171 32.9049 3.8065 32.2575 3.8065Z" fill="url(#paint32_linear_1347_2495)"/>
<defs>
<linearGradient id="paint0_linear_1347_2495" x1="2.89964" y1="29.2174" x2="6.23293" y2="34.4675" gradientUnits="userSpaceOnUse">
<stop stop-color="#FBC56D"/>
<stop offset="1" stop-color="#C5715A"/>
</linearGradient>
<linearGradient id="paint1_linear_1347_2495" x1="3.36858" y1="33.8406" x2="6.92534" y2="35.1385" gradientUnits="userSpaceOnUse">
<stop stop-color="#8C3D27" stop-opacity="0"/>
<stop offset="1" stop-color="#8C3D27"/>
</linearGradient>
<linearGradient id="paint2_linear_1347_2495" x1="8.60151" y1="23.6195" x2="8.13422" y2="31.8758" gradientUnits="userSpaceOnUse">
<stop stop-color="#FBC56D"/>
<stop offset="1" stop-color="#C5715A"/>
</linearGradient>
<linearGradient id="paint3_linear_1347_2495" x1="7.54023" y1="27.8061" x2="9.55676" y2="31.587" gradientUnits="userSpaceOnUse">
<stop stop-color="#8C3D27" stop-opacity="0"/>
<stop offset="1" stop-color="#8C3D27"/>
</linearGradient>
<linearGradient id="paint4_linear_1347_2495" x1="39.0732" y1="29.2317" x2="35.7399" y2="34.4818" gradientUnits="userSpaceOnUse">
<stop stop-color="#FBC56D"/>
<stop offset="1" stop-color="#C5715A"/>
</linearGradient>
<linearGradient id="paint5_linear_1347_2495" x1="38.6042" y1="33.8549" x2="35.0475" y2="35.1527" gradientUnits="userSpaceOnUse">
<stop stop-color="#8C3D27" stop-opacity="0"/>
<stop offset="1" stop-color="#8C3D27"/>
</linearGradient>
<linearGradient id="paint6_linear_1347_2495" x1="33.3715" y1="23.6338" x2="33.8387" y2="31.8901" gradientUnits="userSpaceOnUse">
<stop stop-color="#FBC56D"/>
<stop offset="1" stop-color="#C5715A"/>
</linearGradient>
<linearGradient id="paint7_linear_1347_2495" x1="34.4325" y1="27.8203" x2="32.416" y2="31.6012" gradientUnits="userSpaceOnUse">
<stop stop-color="#8C3D27" stop-opacity="0"/>
<stop offset="1" stop-color="#8C3D27"/>
</linearGradient>
<linearGradient id="paint8_linear_1347_2495" x1="10.9937" y1="25.789" x2="28.0941" y2="42.8894" gradientUnits="userSpaceOnUse">
<stop stop-color="#FBC56D"/>
<stop offset="1" stop-color="#C5715A"/>
</linearGradient>
<linearGradient id="paint9_linear_1347_2495" x1="29.3846" y1="44.18" x2="12.3516" y2="27.147" gradientUnits="userSpaceOnUse">
<stop stop-color="#FBC56D"/>
<stop offset="1" stop-color="#C5715A"/>
</linearGradient>
<linearGradient id="paint10_linear_1347_2495" x1="12.9246" y1="27.7197" x2="26.2016" y2="40.9967" gradientUnits="userSpaceOnUse">
<stop stop-color="#FBC56D"/>
<stop offset="1" stop-color="#C5715A"/>
</linearGradient>
<linearGradient id="paint11_linear_1347_2495" x1="20.9905" y1="40.53" x2="20.9905" y2="51.1727" gradientUnits="userSpaceOnUse">
<stop stop-color="#8C3D27" stop-opacity="0"/>
<stop offset="1" stop-color="#8C3D27"/>
</linearGradient>
<linearGradient id="paint12_linear_1347_2495" x1="30.7017" y1="44.2123" x2="17.3108" y2="35.7835" gradientUnits="userSpaceOnUse">
<stop stop-color="#8C3D27" stop-opacity="0"/>
<stop offset="1" stop-color="#8C3D27"/>
</linearGradient>
<linearGradient id="paint13_linear_1347_2495" x1="17.613" y1="32.7034" x2="23.7037" y2="38.794" gradientUnits="userSpaceOnUse">
<stop stop-color="#FBC56D"/>
<stop offset="1" stop-color="#C5715A"/>
</linearGradient>
<linearGradient id="paint14_linear_1347_2495" x1="24.64" y1="34.3641" x2="16.2218" y2="37.8443" gradientUnits="userSpaceOnUse">
<stop stop-color="#8C3D27" stop-opacity="0"/>
<stop offset="1" stop-color="#8C3D27"/>
</linearGradient>
<linearGradient id="paint15_linear_1347_2495" x1="22.442" y1="37.3516" x2="17.8332" y2="35.3763" gradientUnits="userSpaceOnUse">
<stop stop-color="#8C3D27" stop-opacity="0"/>
<stop offset="1" stop-color="#8C3D27"/>
</linearGradient>
<linearGradient id="paint16_linear_1347_2495" x1="19.539" y1="37.3516" x2="24.1478" y2="35.3763" gradientUnits="userSpaceOnUse">
<stop stop-color="#8C3D27" stop-opacity="0"/>
<stop offset="1" stop-color="#8C3D27"/>
</linearGradient>
<linearGradient id="paint17_linear_1347_2495" x1="19.6415" y1="37.5827" x2="22.6043" y2="32.8211" gradientUnits="userSpaceOnUse">
<stop stop-color="#8C3D27" stop-opacity="0"/>
<stop offset="1" stop-color="#8C3D27"/>
</linearGradient>
<linearGradient id="paint18_linear_1347_2495" x1="22.1124" y1="36.9814" x2="21.8656" y2="32.3255" gradientUnits="userSpaceOnUse">
<stop stop-color="#8C3D27" stop-opacity="0"/>
<stop offset="1" stop-color="#8C3D27"/>
</linearGradient>
<linearGradient id="paint19_linear_1347_2495" x1="28.9807" y1="28.9357" x2="22.7271" y2="17.9919" gradientUnits="userSpaceOnUse">
<stop stop-color="#8C3D27" stop-opacity="0"/>
<stop offset="1" stop-color="#8C3D27"/>
</linearGradient>
<linearGradient id="paint20_linear_1347_2495" x1="21.7159" y1="5.77874" x2="25.7433" y2="12.2023" gradientUnits="userSpaceOnUse">
<stop stop-color="#F9F5F3"/>
<stop offset="1" stop-color="#D8E8F0"/>
</linearGradient>
<linearGradient id="paint21_linear_1347_2495" x1="17.6987" y1="-2.10242" x2="30.206" y2="12.24" gradientUnits="userSpaceOnUse">
<stop stop-color="#BBEC6C"/>
<stop offset="1" stop-color="#81B823"/>
</linearGradient>
<linearGradient id="paint22_linear_1347_2495" x1="15.0418" y1="0.21455" x2="27.549" y2="14.557" gradientUnits="userSpaceOnUse">
<stop stop-color="#BBEC6C"/>
<stop offset="1" stop-color="#81B823"/>
</linearGradient>
<linearGradient id="paint23_linear_1347_2495" x1="20.9908" y1="6.7804" x2="20.9908" y2="3.41223" gradientUnits="userSpaceOnUse">
<stop stop-color="#78A91F" stop-opacity="0"/>
<stop offset="1" stop-color="#78A91F"/>
</linearGradient>
<linearGradient id="paint24_linear_1347_2495" x1="24.8648" y1="10.9103" x2="26.6052" y2="12.6508" gradientUnits="userSpaceOnUse">
<stop stop-color="#78A91F" stop-opacity="0"/>
<stop offset="1" stop-color="#78A91F"/>
</linearGradient>
<linearGradient id="paint25_linear_1347_2495" x1="17.1168" y1="10.9103" x2="15.3763" y2="12.6508" gradientUnits="userSpaceOnUse">
<stop stop-color="#78A91F" stop-opacity="0"/>
<stop offset="1" stop-color="#78A91F"/>
</linearGradient>
<linearGradient id="paint26_linear_1347_2495" x1="29.8293" y1="18.1095" x2="8.92118" y2="-2.79862" gradientUnits="userSpaceOnUse">
<stop stop-color="#FBC56D"/>
<stop offset="1" stop-color="#C5715A"/>
</linearGradient>
<linearGradient id="paint27_linear_1347_2495" x1="20.9906" y1="8.32681" x2="20.9906" y2="22.6053" gradientUnits="userSpaceOnUse">
<stop stop-color="#FBC56D"/>
<stop offset="1" stop-color="#C5715A"/>
</linearGradient>
<linearGradient id="paint28_linear_1347_2495" x1="20.9907" y1="16.6196" x2="20.9907" y2="21.3143" gradientUnits="userSpaceOnUse">
<stop stop-color="#8C3D27" stop-opacity="0"/>
<stop offset="1" stop-color="#8C3D27"/>
</linearGradient>
<linearGradient id="paint29_linear_1347_2495" x1="25.8101" y1="13.9614" x2="22.9552" y2="16.8672" gradientUnits="userSpaceOnUse">
<stop stop-color="#8C3D27" stop-opacity="0"/>
<stop offset="1" stop-color="#8C3D27"/>
</linearGradient>
<linearGradient id="paint30_linear_1347_2495" x1="18.7985" y1="17.1804" x2="24.2055" y2="22.5874" gradientUnits="userSpaceOnUse">
<stop stop-color="#FBC56D"/>
<stop offset="1" stop-color="#C5715A"/>
</linearGradient>
<linearGradient id="paint31_linear_1347_2495" x1="22.5456" y1="20.9274" x2="19.869" y2="18.2508" gradientUnits="userSpaceOnUse">
<stop stop-color="#FBC56D"/>
<stop offset="1" stop-color="#C5715A"/>
</linearGradient>
<linearGradient id="paint32_linear_1347_2495" x1="20.9906" y1="1.15552" x2="20.9906" y2="3.28018" gradientUnits="userSpaceOnUse">
<stop stop-color="#FBC56D"/>
<stop offset="1" stop-color="#C5715A"/>
</linearGradient>
</defs>
</svg>
