<svg width="44" height="52" viewBox="0 0 44 52" fill="none" xmlns="http://www.w3.org/2000/svg">
<path d="M8.15639 38.4007C10.7316 39.4578 12.7693 41.1628 14.0181 43.0953C14.2796 43.5 13.8852 44.4606 13.4148 44.5649C11.1683 45.0626 8.52048 44.8443 5.94522 43.7871C3.36996 42.7299 1.33233 41.025 0.0835443 39.0924C-0.177978 38.6878 0.216396 37.727 0.686831 37.6228C2.93317 37.1252 5.58113 37.3436 8.15639 38.4007Z" fill="url(#paint0_linear_1341_2057)"/>
<path d="M8.15639 38.4007C10.7316 39.4578 12.7693 41.1628 14.0181 43.0953C14.2796 43.5 13.8852 44.4606 13.4148 44.5649C11.1683 45.0626 8.52048 44.8443 5.94522 43.7871C3.36996 42.7299 1.33233 41.025 0.0835443 39.0924C-0.177978 38.6878 0.216396 37.727 0.686831 37.6228C2.93317 37.1252 5.58113 37.3436 8.15639 38.4007Z" fill="url(#paint1_linear_1341_2057)"/>
<path d="M9.46591 34.748C11.9879 36.7469 13.7053 39.2933 14.4738 41.8398C14.6347 42.3731 13.8891 43.3139 13.3331 43.279C10.6784 43.1125 7.80705 42.0221 5.28501 40.0232C2.76298 38.0243 1.04559 35.4779 0.277134 32.9314C0.116245 32.398 0.861865 31.4573 1.41784 31.4921C4.07253 31.6587 6.94387 32.7491 9.46591 34.748Z" fill="url(#paint2_linear_1341_2057)"/>
<path d="M9.46591 34.748C11.9879 36.7469 13.7053 39.2933 14.4738 41.8398C14.6347 42.3731 13.8891 43.3139 13.3331 43.279C10.6784 43.1125 7.80705 42.0221 5.28501 40.0232C2.76298 38.0243 1.04559 35.4779 0.277134 32.9314C0.116245 32.398 0.861865 31.4573 1.41784 31.4921C4.07253 31.6587 6.94387 32.7491 9.46591 34.748Z" fill="url(#paint3_linear_1341_2057)"/>
<path d="M12.0122 29.1203C14.2221 32.5124 15.2533 36.2361 15.1525 39.5807C15.1314 40.2812 13.866 41.1055 13.2169 40.8419C10.1167 39.5826 7.1272 37.1347 4.91736 33.7426C2.70751 30.3506 1.67631 26.6269 1.77704 23.2822C1.79815 22.5818 3.06355 21.7574 3.71272 22.0211C6.81286 23.2804 9.80238 25.7283 12.0122 29.1203Z" fill="url(#paint4_linear_1341_2057)"/>
<path d="M2.15387 27.2155C2.62859 29.4063 3.5456 31.6391 4.91714 33.7443C7.12698 37.1364 10.1164 39.5843 13.2166 40.8436C13.8659 41.1073 15.1312 40.2829 15.1523 39.5825C15.2531 36.2378 14.2219 32.5141 12.012 29.1221C10.7107 27.1247 9.13902 25.455 7.43367 24.1623L2.15387 27.2155Z" fill="url(#paint5_linear_1341_2057)"/>
<path d="M35.4147 38.4007C32.8394 39.4578 30.8018 41.1628 29.553 43.0954C29.2915 43.5 29.6859 44.4607 30.1563 44.565C32.4028 45.0626 35.0506 44.8443 37.6259 43.7871C40.2011 42.7299 42.2388 41.025 43.4875 39.0925C43.7491 38.6878 43.3547 37.7271 42.8843 37.6229C40.6379 37.1252 37.99 37.3436 35.4147 38.4007Z" fill="url(#paint6_linear_1341_2057)"/>
<path d="M35.4147 38.4007C32.8394 39.4578 30.8018 41.1628 29.553 43.0954C29.2915 43.5 29.6859 44.4607 30.1563 44.565C32.4028 45.0626 35.0506 44.8443 37.6259 43.7871C40.2011 42.7299 42.2388 41.025 43.4875 39.0925C43.7491 38.6878 43.3547 37.7271 42.8843 37.6229C40.6379 37.1252 37.99 37.3436 35.4147 38.4007Z" fill="url(#paint7_linear_1341_2057)"/>
<path d="M34.1051 34.748C31.583 36.7469 29.8657 39.2933 29.0972 41.8398C28.9363 42.3731 29.6819 43.3139 30.2379 43.279C32.8926 43.1125 35.7639 42.0221 38.286 40.0232C40.808 38.0243 42.5254 35.4779 43.2939 32.9314C43.4547 32.3981 42.7091 31.4573 42.1531 31.4922C39.4985 31.6588 36.6271 32.7491 34.1051 34.748Z" fill="url(#paint8_linear_1341_2057)"/>
<path d="M34.1051 34.748C31.583 36.7469 29.8657 39.2933 29.0972 41.8398C28.9363 42.3731 29.6819 43.3139 30.2379 43.279C32.8926 43.1125 35.7639 42.0221 38.286 40.0232C40.808 38.0243 42.5254 35.4779 43.2939 32.9314C43.4547 32.3981 42.7091 31.4573 42.1531 31.4922C39.4985 31.6588 36.6271 32.7491 34.1051 34.748Z" fill="url(#paint9_linear_1341_2057)"/>
<path d="M31.5591 29.1203C29.3492 32.5124 28.318 36.2361 28.4188 39.5807C28.4399 40.2812 29.7053 41.1055 30.3544 40.8419C33.4546 39.5826 36.4441 37.1347 38.6539 33.7426C40.8638 30.3506 41.895 26.6269 41.7943 23.2822C41.7731 22.5818 40.5077 21.7574 39.8586 22.0211C36.7584 23.2804 33.7689 25.7283 31.5591 29.1203Z" fill="url(#paint10_linear_1341_2057)"/>
<path d="M41.4173 27.2156C40.9426 29.4064 40.0256 31.6391 38.654 33.7444C36.4442 37.1364 33.4548 39.5843 30.3545 40.8436C29.7052 41.1074 28.4399 40.2829 28.4188 39.5825C28.318 36.2379 29.3492 32.5141 31.5592 29.1221C32.8604 27.1247 34.4321 25.4551 36.1375 24.1623L41.4173 27.2156Z" fill="url(#paint11_linear_1341_2057)"/>
<path d="M21.7858 52.0003C30.7406 52.0003 37.9998 44.7411 37.9998 35.7863C37.9998 26.8316 30.7406 19.5723 21.7858 19.5723C12.8311 19.5723 5.57184 26.8316 5.57184 35.7863C5.57184 44.7411 12.8311 52.0003 21.7858 52.0003Z" fill="url(#paint12_linear_1341_2057)"/>
<path d="M21.7855 48.7066C28.923 48.7066 34.7092 42.9205 34.7092 35.7829C34.7092 28.6454 28.923 22.8592 21.7855 22.8592C14.6479 22.8592 8.86176 28.6454 8.86176 35.7829C8.86176 42.9205 14.6479 48.7066 21.7855 48.7066Z" fill="url(#paint13_linear_1341_2057)"/>
<path d="M21.7854 46.878C27.913 46.878 32.8805 41.9106 32.8805 35.7829C32.8805 29.6553 27.913 24.6878 21.7854 24.6878C15.6577 24.6878 10.6903 29.6553 10.6903 35.7829C10.6903 41.9106 15.6577 46.878 21.7854 46.878Z" fill="url(#paint14_linear_1341_2057)"/>
<path d="M5.57184 35.7859C5.57184 44.7407 12.8311 51.9999 21.7858 51.9999C30.7406 51.9999 37.9998 44.7407 37.9998 35.7859C37.9998 35.723 37.9982 35.6605 37.9975 35.5977H5.57418C5.57347 35.6605 5.57184 35.723 5.57184 35.7859Z" fill="url(#paint15_linear_1341_2057)"/>
<path d="M26.3332 51.3515C31.4423 49.8615 35.5077 45.9254 37.1771 40.8955L29.2801 32.9985L27.4998 33.0859L22.695 28.281L16.839 41.8573L26.3332 51.3515Z" fill="url(#paint16_linear_1341_2057)"/>
<path d="M28.4342 32.2626L25.2544 31.4944C24.9586 31.4229 24.7001 31.2435 24.5296 30.9915L22.6966 28.282C22.4748 27.9543 22.1352 27.7784 21.7857 27.75C21.4361 27.7784 21.0964 27.9543 20.8748 28.282L19.0418 30.9915C18.8713 31.2435 18.6128 31.4229 18.3169 31.4944L15.1372 32.2626C14.2746 32.471 13.9152 33.5005 14.4605 34.2005L16.471 36.7811C16.658 37.0212 16.7487 37.3224 16.7253 37.6258L16.4733 40.8874C16.405 41.772 17.273 42.4321 18.1073 42.1297L21.1829 41.0151C21.3772 40.9447 21.5845 40.9265 21.7857 40.9577C21.9869 40.9266 22.1941 40.9448 22.3884 41.0151L25.464 42.1297C26.2982 42.432 27.1663 41.772 27.098 40.8874L26.846 37.6258C26.8226 37.3224 26.9133 37.0212 27.1003 36.7811L29.1108 34.2005C29.6561 33.5005 29.2967 32.471 28.4342 32.2626Z" fill="url(#paint17_linear_1341_2057)"/>
<path d="M22.3882 41.0151L25.4638 42.1297C26.298 42.432 27.1661 41.772 27.0978 40.8874L26.8458 37.6258C26.8224 37.3224 26.9131 37.0212 27.1001 36.7811L29.1106 34.2005C29.656 33.5006 29.2965 32.471 28.434 32.2626L25.2542 31.4944C24.9584 31.4229 24.6999 31.2435 24.5294 30.9915L22.6964 28.282C22.4746 27.9543 22.135 27.7784 21.7855 27.75V40.9577C21.9867 40.9265 22.194 40.9447 22.3882 41.0151Z" fill="url(#paint18_linear_1341_2057)"/>
<path d="M28.434 32.2621L25.2542 31.4938C25.1456 31.4676 25.0422 31.4265 24.9463 31.373L16.8404 41.8577C17.1584 42.165 17.6381 42.2992 18.1071 42.1293L21.1827 41.0147C21.377 40.9442 21.5843 40.9261 21.7855 40.9573C21.9867 40.9262 22.1939 40.9443 22.3882 41.0147L25.4638 42.1293C26.298 42.4316 27.1661 41.7716 27.0978 40.8869L26.8459 37.6254C26.8224 37.3219 26.9131 37.0208 27.1001 36.7806L29.1107 34.2001C29.6559 33.4999 29.2965 32.4705 28.434 32.2621Z" fill="url(#paint19_linear_1341_2057)"/>
<path d="M15.1372 32.2621L18.3169 31.4938C18.4255 31.4676 18.5289 31.4265 18.6249 31.373L26.7307 41.8577C26.4127 42.165 25.933 42.2992 25.464 42.1293L22.3884 41.0147C22.1941 40.9442 21.9868 40.9261 21.7857 40.9573C21.5844 40.9262 21.3772 40.9443 21.1829 41.0147L18.1073 42.1293C17.2731 42.4316 16.405 41.7716 16.4733 40.8869L16.7253 37.6254C16.7487 37.3219 16.658 37.0208 16.471 36.7806L14.4605 34.2001C13.9152 33.4999 14.2746 32.4705 15.1372 32.2621Z" fill="url(#paint20_linear_1341_2057)"/>
<path d="M14.2908 32.999C14.1396 33.3803 14.1759 33.8347 14.4605 34.2L16.471 36.7806C16.658 37.0207 16.7487 37.3219 16.7253 37.6253L16.4733 40.8869C16.405 41.7715 17.273 42.4316 18.1073 42.1292L21.1829 41.0146C21.3772 40.9442 21.5845 40.926 21.7857 40.9572C21.9869 40.9261 22.1941 40.9443 22.3884 41.0146L25.464 42.1292C26.2982 42.4315 27.1663 41.7715 27.098 40.8869L26.846 37.6253C26.833 37.457 26.8563 37.2897 26.9106 37.1328L14.2908 32.999Z" fill="url(#paint21_linear_1341_2057)"/>
<path d="M29.2818 32.999C29.433 33.3803 29.3968 33.8347 29.1121 34.2L27.1016 36.7806C26.9146 37.0207 26.8239 37.3219 26.8473 37.6253L27.0993 40.8869C27.1676 41.7715 26.2995 42.4316 25.4653 42.1292L22.3897 41.0146C22.1954 40.9442 21.9881 40.926 21.7869 40.9572C21.5857 40.9261 21.3785 40.9443 21.1842 41.0146L18.1086 42.1292C17.2744 42.4315 16.4063 41.7715 16.4746 40.8869L16.7266 37.6253C16.7396 37.457 16.7163 37.2897 16.662 37.1328L29.2818 32.999Z" fill="url(#paint22_linear_1341_2057)"/>
<path d="M21.7858 19.5721C21.7185 19.5721 21.6517 19.5738 21.5847 19.5746L19.0824 22.0769L37.3493 40.3438C37.772 38.8978 37.9998 37.3686 37.9998 35.786C37.9998 26.8313 30.7406 19.5721 21.7858 19.5721Z" fill="url(#paint23_linear_1341_2057)"/>
<path d="M11.9976 0.338043V8.90253L21.7855 18.6905L31.5735 8.90253V0.338043H11.9976Z" fill="url(#paint24_linear_1341_2057)"/>
<path d="M11.9976 0.337799V3.00319L21.7528 12.7584C21.7709 12.7765 21.8002 12.7765 21.8183 12.7584L31.5735 3.00319V0.337799H11.9976Z" fill="url(#paint25_linear_1341_2057)"/>
<path d="M11.9976 0.337799V3.00319L21.7528 12.7584C21.7709 12.7765 21.8002 12.7765 21.8183 12.7584L31.5735 3.00319V0.337799H11.9976Z" fill="url(#paint26_linear_1341_2057)"/>
<path d="M21.7855 14.305C21.382 14.305 20.9785 14.1514 20.6714 13.8442L11.9976 5.17035V8.90671L21.7855 18.6947L31.5735 8.90671V5.17035L22.8996 13.8442C22.5925 14.1513 22.1891 14.305 21.7855 14.305Z" fill="url(#paint27_linear_1341_2057)"/>
<path d="M21.7855 14.305C21.382 14.305 20.9785 14.1514 20.6714 13.8442L11.9976 5.17035V8.90671L21.7855 18.6947L31.5735 8.90671V5.17035L22.8996 13.8442C22.5925 14.1513 22.1891 14.305 21.7855 14.305Z" fill="url(#paint28_linear_1341_2057)"/>
<path d="M21.7855 14.305C22.1891 14.305 22.5925 14.1514 22.8996 13.8442L31.5735 5.17035V8.90671L21.7855 18.6947L11.9976 8.90671V5.17035L20.6714 13.8442C20.9785 14.1513 21.3821 14.305 21.7855 14.305Z" fill="url(#paint29_linear_1341_2057)"/>
<path d="M20.7121 16.4687L12.3827 8.13936C11.7581 7.51476 10.7454 7.51476 10.1208 8.13936C9.49619 8.76396 9.49619 9.77671 10.1208 10.4013L21.7854 22.0661L33.4501 10.4014C34.0747 9.77681 34.0747 8.76406 33.4501 8.13946C32.8256 7.51487 31.8128 7.51487 31.1882 8.13946L22.8588 16.4688C22.2659 17.0616 21.3049 17.0616 20.7121 16.4687Z" fill="url(#paint30_linear_1341_2057)"/>
<path d="M10.1208 8.15834L20.5573 18.5949C21.2356 19.2732 22.3355 19.2732 23.0138 18.5949L33.4502 8.15834C33.4533 8.15528 33.4557 8.15192 33.4588 8.14886C33.4558 8.1458 33.4533 8.14243 33.4502 8.13938C32.8256 7.51478 31.8129 7.51478 31.1883 8.13938L22.8589 16.4687C22.2661 17.0615 21.305 17.0615 20.7122 16.4687L12.3828 8.13938C11.7582 7.51478 10.7455 7.51478 10.1209 8.13938C10.1178 8.14243 10.1154 8.1458 10.1123 8.14886C10.1153 8.15192 10.1177 8.15528 10.1208 8.15834Z" fill="url(#paint31_linear_1341_2057)"/>
<path d="M21.7857 22.0674L30.0198 13.8333H25.4958L22.859 16.4701C22.2662 17.0629 21.3051 17.0629 20.7123 16.4701L18.0756 13.8333H13.5516L21.7857 22.0674Z" fill="url(#paint32_linear_1341_2057)"/>
<path d="M20.7661 21.048L21.7856 22.0675L32.2288 11.6244H27.7048L22.8591 16.4701C22.2835 17.0457 21.3619 17.0607 20.7661 16.5188V21.048Z" fill="url(#paint33_linear_1341_2057)"/>
<path d="M21.7858 23.1939C23.8973 23.1939 25.609 21.4822 25.609 19.3707C25.609 17.2592 23.8973 15.5474 21.7858 15.5474C19.6743 15.5474 17.9626 17.2592 17.9626 19.3707C17.9626 21.4822 19.6743 23.1939 21.7858 23.1939Z" fill="url(#paint34_linear_1341_2057)"/>
<path d="M21.7858 21.5643C22.9964 21.5643 23.9777 20.5829 23.9777 19.3724C23.9777 18.1618 22.9964 17.1805 21.7858 17.1805C20.5753 17.1805 19.5939 18.1618 19.5939 19.3724C19.5939 20.5829 20.5753 21.5643 21.7858 21.5643Z" fill="url(#paint35_linear_1341_2057)"/>
<path d="M33.0522 3.8064H10.5191C9.87162 3.8064 9.34674 3.28152 9.34674 2.63409V1.17232C9.34674 0.524881 9.87162 0 10.5191 0H33.0523C33.6997 0 34.2245 0.524881 34.2245 1.17232V2.63419C34.2245 3.28163 33.6997 3.8064 33.0522 3.8064Z" fill="url(#paint36_linear_1341_2057)"/>
<defs>
<linearGradient id="paint0_linear_1341_2057" x1="5.19309" y1="36.2363" x2="7.03706" y2="41.0402" gradientUnits="userSpaceOnUse">
<stop stop-color="#E6E6E6"/>
<stop offset="1" stop-color="#999999"/>
</linearGradient>
<linearGradient id="paint1_linear_1341_2057" x1="4.23793" y1="38.7463" x2="8.27034" y2="42.0975" gradientUnits="userSpaceOnUse">
<stop stop-color="#766E6E" stop-opacity="0"/>
<stop offset="0.2806" stop-color="#716B6B" stop-opacity="0.281"/>
<stop offset="0.5705" stop-color="#656060" stop-opacity="0.571"/>
<stop offset="0.8636" stop-color="#514F4F" stop-opacity="0.864"/>
<stop offset="1" stop-color="#444444"/>
</linearGradient>
<linearGradient id="paint2_linear_1341_2057" x1="3.11512" y1="32.0052" x2="6.97888" y2="36.8748" gradientUnits="userSpaceOnUse">
<stop stop-color="#E6E6E6"/>
<stop offset="1" stop-color="#999999"/>
</linearGradient>
<linearGradient id="paint3_linear_1341_2057" x1="4.06582" y1="36.5518" x2="7.73749" y2="37.4692" gradientUnits="userSpaceOnUse">
<stop stop-color="#766E6E" stop-opacity="0"/>
<stop offset="0.2806" stop-color="#716B6B" stop-opacity="0.281"/>
<stop offset="0.5705" stop-color="#656060" stop-opacity="0.571"/>
<stop offset="0.8636" stop-color="#514F4F" stop-opacity="0.864"/>
<stop offset="1" stop-color="#444444"/>
</linearGradient>
<linearGradient id="paint4_linear_1341_2057" x1="8.19688" y1="25.8427" x2="8.59765" y2="34.0989" gradientUnits="userSpaceOnUse">
<stop stop-color="#E6E6E6"/>
<stop offset="1" stop-color="#999999"/>
</linearGradient>
<linearGradient id="paint5_linear_1341_2057" x1="7.58062" y1="30.1172" x2="9.98141" y2="33.6644" gradientUnits="userSpaceOnUse">
<stop stop-color="#766E6E" stop-opacity="0"/>
<stop offset="0.2806" stop-color="#716B6B" stop-opacity="0.281"/>
<stop offset="0.5705" stop-color="#656060" stop-opacity="0.571"/>
<stop offset="0.8636" stop-color="#514F4F" stop-opacity="0.864"/>
<stop offset="1" stop-color="#444444"/>
</linearGradient>
<linearGradient id="paint6_linear_1341_2057" x1="38.3826" y1="36.2326" x2="36.5386" y2="41.0366" gradientUnits="userSpaceOnUse">
<stop stop-color="#E6E6E6"/>
<stop offset="1" stop-color="#999999"/>
</linearGradient>
<linearGradient id="paint7_linear_1341_2057" x1="39.3378" y1="38.7425" x2="35.3054" y2="42.0937" gradientUnits="userSpaceOnUse">
<stop stop-color="#766E6E" stop-opacity="0"/>
<stop offset="0.2806" stop-color="#716B6B" stop-opacity="0.281"/>
<stop offset="0.5705" stop-color="#656060" stop-opacity="0.571"/>
<stop offset="0.8636" stop-color="#514F4F" stop-opacity="0.864"/>
<stop offset="1" stop-color="#444444"/>
</linearGradient>
<linearGradient id="paint8_linear_1341_2057" x1="40.4605" y1="32.0015" x2="36.5967" y2="36.8712" gradientUnits="userSpaceOnUse">
<stop stop-color="#E6E6E6"/>
<stop offset="1" stop-color="#999999"/>
</linearGradient>
<linearGradient id="paint9_linear_1341_2057" x1="39.5097" y1="36.5481" x2="35.8381" y2="37.4656" gradientUnits="userSpaceOnUse">
<stop stop-color="#766E6E" stop-opacity="0"/>
<stop offset="0.2806" stop-color="#716B6B" stop-opacity="0.281"/>
<stop offset="0.5705" stop-color="#656060" stop-opacity="0.571"/>
<stop offset="0.8636" stop-color="#514F4F" stop-opacity="0.864"/>
<stop offset="1" stop-color="#444444"/>
</linearGradient>
<linearGradient id="paint10_linear_1341_2057" x1="35.379" y1="25.8389" x2="34.9782" y2="34.0953" gradientUnits="userSpaceOnUse">
<stop stop-color="#E6E6E6"/>
<stop offset="1" stop-color="#999999"/>
</linearGradient>
<linearGradient id="paint11_linear_1341_2057" x1="35.9951" y1="30.1135" x2="33.5944" y2="33.6607" gradientUnits="userSpaceOnUse">
<stop stop-color="#766E6E" stop-opacity="0"/>
<stop offset="0.2806" stop-color="#716B6B" stop-opacity="0.281"/>
<stop offset="0.5705" stop-color="#656060" stop-opacity="0.571"/>
<stop offset="0.8636" stop-color="#514F4F" stop-opacity="0.864"/>
<stop offset="1" stop-color="#444444"/>
</linearGradient>
<linearGradient id="paint12_linear_1341_2057" x1="11.7892" y1="25.7897" x2="28.8893" y2="42.8898" gradientUnits="userSpaceOnUse">
<stop stop-color="#E6E6E6"/>
<stop offset="1" stop-color="#999999"/>
</linearGradient>
<linearGradient id="paint13_linear_1341_2057" x1="30.1793" y1="44.1767" x2="13.1468" y2="27.1442" gradientUnits="userSpaceOnUse">
<stop stop-color="#E6E6E6"/>
<stop offset="1" stop-color="#999999"/>
</linearGradient>
<linearGradient id="paint14_linear_1341_2057" x1="13.7196" y1="27.7171" x2="26.9963" y2="40.9938" gradientUnits="userSpaceOnUse">
<stop stop-color="#E6E6E6"/>
<stop offset="1" stop-color="#999999"/>
</linearGradient>
<linearGradient id="paint15_linear_1341_2057" x1="21.7858" y1="40.5298" x2="21.7858" y2="51.1722" gradientUnits="userSpaceOnUse">
<stop stop-color="#766E6E" stop-opacity="0"/>
<stop offset="0.2806" stop-color="#716B6B" stop-opacity="0.281"/>
<stop offset="0.5705" stop-color="#656060" stop-opacity="0.571"/>
<stop offset="0.8636" stop-color="#514F4F" stop-opacity="0.864"/>
<stop offset="1" stop-color="#444444"/>
</linearGradient>
<linearGradient id="paint16_linear_1341_2057" x1="31.4966" y1="44.2114" x2="18.106" y2="35.7828" gradientUnits="userSpaceOnUse">
<stop stop-color="#766E6E" stop-opacity="0"/>
<stop offset="0.2806" stop-color="#716B6B" stop-opacity="0.281"/>
<stop offset="0.5705" stop-color="#656060" stop-opacity="0.571"/>
<stop offset="0.8636" stop-color="#514F4F" stop-opacity="0.864"/>
<stop offset="1" stop-color="#444444"/>
</linearGradient>
<linearGradient id="paint17_linear_1341_2057" x1="18.4082" y1="32.7039" x2="24.4988" y2="38.7944" gradientUnits="userSpaceOnUse">
<stop stop-color="#F9F5F3"/>
<stop offset="1" stop-color="#D8E8F0"/>
</linearGradient>
<linearGradient id="paint18_linear_1341_2057" x1="25.4349" y1="34.3645" x2="17.0169" y2="37.8445" gradientUnits="userSpaceOnUse">
<stop stop-color="#678D98" stop-opacity="0"/>
<stop offset="0.9957" stop-color="#678D98" stop-opacity="0.996"/>
<stop offset="1" stop-color="#678D98"/>
</linearGradient>
<linearGradient id="paint19_linear_1341_2057" x1="23.2369" y1="37.3513" x2="18.6282" y2="35.3761" gradientUnits="userSpaceOnUse">
<stop stop-color="#678D98" stop-opacity="0"/>
<stop offset="0.9957" stop-color="#678D98" stop-opacity="0.996"/>
<stop offset="1" stop-color="#678D98"/>
</linearGradient>
<linearGradient id="paint20_linear_1341_2057" x1="20.3342" y1="37.3513" x2="24.9429" y2="35.3761" gradientUnits="userSpaceOnUse">
<stop stop-color="#678D98" stop-opacity="0"/>
<stop offset="0.9957" stop-color="#678D98" stop-opacity="0.996"/>
<stop offset="1" stop-color="#678D98"/>
</linearGradient>
<linearGradient id="paint21_linear_1341_2057" x1="20.4366" y1="37.5825" x2="23.3994" y2="32.8209" gradientUnits="userSpaceOnUse">
<stop stop-color="#678D98" stop-opacity="0"/>
<stop offset="0.9957" stop-color="#678D98" stop-opacity="0.996"/>
<stop offset="1" stop-color="#678D98"/>
</linearGradient>
<linearGradient id="paint22_linear_1341_2057" x1="22.9076" y1="36.9811" x2="22.6607" y2="32.3254" gradientUnits="userSpaceOnUse">
<stop stop-color="#678D98" stop-opacity="0"/>
<stop offset="0.9957" stop-color="#678D98" stop-opacity="0.996"/>
<stop offset="1" stop-color="#678D98"/>
</linearGradient>
<linearGradient id="paint23_linear_1341_2057" x1="29.7757" y1="28.9363" x2="23.5223" y2="17.9929" gradientUnits="userSpaceOnUse">
<stop stop-color="#766E6E" stop-opacity="0"/>
<stop offset="0.2806" stop-color="#716B6B" stop-opacity="0.281"/>
<stop offset="0.5705" stop-color="#656060" stop-opacity="0.571"/>
<stop offset="0.8636" stop-color="#514F4F" stop-opacity="0.864"/>
<stop offset="1" stop-color="#444444"/>
</linearGradient>
<linearGradient id="paint24_linear_1341_2057" x1="22.5107" y1="5.7768" x2="26.538" y2="12.2002" gradientUnits="userSpaceOnUse">
<stop stop-color="#F9F5F3"/>
<stop offset="1" stop-color="#D8E8F0"/>
</linearGradient>
<linearGradient id="paint25_linear_1341_2057" x1="18.4936" y1="-2.10441" x2="31.0005" y2="12.2376" gradientUnits="userSpaceOnUse">
<stop stop-color="#B3DAFE"/>
<stop offset="1" stop-color="#0182FC"/>
</linearGradient>
<linearGradient id="paint26_linear_1341_2057" x1="21.7855" y1="6.77819" x2="21.7855" y2="3.41011" gradientUnits="userSpaceOnUse">
<stop stop-color="#0182FC" stop-opacity="0"/>
<stop offset="0.1261" stop-color="#017FF3" stop-opacity="0.126"/>
<stop offset="0.3306" stop-color="#0176DB" stop-opacity="0.331"/>
<stop offset="0.5881" stop-color="#0268B4" stop-opacity="0.588"/>
<stop offset="0.8857" stop-color="#02547E" stop-opacity="0.886"/>
<stop offset="1" stop-color="#024C67"/>
</linearGradient>
<linearGradient id="paint27_linear_1341_2057" x1="15.8368" y1="0.216814" x2="28.3436" y2="14.5589" gradientUnits="userSpaceOnUse">
<stop stop-color="#B3DAFE"/>
<stop offset="1" stop-color="#0182FC"/>
</linearGradient>
<linearGradient id="paint28_linear_1341_2057" x1="25.6594" y1="10.9123" x2="27.3999" y2="12.6528" gradientUnits="userSpaceOnUse">
<stop stop-color="#0182FC" stop-opacity="0"/>
<stop offset="0.1261" stop-color="#017FF3" stop-opacity="0.126"/>
<stop offset="0.3306" stop-color="#0176DB" stop-opacity="0.331"/>
<stop offset="0.5881" stop-color="#0268B4" stop-opacity="0.588"/>
<stop offset="0.8857" stop-color="#02547E" stop-opacity="0.886"/>
<stop offset="1" stop-color="#024C67"/>
</linearGradient>
<linearGradient id="paint29_linear_1341_2057" x1="17.9116" y1="10.9123" x2="16.1712" y2="12.6528" gradientUnits="userSpaceOnUse">
<stop stop-color="#0182FC" stop-opacity="0"/>
<stop offset="0.1261" stop-color="#017FF3" stop-opacity="0.126"/>
<stop offset="0.3306" stop-color="#0176DB" stop-opacity="0.331"/>
<stop offset="0.5881" stop-color="#0268B4" stop-opacity="0.588"/>
<stop offset="0.8857" stop-color="#02547E" stop-opacity="0.886"/>
<stop offset="1" stop-color="#024C67"/>
</linearGradient>
<linearGradient id="paint30_linear_1341_2057" x1="30.6238" y1="18.1087" x2="9.71622" y2="-2.79881" gradientUnits="userSpaceOnUse">
<stop stop-color="#E6E6E6"/>
<stop offset="1" stop-color="#999999"/>
</linearGradient>
<linearGradient id="paint31_linear_1341_2057" x1="21.7855" y1="8.32637" x2="21.7855" y2="22.6045" gradientUnits="userSpaceOnUse">
<stop stop-color="#E6E6E6"/>
<stop offset="1" stop-color="#999999"/>
</linearGradient>
<linearGradient id="paint32_linear_1341_2057" x1="21.7857" y1="16.6202" x2="21.7857" y2="21.3147" gradientUnits="userSpaceOnUse">
<stop stop-color="#766E6E" stop-opacity="0"/>
<stop offset="0.2806" stop-color="#716B6B" stop-opacity="0.281"/>
<stop offset="0.5705" stop-color="#656060" stop-opacity="0.571"/>
<stop offset="0.8636" stop-color="#514F4F" stop-opacity="0.864"/>
<stop offset="1" stop-color="#444444"/>
</linearGradient>
<linearGradient id="paint33_linear_1341_2057" x1="26.6049" y1="13.9622" x2="23.7501" y2="16.868" gradientUnits="userSpaceOnUse">
<stop stop-color="#766E6E" stop-opacity="0"/>
<stop offset="0.2806" stop-color="#716B6B" stop-opacity="0.281"/>
<stop offset="0.5705" stop-color="#656060" stop-opacity="0.571"/>
<stop offset="0.8636" stop-color="#514F4F" stop-opacity="0.864"/>
<stop offset="1" stop-color="#444444"/>
</linearGradient>
<linearGradient id="paint34_linear_1341_2057" x1="19.5937" y1="17.1786" x2="25.0006" y2="22.5854" gradientUnits="userSpaceOnUse">
<stop stop-color="#F9F5F3"/>
<stop offset="1" stop-color="#D8E8F0"/>
</linearGradient>
<linearGradient id="paint35_linear_1341_2057" x1="23.3407" y1="20.9272" x2="20.6642" y2="18.2507" gradientUnits="userSpaceOnUse">
<stop stop-color="#F9F5F3"/>
<stop offset="1" stop-color="#D8E8F0"/>
</linearGradient>
<linearGradient id="paint36_linear_1341_2057" x1="21.7856" y1="1.15549" x2="21.7856" y2="3.2801" gradientUnits="userSpaceOnUse">
<stop stop-color="#E6E6E6"/>
<stop offset="1" stop-color="#999999"/>
</linearGradient>
</defs>
</svg>
