<svg width="69" height="52" viewBox="0 0 69 52" fill="none" xmlns="http://www.w3.org/2000/svg">
<path d="M65.0059 42.0066H65.0019V37.4579C65.0019 34.4749 62.5947 32.0438 59.6208 32.0055L57.0262 26.8175C55.5422 23.8481 52.558 22.0034 49.2381 22.0034H42.9985V18.8989C42.9985 15.0959 39.9045 12.0019 36.1014 12.0019H33.9972V8.96528C36.244 8.71745 37.9978 6.80834 37.9978 4.49665C37.9978 2.01709 35.9805 0 33.5011 0H21.9994C21.4492 0 21.0033 0.445866 21.0033 0.996127C21.0033 1.54639 21.4492 1.99226 21.9994 1.99226H33.5011C34.882 1.99226 36.0055 3.11576 36.0055 4.49665C36.0055 5.87742 34.882 7.00092 33.5011 7.00092H12.498C11.1171 7.00092 9.99355 5.87742 9.99355 4.49665C9.99355 3.11576 11.1171 1.99226 12.498 1.99226H17.332C17.8822 1.99226 18.3281 1.54639 18.3281 0.996127C18.3281 0.445866 17.8822 0 17.332 0H12.498C10.0184 0 8.0013 2.01723 8.0013 4.49665C8.0013 6.80834 9.75501 8.71745 12.0019 8.96528V12.0019H9.89753C6.09444 12.0019 3.00047 15.0959 3.00047 18.8989V42.0065H2.99649C1.34424 42.0066 0 43.3508 0 45.0029C0 46.655 1.34424 47.9994 2.99649 47.9994H7.6759C8.82211 50.4185 11.2788 52 13.9981 52C16.7845 52 19.1951 50.3624 20.3198 47.9994H39.9795C40.5298 47.9994 40.9757 47.5536 40.9757 47.0033C40.9757 46.453 40.5298 46.0072 39.9795 46.0072H20.9221C21.0187 45.3388 21.0206 44.6805 20.9221 43.9988H47.0803C46.9838 44.6672 46.9819 45.3255 47.0803 46.0072H44.6469C44.0966 46.0072 43.6507 46.453 43.6507 47.0033C43.6507 47.5536 44.0966 47.9994 44.6469 47.9994H47.6827C48.8072 50.3624 51.2178 52 54.0043 52C56.7908 52 59.2013 50.3624 60.3259 47.9994H65.006C66.6581 47.9994 68.0025 46.6552 68.0025 45.0029C68.0025 43.3507 66.6581 42.0066 65.0059 42.0066ZM55.2442 27.7083L57.393 32.0049H50.381C49.0677 32.0049 47.9992 30.9364 47.9992 29.6231V23.9957H49.2381C51.7984 23.9957 54.0997 25.4181 55.2442 27.7083ZM13.994 8.99331H32.0049V12.0019H13.994V8.99331ZM9.89753 13.9941H36.1015C38.806 13.9941 41.0063 16.1944 41.0063 18.8989V32.0049H31.9988C32.0005 31.2481 31.9873 30.2061 31.9951 27.3145C33.1978 26.5444 33.9972 25.1974 33.9972 23.6664V21.9954H34.0012C35.6533 21.9954 36.9977 20.6512 36.9977 18.9989C36.9977 17.3467 35.6533 16.0026 34.0012 16.0026H11.9978C10.3455 16.0026 9.00128 17.3468 9.00128 18.9991C9.00128 20.6513 10.3454 21.9956 11.9978 21.9956H12.0017V23.6665C12.0017 25.1594 12.7694 26.5285 14.0021 27.3157V32.0051H4.99273V18.8991C4.99273 16.1945 7.19297 13.9941 9.89753 13.9941ZM29.6672 26.004C28.3782 26.004 27.3294 24.9553 27.3294 23.6663V21.9953H32.0048V23.6663C32.0049 24.9554 30.9562 26.004 29.6672 26.004ZM20.6617 21.9954H25.3371V23.6664C25.3371 24.9554 24.2884 26.0041 22.9994 26.0041C21.7104 26.0041 20.6616 24.9554 20.6616 23.6664V21.9954H20.6617ZM11.9978 20.0032C11.444 20.0032 10.9935 19.5527 10.9935 18.9989C10.9935 18.4452 11.444 17.9947 11.9978 17.9947H34.0012C34.5549 17.9947 35.0054 18.4452 35.0054 18.9989C35.0054 19.5527 34.5549 20.0032 34.0012 20.0032H11.9978ZM13.994 21.9954H18.6694V23.6664C18.6694 24.4688 18.2845 25.1805 17.6133 25.6193C16.037 26.65 13.994 25.5035 13.994 23.6664V21.9954ZM15.9944 32.3343V27.9838C17.4313 28.0957 18.788 27.4845 19.6665 26.427C21.3999 28.516 24.5945 28.523 26.3334 26.4261C27.2096 27.4828 28.5518 28.0935 30.0014 27.9822C29.9938 32.4366 30.0376 32.4002 29.9595 32.822C29.7283 34.0871 28.6238 35.0054 27.3336 35.0054H18.6656C17.1925 35.0054 15.9944 33.8071 15.9944 32.3343ZM1.99226 45.0029C1.99226 44.4492 2.44277 43.9987 2.99649 43.9987H7.07357C6.97688 44.6645 6.97688 45.3416 7.07344 46.007H2.99649C2.44277 46.0072 1.99226 45.5566 1.99226 45.0029ZM13.9981 50.0077C11.88 50.0077 9.98359 48.6671 9.27847 46.6691C8.12535 43.4308 10.5486 39.998 13.9981 39.998C16.7578 39.998 19.0031 42.2431 19.0031 45.0029C19.0029 47.7626 16.7578 50.0077 13.9981 50.0077ZM13.9981 38.0059C11.2782 38.0059 8.82078 39.5884 7.67563 42.0066H4.99273V33.9972H14.3097C14.981 35.7496 16.6798 36.9977 18.6656 36.9977H27.3336C29.2988 36.9977 31.0169 35.7759 31.6919 33.9972H41.0063V42.0066H20.3197C19.1951 39.6435 16.7845 38.0059 13.9981 38.0059ZM42.9985 42.0066V23.9957H46.0069V29.6231C46.0069 32.0349 47.969 33.9972 50.381 33.9972H59.005H59.5492C61.4572 33.9972 63.0097 35.5495 63.0097 37.4579V42.0066H60.3259C59.2013 39.6435 56.7908 38.0059 54.0043 38.0059C51.2178 38.0059 48.8074 39.6435 47.6827 42.0066H42.9985ZM54.0042 50.0077C51.2445 50.0077 48.9993 47.7626 48.9993 45.0029C48.9993 42.2433 51.2444 39.998 54.0042 39.998C56.7638 39.998 59.009 42.2431 59.009 45.0029C59.009 47.7626 56.7639 50.0077 54.0042 50.0077ZM65.0059 46.0072H60.9281C61.0247 45.3388 61.0265 44.6805 60.9281 43.9988H65.0059C65.5596 43.9988 66.0101 44.4494 66.0101 45.0031C66.0101 45.5568 65.5596 46.0072 65.0059 46.0072Z" fill="#6990FF"/>
<path d="M13.9982 42.0066C12.3461 42.0066 11.0017 43.3508 11.0017 45.0031C11.0017 46.6553 12.346 47.9996 13.9982 47.9996C15.6504 47.9996 16.9947 46.6553 16.9947 45.0031C16.9947 43.3508 15.6503 42.0066 13.9982 42.0066ZM13.9982 46.0072C13.4445 46.0072 12.994 45.5567 12.994 45.0029C12.994 44.4492 13.4445 43.9987 13.9982 43.9987C14.5519 43.9987 15.0024 44.4492 15.0024 45.0029C15.0024 45.5567 14.5518 46.0072 13.9982 46.0072Z" fill="#6990FF"/>
<path d="M54.0041 42.0066C52.3519 42.0066 51.0076 43.3508 51.0076 45.0031C51.0076 46.6553 52.3518 47.9996 54.0041 47.9996C55.6563 47.9996 57.0005 46.6553 57.0005 45.0031C57.0005 43.3508 55.6563 42.0066 54.0041 42.0066ZM54.0041 46.0072C53.4503 46.0072 52.9998 45.5567 52.9998 45.0029C52.9998 44.4492 53.4503 43.9987 54.0041 43.9987C54.5578 43.9987 55.0083 44.4492 55.0083 45.0029C55.0083 45.5567 54.5578 46.0072 54.0041 46.0072Z" fill="#6990FF"/>
<path d="M48.0032 35.0056H47.0031C46.4528 35.0056 46.007 35.4515 46.007 36.0017C46.007 36.552 46.4528 36.9979 47.0031 36.9979H48.0032C48.5535 36.9979 48.9993 36.552 48.9993 36.0017C48.9993 35.4515 48.5533 35.0056 48.0032 35.0056Z" fill="#6990FF"/>
</svg>
