<svg width="52" height="52" viewBox="0 0 52 52" fill="none" xmlns="http://www.w3.org/2000/svg">
<path d="M50.6828 46.4673C49.8794 45.5252 48.6952 44.9933 47.4648 44.9574C45.4493 44.7967 44.2673 42.4506 45.3624 40.7352L50.6504 32.4515C52.0031 30.3329 51.1678 27.54 49.0049 26.3608C49.3492 25.8203 49.5742 25.4561 49.649 25.314C50.576 23.5537 49.8796 21.3125 48.119 20.3865C46.3385 19.4498 44.1269 20.1358 43.1897 21.9156C43.1283 22.0322 42.9979 22.317 42.8109 22.7405L41.291 21.8734C40.2576 21.2887 39.7989 20.0061 40.4064 18.9315C40.8882 18.0789 39.5698 17.3336 39.0877 18.186C38.0958 19.9407 38.7776 22.2538 40.5508 23.1952L42.2033 24.138C41.3093 26.2152 39.9249 29.4936 38.4286 33.0561C37.3697 31.1518 36.2967 29.2522 35.8182 27.1047C34.6 21.6379 37.3809 16.4776 40.2619 12.1507C41.0478 10.9703 41.2132 9.87136 40.7533 8.88435C39.663 6.54445 35.3242 5.77526 31.6661 5.36647C29.528 5.12754 29.4359 3.72235 29.4359 1.93575C29.4359 -0.650448 22.2661 -0.640046 22.2661 1.93575C22.2661 3.64995 22.2371 5.12472 20.1341 5.35244C16.3258 5.76384 11.8187 6.53526 10.7595 8.86889C10.4724 9.50146 10.3243 10.533 11.2498 11.8543C13.0231 14.3859 14.2764 16.6685 15.0813 18.8323C15.5113 19.988 15.8123 21.1175 15.9879 22.217L14.7041 22.2453C14.6943 22.2455 14.6845 22.2459 14.6746 22.2465C8.8339 22.6029 4.64095 24.2852 2.21219 27.2469C0.457798 29.3861 -0.290291 32.1944 0.10183 35.1597V45.8825C0.10183 47.2616 1.02573 48.7868 2.57321 49.962C4.30336 51.2762 6.63831 52 9.14776 52C14.6338 52 19.6572 47.5471 19.8684 47.3576C20.0284 47.2139 20.1199 47.0091 20.1199 46.794V46.7748H23.4181V51.1808C23.4181 52.1601 24.9328 52.1601 24.9328 51.1808V46.7748H26.7689V51.1808C26.7689 52.1601 28.2837 52.1601 28.2837 51.1808V46.7748H32.6918C31.7311 49.0798 31.0726 50.6627 30.9655 50.9201C30.6278 51.732 31.8107 52.3567 32.2949 51.6312C32.4761 51.3596 33.749 49.4513 35.5305 46.7748H39.4794C40.6386 46.7748 41.5816 45.828 41.5816 44.6641C41.5816 42.49 41.348 40.5484 40.8684 38.7413C43.6858 34.4923 46.5181 30.2041 48.1836 27.6359C49.5901 28.471 50.345 30.1144 49.3735 31.6364L44.0854 39.92C42.3812 42.5896 44.201 46.2167 47.3442 46.4673C49.0937 46.5265 50.1766 47.835 50.1766 49.5136V51.2109C50.1766 52.1902 51.6913 52.1902 51.6913 51.2109V49.5424C51.7731 48.4175 51.4156 47.3266 50.6828 46.4673ZM2.12888 30.3155V32.8117C2.12888 33.7909 3.64364 33.7909 3.64364 32.8117V27.9064C4.11422 27.3836 4.6557 26.9086 5.26776 26.4821V27.7636C5.26776 28.7428 6.78252 28.7428 6.78252 27.7636V25.5946C7.37024 25.3058 8.00503 25.0498 8.68546 24.8264V29.1816C8.68546 30.1608 10.2002 30.1608 10.2002 29.1816V24.4004C10.7907 24.2601 11.4105 24.1411 12.0581 24.0421V25.7461C12.0581 26.7254 13.5729 26.7254 13.5729 25.7461V23.8537C14.4342 23.7695 15.2865 23.7476 16.1504 23.7286C16.3353 27.1922 14.923 30.0906 13.2871 33.0306C7.95423 33.5393 4.55815 35.7094 3.28918 37.8289C2.1822 36.9186 1.61659 35.8639 1.61659 35.113C1.61659 35.109 1.61608 35.1053 1.61598 35.1014C1.61578 35.0881 1.61487 35.0748 1.61396 35.0615C1.61305 35.0481 1.61214 35.0348 1.61053 35.0217C1.61002 35.0179 1.61002 35.014 1.60952 35.0102C1.43401 33.7285 1.43643 32.0277 2.12888 30.3155ZM9.14776 39.7158C7.27219 39.7158 5.73673 39.2842 4.55219 38.6613C5.00399 37.8577 5.89628 37.0458 7.08931 36.3692C8.15236 35.7663 9.89191 35.0246 12.4149 34.6589C11.7063 36.061 11.0611 37.6156 10.6339 39.5662C10.143 39.6619 9.64601 39.7158 9.14776 39.7158ZM1.61659 45.8826V38.3411C2.10394 38.8524 2.66702 39.297 3.26767 39.6683V41.7729C3.26767 42.7521 4.78243 42.7521 4.78243 41.7729V40.4265C5.38288 40.6655 6.01898 40.852 6.68012 40.9858V45.5452C6.68012 46.5245 8.19488 46.5245 8.19488 45.5452V41.1951C8.82613 41.2421 9.46232 41.2452 10.0926 41.178V42.8415C10.0926 43.8207 11.6073 43.8207 11.6073 42.8415V40.8972C12.2844 40.7195 12.9422 40.4794 13.5724 40.1993V49.5035C12.206 50.0718 10.6852 50.4853 9.14776 50.4853C4.20319 50.4853 1.61659 47.4888 1.61659 45.8826ZM18.6051 46.4438C18.0825 46.8749 16.7861 47.8844 15.0871 48.7866V39.4271C16.5304 38.5979 17.7513 37.6348 18.6051 36.8843V46.4438ZM20.1199 45.26V35.113C20.1199 34.4378 19.2653 34.1038 18.8067 34.5985C18.7697 34.6384 15.8828 37.716 12.3132 39.0786C12.9349 36.7691 13.9027 35.0333 14.8445 33.3484C15.8252 31.5938 16.8394 29.7794 17.3621 27.4339C17.9923 24.6057 17.7026 21.534 16.501 18.304C15.6505 16.0179 14.3387 13.6239 12.4905 10.9852C11.8665 10.0944 12.0714 9.64314 12.1388 9.49479C12.521 8.65279 14.2465 7.51177 20.2968 6.85831C23.215 6.54304 23.7808 4.46459 23.7808 1.93565C23.7808 1.58978 27.9212 1.61452 27.9212 1.93565C27.9212 4.53921 28.5142 6.53768 31.4979 6.87174C32.4896 6.98252 34.3355 7.18883 36.012 7.63487C38.3594 8.25946 39.1394 9.00694 39.3803 9.52408C39.4628 9.7012 39.714 10.2403 39.0009 11.3111C35.9429 15.9039 32.9976 21.4113 34.3397 27.4339C34.9417 30.1352 36.4043 32.431 37.6774 34.8462C36.1468 38.4961 34.5672 42.2781 33.3235 45.2601H20.1199V45.26ZM40.067 44.6641C40.067 44.9927 39.8034 45.26 39.4795 45.26H36.5386C37.5181 43.7877 38.5996 42.1605 39.7094 40.4884C39.9492 41.7819 40.067 43.1615 40.067 44.6641ZM35.3768 44.2715C39.3229 34.8156 44.0801 23.4754 44.5299 22.6212C45.0669 21.6014 46.3944 21.1906 47.414 21.727C48.4237 22.2579 48.8454 23.5892 48.3089 24.6079C48.2415 24.7359 48.0261 25.0833 47.6921 25.6063L46.5511 24.9506L46.8429 24.4167C47.3125 23.5574 45.9834 22.8307 45.5138 23.6901L44.228 26.0422C43.7701 26.8802 45.0929 27.6182 45.5572 26.7688L45.8244 26.28L46.8699 26.8808C44.4387 30.6235 39.4307 38.1763 35.3768 44.2715Z" fill="#6990FF"/>
</svg>
