<svg width="52" height="52" viewBox="0 0 52 52" fill="none" xmlns="http://www.w3.org/2000/svg">
<path d="M50.9844 20.9725H42.6562V18.8228C42.6562 18.2618 42.2014 17.8071 41.6406 17.8071H19.7031C19.1423 17.8071 18.6875 18.2618 18.6875 18.8228C18.6875 19.3837 19.1423 19.8384 19.7031 19.8384H40.625V27.6248C40.625 34.4648 36.9731 40.822 31.0763 44.281H11.5799C5.68313 40.8221 2.03125 34.4648 2.03125 27.6249V19.8385H8.83593C9.39676 19.8385 9.85156 19.3838 9.85156 18.8229C9.85156 18.2619 9.39676 17.8072 8.83593 17.8072H1.01562C0.454797 17.8072 0 18.2619 0 18.8229V27.6249C0 31.4639 1.03187 35.2282 2.98411 38.5106C4.30066 40.7244 6.00894 42.6793 8.00942 44.2811H1.01562C0.454797 44.2811 0 44.7358 0 45.2967C0 48.9929 3.00696 51.9999 6.70312 51.9999H38.3906C42.0868 51.9999 45.0937 48.9929 45.0937 45.2967C45.0937 44.7358 44.6389 44.2811 44.0781 44.2811H34.6468C36.488 42.8068 38.0808 41.0328 39.3494 39.0337H42.2162C47.611 39.0337 52 34.6447 52 29.2499V21.9882C52 21.4272 51.5453 20.9725 50.9844 20.9725ZM42.9513 46.3124C42.4863 48.4017 40.618 49.9686 38.3906 49.9686H6.70312C4.47576 49.9686 2.60751 48.4017 2.14246 46.3124H11.3079H31.3484H42.9513ZM42.6562 27.6249V27.0663H45.9062V29.2499C45.9062 31.2846 44.2509 32.9399 42.2162 32.9399H41.9855C42.4288 31.2128 42.6562 29.4271 42.6562 27.6249ZM49.9687 29.2499C49.9687 33.5246 46.4909 37.0024 42.2162 37.0024H40.4876C40.8119 36.3401 41.1015 35.6621 41.3546 34.9712H42.2162C45.371 34.9712 47.9375 32.4046 47.9375 29.2499V26.0506C47.9375 25.4897 47.4827 25.035 46.9219 25.035H42.6562V23.0038H49.9687V29.2499Z" fill="#6990FF"/>
<path d="M22.298 5.6208L21.7695 4.9573C20.9938 3.98352 20.9927 2.62228 21.7668 1.64707C22.1156 1.20771 22.042 0.568886 21.6027 0.220222C21.1632 -0.128645 20.5245 -0.0550126 20.1757 0.384347C18.8105 2.10441 18.8125 4.50524 20.1807 6.22287L20.7091 6.88637C21.7228 8.15895 21.7243 9.93782 20.7128 11.2123L20.1712 11.8946C19.8225 12.334 19.896 12.9728 20.3354 13.3215C20.5221 13.4697 20.7449 13.5417 20.9661 13.5417C21.2653 13.5417 21.5617 13.41 21.7623 13.1573L22.3039 12.4751C23.9065 10.4558 23.9042 7.63723 22.298 5.6208Z" fill="#6990FF"/>
<path d="M27.9275 7.9045L27.3991 7.24109C26.6233 6.26721 26.6222 4.90597 27.3963 3.93076C27.7451 3.4914 27.6715 2.85258 27.2322 2.50391C26.7927 2.15505 26.154 2.22868 25.8052 2.66804C24.44 4.3881 24.4421 6.78893 25.8102 8.50666L26.3386 9.17017C27.3522 10.4428 27.3538 12.2218 26.3422 13.4962L25.8008 14.1784C25.452 14.6178 25.5255 15.2566 25.9649 15.6053C26.1517 15.7534 26.3744 15.8254 26.5956 15.8254C26.8948 15.8254 27.1914 15.6936 27.3918 15.441L27.9332 14.7588C29.5359 12.7397 29.5336 9.92112 27.9275 7.9045Z" fill="#6990FF"/>
<path d="M16.6686 7.90449L16.1402 7.24109C15.3644 6.2673 15.3633 4.90596 16.1373 3.93076C16.4861 3.4914 16.4125 2.85257 15.9732 2.50381C15.5337 2.15504 14.895 2.22878 14.5462 2.66793C13.1811 4.38799 13.1832 6.78893 14.5513 8.50655L15.0797 9.17006C16.0933 10.4427 16.0949 12.2217 15.0834 13.496L14.5419 14.1782C14.1931 14.6176 14.2665 15.2564 14.7059 15.6052C14.8927 15.7533 15.1153 15.8253 15.3366 15.8253C15.6358 15.8253 15.9323 15.6937 16.1327 15.4411L16.6744 14.7588C18.277 12.7397 18.2747 9.92112 16.6686 7.90449Z" fill="#6990FF"/>
<path d="M15.2628 18.1045C15.0739 17.9156 14.8119 17.8069 14.5448 17.8069C14.2777 17.8069 14.0157 17.9156 13.8268 18.1045C13.6379 18.2944 13.5292 18.5554 13.5292 18.8225C13.5292 19.0896 13.6378 19.3516 13.8268 19.5416C14.0157 19.7305 14.2777 19.8381 14.5448 19.8381C14.8119 19.8381 15.0739 19.7305 15.2628 19.5416C15.4527 19.3516 15.5604 19.0906 15.5604 18.8225C15.5604 18.5554 15.4527 18.2934 15.2628 18.1045Z" fill="#6990FF"/>
<path d="M36.7656 26.6094C36.2048 26.6094 35.75 27.0641 35.75 27.625C35.75 31.3949 34.2209 35.0998 31.5546 37.7897C31.1598 38.188 31.1627 38.8311 31.561 39.226C31.7591 39.4223 32.0176 39.5203 32.276 39.5203C32.5375 39.5202 32.7989 39.4199 32.9974 39.2195C36.0376 36.1523 37.7812 31.9263 37.7812 27.625C37.7812 27.0641 37.3264 26.6094 36.7656 26.6094Z" fill="#6990FF"/>
<path d="M29.8476 40.5461C29.572 40.0575 28.9526 39.885 28.4641 40.1605L28.4409 40.1736C27.9523 40.4492 27.7797 41.0687 28.0553 41.5572C28.2419 41.8881 28.5861 42.074 28.9408 42.074C29.1098 42.074 29.2812 42.0317 29.4389 41.9428L29.462 41.9297C29.9506 41.6541 30.1232 41.0346 29.8476 40.5461Z" fill="#6990FF"/>
</svg>
