<svg width="58" height="52" viewBox="0 0 58 52" fill="none" xmlns="http://www.w3.org/2000/svg">
<path d="M54.2225 35.1013V32.0097C54.2225 29.1266 51.877 26.7812 48.9941 26.7812H28.9702C28.5041 26.7812 28.1262 27.159 28.1262 27.6252C28.1262 28.0914 28.5041 28.4692 28.9702 28.4692H48.9941C50.9464 28.4692 52.5347 30.0574 52.5347 32.0098V35.1014C50.6651 35.4919 49.2565 37.1526 49.2565 39.1362V42.2706H22.291V39.1362C22.291 37.1525 20.8824 35.4919 19.0129 35.1014V32.0098C19.0129 30.0574 20.6013 28.4692 22.5535 28.4692H25.5945C26.0606 28.4692 26.4385 28.0914 26.4385 27.6252C26.4385 27.159 26.0606 26.7812 25.5945 26.7812H22.5535C19.6705 26.7812 17.3251 29.1268 17.3251 32.0097V35.1013C15.4556 35.4918 14.0469 37.1525 14.0469 39.1361V51.1559C14.0469 51.6221 14.4247 51.9999 14.8909 51.9999H40.9213C41.3875 51.9999 41.7653 51.6221 41.7653 51.1559C41.7653 50.6897 41.3875 50.3119 40.9213 50.3119H22.291V43.9583H49.2565V50.3119H44.297C43.8309 50.3119 43.4531 50.6897 43.4531 51.1559C43.4531 51.6221 43.8309 51.9999 44.297 51.9999H56.6568C57.1229 51.9999 57.5007 51.6221 57.5007 51.1559V39.1362C57.5006 37.1525 56.092 35.4919 54.2225 35.1013ZM15.7347 39.1362C15.7347 37.7941 16.8267 36.7021 18.169 36.7021C19.5112 36.7021 20.6032 37.7941 20.6032 39.1362V50.312H15.7347V39.1362ZM55.8128 50.312H50.9443V39.1362C50.9443 37.7941 52.0363 36.7021 53.3785 36.7021C54.7207 36.7021 55.8127 37.7941 55.8127 39.1362V50.312H55.8128Z" fill="#6990FF"/>
<path d="M21.5043 20.7588C21.5455 21.1843 21.9162 21.5204 22.3441 21.5204H49.2033C49.6623 21.5204 50.0473 21.1355 50.0473 20.6764V0.843979C50.0473 0.384873 49.6624 0 49.2033 0H44.297C43.8308 0 43.453 0.377797 43.453 0.843979C43.453 1.31016 43.8308 1.68796 44.297 1.68796H47.1658L45.6034 3.25036H25.9438L24.3814 1.68796H40.9211C41.3872 1.68796 41.765 1.31016 41.765 0.843979C41.765 0.377797 41.3872 0 40.9211 0H22.344C21.8845 0 21.5 0.385434 21.5 0.843979V20.6764C21.5001 20.7036 21.5016 20.7318 21.5043 20.7588V20.7588ZM24.3814 19.8326L25.9438 18.27H45.6033L47.1657 19.8326H24.3814ZM45.1091 16.5821H37.4413L36.0344 15.0195L40.5969 9.95154C40.8682 9.65 41.3506 9.65438 41.6208 9.95446L45.1091 13.7917V16.5821ZM35.17 16.5821H26.4383V15.9665L30.1317 11.864C30.3406 11.632 30.7136 11.6319 30.9224 11.864L35.17 16.5821ZM48.3593 2.88155V18.6389L46.7969 17.0765V4.44395L48.3593 2.88155ZM45.1091 11.2825L42.8726 8.82219C41.9433 7.78999 40.2718 7.78999 39.3425 8.82219L34.8988 13.758L32.1768 10.7346C31.7566 10.2678 31.1553 10.0001 30.5271 10.0001C29.9031 10.0001 29.2948 10.2709 28.8773 10.7346L26.4383 13.4438V4.9382H45.1091V11.2825ZM24.7504 4.44395V17.0766L23.188 18.639V2.88155L24.7504 4.44395Z" fill="#6990FF"/>
<path d="M9.51149 47.271H8.68345V18.0626H10.8512V27.6116C10.8512 28.0778 11.2291 28.4556 11.6952 28.4556C12.1612 28.4556 12.5391 28.0778 12.5391 27.6116V18.0626H14.8355C15.3688 18.0626 15.7771 17.5508 15.6582 17.0305L12.6987 4.08531C12.611 3.70156 12.2696 3.42944 11.876 3.42944H3.80298C3.40934 3.42944 3.06793 3.70156 2.98022 4.08531L0.0207375 17.0305C-0.0981945 17.5508 0.31015 18.0626 0.843491 18.0626H6.99561V47.2709H6.16758C4.0952 47.2709 2.40926 48.9568 2.40926 51.0291V51.1559C2.40926 51.622 2.78717 51.9998 3.25324 51.9998H12.4258C12.8919 51.9998 13.2698 51.622 13.2698 51.1559V51.0291C13.2697 48.9569 11.5838 47.271 9.51149 47.271V47.271ZM4.4758 5.1174H11.2033L13.7769 16.3747H1.90209L4.4758 5.1174ZM4.22513 50.312C4.51747 49.5228 5.27778 48.9588 6.16747 48.9588H9.51137C10.4011 48.9588 11.1614 49.5227 11.4537 50.312H4.22513Z" fill="#6990FF"/>
<path d="M34.8989 10.6259C36.2131 10.6259 37.2821 9.55671 37.2821 8.24262C37.2821 6.92842 36.213 5.85938 34.8989 5.85938C33.5847 5.85938 32.5156 6.92853 32.5156 8.24262C32.5156 9.55671 33.5847 10.6259 34.8989 10.6259ZM34.8989 7.54722C35.2823 7.54722 35.5943 7.85921 35.5943 8.24262C35.5943 8.62603 35.2823 8.93802 34.8989 8.93802C34.5155 8.93802 34.2035 8.62603 34.2035 8.24262C34.2035 7.85909 34.5155 7.54722 34.8989 7.54722Z" fill="#6990FF"/>
</svg>
