<svg width="50" height="52" viewBox="0 0 50 52" fill="none" xmlns="http://www.w3.org/2000/svg">
<path d="M49.8471 12.328C49.8344 12.2941 49.8185 12.2638 49.8024 12.2316C49.762 12.1503 49.7121 12.0766 49.652 12.0084C49.6306 11.9841 49.6128 11.9588 49.5893 11.9366C49.5054 11.8574 49.4117 11.7877 49.3025 11.7391L42.6433 8.77976C43.2176 7.97608 43.6036 7.04323 43.6698 5.95613C43.8283 3.33379 42.0956 1.04508 39.3575 0.261016C37.2308 -0.348359 34.8349 0.128477 32.4309 1.64023C31.6928 2.10495 30.97 2.66462 30.2746 3.28339L25.3825 1.10906C25.1139 0.989727 24.8077 0.988711 24.5375 1.10906L19.6615 3.27609C17.4879 1.36513 14.9703 0 12.4389 0C11.7985 0 11.1668 0.0878516 10.562 0.261016C7.82336 1.04508 6.0907 3.33379 6.25016 5.95664C6.31649 7.04349 6.70249 7.97615 7.2767 8.77976L0.6175 11.7391C0.508447 11.7877 0.414946 11.8574 0.33103 11.9365C0.307417 11.9587 0.28958 11.9842 0.268062 12.0086C0.208076 12.0767 0.15812 12.1503 0.117749 12.2315C0.101689 12.2637 0.0858204 12.294 0.0730615 12.3281C0.0300247 12.4428 0 12.5628 0 12.6897V40.3295C0 40.7403 0.242227 41.113 0.6175 41.2796L24.5375 51.9101C24.5528 51.917 24.5699 51.9142 24.5854 51.9203C24.7063 51.9674 24.8315 52 24.96 52C25.0885 52 25.2137 51.9674 25.3346 51.9203C25.3501 51.9142 25.3672 51.917 25.3825 51.9101L49.3025 41.2796C49.6783 41.113 49.92 40.7403 49.92 40.3295V12.6897C49.92 12.5628 49.89 12.4428 49.8471 12.328ZM23.92 23.9965V49.3599L13.52 44.7378V19.3745L23.92 23.9965ZM24.96 22.1819L15.0763 17.7895L23.2944 14.2193C23.3106 14.2122 23.3205 14.1979 23.3363 14.1901C23.7022 14.2167 24.0709 14.246 24.4344 14.2716C24.4344 14.2716 24.9676 14.3051 24.9783 14.3051C25.0103 14.3051 25.4846 14.2721 25.4846 14.2721C25.8485 14.2464 26.2178 14.2171 26.5842 14.1904C26.5998 14.1981 26.6095 14.2123 26.6256 14.2193L34.8438 17.7896L24.96 22.1819ZM37.4239 16.6429L30.848 13.7862C32.3174 13.6033 33.7866 13.3663 35.2361 13.0025C36.6533 12.6471 39.1665 11.8492 41.0851 10.364L46.3196 12.6897L37.4239 16.6429ZM33.539 3.40082C34.9365 2.52078 36.2538 2.07898 37.4735 2.07898C37.9245 2.07898 38.3622 2.13941 38.7847 2.26078C40.2645 2.6843 41.7077 3.9523 41.5939 5.82969C41.4365 8.40125 37.9458 10.1791 34.7303 10.9855C32.0247 11.6639 29.1779 11.9194 26.39 12.122C27.4188 9.48137 30.1783 5.51637 33.539 3.40082ZM24.96 3.19719L28.685 4.85272C27.136 6.54507 25.8272 8.46727 24.9688 10.2119C24.1269 8.46917 22.8354 6.54507 21.2662 4.83914L24.96 3.19719ZM11.1348 2.26078C11.5532 2.14094 11.992 2.08 12.4389 2.08C16.9249 2.08 22.0426 8.21031 23.5391 12.123C20.7482 11.9199 17.8984 11.665 15.1897 10.9855C11.9747 10.1791 8.48301 8.40125 8.32609 5.83019C8.21234 3.95281 9.65453 2.6843 11.1348 2.26078ZM8.83486 10.3641C10.7533 11.8492 13.2663 12.6471 14.6839 13.0025C16.1334 13.3663 17.6026 13.6034 19.072 13.7862L12.4962 16.6429L3.6009 12.6897L8.83486 10.3641ZM2.08 14.2903L11.44 18.4501V43.8134L2.08 39.6536V14.2903ZM26 23.9965L36.4 19.3745V44.7378L26 49.3599V23.9965ZM38.48 43.8134V18.4501L47.84 14.2903V39.6536L38.48 43.8134Z" fill="#6990FF"/>
</svg>
