<svg width="82" height="52" viewBox="0 0 82 52" fill="none" xmlns="http://www.w3.org/2000/svg">
<path d="M58.6414 21.0484L58.9575 21.613L59.5623 21.383C61.2621 20.7368 63.1044 20.3818 65.0298 20.3818C73.5396 20.3818 80.4641 27.3061 80.4638 35.8158C80.4638 44.3257 73.5394 51.25 65.0296 51.25C57.295 51.25 50.869 45.5287 49.7641 38.0955L49.669 37.4558H49.0222H40.7587H40.7586H40.7586H40.7586H40.7586H40.7585H40.7585H40.7585H40.7584H40.7584H40.7584C40.2263 37.4558 39.7253 37.1974 39.4174 36.7597L26.7358 18.7365L25.9712 17.6499L25.4359 18.866L24.131 21.8307L23.871 22.4214L24.4162 22.7666C28.7428 25.5061 31.6182 30.3324 31.6182 35.8159C31.6182 44.3257 24.6939 51.25 16.1841 51.25C7.67431 51.25 0.75 44.3257 0.75 35.8159C0.75 27.3061 7.6743 20.3817 16.1843 20.3814C17.5904 20.3814 18.9524 20.5716 20.2474 20.9253L20.871 21.0957L21.1315 20.504L27.919 5.08202L28.3821 4.02989H27.2326H22.9512C22.0455 4.02989 21.3113 3.29562 21.3113 2.38995C21.3113 1.48427 22.0455 0.75 22.9512 0.75H30.8955C31.4497 0.75 31.9663 1.02978 32.2689 1.49373L32.269 1.4939C32.5718 1.95785 32.6198 2.54341 32.3965 3.05065L33.083 3.35278L32.3965 3.05066L28.6171 11.6381L28.154 12.6902H29.3035H50.6106H51.3606V11.9402V9.36547V8.61547H50.6106H47.2347C46.329 8.61547 45.5948 7.8812 45.5948 6.97553C45.5948 6.06985 46.329 5.33558 47.2347 5.33558H56.3105C57.2162 5.33558 57.9505 6.06985 57.9505 6.97553C57.9505 7.8812 57.2162 8.61547 56.3105 8.61547H55.3905H54.6405V9.36547V13.7066V13.9023L54.7361 14.073L58.6414 21.0484ZM19.1758 24.9482L19.5496 24.0989L18.6408 23.9115C17.8468 23.7478 17.0251 23.6616 16.1843 23.6616C9.48169 23.6616 4.03005 29.1133 4.03005 35.8159C4.03005 42.5185 9.48169 47.9701 16.1843 47.9701C22.8869 47.9701 28.3385 42.5185 28.3385 35.8159C28.3385 31.7679 26.3478 28.1799 23.3011 25.9716L22.5488 25.4263L22.1745 26.2768L17.6854 36.4767C17.6854 36.4767 17.6854 36.4767 17.6854 36.4767C17.4156 37.0897 16.8153 37.4566 16.1832 37.4566C15.9637 37.4566 15.7401 37.4122 15.5237 37.3169L15.5236 37.3169C14.6947 36.9523 14.3185 35.9847 14.6834 35.1555L19.1758 24.9482ZM58.1556 26.8941L57.702 26.0839L57.0053 26.6978C55.0861 28.3888 53.7016 30.6748 53.1463 33.2689L52.9521 34.1759H53.8797H60.9529H62.2323L61.6073 33.0596L58.1556 26.8941ZM39.9329 31.7926L40.6129 32.759L41.1979 31.7323L46.8556 21.8024L49.5398 17.0914L50.1787 15.9701H48.8882H30.2443H28.7995L29.6309 17.1517L39.9329 31.7926ZM49.0224 34.1761H49.6691L49.7642 33.5364C50.3614 29.5202 52.5124 26.0018 55.5882 23.6157L56.0983 23.22L55.7829 22.6567L53.6368 18.8234L52.9881 17.6648L52.3307 18.8186L44.2194 33.0548L43.5806 34.1761H44.8711H49.0224ZM53.8795 37.4558H52.9519L53.1461 38.3629C54.3201 43.8453 59.1994 47.9701 65.0298 47.9701C71.7324 47.9701 77.1839 42.5185 77.1839 35.8157C77.1839 29.1131 71.7322 23.6615 65.0296 23.6615C63.7833 23.6615 62.5798 23.8508 61.4459 24.2013L60.5599 24.4751L61.0129 25.2842L66.4607 35.0146C66.745 35.5225 66.7388 36.1432 66.4446 36.6451L66.4445 36.6452C66.1503 37.1472 65.6119 37.4558 65.0298 37.4558H53.8795Z" fill="#6990FF" stroke="white" stroke-width="1.5"/>
</svg>
