<svg width="82" height="14" viewBox="0 0 82 14" fill="none" xmlns="http://www.w3.org/2000/svg">
<path fill-rule="evenodd" clip-rule="evenodd" d="M6.41615 0.595999C6.7467 -0.198666 7.87414 -0.198666 8.2047 0.595999L9.7409 4.29042L13.7283 4.60991C14.5871 4.67853 14.9354 5.74989 14.2809 6.31066L11.2432 8.91306L12.1706 12.8037C12.3706 13.6419 11.4594 14.3038 10.7245 13.8552L7.31042 11.77L3.89638 13.8552C3.16148 14.3038 2.25024 13.6412 2.4502 12.8037L3.37767 8.91306L0.339941 6.31066C-0.314533 5.74989 0.0337326 4.67853 0.892591 4.60991L4.87994 4.29042L6.41615 0.596737V0.595999Z" fill="#FFBE17"/>
<path fill-rule="evenodd" clip-rule="evenodd" d="M23.037 0.595999C23.3676 -0.198666 24.495 -0.198666 24.8255 0.595999L26.3618 4.29042L30.3491 4.60991C31.208 4.67853 31.5562 5.74989 30.9018 6.31066L27.864 8.91306L28.7915 12.8037C28.9915 13.6419 28.0802 14.3038 27.3453 13.8552L23.9313 11.77L20.5172 13.8552C19.7823 14.3038 18.8711 13.6412 19.071 12.8037L19.9985 8.91306L16.9608 6.31066C16.3063 5.74989 16.6546 4.67853 17.5134 4.60991L21.5008 4.29042L23.037 0.596737V0.595999Z" fill="#FFBE17"/>
<path fill-rule="evenodd" clip-rule="evenodd" d="M39.6578 0.595999C39.9884 -0.198666 41.1158 -0.198666 41.4464 0.595999L42.9826 4.29042L46.97 4.60991C47.8288 4.67853 48.1771 5.74989 47.5226 6.31066L44.4849 8.91306L45.4123 12.8037C45.6123 13.6419 44.7011 14.3038 43.9662 13.8552L40.5521 11.77L37.1381 13.8552C36.4032 14.3038 35.4919 13.6412 35.6919 12.8037L36.6194 8.91306L33.5816 6.31066C32.9272 5.74989 33.2754 4.67853 34.1343 4.60991L38.1216 4.29042L39.6578 0.596737V0.595999Z" fill="#FFBE17"/>
<path fill-rule="evenodd" clip-rule="evenodd" d="M56.2787 0.595999C56.6093 -0.198666 57.7367 -0.198666 58.0672 0.595999L59.6035 4.29042L63.5908 4.60991C64.4497 4.67853 64.7979 5.74989 64.1435 6.31066L61.1057 8.91306L62.0332 12.8037C62.2332 13.6419 61.3219 14.3038 60.587 13.8552L57.173 11.77L53.7589 13.8552C53.024 14.3038 52.1128 13.6412 52.3127 12.8037L53.2402 8.91306L50.2025 6.31066C49.548 5.74989 49.8963 4.67853 50.7551 4.60991L54.7425 4.29042L56.2787 0.596737V0.595999Z" fill="#FFBE17"/>
<path fill-rule="evenodd" clip-rule="evenodd" d="M72.8995 0.595999C73.2301 -0.198666 74.3575 -0.198666 74.6881 0.595999L76.2243 4.29042L80.2116 4.60991C81.0705 4.67853 81.4188 5.74989 80.7643 6.31066L77.7266 8.91306L78.654 12.8037C78.854 13.6419 77.9428 14.3038 77.2079 13.8552L73.7938 11.77L70.3798 13.8552C69.6449 14.3038 68.7336 13.6412 68.9336 12.8037L69.8611 8.91306L66.8233 6.31066C66.1689 5.74989 66.5171 4.67853 67.376 4.60991L71.3633 4.29042L72.8995 0.596737V0.595999Z" fill="#FFBE17"/>
</svg>
