<svg width="22" height="22" viewBox="0 0 22 22" fill="none" xmlns="http://www.w3.org/2000/svg">
  <path fill-rule="evenodd" clip-rule="evenodd" d="M0 11C0 4.92462 4.92462 0 11 0C17.0754 0 22 4.92462 22 11C22 17.0754 17.0754 22 11 22C4.92462 22 0 17.0754 0 11ZM15.0728 8.95344C15.1405 8.86324 15.1895 8.76042 15.2169 8.65102C15.2443 8.54162 15.2495 8.42785 15.2323 8.3164C15.2151 8.20495 15.1758 8.09806 15.1167 8.00202C15.0575 7.90598 14.9798 7.82272 14.8881 7.75714C14.7963 7.69157 14.6924 7.64499 14.5824 7.62016C14.4724 7.59532 14.3585 7.59272 14.2475 7.61252C14.1365 7.63232 14.0305 7.67411 13.9359 7.73544C13.8413 7.79677 13.7598 7.87639 13.6964 7.96964L10.0455 13.0804L8.21333 11.2482C8.05293 11.0987 7.84078 11.0174 7.62157 11.0212C7.40235 11.0251 7.1932 11.1139 7.03817 11.2689C6.88314 11.424 6.79434 11.6331 6.79047 11.8523C6.7866 12.0715 6.86797 12.2837 7.01744 12.4441L9.5559 14.9826C9.64276 15.0694 9.74747 15.1362 9.86276 15.1785C9.97805 15.2207 10.1012 15.2374 10.2235 15.2273C10.3459 15.2172 10.4646 15.1806 10.5714 15.12C10.6782 15.0595 10.7706 14.9764 10.8421 14.8765L15.0728 8.95344Z" fill="#52C8C4"/>
</svg>