<svg width="32" height="32" viewBox="0 0 32 32" fill="none" xmlns="http://www.w3.org/2000/svg">
<path d="M16 32C24.8366 32 32 24.8366 32 16C32 7.16344 24.8366 0 16 0C7.16344 0 0 7.16344 0 16C0 24.8366 7.16344 32 16 32Z" fill="#55ACEE"/>
<path d="M25.8005 11.4995C25.1149 11.8035 24.3773 12.0092 23.6038 12.101C24.3935 11.6278 24.9996 10.8791 25.2857 9.98557C24.5467 10.4239 23.7279 10.742 22.8571 10.9134C22.1595 10.1704 21.1655 9.70605 20.0648 9.70605C17.9531 9.70605 16.2404 11.4188 16.2404 13.5305C16.2404 13.8303 16.2743 14.122 16.3399 14.4021C13.1615 14.2427 10.3433 12.7202 8.45687 10.4057C8.12773 10.9704 7.93892 11.6278 7.93892 12.3286C7.93892 13.6551 8.61459 14.8262 9.64022 15.5119C9.01361 15.4922 8.4235 15.3202 7.90811 15.033C7.90783 15.0493 7.90783 15.0655 7.90783 15.0815C7.90783 16.9345 9.22666 18.4801 10.9759 18.8312C10.6553 18.9191 10.3168 18.9656 9.96851 18.9656C9.72151 18.9656 9.48222 18.9419 9.24891 18.8974C9.73549 20.4165 11.1476 21.5222 12.8215 21.5533C11.5124 22.5792 9.86355 23.1905 8.07126 23.1905C7.76322 23.1905 7.45804 23.1725 7.15942 23.1368C8.85103 24.2224 10.8618 24.8553 13.0214 24.8553C20.056 24.8553 23.903 19.0277 23.903 13.9734C23.903 13.8077 23.8993 13.6426 23.8919 13.4789C24.6397 12.9398 25.288 12.2664 25.8005 11.4995Z" fill="#F1F2F2"/>
</svg>
